<svg xmlns="http://www.w3.org/2000/svg" width="151.989" height="116.108" viewBox="0 0 151.989 116.108">
  <g id="Group_13595" data-name="Group 13595" transform="translate(-1204.35 -39.427)">
    <path id="Path_40374" data-name="Path 40374" d="M1604.829,95.561a2.65,2.65,0,0,1-1.223.1c-6.437.007-12.873.02-19.31-.014-.858,0-1.286.174-1.123,1.1a4.5,4.5,0,0,1,.006.677c.013.637-.189,1.411.1,1.874.333.529,1.171.152,1.785.219a1.246,1.246,0,0,1,1.26,1.311c.011.263,0,.527,0,.79q0,27.947,0,55.895c0,2.2-.073,2.315-2.258,2.311-.777,0-.934.275-.911.978.048,1.466.01,2.935.016,4.4a1.867,1.867,0,0,1-.3,1.286c-.279-.021-.357-.236-.436-.451a9.621,9.621,0,0,1-.1-2.137q-.005-31.9,0-63.8c0-2.634.029-5.269-.034-7.9.046-.223.084-.455.393-.446.616.557.468,1.3.474,2,.013,1.58.005,1.58,1.622,1.58,6.2,0,12.393-.019,18.59.02.914.006,1.2-.213,1.193-1.165-.047-5.37-.024-10.74-.019-16.11,0-.41.039-.821.061-1.231.433,0,.327.335.327.571,0,5.944.014,11.887,0,17.831A.685.685,0,0,1,1604.829,95.561Z" transform="translate(-292.571 -28.968)" fill="#060707"/>
    <path id="Path_40375" data-name="Path 40375" d="M1226.858,391.9c2.939-6.8,7.721-7.888,14.025-4.323-.2.48-.7.387-1.055.511a8.229,8.229,0,0,0-5.6,5.557c-.991,3.2-3.381,5.266-6.068,7.006a2.908,2.908,0,0,0-1.622,2.5c-.208,3.031-.316,3.024,2.7,3.024,2.665,0,2.395-.226,2.4,2.447,0,1.52-.018,1.541-1.495,1.541-5.458,0-10.916-.019-16.373.019-1.039.007-1.387-.341-1.355-1.375.094-2.981-.417-2.607,2.656-2.624,1.129-.007,2.258,0,3.388-.013.169,0,.4.08.481-.162a.452.452,0,0,0-.161-.493,28.416,28.416,0,0,1-4.718-7.373,9.859,9.859,0,0,0-8.847-5.774,6.711,6.711,0,0,1-.862-.161c.034-.459.4-.478.646-.58a13.221,13.221,0,0,1,7.9-1.082,6.644,6.644,0,0,1,5.115,4.325,20.7,20.7,0,0,1,1.474,10.489c-.067.429-.14.892.532.807.437-.055,1.119.335,1.113-.619a63.393,63.393,0,0,1,.383-8.338.967.967,0,0,0-.46-.946,13.892,13.892,0,0,1-4.807-8.55,36.453,36.453,0,0,0-3.473-10.2,9.488,9.488,0,0,0-3.4-3.875,8.085,8.085,0,0,1,5.979.141,8.857,8.857,0,0,1,4.294,4.151,22.506,22.506,0,0,1,2.3,8.416c.526,4.969,0,9.914-.311,14.866-.09,1.425-.05,2.859-.115,4.286-.043.937.622.621,1.08.668.518.053.924.055.912-.715-.046-2.822-.018-5.645-.026-8.468-.006-2.146.312-4.281.326-6.414.012-1.816-.513-3.629-.651-5.454-.373-4.943.205-9.645,4.024-13.314a12.554,12.554,0,0,1,7.926-3.363c.237-.02.558-.159.7.157.11.246-.137.411-.274.572a21.4,21.4,0,0,0-4.791,11.241,14.169,14.169,0,0,1-5.707,9.261,1.969,1.969,0,0,0-.837,1.576,135.378,135.378,0,0,0-.283,13.99c.023.838.323.974,1.057.959.7-.014,1.112-.061,1.093-.942-.031-1.539.065-3.08.108-4.62a3.67,3.67,0,0,1-.013-1.405,26.375,26.375,0,0,1,6.891-10.318,7.88,7.88,0,0,1,1.6-1.247.451.451,0,0,1,.615.042c.172.206.082.425-.04.625a2.885,2.885,0,0,1-.633.636,25.294,25.294,0,0,0-6.576,8.367,9.913,9.913,0,0,0-.876,3.089,17.641,17.641,0,0,0,4.08-3.265,11.341,11.341,0,0,0,2.6-4.438,7.237,7.237,0,0,1,3.914-4.452c.442-.206.876-.431,1.325-.659a7.117,7.117,0,0,0-8.745.533,11.884,11.884,0,0,0-2.719,3.568.814.814,0,0,1-.532.542C1226.867,392.207,1226.758,392.112,1226.858,391.9Z" transform="translate(0 -254.647)" fill="#242524"/>
    <path id="Path_40376" data-name="Path 40376" d="M1748.674,47.63a9.729,9.729,0,0,1,2.452-5.666,8.439,8.439,0,1,1,8.761,13.863,8.343,8.343,0,0,1-11.028-6.958,7.768,7.768,0,0,0-.177-.761A.346.346,0,0,1,1748.674,47.63Z" transform="translate(-421.28)" fill="#070808"/>
    <path id="Path_40377" data-name="Path 40377" d="M1420.3,146.592l.209.276c-.228.715-.862.9-1.468,1.085a76.381,76.381,0,0,1-27.069,3.193,74.576,74.576,0,0,1-17.255-3.152c-1.527-.462-1.948-1-1.948-2.594q0-28.17,0-56.34c0-2.029-.059-4.058-.091-6.088a.379.379,0,0,1-.131-.234.407.407,0,0,1,.126-.237c.211-2.813.048-5.631.091-8.446.029-1.906.322-2.291,2.165-2.869a54.29,54.29,0,0,1,6.972-1.733c.765-.133.952-.451.945-1.179q-.042-4.4.03-8.793c.011-.681-.246-.8-.846-.791-1.54.034-3.082-.011-4.622.021-.688.015-1.026-.124-.975-.931.1-1.534.083-3.075.116-4.612.584.111.475.6.493.977.044.9.01,1.794.018,2.692,0,.369-.058.761.307,1.02a19.658,19.658,0,0,0,4.379.134c.672.009.754-.505.757-1.026a28.032,28.032,0,0,0-.224-5.17.387.387,0,0,1,.484-.284,2.639,2.639,0,0,1,.879,2.428c.035,2.442.018,4.884.012,7.327-.014,5.185.053,10.37-.042,15.555-.014.722.224,1.049.948,1.04.45-.006.9.006,1.352.008,8.191.021,16.382-.042,24.572.03q.319.009.637,0a4.8,4.8,0,0,1,1.568.086c.223.061.449.163.472.421.029.332-.242.432-.5.511a3.371,3.371,0,0,1-1.007.1q-14.781.011-29.561,0a2.8,2.8,0,0,1-.451-.015c-.425-.07-1.047.031-1.08-.55-.03-.529.574-.463.952-.572.3-.086.788,0,.737-.479-.045-.429-.507-.381-.826-.394a12.4,12.4,0,0,0-2.365.044c-1,.152-1.675.819-1.627,1.568s.649,1.2,1.726,1.271c.375.026.752.015,1.128.015h33.172a12.808,12.808,0,0,0,1.353-.037,1.34,1.34,0,0,0,1.363-1.256,1.385,1.385,0,0,0-1.149-1.471,9.191,9.191,0,0,0-2.468-.152c-.489-.012-.978.044-1.467-.009-.571-.305-.542-.615-.006-.929,1.277-.017,2.556-.006,3.832.04a2.175,2.175,0,0,1,2.338,2.219,2.492,2.492,0,0,1-2.09,2.67,8.063,8.063,0,0,1-1.464.07q-16.874,0-33.749,0a7.082,7.082,0,0,1-1.686-.109,2.507,2.507,0,0,1-2.006-2.63,2.418,2.418,0,0,1,2.321-2.208c.937-.086,1.88-.031,2.82-.04.754-.008,1.088-.353,1.088-1.1q0-1.918,0-3.837c0-.694-.289-.935-.983-.8a53.594,53.594,0,0,0-6.664,1.71,1.851,1.851,0,0,0-1.338,1.763c-.039.451-.031.9-.031,1.354q0,34.481,0,68.962c0,.3,0,.6.008.9.06,1.527.326,1.883,1.8,2.314a78.146,78.146,0,0,0,18.531,3.1,74.8,74.8,0,0,0,24.169-3A19.554,19.554,0,0,1,1420.3,146.592Z" transform="translate(-130.199 -9.344)" fill="#222"/>
    <path id="Path_40378" data-name="Path 40378" d="M1694.085,225.846q.178,2.907.358,5.81c.381.129.569-.187.827-.3a5.953,5.953,0,0,1,5.72.286,138.058,138.058,0,0,1,11.782,7.916c3.4,2.456,6.773,4.956,10.371,7.594v-9.893a1,1,0,0,1,.356,1q.01,13.548,0,27.1c0,.15-.026.3-.039.448-.595-.125-.274-.591-.3-.891a32.214,32.214,0,0,0-.131-3.839h0a.6.6,0,0,1-.348-.577c.108-3.908.015-7.816.049-11.724a1.758,1.758,0,0,0-.79-1.524c-6.875-5.114-13.689-10.311-21.007-14.8a6.132,6.132,0,0,0-3.989-.86c-1.681.174-2.4.9-2.275,2.556.147,1.95.211,3.9.213,5.85,0,.393-.062.928.5.98.543.05.463-.493.557-.823a3.213,3.213,0,0,1,1.569-2.228c.794.046.6.486.342.911a7.362,7.362,0,0,0-.766,1.244c-.241.652-.064,1.018.675,1.036a13.966,13.966,0,0,0,1.686-.084c.269-.026.559.041.6.372.031.26-.193.387-.4.478a5.388,5.388,0,0,1-1.767.3c-3.213.241-6.262-.633-9.337-1.337a18.709,18.709,0,0,0-5.568-.7,3.67,3.67,0,0,0-2.684,1.237,1.84,1.84,0,0,0,.059,2.641,7.3,7.3,0,0,0,2.509,1.687,33.009,33.009,0,0,0,5.089,1.824,20.66,20.66,0,0,1,7.6,4.078c1.12.889,2.25,1.763,3.416,2.588a15.982,15.982,0,0,0,9.679,3.194,6.431,6.431,0,0,1,3.06.617c.32.6-.025.721-.523.7-.633-.031-1.24-.265-2.016-.271a24.831,24.831,0,0,0,3.915,1.776c.447.137.971.2,1.2.718-.109.3-.321.27-.553.173a20.3,20.3,0,0,1-5.918-2.638,2.958,2.958,0,0,0-1.457-.478,11.777,11.777,0,0,1-4.01-1.035c-.694-.3-1.162-.419-1.249.56a2.265,2.265,0,0,1-.307.841c-.784,1.435-1.726,1.484-3.432.185-.369.2-.244.582-.327.885a2.447,2.447,0,0,1-1.743,2.025c-.737.149-.739.535-.762,1.09-.1,2.279-.5,2.667-2.774,2.679a5.251,5.251,0,0,1-1.786-.067,24.325,24.325,0,0,1-5.363-.043c-.255-.506-.041-1.036-.071-1.554-.29-5.031-.214-10.067-.218-15.1a1.369,1.369,0,0,0-1.019-1.431,12.261,12.261,0,0,1-2.98-1.584,3.094,3.094,0,0,1-1.583-3.134,3.425,3.425,0,0,1,2.371-2.769,6.1,6.1,0,0,1,2.086-.449c.9,0,1.149-.454,1.132-1.276q-.042-2.085,0-4.174c.024-1.373-.014-2.746.021-4.117.011-.454-.119-1,.483-1.236.448.358.381.874.385,1.35.018,2.738,0,5.475.211,8.211.074.947.348,1.466,1.332,1.555a17.961,17.961,0,0,1,1.886.323c1.267.253,1.305.221,1.31-1.136.006-2.1-.015-4.2.006-6.306.024-2.363-.094-4.728.067-7.091.15-.289.217-.818.677-.243a2.859,2.859,0,0,1,.166,1.217c.016,4.2.359,8.4.24,12.609-.041,1.46.3,1.753,1.732,1.923.639.076.929-.145.934-.767a63.608,63.608,0,0,0-.05-6.532c-.208-2.179-.112-4.351-.149-6.527C1693.663,226.49,1693.506,225.979,1694.085,225.846Z" transform="translate(-367.172 -143.406)" fill="#202020"/>
    <path id="Path_40379" data-name="Path 40379" d="M1641.74,227.416c-.479.949-.131,1.959-.207,2.938-.066.848-.037,1.7-.049,2.556-.658-.318-.525-.944-.534-1.479-.032-1.88,0-3.761-.017-5.642-.011-1.282-.1-1.392-1.321-1.4-4.551-.015-9.1-.023-13.655,0-1.688.01-2.136.47-2.14,2.174-.016,6.094-.185,12.194.048,18.279.21,5.492.067,10.978.17,16.465.006.338,0,.677.032,1.015a1.248,1.248,0,0,0,1.284,1.29c.414.021.827.026,1.241.026,4.4,0,8.8-.005,13.2.007a2.305,2.305,0,0,1,1.722.339c.8.5,1.676.165,2.514.223.934.064,1.875.022,2.814.026a10.559,10.559,0,0,1-2.686.171q-9.2.077-18.394.118c-1.866.011-2.442-.535-2.46-2.4q-.172-18-.325-35.994c-.016-1.837.549-2.414,2.42-2.431q11.786-.109,23.573-.192a1.76,1.76,0,0,1,1.992,1.423c-.283.276-.14.649-.222.971a8.025,8.025,0,0,0-3.139-1.708.583.583,0,0,1-.186-.117c-.368-.227-.213.151-.295.255-1.307.1-2.617.016-3.924.012-.818,0-1.14.31-1.13,1.128C1642.076,226.133,1642.251,226.842,1641.74,227.416Z" transform="translate(-324.052 -142.499)" fill="#212121"/>
    <path id="Path_40380" data-name="Path 40380" d="M1277.015,182.339l.009.237a2.329,2.329,0,0,1-1.215.108c-4.657.009-9.314,0-13.971.015-.347,0-.751-.182-1.047.178.089,1.162-.16,2.049-1.6,1.991-.476-.019-.407.339-.407.628,0,3.312.016,6.624-.018,9.936-.007.692.371.635.841.707,4.034.62,6.9,2.786,8.113,6.711a9.2,9.2,0,0,1-2.672,9.883,9.541,9.541,0,0,1-10.8,1.486,9.554,9.554,0,0,1,2.3-17.891c1.806-.369,1.806-.369,1.805-2.256,0-2.785-.011-5.57.009-8.355,0-.574-.06-.946-.775-.868a.931.931,0,0,1-.994-.611,4.846,4.846,0,0,1,.016-3.2.921.921,0,0,1,.916-.553c.677-.007,1.355-.026,2.032,0s1.209.389,1.2,1.086c-.014.837.468.767,1.014.767Q1269.393,182.333,1277.015,182.339Z" transform="translate(-34.539 -109.182)" fill="#292a2a"/>
    <path id="Path_40381" data-name="Path 40381" d="M1424.818,73.776l-.508,0a2.147,2.147,0,0,1-.321-1.507c-.008-4.434-.117-8.873.037-13.3.1-2.816.175-5.629.183-8.445a7.556,7.556,0,0,0-.087-1.461,2.819,2.819,0,0,0-2.9-2.463c-3.156-.035-6.314-.01-9.47-.012q-7.216,0-14.431,0c-.439,0-.947-.134-1,.556l-.239.264c-.464.065-.761-.274-1.118-.465a2.6,2.6,0,0,0-3.95,2.143c-.087,1.162-.011,2.332-.03,3.5a1.978,1.978,0,0,1-.247,1.3c-.524-.3-.25-.8-.29-1.2-.128-1.313.235-2.65-.19-3.951a3.34,3.34,0,0,1,3.409-2.952q13.943-.021,27.885,0a3.381,3.381,0,0,1,3.4,3.686c-.007,4.7-.009,9.408-.117,14.11-.025,1.074.314,1.417,1.3,1.581a47.782,47.782,0,0,1,6.433,1.627c.558.175,1.189.269,1.467.911l-.233.248c-1.588-.4-3.125-.974-4.723-1.341-.911-.21-1.822-.418-2.736-.615-1.1-.236-1.221-.136-1.239,1.022s0,2.319-.01,3.478a1.652,1.652,0,0,1-.312,1.269c-.293.22-.281.446-.011.675A.982.982,0,0,1,1424.818,73.776Z" transform="translate(-143.91 -4.907)" fill="#333"/>
    <ellipse id="Ellipse_2634" data-name="Ellipse 2634" cx="18.737" cy="0.172" rx="18.737" ry="0.172" transform="translate(1300.088 72.31)" fill="#464646"/>
    <path id="Path_40382" data-name="Path 40382" d="M1696.415,75.582q0,.24.009.479c-4.549,0-9.1.04-13.647-.018-1.049-.013-1.39.191-1.376,1.323.068,5.375.035,10.752.018,16.128,0,.346.194.742-.14,1.052q-.021-8.768-.051-17.535c0-.39.178-.824-.157-1.176.173-.457.569-.25.857-.25Q1689.172,75.566,1696.415,75.582Z" transform="translate(-369.021 -27.952)" fill="#3f3f3e"/>
    <path id="Path_40383" data-name="Path 40383" d="M1291.074,85.008c-1.273-6.693,7.95-15.844,14.134-13.791C1296.587,72,1292.016,76.669,1291.074,85.008Z" transform="translate(-67.039 -24.381)" fill="#303030"/>
    <path id="Path_40384" data-name="Path 40384" d="M1305.206,96.191c-.852-5.479,5.015-11.514,10.763-10.679a11.713,11.713,0,0,0-7.515,3.224A11.332,11.332,0,0,0,1305.206,96.191Z" transform="translate(-78.007 -35.613)" fill="#292929"/>
    <path id="Path_40385" data-name="Path 40385" d="M1318.866,106.716c-.837-3.975,3.91-8.693,7.671-7.64a8.377,8.377,0,0,0-5.366,2.334A8.605,8.605,0,0,0,1318.866,106.716Z" transform="translate(-88.569 -46.058)" fill="#313131"/>
    <path id="Path_40386" data-name="Path 40386" d="M1603.873,88.358c0-2.012.115-2.121,2.211-2.12,1.975,0,2.139.18,2.137,2.343,0,1.824-.234,2.024-2.358,2.021C1604.07,90.6,1603.873,90.377,1603.873,88.358Z" transform="translate(-309.263 -36.235)" fill="#1f1f1f"/>
    <path id="Path_40387" data-name="Path 40387" d="M1833.807,383.65c.174-.062.4-.02.494-.245a.971.971,0,0,1,.95-.169,14.771,14.771,0,0,0,6.776-.173.914.914,0,0,1,.858.1l.229.46a15.131,15.131,0,0,1-8.922.225A2.061,2.061,0,0,1,1833.807,383.65Z" transform="translate(-487.25 -265.954)" fill="#484848"/>
    <path id="Path_40388" data-name="Path 40388" d="M1346.415,125.052a1.745,1.745,0,1,1-1.761-1.753A1.652,1.652,0,0,1,1346.415,125.052Z" transform="translate(-107.269 -64.923)" fill="#2e2e2e"/>
    <path id="Path_40389" data-name="Path 40389" d="M1300.482,479.691c-.508.405-.105,1.007-.319,1.476a17.809,17.809,0,0,1,.682-8.735l.275.291a.761.761,0,0,1,.167.738C1300.718,475.5,1300.887,477.632,1300.482,479.691Z" transform="translate(-73.988 -335.181)" fill="#404040"/>
    <path id="Path_40390" data-name="Path 40390" d="M1301.292,189.952c.259-.5.729-.3,1.108-.3q7.562-.016,15.125,0c0,.078,0,.156,0,.234q-7.5,0-14.995,0C1302.115,189.886,1301.7,189.929,1301.292,189.952Z" transform="translate(-75.041 -116.256)" fill="#404141"/>
    <path id="Path_40391" data-name="Path 40391" d="M1778.551,179.626c.042-.551-.109-1.419.167-1.586.512-.313,1.048.34,1.535.628.529.313,1.482.455,1.472,1.021-.012.656-.975.784-1.535,1.108C1778.6,181.713,1778.592,181.691,1778.551,179.626Z" transform="translate(-444.474 -107.233)" fill="#272727"/>
    <path id="Path_40392" data-name="Path 40392" d="M1332.716,117.277c-.547-2.593,2.256-5.379,4.673-4.551-1.248.352-2.42.511-3.276,1.433A5.971,5.971,0,0,0,1332.716,117.277Z" transform="translate(-99.312 -56.624)" fill="#323232"/>
    <path id="Path_40393" data-name="Path 40393" d="M1876,417.639v3.2l-.226.009v-3.187Z" transform="translate(-519.738 -292.766)" fill="#2e2f2f"/>
    <path id="Path_40394" data-name="Path 40394" d="M1875,385.738c.477.789.1,1.653.216,2.475.106.748-.223,1.537.212,2.255-.4-.036-.418-.036-.421-.5C1875,388.56,1875,387.149,1875,385.738Z" transform="translate(-519.14 -268.072)" fill="#484848"/>
    <path id="Path_40395" data-name="Path 40395" d="M1413.2,138.614c.018-1.871.061-3.742.042-5.613-.006-.618.178-.807.777-.673,2.408.536,4.81,1.1,7.16,1.851a5.275,5.275,0,0,1,1.041.622,2.912,2.912,0,0,1,.317,1.63q0,35.618-.006,71.235c0,.449-.071.9-.108,1.346a3,3,0,0,1-1.58,1,74.561,74.561,0,0,1-43.736.014c-1.522-.457-1.8-.835-1.8-2.4q0-35.623-.011-71.245a2.09,2.09,0,0,1,1.664-2.309,75.318,75.318,0,0,1,7.965-1.931c0,2.048-.011,4.033.008,6.018,0,.518-.237.633-.691.626q-1.637-.026-3.274,0a2.1,2.1,0,0,0-2.276,2.11,2.162,2.162,0,0,0,2.274,2.262c3.651.021,7.3.009,10.953.008q12.421,0,24.841.005a2.165,2.165,0,0,0,2.275-1.487,2.114,2.114,0,0,0-.671-2.449,2.49,2.49,0,0,0-1.582-.466A15.007,15.007,0,0,1,1413.2,138.614Z" transform="translate(-132.326 -71.764)" fill="#fff"/>
    <path id="Path_40396" data-name="Path 40396" d="M1290.047,391.12a59.021,59.021,0,0,1,6.136-17.685,51.046,51.046,0,0,0-6.484,16.373c-.8-5.033-1.112-10.02,2.061-14.453,2.135-2.982,5.191-4.423,9-4.826a21.578,21.578,0,0,0-4.766,11.416,14.279,14.279,0,0,1-5.444,8.939A2.743,2.743,0,0,1,1290.047,391.12Z" transform="translate(-65.652 -256.299)" fill="#fefefe"/>
    <path id="Path_40397" data-name="Path 40397" d="M1240.167,406.529a37.539,37.539,0,0,0,2.1,6.975,13.472,13.472,0,0,1-4.517-7.8,38.058,38.058,0,0,0-3.707-10.946,12.586,12.586,0,0,0-2.584-3.255c2.713-.96,6.094.515,7.767,2.772a16.211,16.211,0,0,1,2.714,6.376,41.619,41.619,0,0,1,.557,11.831,33.264,33.264,0,0,1-2.085-6.471c-.645-.977-.572-2.149-.854-3.223-.349-1.327-.511-2.7-.7-3.817C1239.1,401.359,1239.966,403.888,1240.167,406.529Z" transform="translate(-20.988 -272.303)" fill="#fefefe"/>
    <path id="Path_40398" data-name="Path 40398" d="M1302.221,459.42a22.888,22.888,0,0,1,.639-6.968,11.711,11.711,0,0,1,2.977-4.315,6.193,6.193,0,0,1,6.219-1.665,14.036,14.036,0,0,1,3.577,1.342,9.943,9.943,0,0,0-4.721,3.157,8.126,8.126,0,0,0-1.2,2.285,14.311,14.311,0,0,1-7.262,7.916c.907-5.707,4.66-9.445,8.449-13.17A23.991,23.991,0,0,0,1302.221,459.42Z" transform="translate(-75.727 -314.91)" fill="#fdfdfd"/>
    <path id="Path_40399" data-name="Path 40399" d="M1251.211,537.509c2.707,0,5.413.02,8.119-.013.724-.009,1.07.107,1.063.962-.02,2.135.025,2.135-2.134,2.135-5,0-10-.021-15,.019-.886.007-1.258-.143-1.215-1.146.083-1.958.02-1.964,1.948-1.966q3.608,0,7.217,0Z" transform="translate(-29.177 -385.545)" fill="#f9f8f8"/>
    <path id="Path_40400" data-name="Path 40400" d="M1210.775,468.427c3.531-1.97,8.148-1.46,10.565,1.139a8.376,8.376,0,0,1,1.917,3.9,26.619,26.619,0,0,1,.849,5.435,15.419,15.419,0,0,0-6.251-8.865c3.394,3.045,5.751,6.626,6.064,11.4a5.691,5.691,0,0,1-1.728-2.214c-1.177-1.92-2.337-3.853-3.407-5.834a8.99,8.99,0,0,0-6.655-4.7C1211.693,468.607,1211.258,468.521,1210.775,468.427Z" transform="translate(-4.973 -331.152)" fill="#fcfcfc"/>
    <path id="Path_40401" data-name="Path 40401" d="M1264.154,428.826a64.635,64.635,0,0,1-1.7-8.741l.387-.078,1.565,8.3C1264.189,428.416,1264.214,428.642,1264.154,428.826Z" transform="translate(-44.976 -294.6)" fill="#3e3e3d"/>
    <path id="Path_40402" data-name="Path 40402" d="M1767.895,52.8a5.382,5.382,0,0,1,5.519,5.334,5.452,5.452,0,1,1-10.9.019A5.391,5.391,0,0,1,1767.895,52.8Z" transform="translate(-432.061 -10.352)" fill="#d8d7d7"/>
    <path id="Path_40403" data-name="Path 40403" d="M1415.058,48.663l-.6-.8a1.952,1.952,0,0,1,1.1-.108q12.077-.013,24.153-.006c2.386,0,3.548,1.137,3.531,3.509q-.086,12.019-.2,24.037-7.161.021-14.322.041c-4.061.009-8.121-.009-12.181.033-.767.008-.932-.239-.925-.962.076-7.744.118-15.488.175-23.232A3.359,3.359,0,0,0,1415.058,48.663Z" transform="translate(-162.643 -6.429)" fill="#fff"/>
    <path id="Path_40404" data-name="Path 40404" d="M1426.365,164.391q-.02-.672-.04-1.344a11.788,11.788,0,0,1,4.017-.092,1.684,1.684,0,0,1,1.545,1.8,1.826,1.826,0,0,1-1.758,1.724c-.3.024-.6.009-.9.009l-34.326,0c-.3,0-.6.014-.9-.009a1.756,1.756,0,0,1-1.737-1.721,1.638,1.638,0,0,1,1.519-1.8,36.328,36.328,0,0,1,3.832-.067c.608,0,.41.506.448.844.047.424-.027.72-.577.715a2.107,2.107,0,0,0-1.615.312h32.684C1427.734,164.231,1427.006,164.561,1426.365,164.391Z" transform="translate(-145.457 -95.522)" fill="#fbfbfb"/>
    <path id="Path_40405" data-name="Path 40405" d="M1391.825,55.524a21.062,21.062,0,0,1,0-5.271A2.953,2.953,0,0,1,1396.4,48.4c.273.192.513.43.768.647,1.045,1.954.375,4.051.492,6.081.03.52-.468.372-.773.375C1395.2,55.518,1393.513,55.518,1391.825,55.524Z" transform="translate(-144.994 -6.548)" fill="#fdfdfd"/>
    <path id="Path_40406" data-name="Path 40406" d="M1642.985,265.6q-7.789.059-15.579.115c-1.839.012-2.218-.387-2.233-2.259q-.146-17.837-.3-35.673c-.013-1.577.41-2.032,1.977-2.046,4.968-.046,9.935-.064,14.9-.144.833-.014,1.069.188,1.072,1.044a73.667,73.667,0,0,0,.125,7.882c-.007,1.465-.074,2.934,0,4.4.046.908-.158,1.258-1.141,1.2a4.77,4.77,0,0,0-3.2.89,2.77,2.77,0,0,0-.068,4.677,12.81,12.81,0,0,0,3.686,1.911.944.944,0,0,1,.782,1.016c.025,5.418.093,10.835.149,16.253A.913.913,0,0,1,1642.985,265.6Z" transform="translate(-325.52 -144.104)" fill="#fff"/>
    <path id="Path_40407" data-name="Path 40407" d="M1760.353,282.819a15.812,15.812,0,0,1-8.584.245,21.183,21.183,0,0,1-5.988-2.72,10.143,10.143,0,0,1,2.935.323c.274.052.626.263.565-.3a2.358,2.358,0,0,0-2.543-.752,2.249,2.249,0,0,1-1.832-.159,3.048,3.048,0,0,0-.987-.2c-2.694-.564-5.306-1.274-7.489-3.131-2.03-1.727-4.27-3.19-6.407-4.783a14.275,14.275,0,0,0-1.921-.938,1.564,1.564,0,0,1-.84-1.321A8.407,8.407,0,0,1,1728,264.6a.818.818,0,0,1,1.006-.633c.71.1,1.388.33,2.094.444a6.185,6.185,0,0,0,1.986-.045,15.67,15.67,0,0,1,2.943.176,2.244,2.244,0,0,0,1.484-.368c.27-.192.451-.42.3-.757s-.44-.373-.76-.344a1.615,1.615,0,0,0-.427.137,1.277,1.277,0,0,1-1.523-.415c-.4-.489,0-.909.258-1.316.1-.159.231-.3.321-.463.416-.757.108-.938-.624-.772a3.978,3.978,0,0,0-1.342,2.872c.017.516-.262.548-.631.506s-.9.147-.918-.517q-.11-4.059-.212-8.119c-.01-.368.263-.507.516-.669a5.131,5.131,0,0,1,5.536-.251,82.692,82.692,0,0,1,8.22,5.331c4.682,3.266,9.271,6.659,13.826,10.1a1.231,1.231,0,0,1,.573,1.11c-.019,3.761-.01,7.522-.014,11.283C1760.615,282.221,1760.694,282.582,1760.353,282.819Z" transform="translate(-404.717 -165.613)" fill="#fff"/>
    <path id="Path_40408" data-name="Path 40408" d="M1707.064,325.428a42.14,42.14,0,0,1,4.855,1.562c.449.186.472.513.474.905.02,4.733.038,9.467.08,14.2,0,.539-.157.725-.7.717-1.2-.019-2.407-.026-3.605.046-.781.047-1.022-.191-1.021-.99,0-4.546-.051-9.091-.083-13.636C1707.059,327.333,1707.064,326.434,1707.064,325.428Z" transform="translate(-389.14 -221.388)" fill="#fdfcfc"/>
    <path id="Path_40409" data-name="Path 40409" d="M1706.022,229q.015-1.352.028-2.7c0-.334-.067-.713.455-.716,1.5-.008,3.008-.02,4.513-.018.21,0,.309.187.388.362.011,4.69-.009,9.381.06,14.07.015,1.023-.244,1.178-1.167.905a14.044,14.044,0,0,0-3.086-.609c-.947-.058-1.052-.48-1.054-1.274C1706.145,235.68,1706.073,232.341,1706.022,229Z" transform="translate(-388.334 -144.085)" fill="#fdfdfd"/>
    <path id="Path_40410" data-name="Path 40410" d="M1699.913,282.658c.372-.264.746-.548,1.156-.068.377.441-.132.663-.266.968a3.977,3.977,0,0,1-.4.536c-.2.294-.635.626-.295.955.3.295.745.721,1.281.306a1.074,1.074,0,0,1,.961-.182.839.839,0,0,1,.418,1.473c-.526.441-1.115.982-1.907.559-.594-.317-1.314.373-1.573.113-.948-.949-1.821.26-2.744-.078a19.447,19.447,0,0,0-2.825-.586c-.219-.045-.421-.157-.55.153a10.7,10.7,0,0,0-.788,5.2c.039.4.477.447.765.586,3.329,1.6,6.063,4.035,8.934,6.285,1.59,1.246,3.582,1.644,5.446,2.3,1,.355,2.2-.065,3.065.838.172.179.5.021.718-.159.881-.732,1.7.068,2.545.136.305.025.289.476.281.781a23.15,23.15,0,0,0-4.789-.581,15.983,15.983,0,0,1-8.912-3.664c-1.317-.995-2.618-2.012-3.938-3a18.127,18.127,0,0,0-6.1-3.059,31.732,31.732,0,0,1-5.681-2.1,8.978,8.978,0,0,1-2.069-1.343,2.123,2.123,0,0,1-.254-3.191,3.879,3.879,0,0,1,2.969-1.371c2.781-.145,5.418.638,8.077,1.257a20.939,20.939,0,0,0,8.031.658c.222-.035.443-.08.66-.137.059-.015.1-.088.152-.3-.77.049-1.54.072-2.3.128-.952.07-1.111-.4-.92-1.163a3.53,3.53,0,0,1,1.1-1.8C1700.546,282.763,1700.52,282.533,1699.913,282.658Z" transform="translate(-369.57 -188.026)" fill="#fdfdfd"/>
    <path id="Path_40411" data-name="Path 40411" d="M1731.155,225.381a3.853,3.853,0,0,1,2-.118c1.144.117,1.136,1.119,1.326,1.943q.151,6.591.3,13.181c.031,1.332.039,1.332-1.261,1.062-2.14-.445-2.139-.445-2.171-2.651Z" transform="translate(-407.789 -143.795)" fill="#fefefe"/>
    <path id="Path_40412" data-name="Path 40412" d="M1732.234,342.383c0-2.258.034-4.517-.017-6.774-.02-.872.257-.882.863-.486.661.432,1.316.873,1.992,1.278a1.035,1.035,0,0,1,.515,1.026c-.029,3.65-.02,7.3-.06,10.951a2.022,2.022,0,0,1-2.9,1.681c-.377-.189-.2-.528-.207-.791-.017-2.3-.01-4.591-.01-6.886Z" transform="translate(-408.61 -228.699)" fill="#fefefe"/>
    <path id="Path_40413" data-name="Path 40413" d="M1748.862,345.007a64.76,64.76,0,0,0,5.921,4.231c.663.374.28.874.172,1.282-.5,1.886-1.614,2.156-2.978.773-.227-.23-.357-.584-.844-.662-.069.5-.138,1-.205,1.5a2.623,2.623,0,0,1-.674,1.514c-.317.333-.709.709-1.157.562-.508-.167-.217-.719-.22-1.084C1748.85,350.506,1748.862,347.89,1748.862,345.007Z" transform="translate(-421.445 -236.543)" fill="#fcfcfc"/>
    <path id="Path_40414" data-name="Path 40414" d="M1269.42,260.778a9.13,9.13,0,1,1-9.063-9.167A9.19,9.19,0,0,1,1269.42,260.778Z" transform="translate(-36.235 -164.247)" fill="#fafafa"/>
    <path id="Path_40415" data-name="Path 40415" d="M1283.883,183.952c.007-1.658.073-1.721,1.839-1.717,1.606,0,1.663.072,1.651,2.023-.009,1.479-.065,1.524-1.9,1.518C1283.909,185.77,1283.876,185.732,1283.883,183.952Z" transform="translate(-61.565 -110.544)" fill="#faf9f9"/>
    <path id="Path_40416" data-name="Path 40416" d="M1609.019,89.829c0,1.7,0,1.7-1.694,1.7-1.792,0-1.823-.032-1.821-1.843,0-1.6.115-1.708,1.853-1.707C1609.019,87.976,1609.019,87.976,1609.019,89.829Z" transform="translate(-310.526 -37.58)" fill="#f8f8f8"/>
    <path id="Path_40417" data-name="Path 40417" d="M1347.5,126.521a1.305,1.305,0,1,1-1.354-1.322A1.268,1.268,0,0,1,1347.5,126.521Z" transform="translate(-108.787 -66.394)" fill="#f4f4f3"/>
    <path id="Path_40418" data-name="Path 40418" d="M1782.341,182.183a8.672,8.672,0,0,1-1.964,1.187c-.073-.06-.172-.1-.174-.151-.027-.664-.315-1.705.091-1.906C1780.941,180.993,1781.527,181.913,1782.341,182.183Z" transform="translate(-445.66 -109.78)" fill="#dedddc"/>
    <path id="Path_40419" data-name="Path 40419" d="M1395.107,413.764c1.2,0,2.409.017,3.613-.007.737-.015,1.127.229,1.1,1.038-.037,1.166-.028,2.333,0,3.5.015.691-.241,1.078-.966,1.078h-7.565c-.589,0-.925-.274-.927-.882-.005-1.279,0-2.559,0-3.838,0-.691.4-.9,1.023-.892C1392.623,413.773,1393.865,413.764,1395.107,413.764Z" transform="translate(-143.985 -289.761)" fill="#060706"/>
    <path id="Path_40420" data-name="Path 40420" d="M1430.386,221.822c-.266.549-.777.5-1.257.5q-18.66,0-37.32,0c-1.215,0-1.6-.4-1.6-1.646q-.007-11.613.008-23.225c0-.687,0-1.384.885-1.581a.419.419,0,0,1,.251.535,5.353,5.353,0,0,0-.357,2.1q.008,10.492.006,20.984c0,1.852.126,1.981,1.991,1.981,12.3,0,24.595.02,36.892-.013A.563.563,0,0,1,1430.386,221.822Z" transform="translate(-143.867 -121.099)" fill="#3d3d3d"/>
    <path id="Path_40421" data-name="Path 40421" d="M1433.452,221.557l-.252-.271a2.541,2.541,0,0,1-.109-1.112c.012-7.258,0-14.516,0-21.773a9.086,9.086,0,0,0-.043-1.126,1.088,1.088,0,0,0-1.011-1.035,10.441,10.441,0,0,0-1.576-.062q-17.036,0-34.072-.008a2.891,2.891,0,0,1-1.958-.319l-.268-.245c.374-.024.747-.07,1.121-.07q18.16-.008,36.321-.007c2.018,0,2.137.117,2.137,2.084q0,11.223-.005,22.446C1433.739,220.567,1433.878,221.121,1433.452,221.557Z" transform="translate(-146.933 -120.835)" fill="#080909"/>
    <path id="Path_40422" data-name="Path 40422" d="M1463.608,335.6c-1.2,0-2.4-.024-3.6.01-.8.022-1.173-.258-1.138-1.109.047-1.161.031-2.326.005-3.489-.015-.719.3-1.023,1.008-1.02q3.714.016,7.43,0c.735,0,1.121.285,1.108,1.064-.02,1.163-.026,2.327,0,3.489.018.786-.356,1.07-1.1,1.058C1466.085,335.583,1464.846,335.6,1463.608,335.6Z" transform="translate(-197.015 -224.918)" fill="#353535"/>
    <path id="Path_40423" data-name="Path 40423" d="M1394.921,335.578c-1.238,0-2.476-.014-3.714,0-.717.011-1.021-.317-1.013-1.021q.022-1.8,0-3.6c-.008-.724.358-1,1.046-1q3.714.014,7.429,0c.681,0,1.063.251,1.055.984-.014,1.238-.017,2.476,0,3.714.01.689-.338.927-.976.921C1397.472,335.57,1396.2,335.578,1394.921,335.578Z" transform="translate(-143.858 -224.897)" fill="#393939"/>
    <path id="Path_40424" data-name="Path 40424" d="M1395.027,377.369c-1.242,0-2.483-.01-3.725,0-.749.008-1.1-.3-1.074-1.084.036-1.128.027-2.258,0-3.386-.02-.792.264-1.178,1.112-1.169,2.445.028,4.892.019,7.337.005.693,0,1.061.257,1.054.986-.011,1.241-.017,2.483,0,3.725.01.694-.355.929-.981.927-1.242,0-2.484,0-3.725,0Z" transform="translate(-143.883 -257.232)" fill="#2a2b2b"/>
    <path id="Path_40425" data-name="Path 40425" d="M1463.708,371.753c1.2,0,2.4.018,3.6-.006.8-.017,1.171.321,1.154,1.136-.025,1.163-.019,2.327,0,3.49.011.72-.339,1.015-1.029,1.013q-3.772-.008-7.543,0c-.643,0-.967-.277-.957-.95.018-1.238.015-2.477,0-3.715-.007-.731.366-.986,1.056-.974C1461.231,371.769,1462.47,371.753,1463.708,371.753Z" transform="translate(-197.068 -257.242)" fill="#2a2a2a"/>
    <path id="Path_40426" data-name="Path 40426" d="M1463.665,413.729c1.242,0,2.483.007,3.725,0,.74-.006,1.108.3,1.089,1.083-.029,1.166-.02,2.333,0,3.5a.9.9,0,0,1-1.015,1.051q-3.781.006-7.563,0c-.662,0-.943-.334-.936-.984.012-1.241.014-2.483,0-3.725-.011-.692.35-.929.981-.925C1461.182,413.734,1462.424,413.729,1463.665,413.729Z" transform="translate(-197.088 -289.738)" fill="#202020"/>
    <path id="Path_40427" data-name="Path 40427" d="M1532.1,413.7c1.2,0,2.409.019,3.613-.007.736-.015,1.122.221,1.094,1.034-.041,1.2-.028,2.409,0,3.613.014.657-.256.991-.915.991q-3.783,0-7.566,0a.907.907,0,0,1-1.024-1.047c0-1.129.026-2.259-.008-3.387-.026-.861.313-1.239,1.2-1.209C1529.693,413.727,1530.9,413.7,1532.1,413.7Z" transform="translate(-249.982 -289.705)" fill="#1e1e1e"/>
    <path id="Path_40428" data-name="Path 40428" d="M1532.123,371.764c1.166,0,2.332.029,3.5-.01.841-.029,1.261.244,1.223,1.155-.047,1.126-.035,2.256,0,3.383.021.76-.28,1.1-1.054,1.093-2.481-.016-4.963-.01-7.444,0-.718,0-1.026-.337-1.022-1.03.007-1.165.015-2.331,0-3.5-.011-.833.406-1.124,1.2-1.1C1529.716,371.786,1530.92,371.764,1532.123,371.764Z" transform="translate(-250.003 -257.246)" fill="#212222"/>
    <path id="Path_40429" data-name="Path 40429" d="M1531.963,335.612c-1.2,0-2.408-.02-3.611.007-.774.018-1.093-.325-1.08-1.082.019-1.166.005-2.332,0-3.5,0-.687.3-1.026,1.03-1.021q3.724.025,7.448,0c.685,0,1.062.217,1.046.973-.025,1.2-.016,2.408.009,3.611.015.717-.293,1.03-1.009,1.019C1534.521,335.6,1533.242,335.611,1531.963,335.612Z" transform="translate(-249.966 -224.937)" fill="#2f2f2f"/>
    <path id="Path_40430" data-name="Path 40430" d="M1531.166,457.782H1539l0,.255h-7.826Z" transform="translate(-252.982 -323.84)" fill="#383838"/>
    <path id="Path_40431" data-name="Path 40431" d="M1394.163,457.773h7.778l.006.217h-7.77Z" transform="translate(-146.931 -323.833)" fill="#151515"/>
    <path id="Path_40432" data-name="Path 40432" d="M1470.365,458h-7.792c0-.085,0-.17,0-.255h7.8Z" transform="translate(-199.885 -323.809)" fill="#373737"/>
    <path id="Path_40433" data-name="Path 40433" d="M1783.072,58.764c.222.8-.286.9-1.063.887-2.041-.028-2.025,0-1.715-2a6.319,6.319,0,0,1,.591-2.036c.464-.873.979-.884,1.442-.023A7.767,7.767,0,0,1,1783.072,58.764Z" transform="translate(-445.709 -12.017)" fill="#0e0f0f"/>
    <path id="Path_40434" data-name="Path 40434" d="M1781.547,77.717c1.706,0,1.728,0,1.5,1.6a7.733,7.733,0,0,1-.6,2.267c-.167.352-.363.72-.751.767-.5.06-.668-.42-.837-.777a7.513,7.513,0,0,1-.669-3.263C1780.194,77.133,1781.192,78.027,1781.547,77.717Z" transform="translate(-445.746 -29.612)" fill="#0d0e0e"/>
    <path id="Path_40435" data-name="Path 40435" d="M1768.648,55.676a9.2,9.2,0,0,0-.9,3.776c-.024.6-.236.813-.8.748a2.772,2.772,0,0,0-.336,0c-2.075.013-2.266-.317-1.245-2.156A4.618,4.618,0,0,1,1768.648,55.676Z" transform="translate(-433.806 -12.578)" fill="#0f1010"/>
    <path id="Path_40436" data-name="Path 40436" d="M1791.422,82.369a10.249,10.249,0,0,0,.874-3.949c0-.411.161-.631.6-.607.3.016.6,0,.9,0,1.6,0,1.746.215,1.1,1.682A4.879,4.879,0,0,1,1791.422,82.369Z" transform="translate(-454.441 -29.713)" fill="#0e0f0f"/>
    <path id="Path_40437" data-name="Path 40437" d="M1791.67,56.02a4.653,4.653,0,0,1,3.7,3.637c.073.516.05.8-.633.826-2.023.065-2.018.1-2.346-1.884a12.67,12.67,0,0,0-.286-1.317C1792,56.885,1791.841,56.5,1791.67,56.02Z" transform="translate(-454.633 -12.844)" fill="#0f1010"/>
    <path id="Path_40438" data-name="Path 40438" d="M1768.783,82.191a4.836,4.836,0,0,1-3.778-3.707c-.074-.45-.076-.852.572-.767a.644.644,0,0,0,.112,0c2.055-.1,2.068-.1,2.345,1.9A9.178,9.178,0,0,0,1768.783,82.191Z" transform="translate(-433.967 -29.614)" fill="#0e0f0e"/>
    <path id="Path_40439" data-name="Path 40439" d="M1434.318,153.238h20.525q0,.113,0,.226h-20.526Z" transform="translate(-178.014 -88.099)" fill="#3a3b3b"/>
    <ellipse id="Ellipse_2635" data-name="Ellipse 2635" cx="9.595" cy="0.127" rx="9.595" ry="0.127" transform="translate(1253.319 44.269)" fill="#222322"/>
    <path id="Path_40440" data-name="Path 40440" d="M1434.684,83.973h13.253v.2h-13.266Z" transform="translate(-178.288 -34.482)" fill="#141414"/>
    <path id="Path_40441" data-name="Path 40441" d="M1447.666,130.574H1434.4l0-.233h13.271Z" transform="translate(-178.072 -70.375)" fill="#3e3d3d"/>
    <path id="Path_40442" data-name="Path 40442" d="M1447.653,107.529h-13.314v-.234h13.316Z" transform="translate(-178.029 -52.535)" fill="#181818"/>
    <path id="Path_40443" data-name="Path 40443" d="M1504.582,107.143h4.869l.006.236h-4.86Z" transform="translate(-232.404 -52.418)" fill="#1a1a1a"/>
    <path id="Path_40444" data-name="Path 40444" d="M1510.865,60.746h3.481l.01.34a15.149,15.149,0,0,1-3.49.026Q1510.865,60.929,1510.865,60.746Z" transform="translate(-237.267 -16.503)" fill="#50504f"/>
    <path id="Path_40445" data-name="Path 40445" d="M1511.352,130.214h3.325l0,.282a13.129,13.129,0,0,1-3.324.021C1511.35,130.416,1511.351,130.315,1511.352,130.214Z" transform="translate(-237.643 -70.276)" fill="#3f3f3f"/>
    <path id="Path_40446" data-name="Path 40446" d="M1516.424,83.888a4.882,4.882,0,0,1-2.873-.039A5.075,5.075,0,0,1,1516.424,83.888Z" transform="translate(-239.346 -34.24)" fill="#474848"/>
    <path id="Path_40447" data-name="Path 40447" d="M1645.707,351.743c0,1.2,0,2.408,0,3.612a1.039,1.039,0,0,1-1.165,1.192c-1.806.007-3.613.006-5.419.026a1.02,1.02,0,0,1-1.141-1.109c-.047-2.52-.054-5.041-.058-7.562,0-.712.484-1,1.112-1.008,1.843-.029,3.687-.024,5.531-.03.773,0,1.059.44,1.056,1.154,0,1.242,0,2.483,0,3.725Z" transform="translate(-335.622 -237.981)" fill="#333"/>
    <path id="Path_40448" data-name="Path 40448" d="M1653.765,257.038V238.983l.252,0v18.039Z" transform="translate(-347.883 -154.47)" fill="#1e1e1e"/>
    <path id="Path_40449" data-name="Path 40449" d="M1642.665,276.245v9.683l-.212.005v-9.689Z" transform="translate(-339.127 -183.315)" fill="#161616"/>
    <path id="Path_40450" data-name="Path 40450" d="M1704.382,295.219a3.279,3.279,0,0,0-1.812,3.924c.2.848-.107,1.013-.818.957a11.76,11.76,0,0,1-3.821-1.456c-.435-.195-.414-.407-.021-.708.721-.553,1.467-1.1,1.33-2.219-.039-.317-.024-.581-.311-.759-.345-.215-.829-.735-.48-.847.5-.161.815-1.027,1.719-.392a9.349,9.349,0,0,0,3.056.935A1.954,1.954,0,0,1,1704.382,295.219Z" transform="translate(-381.823 -196.665)" fill="#fff"/>
    <path id="Path_40451" data-name="Path 40451" d="M1687.438,298.912c-.375.215-.927-.018-1.168.5-.1.222-.257.561-.56.347a.886.886,0,0,1-.28-.7,2.226,2.226,0,0,1,.564-1.428c.242-.237.644-.6.722.167C1686.764,298.284,1687.34,298.434,1687.438,298.912Z" transform="translate(-372.393 -199.646)" fill="#fff"/>
    <path id="Path_40452" data-name="Path 40452" d="M1723.94,302.981a4.822,4.822,0,0,0-.634,4.726C1721.917,306.373,1722.347,303.656,1723.94,302.981Z" transform="translate(-401.066 -204.012)" fill="#3f3f3f"/>
    <path id="Path_40453" data-name="Path 40453" d="M1690.846,297.539a2,2,0,0,1,1.825,1.324,1.066,1.066,0,0,1-.428,1.291,2,2,0,0,1-2.328-.075c.9-.215,1.974.306,2.269-.71C1692.487,298.324,1691.217,298.253,1690.846,297.539Z" transform="translate(-375.866 -199.799)" fill="#363636"/>
    <path id="Path_40454" data-name="Path 40454" d="M1264.873,257.642a7.766,7.766,0,1,1-.06,15.533,7.766,7.766,0,1,1,.06-15.533Z" transform="translate(-40.8 -168.916)" fill="#2b2c2c"/>
    <path id="Path_40455" data-name="Path 40455" d="M1392.9,196.956l37.131.016c1.687,0,1.853.169,1.853,1.877q0,11.06,0,22.12a2.478,2.478,0,0,1-.218,1.422,1.851,1.851,0,0,1-1.28.295q-18.381,0-36.763.015c-1.088,0-1.44-.394-1.436-1.458q.042-11.445,0-22.891A1.411,1.411,0,0,1,1392.9,196.956Z" transform="translate(-145.395 -121.94)" fill="#fff"/>
    <path id="Path_40456" data-name="Path 40456" d="M1465.391,336.736c-1.472,0-2.672-.019-3.871.008-.529.012-.744-.172-.733-.709q.035-1.63,0-3.261c-.01-.557.26-.7.763-.694,2.361.014,4.724.018,7.085,0,.581,0,.841.2.776.787,0,.037,0,.075,0,.112-.1,1.219.561,2.934-.247,3.539C1468.176,337.257,1466.5,336.657,1465.391,336.736Z" transform="translate(-198.503 -226.535)" fill="#fdfdfd"/>
    <path id="Path_40457" data-name="Path 40457" d="M1396.587,332.114c1.165,0,2.33.014,3.494-.006.529-.009.736.191.723.728-.027,1.089-.019,2.179,0,3.268.007.477-.171.662-.661.658q-3.606-.026-7.213,0c-.526,0-.742-.165-.726-.711.03-1.051.034-2.1,0-3.155-.019-.586.2-.8.779-.79C1394.182,332.133,1395.385,332.114,1396.587,332.114Z" transform="translate(-145.411 -226.557)" fill="#fdfdfd"/>
    <path id="Path_40458" data-name="Path 40458" d="M1395.919,378.056c-1.128,0-2.257-.025-3.384.012-.616.02-.9-.152-.853-.818.085-1.231-.485-2.794.208-3.61.673-.792,2.264-.2,3.45-.246,1.389-.049,2.782.009,4.173-.021.574-.013.815.162.8.765-.034,1.052-.032,2.106,0,3.157.02.591-.2.789-.784.771C1398.326,378.029,1397.122,378.055,1395.919,378.056Z" transform="translate(-144.902 -258.384)" fill="#fefdfd"/>
    <path id="Path_40459" data-name="Path 40459" d="M1465.055,378.563c-1.167,0-2.335-.03-3.5.013-.648.024-.869-.21-.846-.845.037-1.015.029-2.032,0-3.048-.013-.557.148-.814.763-.807q3.556.04,7.114,0c.6-.007.793.218.778.793-.028,1.053-.037,2.109,0,3.161.026.638-.276.751-.818.74C1467.389,378.546,1466.222,378.563,1465.055,378.563Z" transform="translate(-198.441 -258.891)" fill="#fdfdfd"/>
    <path id="Path_40460" data-name="Path 40460" d="M1465.123,415.735c1.089,0,2.18.044,3.265-.014.767-.041.978.249.932.975a18.465,18.465,0,0,0,0,2.7c.074.889-.3,1.061-1.1,1.042-2.176-.05-4.355-.059-6.531,0-.883.026-1.105-.3-1.053-1.105a20.352,20.352,0,0,0,0-2.589c-.047-.765.182-1.077,1-1.031C1462.792,415.784,1463.959,415.734,1465.123,415.735Z" transform="translate(-198.378 -291.276)" fill="#fdfdfd"/>
    <path id="Path_40461" data-name="Path 40461" d="M1533.524,420.443c-1.163,0-2.327-.021-3.49.008-.568.015-.815-.152-.791-.762.04-1.049.033-2.1,0-3.152-.017-.564.14-.8.756-.8q3.6.044,7.205,0c.633-.008.759.273.747.814-.023,1.013-.044,2.028.005,3.039.036.735-.3.88-.943.859C1535.852,420.417,1534.687,420.443,1533.524,420.443Z" transform="translate(-251.492 -291.297)" fill="#fdfdfc"/>
    <path id="Path_40462" data-name="Path 40462" d="M1533.623,378.559c-1.2,0-2.4-.025-3.6.011-.584.017-.8-.172-.777-.768.04-1.049.038-2.1,0-3.15-.02-.584.179-.792.771-.786q3.544.036,7.089,0c.626-.006.874.2.849.847-.04,1.011-.042,2.026,0,3.037.028.651-.218.844-.848.821C1535.95,378.528,1534.786,378.559,1533.623,378.559Z" transform="translate(-251.494 -258.882)" fill="#fdfdfd"/>
    <path id="Path_40463" data-name="Path 40463" d="M1533.254,336.2c-1.166,0-2.334-.037-3.5.014-.707.031-.934-.225-.885-.908.086-1.194-.475-2.723.208-3.5.71-.809,2.269-.211,3.454-.258,1.352-.053,2.71.023,4.063-.025.756-.027.991.258.955.984-.048.976-.032,1.956,0,2.934.019.594-.219.787-.8.77C1535.588,336.18,1534.421,336.2,1533.254,336.2Z" transform="translate(-251.101 -225.996)" fill="#fdfdfc"/>
    <path id="Path_40464" data-name="Path 40464" d="M1646.725,353.3c0,1.091-.031,2.182.011,3.271.027.708-.18,1.03-.947,1.014-1.616-.035-3.235-.02-4.851.02-.744.018-.983-.288-.98-1.006q.015-3.328-.063-6.656c-.021-.814.234-1.157,1.092-1.133,1.54.045,3.085.037,4.625-.022.861-.033,1.126.314,1.094,1.126-.045,1.126-.012,2.256-.012,3.385Z" transform="translate(-337.146 -239.469)" fill="#fff"/>
    <path id="Path_40465" data-name="Path 40465" d="M1259.151,266.9a7.322,7.322,0,0,1,14.644.056,7.322,7.322,0,1,1-14.644-.056Z" transform="translate(-42.42 -170.471)" fill="#fff"/>
    <path id="Path_40466" data-name="Path 40466" d="M1458.453,223.349a6.832,6.832,0,1,1,.042-13.664,6.879,6.879,0,0,1,6.821,6.946A6.71,6.71,0,0,1,1458.453,223.349Z" transform="translate(-191.416 -131.793)" fill="#1f2020"/>
    <path id="Path_40467" data-name="Path 40467" d="M1503.437,287.772a1.392,1.392,0,0,1-1.486-1.472,1.439,1.439,0,0,1,1.5-1.478,1.536,1.536,0,0,1,1.466,1.459A1.431,1.431,0,0,1,1503.437,287.772Z" transform="translate(-230.367 -189.95)" fill="#4e4e4d"/>
    <path id="Path_40468" data-name="Path 40468" d="M1475.974,286.3a1.445,1.445,0,0,1-1.481,1.49,1.4,1.4,0,0,1-1.489-1.372,1.486,1.486,0,1,1,2.969-.118Z" transform="translate(-207.955 -189.96)" fill="#4b4b4b"/>
    <path id="Path_40469" data-name="Path 40469" d="M1517.83,284.864a1.519,1.519,0,0,1,1.458,1.536,1.384,1.384,0,0,1-1.531,1.409,1.366,1.366,0,0,1-1.395-1.441A1.445,1.445,0,0,1,1517.83,284.864Z" transform="translate(-241.521 -189.987)" fill="#4c4c4b"/>
    <path id="Path_40470" data-name="Path 40470" d="M1490.183,286.475a1.318,1.318,0,0,1-1.358,1.359,1.522,1.522,0,0,1-1.654-1.479,1.491,1.491,0,0,1,1.455-1.455A1.549,1.549,0,0,1,1490.183,286.475Z" transform="translate(-218.923 -190.011)" fill="#494949"/>
    <path id="Path_40471" data-name="Path 40471" d="M1427.706,286.54c.128.049.254.1.384.145.377.124.84.2.981-.225.18-.541-.4-.512-.71-.624-.4-.147-.79-.264-.861-.763-.078-.547.41-.677.715-.908.328-.247.451-.151,1.09.644-.148.108-.258.015-.4-.042-.352-.142-.818-.287-.96.183s.4.438.675.563c.364.165.835.17.895.714.063.564-.348.8-.734,1.022-.64.374-.818-.278-1.208-.46Z" transform="translate(-172.73 -189.354)" fill="#474747"/>
    <path id="Path_40472" data-name="Path 40472" d="M1449.506,285.438c-.042.415-.293.823.351,1.057.548.2.619.805.27,1.336a.869.869,0,0,1-1.186.322.881.881,0,0,1-.5-1.289c.253-.486.52-.965.781-1.447Z" transform="translate(-188.846 -190.415)" fill="#4a4a49"/>
    <path id="Path_40473" data-name="Path 40473" d="M1459.259,288c.379-.741.119-1.032-.336-1.341a.966.966,0,1,1,1.536-.419A3.382,3.382,0,0,1,1459.259,288Z" transform="translate(-196.773 -190.044)" fill="#404040"/>
    <path id="Path_40474" data-name="Path 40474" d="M1284.055,283.521c-.259-1.391-2.176-.7-2.324-2.021.363-.261.488.082.679.214a2.577,2.577,0,0,0,2.56.325,1.232,1.232,0,0,0,.873-1.2,1.076,1.076,0,0,0-.892-1.027c-.607-.186-1.232-.313-1.842-.49-.777-.225-1.375-.624-1.359-1.553.014-.828.6-1.126,1.188-1.591.851-.677,1.454-.223,2.16.043a2.451,2.451,0,0,1,.6.3c.157.116.45.236.223.515-.162.2-.335.056-.485-.056a2.585,2.585,0,0,0-2.162-.3,1.1,1.1,0,0,0-.965.97.986.986,0,0,0,.777,1.1c.675.228,1.372.389,2.054.6.736.225,1.275.61,1.256,1.5a1.728,1.728,0,0,1-1.263,1.673C1284.681,282.7,1283.922,282.5,1284.055,283.521Z" transform="translate(-59.899 -182.993)" fill="#202020"/>
    <path id="Path_40475" data-name="Path 40475" d="M1466.323,218.064a6.392,6.392,0,0,1-6.386,6.369,6.544,6.544,0,0,1-6.426-6.512,6.407,6.407,0,1,1,12.812.143Z" transform="translate(-192.87 -133.247)" fill="#fff"/>
    <path id="Path_40476" data-name="Path 40476" d="M1504.8,288.877c-.634-.089-1.039-.434-.984-1.1a.964.964,0,0,1,1.087-1.005.988.988,0,0,1,1,1.1C1505.885,288.568,1505.439,288.829,1504.8,288.877Z" transform="translate(-231.806 -191.46)" fill="#f7f7f7"/>
    <path id="Path_40477" data-name="Path 40477" d="M1476.958,287.821a.922.922,0,0,1-.985,1.088,1,1,0,0,1-1.136-.975,1.062,1.062,0,1,1,2.121-.113Z" transform="translate(-209.377 -191.483)" fill="#f6f5f5"/>
    <path id="Path_40478" data-name="Path 40478" d="M1520.363,287.848c-.108.616-.428,1.04-1.1,1.035a.933.933,0,0,1-1.046-1.04.961.961,0,0,1,1.037-1.058C1519.938,286.772,1520.222,287.241,1520.363,287.848Z" transform="translate(-242.957 -191.475)" fill="#f4f4f4"/>
    <path id="Path_40479" data-name="Path 40479" d="M1491.4,287.733a1.049,1.049,0,0,1-1.052,1.135,1.032,1.032,0,0,1-1.134-1.119,1,1,0,0,1,1.1-1.031A1.04,1.04,0,0,1,1491.4,287.733Z" transform="translate(-220.511 -191.423)" fill="#efefee"/>
    <path id="Path_40480" data-name="Path 40480" d="M1450.908,292.132c-.313-.04-.6-.131-.615-.514a.562.562,0,0,1,.511-.631c.368-.047.552.2.6.526A.5.5,0,0,1,1450.908,292.132Z" transform="translate(-190.38 -194.723)" fill="#e8e7e7"/>
    <path id="Path_40481" data-name="Path 40481" d="M1460.981,287.959c-.379-.042-.651-.146-.677-.513s.124-.663.536-.691.607.206.608.608A.577.577,0,0,1,1460.981,287.959Z" transform="translate(-198.127 -191.449)" fill="#ebeaea"/>
    <path id="Path_40482" data-name="Path 40482" d="M1471.181,236.137c-.75-.007-2.111-1.726-1.982-2.408a.876.876,0,0,1,1.566-.345c.527.651.849.417,1.33.032.643-.514,1.333-.968,2-1.449.523-.377,1.041-.477,1.463.117.4.559.106,1-.354,1.341q-1.675,1.229-3.38,2.417A3.462,3.462,0,0,1,1471.181,236.137Z" transform="translate(-205.008 -148.805)" fill="#0d0e0d"/>
  </g>
</svg>
