<svg xmlns="http://www.w3.org/2000/svg" xmlns:xlink="http://www.w3.org/1999/xlink" width="207.775" height="209.36" viewBox="0 0 207.775 209.36">
  <defs>
    <clipPath id="clip-path">
      <path id="Path_37160" data-name="Path 37160" d="M177.931,232.106s-14.757-1.75-24.467,5.824S135.4,277.153,135.6,292.313s5.829,22.722,20,28.931,40.578,3.886,55.335-.776,19.612-20.96,19.419-29.707-9.9-18.836-13.2-20.96-12.621-6.6-17.278-13.6S188.411,234.049,177.931,232.106Z" transform="translate(-135.594 -231.931)" fill="#86898e" stroke="#263238" stroke-linecap="round" stroke-linejoin="round" stroke-width="1"/>
    </clipPath>
    <clipPath id="clip-path-2">
      <path id="Path_37168" data-name="Path 37168" d="M204.473,234.705s-5.285,1.7-6.044,3.019-.187,10.576-.187,11.709.663-.663,1.229-1.983,2.549-3.308,3.206-3.116,1.042.94,1.042,2.17,1.507,2.929,2.832,3.869,2.549,1.892,2.549,1.892,2.736-3.965,3.4-5.008.566-3.206.657-3.965,1.8,2.079,2.175,1.326-.85-1.416-2.175-3.5-.94-4.249-2.923-5.761S205.986,234.32,204.473,234.705Z" transform="translate(-198.035 -234.321)" fill="#fff" stroke="#263238" stroke-linecap="round" stroke-linejoin="round" stroke-width="1"/>
    </clipPath>
    <clipPath id="clip-path-3">
      <path id="Path_37173" data-name="Path 37173" d="M174.447,298.639s-3.257-4.674-7.223-5.1-8.781,2.832-8.922,3.965-1.133,7.223-.425,8.072,3.4,1.558,8.639-.142S173.88,301.613,174.447,298.639Z" transform="translate(-157.624 -293.503)" fill="#fff" stroke="#263238" stroke-linecap="round" stroke-linejoin="round" stroke-width="1"/>
    </clipPath>
    <clipPath id="clip-path-4">
      <path id="Path_37178" data-name="Path 37178" d="M163.591,297.667s-5.314,2.107-5.523,6.231c-.119,2.266,3.682,3.257,7.648,3.257s9.63-4.957,13.313-7.081,12.18-7.081,13.171-7.506,4.39.708,5.806,1.133a19.151,19.151,0,0,0,4.107.425s1.983,3.116,2.974,3.116-2.124-4.674-2.549-5.665-7.364-3.257-8.214-3.257-20.677,4.957-23.651,6.09S163.591,297.667,163.591,297.667Z" transform="translate(-158.065 -288.32)" fill="#fff" stroke="#263238" stroke-linecap="round" stroke-linejoin="round" stroke-width="1"/>
    </clipPath>
    <clipPath id="clip-path-5">
      <path id="Path_37184" data-name="Path 37184" d="M221.711,292.07,206.54,302.8l34.7-.991,11.63-9.6Z" transform="translate(-206.54 -292.07)" fill="#fff" stroke="#263238" stroke-linecap="round" stroke-linejoin="round" stroke-width="1"/>
    </clipPath>
    <clipPath id="clip-path-6">
      <path id="Path_37189" data-name="Path 37189" d="M253.57,297.867s12.463-10.9,24.784-14.587,14.87-3.116,14.587,2.408-6.231,34.414-10.2,41.779-8.922,20.818-8.781,23.368,4.957,10.055,9.205,12.746,3.824,5.948,1.133,6.515-5.807,1.558-15.012-4.39-13.029-14.445-12.463-16.57,6.515-4.957,8.922-9.205,6.373-20.11,6.656-27.333a42.918,42.918,0,0,1,2.832-13.312s-15.578,2.832-20.11,5.665Z" transform="translate(-253.57 -280.942)" fill="#fff" stroke="#263238" stroke-linecap="round" stroke-linejoin="round" stroke-width="1"/>
    </clipPath>
    <clipPath id="clip-path-7">
      <path id="Path_37196" data-name="Path 37196" d="M265.75,339.929c-.181.317-.385.623-.6.929a14.553,14.553,0,0,1,7.965,3.32,25.023,25.023,0,0,1,1.937,1.875c2.714-3.648,5.767-15.154,9.211-19.889,8.9-12.231,8.4-34.952,8.679-40.476s-2.266-6.09-14.587-2.408-24.784,14.587-24.784,14.587l1.558,7.081c4.532-2.832,20.11-5.665,20.11-5.665a42.917,42.917,0,0,0-2.832,13.312C272.123,319.819,268.157,335.68,265.75,339.929Z" transform="translate(-253.57 -280.942)" fill="#263238" stroke="#263238" stroke-linecap="round" stroke-linejoin="round" stroke-width="1"/>
    </clipPath>
    <clipPath id="clip-path-8">
      <path id="Path_37202" data-name="Path 37202" d="M183.236,306.728s-4.532,2.549-6.09,5.382,5.144,7.551,12.225,7.268,20.065-7.976,20.065-7.976.142,12.463,2.549,16.995,13.454,15.578,17.844,18.411,19.119,13.454,21.385,15.154,6.515,4.815,7.506,4.957,11.33-12.463,13.737-16.711,4.532-13.171,3.682-15.154-2.549-.283-4.249,1.133S254.613,347.94,253.2,348.648a15.546,15.546,0,0,1-2.408.991s-12.746-12.18-19.544-21.527-7.364-21.385-9.914-25.917-6.231-6.515-11.755-5.948A58.864,58.864,0,0,0,183.236,306.728Z" transform="translate(-176.918 -296.153)" fill="#fff" stroke="#263238" stroke-linecap="round" stroke-linejoin="round" stroke-width="1"/>
    </clipPath>
    <clipPath id="clip-path-9">
      <path id="Path_37207" data-name="Path 37207" d="M248.569,348.7c-3-2.923-14.23-18-18.666-26.665-6.5-12.7-7.2-17.029-9.749-21.561s-6.4-4.883-11.9-4.317a65.47,65.47,0,0,0-27.531,8.469s-5.1,2.764-6.651,5.6,4.118,9.965,13.975,9.064c7.058-.646,20.065-7.976,20.065-7.976s.142,12.463,2.549,16.995,13.454,15.578,17.844,18.411c2.781,1.8,9.721,6.724,15.006,10.52A16.809,16.809,0,0,1,248.569,348.7Z" transform="translate(-173.821 -295.957)" fill="#263238" stroke="#263238" stroke-linecap="round" stroke-linejoin="round" stroke-width="1"/>
    </clipPath>
    <clipPath id="clip-path-10">
      <path id="Path_37213" data-name="Path 37213" d="M333.215,379.288c2.408-4.249,4.532-13.171,3.682-15.154-.493-1.133-1.269-1.059-2.17-.5.595,2.646,0,7.75-2.929,13.25-2.612,4.906-10.678,13.6-14.729,17.8a9.508,9.508,0,0,0,2.419,1.32C320.469,396.141,330.807,383.537,333.215,379.288Z" transform="translate(-317.07 -363.239)" fill="#fff" stroke="#263238" stroke-linecap="round" stroke-linejoin="round" stroke-width="1"/>
    </clipPath>
    <clipPath id="clip-path-11">
      <path id="Path_37219" data-name="Path 37219" d="M285.62,414.56a18.507,18.507,0,0,1-3.773-3.4A74.636,74.636,0,0,1,271.6,406.2c-3.682-2.266-2.832-3.682-4.957-5.806-1.632-1.632-4.838-1.841-6.231-1.852a3.914,3.914,0,0,0-1.133,1.569c-.566,2.124,3.257,10.622,12.463,16.57s12.321,4.957,15.012,4.39S289.869,417.251,285.62,414.56Z" transform="translate(-259.224 -398.54)" fill="#fff" stroke="#263238" stroke-linecap="round" stroke-linejoin="round" stroke-width="1"/>
    </clipPath>
    <clipPath id="clip-path-12">
      <path id="Path_37223" data-name="Path 37223" d="M286.338,416.426c-3.682-2.124-11.188-3.541-16-6.8s-3.541-6.09-7.081-8.356a3.6,3.6,0,0,0-3.965-.227c-.493,2.209,3.342,10.61,12.463,16.513s12.321,4.957,15.012,4.39c1.79-.38,2.566-1.943,1.643-3.739A7.727,7.727,0,0,0,286.338,416.426Z" transform="translate(-259.246 -400.556)" fill="#263238" stroke="#263238" stroke-linecap="round" stroke-linejoin="round" stroke-width="1"/>
    </clipPath>
    <clipPath id="clip-path-13">
      <path id="Path_37234" data-name="Path 37234" d="M206.72,221.869s.663,7.155.94,9.415.906,8.752,1.558,10.9,4.2,5.88,4.532,5.019,2.1-6.7,1.394-10.2-.918-6.481-.482-7.364a6.843,6.843,0,0,1,2.005-1.875,56.9,56.9,0,0,1-5.319-3.1C208.844,223,207.071,221.116,206.72,221.869Z" transform="translate(-206.72 -221.699)" fill="#fff" stroke="#263238" stroke-linecap="round" stroke-linejoin="round" stroke-width="1"/>
    </clipPath>
    <clipPath id="clip-path-14">
      <path id="Path_37239" data-name="Path 37239" d="M203.88,210.493a34.858,34.858,0,0,0,7.206,4.645c3.127,1.246,7.931,1.167,8.616-.459s-1.19-14.5-2.8-17.89-3.337-3.444-6.186-3.7-8.548,2.062-9.551,4.815.142,6.651.969,8.962a16.993,16.993,0,0,0,1.75,3.631Z" transform="translate(-200.769 -193.065)" fill="#fff" stroke="#263238" stroke-linecap="round" stroke-linejoin="round" stroke-width="1"/>
    </clipPath>
    <clipPath id="clip-path-15">
      <path id="Path_37256" data-name="Path 37256" d="M204.827,216.469s-1.83-2.64-3.756-1.58-.431,4.826.731,6.135,3.4-1.133,3.631-1.745" transform="translate(-200.145 -214.637)" fill="#fff" stroke="#263238" stroke-linecap="round" stroke-linejoin="round" stroke-width="1"/>
    </clipPath>
  </defs>
  <g id="Blogging-bro" transform="translate(0 0.5)">
    <g id="freepik--background-simple--inject-39" transform="translate(0 23.522)">
      <path id="Path_37153" data-name="Path 37153" d="M261.213,237.573c4.237-34.584-16.281-80.555-37.558-99.532-38.4-34.273-70.307-27.645-95.119-15.369s-28.364,53.25-45.495,71.791-26.886,43.478-.884,68.307,46.968,12.208,74.148,10.639,63.214,10.82,82.707.04C252.636,265.925,259.343,252.862,261.213,237.573Z" transform="translate(-66.184 -112.743)" fill="#86898e"/>
      <path id="Path_37154" data-name="Path 37154" d="M261.213,237.573c4.237-34.584-16.281-80.555-37.558-99.532-38.4-34.273-70.307-27.645-95.119-15.369s-28.364,53.25-45.495,71.791-26.886,43.478-.884,68.307,46.968,12.208,74.148,10.639,63.214,10.82,82.707.04C252.636,265.925,259.343,252.862,261.213,237.573Z" transform="translate(-66.184 -112.743)" fill="#fff" opacity="0.7"/>
    </g>
    <g id="freepik--Background--inject-39" transform="translate(4.648)">
      <line id="Line_340" data-name="Line 340" y1="127.426" transform="translate(82.832 19.708)" fill="none" stroke="#263238" stroke-linecap="round" stroke-linejoin="round" stroke-width="1"/>
      <path id="Path_37155" data-name="Path 37155" d="M74.39,333.18h80.379L276.887,372.6" transform="translate(-74.39 -184.783)" fill="none" stroke="#263238" stroke-linecap="round" stroke-linejoin="round" stroke-width="1"/>
      <path id="Path_37156" data-name="Path 37156" d="M124.594,243.985h-5.552V152.18H130.5l-4.945-17.85H110.715l-4.945,17.85h11.46v91.805h-5.569a5.438,5.438,0,0,0-5.433,5.336s0,.028,0,.04h0v.045h0c.164,1.28,5.421,2.311,11.9,2.311s11.732-1.031,11.9-2.311h0A5.438,5.438,0,0,0,124.594,243.985Z" transform="translate(-87.994 -98.579)" fill="#86898e"/>
      <path id="Path_37157" data-name="Path 37157" d="M269.59,84.612v108.1L350.977,206.1V71.22Zm79.274,30.953-41.354,2.345V80.352l41.354-6.583Zm-41.354,6.294,41.354-1.9v37.762l-41.354-1.932Zm-3.354,33.774-33.2-1.547V123.535l33.174-1.518Zm0-74.748v37.23l-33.2,1.864V86.164Zm-33.2,76.759,33.174,1.909v36.884l-33.174-5.28Zm36.527,39.326V159.745l41.354,2.379v41.427Z" transform="translate(-159.011 -71.22)" fill="#86898e" stroke="#86898e" stroke-linecap="round" stroke-linejoin="round" stroke-width="1"/>
    </g>
    <g id="freepik--Character--inject-39" transform="translate(13.956 59.738)">
      <ellipse id="Ellipse_2458" data-name="Ellipse 2458" cx="65.118" cy="20.286" rx="65.118" ry="20.286" transform="translate(8.084 100.641)" fill="#86898e"/>
      <ellipse id="Ellipse_2459" data-name="Ellipse 2459" cx="65.118" cy="20.286" rx="65.118" ry="20.286" transform="translate(8.084 100.641)" fill="#fff" opacity="0.5"/>
      <path id="Path_37158" data-name="Path 37158" d="M177.931,232.106s-14.757-1.75-24.467,5.824S135.4,277.153,135.6,292.313s5.829,22.722,20,28.931,40.578,3.886,55.335-.776,19.612-20.96,19.419-29.707-9.9-18.836-13.2-20.96-12.621-6.6-17.278-13.6S188.411,234.049,177.931,232.106Z" transform="translate(-110.23 -200.628)" fill="#86898e"/>
      <g id="Group_11694" data-name="Group 11694" transform="translate(25.364 31.303)" clip-path="url(#clip-path)">
        <path id="Path_37159" data-name="Path 37159" d="M213.643,323.914c-5.58-.753-12.2-2.266-17.2-5.308-10.576-6.418-13.216-18.507-16.995-23.039s-10.576-4.152-13.6-9.064,1.886-41.161-6.8-43.427a19.764,19.764,0,0,0-5.421-.776c-.051.045-.113.079-.164.125-9.71,7.574-18.06,39.224-17.867,54.383s5.829,22.722,20,28.931,40.578,3.886,55.335-.776A23.3,23.3,0,0,0,213.643,323.914Z" transform="translate(-135.594 -236.426)" opacity="0.13"/>
      </g>
      <path id="Path_37161" data-name="Path 37161" d="M177.931,232.106s-14.757-1.75-24.467,5.824S135.4,277.153,135.6,292.313s5.829,22.722,20,28.931,40.578,3.886,55.335-.776,19.612-20.96,19.419-29.707-9.9-18.836-13.2-20.96-12.621-6.6-17.278-13.6S188.411,234.049,177.931,232.106Z" transform="translate(-110.23 -200.628)" fill="none" stroke="#263238" stroke-linecap="round" stroke-linejoin="round" stroke-width="1"/>
      <path id="Path_37162" data-name="Path 37162" d="M184.68,243.472s-9.63,1.841-11.33,3.541-8.781,28.324-8.781,28.324a10.537,10.537,0,0,1,5.948.283c2.832,1.133,3.116,4.107,3.4,5.523a50.686,50.686,0,0,1,.425,5.1s28.625-2.555,34.714-3.965a124.463,124.463,0,0,1,15.358-2.068s-15.658-35.315-18.065-36.59-12.463-1.416-13.879-1.133S184.68,243.472,184.68,243.472Z" transform="translate(-122.791 -205.151)" fill="#263238" stroke="#263238" stroke-linecap="round" stroke-linejoin="round" stroke-width="1"/>
      <line id="Line_341" data-name="Line 341" y1="19.685" x2="2.408" transform="translate(52.4 51.351)" fill="none" stroke="#fff" stroke-linecap="round" stroke-linejoin="round" stroke-width="1"/>
      <line id="Line_342" data-name="Line 342" y1="4.249" x2="3.257" transform="translate(54.241 52.342)" fill="none" stroke="#fff" stroke-linecap="round" stroke-linejoin="round" stroke-width="1"/>
      <path id="Path_37163" data-name="Path 37163" d="M203.82,278.794s9.205-2.974,15.3-2.974" transform="translate(-139.807 -219.654)" fill="none" stroke="#fff" stroke-linecap="round" stroke-linejoin="round" stroke-width="1"/>
      <path id="Path_37164" data-name="Path 37164" d="M218.687,266.74l-.617,4.719s1.558,0,1.7.708a1.881,1.881,0,0,1-.566,1.416s4.39,2.408,4.957,5.24" transform="translate(-145.984 -215.718)" fill="none" stroke="#fff" stroke-linecap="round" stroke-linejoin="round" stroke-width="1"/>
      <path id="Path_37165" data-name="Path 37165" d="M204.473,234.705s-5.285,1.7-6.044,3.019-.187,10.576-.187,11.709.663-.663,1.229-1.983,2.549-3.308,3.206-3.116,1.042.94,1.042,2.17,1.507,2.929,2.832,3.869,2.549,1.892,2.549,1.892,2.736-3.965,3.4-5.008.566-3.206.657-3.965,1.8,2.079,2.175,1.326-.85-1.416-2.175-3.5-.94-4.249-2.923-5.761S205.986,234.32,204.473,234.705Z" transform="translate(-137.299 -201.664)" fill="#fff"/>
      <g id="Group_11695" data-name="Group 11695" transform="translate(60.736 32.657)" clip-path="url(#clip-path-2)">
        <path id="Path_37166" data-name="Path 37166" d="M198.431,238.014c-.5.884-.419,5.291-.306,8.5,1.207-1.552,3.694-4.487,5.132-3.931,1.835.708,2.538,5.925,2.538,5.925L204.555,235h-.079S199.19,236.7,198.431,238.014Z" transform="translate(-198.037 -234.615)" fill="#86898e"/>
        <path id="Path_37167" data-name="Path 37167" d="M198.431,238.014c-.5.884-.419,5.291-.306,8.5,1.207-1.552,3.694-4.487,5.132-3.931,1.835.708,2.538,5.925,2.538,5.925L204.555,235h-.079S199.19,236.7,198.431,238.014Z" transform="translate(-198.037 -234.615)" fill="#fff" opacity="0.5"/>
      </g>
      <path id="Path_37169" data-name="Path 37169" d="M204.473,234.705s-5.285,1.7-6.044,3.019-.187,10.576-.187,11.709.663-.663,1.229-1.983,2.549-3.308,3.206-3.116,1.042.94,1.042,2.17,1.507,2.929,2.832,3.869,2.549,1.892,2.549,1.892,2.736-3.965,3.4-5.008.566-3.206.657-3.965,1.8,2.079,2.175,1.326-.85-1.416-2.175-3.5-.94-4.249-2.923-5.761S205.986,234.32,204.473,234.705Z" transform="translate(-137.299 -201.664)" fill="none" stroke="#263238" stroke-linecap="round" stroke-linejoin="round" stroke-width="1"/>
      <path id="Path_37170" data-name="Path 37170" d="M174.447,298.639s-3.257-4.674-7.223-5.1-8.781,2.832-8.922,3.965-1.133,7.223-.425,8.072,3.4,1.558,8.639-.142S173.88,301.613,174.447,298.639Z" transform="translate(-119.78 -227.32)" fill="#fff"/>
      <g id="Group_11696" data-name="Group 11696" transform="translate(37.844 66.183)" clip-path="url(#clip-path-3)">
        <path id="Path_37171" data-name="Path 37171" d="M161.2,305.543s-1.133-3.24-.566-4.368,2.832-2.832,4.232-4.532-3.3.957-3.529,0c-.176-.77,2.487-2.311,3.535-2.883-3.3.634-6.452,2.929-6.566,3.841-.142,1.133-1.133,7.223-.425,8.072a3.836,3.836,0,0,0,2.764.889C160.981,305.979,161.2,305.543,161.2,305.543Z" transform="translate(-157.624 -293.614)" fill="#86898e"/>
        <path id="Path_37172" data-name="Path 37172" d="M161.2,305.543s-1.133-3.24-.566-4.368,2.832-2.832,4.232-4.532-3.3.957-3.529,0c-.176-.77,2.487-2.311,3.535-2.883-3.3.634-6.452,2.929-6.566,3.841-.142,1.133-1.133,7.223-.425,8.072a3.836,3.836,0,0,0,2.764.889C160.981,305.979,161.2,305.543,161.2,305.543Z" transform="translate(-157.624 -293.614)" fill="#fff" opacity="0.5"/>
      </g>
      <path id="Path_37174" data-name="Path 37174" d="M174.447,298.639s-3.257-4.674-7.223-5.1-8.781,2.832-8.922,3.965-1.133,7.223-.425,8.072,3.4,1.558,8.639-.142S173.88,301.613,174.447,298.639Z" transform="translate(-119.78 -227.32)" fill="none" stroke="#263238" stroke-linecap="round" stroke-linejoin="round" stroke-width="1"/>
      <path id="Path_37175" data-name="Path 37175" d="M163.591,297.667s-5.314,2.107-5.523,6.231c-.119,2.266,3.682,3.257,7.648,3.257s9.63-4.957,13.313-7.081,12.18-7.081,13.171-7.506,4.39.708,5.806,1.133a19.151,19.151,0,0,0,4.107.425s1.983,3.116,2.974,3.116-2.124-4.674-2.549-5.665-7.364-3.257-8.214-3.257-20.677,4.957-23.651,6.09S163.591,297.667,163.591,297.667Z" transform="translate(-119.972 -225.073)" fill="#fff"/>
      <g id="Group_11697" data-name="Group 11697" transform="translate(38.094 63.247)" clip-path="url(#clip-path-4)">
        <path id="Path_37176" data-name="Path 37176" d="M174.7,297.078c8.1-4.05,19.623-8.758,19.623-8.758-.85,0-20.677,4.957-23.651,6.09s-7.081,3.257-7.081,3.257-5.314,2.107-5.523,6.231c-.119,2.266,3.682,3.257,7.648,3.257s9.63-4.957,13.312-7.081l2.232-1.292C175.85,299.469,168.616,300.114,174.7,297.078Z" transform="translate(-158.065 -288.32)" fill="#86898e"/>
        <path id="Path_37177" data-name="Path 37177" d="M174.7,297.078c8.1-4.05,19.623-8.758,19.623-8.758-.85,0-20.677,4.957-23.651,6.09s-7.081,3.257-7.081,3.257-5.314,2.107-5.523,6.231c-.119,2.266,3.682,3.257,7.648,3.257s9.63-4.957,13.312-7.081l2.232-1.292C175.85,299.469,168.616,300.114,174.7,297.078Z" transform="translate(-158.065 -288.32)" fill="#fff" opacity="0.5"/>
      </g>
      <path id="Path_37179" data-name="Path 37179" d="M163.591,297.667s-5.314,2.107-5.523,6.231c-.119,2.266,3.682,3.257,7.648,3.257s9.63-4.957,13.313-7.081,12.18-7.081,13.171-7.506,4.39.708,5.806,1.133a19.151,19.151,0,0,0,4.107.425s1.983,3.116,2.974,3.116-2.124-4.674-2.549-5.665-7.364-3.257-8.214-3.257-20.677,4.957-23.651,6.09S163.591,297.667,163.591,297.667Z" transform="translate(-119.972 -225.073)" fill="none" stroke="#263238" stroke-linecap="round" stroke-linejoin="round" stroke-width="1"/>
      <path id="Path_37180" data-name="Path 37180" d="M237.637,248.326,233.32,272.6l31.157.142,4.634-23.022a1.433,1.433,0,0,0-1.36-1.7l-28.664-.861a1.428,1.428,0,0,0-1.45,1.167Z" transform="translate(-152.595 -207.229)" fill="#fff" stroke="#263238" stroke-linecap="round" stroke-linejoin="round" stroke-width="1"/>
      <path id="Path_37181" data-name="Path 37181" d="M221.711,292.07,206.54,302.8l34.7-.991,11.63-9.6Z" transform="translate(-140.986 -226.699)" fill="#fff"/>
      <g id="Group_11698" data-name="Group 11698" transform="translate(65.554 65.371)" clip-path="url(#clip-path-5)">
        <path id="Path_37182" data-name="Path 37182" d="M221.711,292.07,206.54,302.8l34.7-.991,11.63-9.6Z" transform="translate(-206.54 -292.07)" fill="#86898e"/>
        <path id="Path_37183" data-name="Path 37183" d="M221.711,292.07,206.54,302.8l34.7-.991,11.63-9.6Z" transform="translate(-206.54 -292.07)" fill="#fff" opacity="0.5"/>
      </g>
      <path id="Path_37185" data-name="Path 37185" d="M221.711,292.07,206.54,302.8l34.7-.991,11.63-9.6Z" transform="translate(-140.986 -226.699)" fill="none" stroke="#263238" stroke-linecap="round" stroke-linejoin="round" stroke-width="1"/>
      <path id="Path_37186" data-name="Path 37186" d="M253.57,297.867s12.463-10.9,24.784-14.587,14.87-3.116,14.587,2.408-6.231,34.414-10.2,41.779-8.922,20.818-8.781,23.368,4.957,10.055,9.205,12.746,3.824,5.948,1.133,6.515-5.807,1.558-15.012-4.39-13.029-14.445-12.463-16.57,6.515-4.957,8.922-9.205,6.373-20.11,6.656-27.333a42.918,42.918,0,0,1,2.832-13.312s-15.578,2.832-20.11,5.665Z" transform="translate(-161.374 -221.875)" fill="#fff"/>
      <g id="Group_11699" data-name="Group 11699" transform="translate(92.196 59.067)" clip-path="url(#clip-path-6)">
        <path id="Path_37187" data-name="Path 37187" d="M253.57,297.867s12.463-10.9,24.784-14.587,14.87-3.116,14.587,2.408-6.231,34.414-10.2,41.779-8.922,20.818-8.781,23.368,4.957,10.055,9.205,12.746,3.824,5.948,1.133,6.515-5.807,1.558-15.012-4.39-13.029-14.445-12.463-16.57,6.515-4.957,8.922-9.205,6.373-20.11,6.656-27.333a42.918,42.918,0,0,1,2.832-13.312s-15.578,2.832-20.11,5.665Z" transform="translate(-253.57 -280.942)" fill="#86898e"/>
        <path id="Path_37188" data-name="Path 37188" d="M253.57,297.867s12.463-10.9,24.784-14.587,14.87-3.116,14.587,2.408-6.231,34.414-10.2,41.779-8.922,20.818-8.781,23.368,4.957,10.055,9.205,12.746,3.824,5.948,1.133,6.515-5.807,1.558-15.012-4.39-13.029-14.445-12.463-16.57,6.515-4.957,8.922-9.205,6.373-20.11,6.656-27.333a42.918,42.918,0,0,1,2.832-13.312s-15.578,2.832-20.11,5.665Z" transform="translate(-253.57 -280.942)" fill="#fff" opacity="0.5"/>
      </g>
      <path id="Path_37190" data-name="Path 37190" d="M253.57,297.867s12.463-10.9,24.784-14.587,14.87-3.116,14.587,2.408-6.231,34.414-10.2,41.779-8.922,20.818-8.781,23.368,4.957,10.055,9.205,12.746,3.824,5.948,1.133,6.515-5.807,1.558-15.012-4.39-13.029-14.445-12.463-16.57,6.515-4.957,8.922-9.205,6.373-20.11,6.656-27.333a42.918,42.918,0,0,1,2.832-13.312s-15.578,2.832-20.11,5.665Z" transform="translate(-161.374 -221.875)" fill="none" stroke="#263238" stroke-linecap="round" stroke-linejoin="round" stroke-width="1"/>
      <path id="Path_37191" data-name="Path 37191" d="M265.75,339.929c-.181.317-.385.623-.6.929a14.553,14.553,0,0,1,7.965,3.32,25.017,25.017,0,0,1,1.937,1.875,123.871,123.871,0,0,1,7.693-18.587c3.965-7.364,9.914-36.255,10.2-41.779s-2.266-6.09-14.587-2.408-24.784,14.587-24.784,14.587l1.558,7.081c4.532-2.832,20.11-5.665,20.11-5.665a42.917,42.917,0,0,0-2.832,13.312C272.123,319.819,268.157,335.68,265.75,339.929Z" transform="translate(-161.374 -221.875)" fill="#fff" stroke="#263238" stroke-linecap="round" stroke-linejoin="round" stroke-width="1"/>
      <path id="Path_37192" data-name="Path 37192" d="M265.75,339.929c-.181.317-.385.623-.6.929a14.553,14.553,0,0,1,7.965,3.32,25.023,25.023,0,0,1,1.937,1.875c2.714-3.648,5.767-15.154,9.211-19.889,8.9-12.231,8.4-34.952,8.679-40.476s-2.266-6.09-14.587-2.408-24.784,14.587-24.784,14.587l1.558,7.081c4.532-2.832,20.11-5.665,20.11-5.665a42.917,42.917,0,0,0-2.832,13.312C272.123,319.819,268.157,335.68,265.75,339.929Z" transform="translate(-161.374 -221.875)" fill="#263238"/>
      <g id="Group_11700" data-name="Group 11700" transform="translate(92.196 59.067)" clip-path="url(#clip-path-7)">
        <path id="Path_37193" data-name="Path 37193" d="M265.75,339.929c-.181.317-.385.623-.6.929a14.553,14.553,0,0,1,7.965,3.32,25.023,25.023,0,0,1,1.937,1.875c2.714-3.648,5.767-15.154,9.211-19.889,8.9-12.231,8.4-34.952,8.679-40.476s-2.266-6.09-14.587-2.408-24.784,14.587-24.784,14.587l1.558,7.081c4.532-2.832,20.11-5.665,20.11-5.665a42.917,42.917,0,0,0-2.832,13.312C272.123,319.819,268.157,335.68,265.75,339.929Z" transform="translate(-253.57 -280.942)" fill="#fff" opacity="0.53"/>
        <path id="Path_37194" data-name="Path 37194" d="M286.953,287.784c-.221-2.011-22.127,7.262-31.366,11.262-1.28,1.02-2.017,1.665-2.017,1.665l1.558,7.081c4.532-2.832,20.11-5.665,20.11-5.665a42.917,42.917,0,0,0-2.832,13.312c-.283,7.223-4.249,23.084-6.656,27.333-.181.317-.385.623-.6.929a16.043,16.043,0,0,1,4.532,1.173c3.393-7.24,7.047-15.663,8.775-22.252C281.572,310.727,287.236,290.334,286.953,287.784Z" transform="translate(-253.57 -283.786)" opacity="0.14"/>
        <path id="Path_37195" data-name="Path 37195" d="M291.82,304s4.249-8.639,7.931-12.18" transform="translate(-270.152 -285.658)" fill="none" stroke="#263238" stroke-linecap="round" stroke-linejoin="round" stroke-width="1"/>
      </g>
      <path id="Path_37197" data-name="Path 37197" d="M265.75,339.929c-.181.317-.385.623-.6.929a14.553,14.553,0,0,1,7.965,3.32,25.023,25.023,0,0,1,1.937,1.875c2.714-3.648,5.767-15.154,9.211-19.889,8.9-12.231,8.4-34.952,8.679-40.476s-2.266-6.09-14.587-2.408-24.784,14.587-24.784,14.587l1.558,7.081c4.532-2.832,20.11-5.665,20.11-5.665a42.917,42.917,0,0,0-2.832,13.312C272.123,319.819,268.157,335.68,265.75,339.929Z" transform="translate(-161.374 -221.875)" fill="none" stroke="#263238" stroke-linecap="round" stroke-linejoin="round" stroke-width="1"/>
      <path id="Path_37198" data-name="Path 37198" d="M220.571,325.285a48.718,48.718,0,0,0,13.4-2.521c6.407-2.334-5.246-6.605-9.71-4.271a6.634,6.634,0,0,0-3.688,6.792Z" transform="translate(-147.046 -237.86)" fill="#263238" stroke="#263238" stroke-linecap="round" stroke-linejoin="round" stroke-width="1"/>
      <path id="Path_37199" data-name="Path 37199" d="M183.236,306.728s-4.532,2.549-6.09,5.382,5.144,7.551,12.225,7.268,20.065-7.976,20.065-7.976.142,12.463,2.549,16.995,13.454,15.578,17.844,18.411,19.119,13.454,21.385,15.154,6.515,4.815,7.506,4.957,11.33-12.463,13.737-16.711,4.532-13.171,3.682-15.154-2.549-.283-4.249,1.133S254.613,347.94,253.2,348.648a15.546,15.546,0,0,1-2.408.991s-12.746-12.18-19.544-21.527-7.364-21.385-9.914-25.917-6.231-6.515-11.755-5.948A58.864,58.864,0,0,0,183.236,306.728Z" transform="translate(-128.145 -228.469)" fill="#fff"/>
      <g id="Group_11701" data-name="Group 11701" transform="translate(48.774 67.684)" clip-path="url(#clip-path-8)">
        <path id="Path_37200" data-name="Path 37200" d="M293.85,399.425c3.784,2.708,7.075,5.1,8.055,5.835,2.266,1.7,6.515,4.815,7.506,4.957.351.051,1.881-1.507,3.813-3.722L297.005,396.06Z" transform="translate(-227.61 -339.464)" fill="#86898e"/>
        <path id="Path_37201" data-name="Path 37201" d="M293.85,399.425c3.784,2.708,7.075,5.1,8.055,5.835,2.266,1.7,6.515,4.815,7.506,4.957.351.051,1.881-1.507,3.813-3.722L297.005,396.06Z" transform="translate(-227.61 -339.464)" fill="#fff" opacity="0.5"/>
      </g>
      <path id="Path_37203" data-name="Path 37203" d="M183.236,306.728s-4.532,2.549-6.09,5.382,5.144,7.551,12.225,7.268,20.065-7.976,20.065-7.976.142,12.463,2.549,16.995,13.454,15.578,17.844,18.411,19.119,13.454,21.385,15.154,6.515,4.815,7.506,4.957,11.33-12.463,13.737-16.711,4.532-13.171,3.682-15.154-2.549-.283-4.249,1.133S254.613,347.94,253.2,348.648a15.546,15.546,0,0,1-2.408.991s-12.746-12.18-19.544-21.527-7.364-21.385-9.914-25.917-6.231-6.515-11.755-5.948A58.864,58.864,0,0,0,183.236,306.728Z" transform="translate(-128.145 -228.469)" fill="none" stroke="#263238" stroke-linecap="round" stroke-linejoin="round" stroke-width="1"/>
      <path id="Path_37204" data-name="Path 37204" d="M248.569,348.7c-3-2.923-14.23-18-18.666-26.665-6.5-12.7-7.2-17.029-9.749-21.561s-6.4-4.883-11.9-4.317a65.47,65.47,0,0,0-27.531,8.469s-5.1,2.764-6.651,5.6,4.118,9.965,13.975,9.064c7.058-.646,20.065-7.976,20.065-7.976s.142,12.463,2.549,16.995,13.454,15.578,17.844,18.411c2.781,1.8,9.721,6.724,15.006,10.52A16.809,16.809,0,0,1,248.569,348.7Z" transform="translate(-126.802 -228.384)" fill="#263238"/>
      <g id="Group_11702" data-name="Group 11702" transform="translate(47.019 67.573)" clip-path="url(#clip-path-9)">
        <path id="Path_37205" data-name="Path 37205" d="M248.569,348.7c-3-2.923-14.23-18-18.666-26.665-6.5-12.7-7.2-17.029-9.749-21.561s-6.4-4.883-11.9-4.317a65.47,65.47,0,0,0-27.531,8.469s-5.1,2.764-6.651,5.6,4.118,9.965,13.975,9.064c7.058-.646,20.065-7.976,20.065-7.976s.142,12.463,2.549,16.995,13.454,15.578,17.844,18.411c2.781,1.8,9.721,6.724,15.006,10.52A16.809,16.809,0,0,1,248.569,348.7Z" transform="translate(-173.821 -295.957)" fill="#fff" opacity="0.53"/>
        <path id="Path_37206" data-name="Path 37206" d="M220.195,330.763c-4.249-10.763-1.7-32.29-13.6-29.457-8.667,2.062-24.557,9.392-32.539,13.216.946,3.252,6.158,7.7,14.072,6.979,7.058-.646,20.065-7.976,20.065-7.976s.142,12.463,2.549,16.995S224.2,346.1,228.59,348.93c2.781,1.8,9.721,6.724,15.006,10.52a20.246,20.246,0,0,1,1.977-4.742C235.026,346.908,222.568,336.773,220.195,330.763Z" transform="translate(-173.925 -298.165)" opacity="0.14"/>
        <line id="Line_343" data-name="Line 343" x1="0.425" y1="7.364" transform="translate(33.847 7.995)" fill="none" stroke="#263238" stroke-linecap="round" stroke-linejoin="round" stroke-width="1"/>
      </g>
      <path id="Path_37208" data-name="Path 37208" d="M248.569,348.7c-3-2.923-14.23-18-18.666-26.665-6.5-12.7-7.2-17.029-9.749-21.561s-6.4-4.883-11.9-4.317a65.47,65.47,0,0,0-27.531,8.469s-5.1,2.764-6.651,5.6,4.118,9.965,13.975,9.064c7.058-.646,20.065-7.976,20.065-7.976s.142,12.463,2.549,16.995,13.454,15.578,17.844,18.411c2.781,1.8,9.721,6.724,15.006,10.52A16.809,16.809,0,0,1,248.569,348.7Z" transform="translate(-126.802 -228.384)" fill="none" stroke="#263238" stroke-linecap="round" stroke-linejoin="round" stroke-width="1"/>
      <path id="Path_37209" data-name="Path 37209" d="M307.372,391.038c2.266,1.7,6.515,4.815,7.506,4.957s11.33-12.463,13.737-16.711,4.532-13.171,3.682-15.154-2.549-.283-4.249,1.133-17.278,11.755-18.694,12.463c-.374.187-.714.34-1.014.47a3.781,3.781,0,0,0-.567,2.787c.567,1.275,2.974,2.974,2.974,2.974l-4.288,6.424Z" transform="translate(-184.302 -257.546)" fill="#263238" stroke="#263238" stroke-linecap="round" stroke-linejoin="round" stroke-width="1"/>
      <path id="Path_37210" data-name="Path 37210" d="M333.215,379.288c2.408-4.249,4.532-13.171,3.682-15.154-.493-1.133-1.269-1.059-2.17-.5.595,2.646,0,7.75-2.929,13.25-2.612,4.906-10.678,13.6-14.729,17.8a9.508,9.508,0,0,0,2.419,1.32C320.469,396.141,330.807,383.537,333.215,379.288Z" transform="translate(-188.902 -257.551)" fill="#fff"/>
      <g id="Group_11703" data-name="Group 11703" transform="translate(128.168 105.688)" clip-path="url(#clip-path-10)">
        <path id="Path_37211" data-name="Path 37211" d="M319.593,416.964l.125-.062.034-.028a1.21,1.21,0,0,0,.193-.136l.068-.057.164-.136.091-.085.221-.2.136-.13.187-.181.159-.159.159-.159.4-.425.068-.068.249-.272.1-.108c.295-.323.612-.674.94-1.048v-.028l.351-.4h0l-2.476-1.592c-1.4,1.53-2.714,2.912-3.756,3.994h0l.38.249.057.034.351.221h0l.566.323.159.091.159.085.181.091.119.057a1.463,1.463,0,0,0,.176.074l.085.034a.863.863,0,0,0,.2.057.216.216,0,0,0,.108,0Z" transform="translate(-317.044 -384.243)" fill="#86898e"/>
        <path id="Path_37212" data-name="Path 37212" d="M319.593,416.964l.125-.062.034-.028a1.21,1.21,0,0,0,.193-.136l.068-.057.164-.136.091-.085.221-.2.136-.13.187-.181.159-.159.159-.159.4-.425.068-.068.249-.272.1-.108c.295-.323.612-.674.94-1.048v-.028l.351-.4h0l-2.476-1.592c-1.4,1.53-2.714,2.912-3.756,3.994h0l.38.249.057.034.351.221h0l.566.323.159.091.159.085.181.091.119.057a1.463,1.463,0,0,0,.176.074l.085.034a.863.863,0,0,0,.2.057.216.216,0,0,0,.108,0Z" transform="translate(-317.044 -384.243)" fill="#fff" opacity="0.5"/>
      </g>
      <path id="Path_37214" data-name="Path 37214" d="M333.215,379.288c2.408-4.249,4.532-13.171,3.682-15.154-.493-1.133-1.269-1.059-2.17-.5.595,2.646,0,7.75-2.929,13.25-2.612,4.906-10.678,13.6-14.729,17.8a9.508,9.508,0,0,0,2.419,1.32C320.469,396.141,330.807,383.537,333.215,379.288Z" transform="translate(-188.902 -257.551)" fill="none" stroke="#263238" stroke-linecap="round" stroke-linejoin="round" stroke-width="1"/>
      <path id="Path_37215" data-name="Path 37215" d="M285.607,412.54c-4.249-2.691-9.064-10.2-9.205-12.746a4.025,4.025,0,0,1,.068-.833,4.05,4.05,0,0,0-2.334.833,54.142,54.142,0,0,0-5.523-4.39,11.568,11.568,0,0,0-5.1-1.524c-2.056,1.7-3.965,3.059-4.266,4.215-.566,2.124,3.257,10.622,12.463,16.57s12.321,4.957,15.012,4.39S289.856,415.231,285.607,412.54Z" transform="translate(-163.812 -270.835)" fill="#263238" stroke="#263238" stroke-linecap="round" stroke-linejoin="round" stroke-width="1"/>
      <path id="Path_37216" data-name="Path 37216" d="M285.62,414.56a18.507,18.507,0,0,1-3.773-3.4A74.636,74.636,0,0,1,271.6,406.2c-3.682-2.266-2.832-3.682-4.957-5.806-1.632-1.632-4.838-1.841-6.231-1.852a3.914,3.914,0,0,0-1.133,1.569c-.566,2.124,3.257,10.622,12.463,16.57s12.321,4.957,15.012,4.39S289.869,417.251,285.62,414.56Z" transform="translate(-163.825 -272.855)" fill="#fff"/>
      <g id="Group_11704" data-name="Group 11704" transform="translate(95.399 125.685)" clip-path="url(#clip-path-11)">
        <path id="Path_37217" data-name="Path 37217" d="M285.62,414.56a18.507,18.507,0,0,1-3.773-3.4A74.636,74.636,0,0,1,271.6,406.2c-3.682-2.266-2.832-3.682-4.957-5.806-1.632-1.632-4.838-1.841-6.231-1.852a3.914,3.914,0,0,0-1.133,1.569c-.566,2.124,3.257,10.622,12.463,16.57s12.321,4.957,15.012,4.39S289.869,417.251,285.62,414.56Z" transform="translate(-259.224 -398.54)" fill="#86898e"/>
        <path id="Path_37218" data-name="Path 37218" d="M285.62,414.56a18.507,18.507,0,0,1-3.773-3.4A74.636,74.636,0,0,1,271.6,406.2c-3.682-2.266-2.832-3.682-4.957-5.806-1.632-1.632-4.838-1.841-6.231-1.852a3.914,3.914,0,0,0-1.133,1.569c-.566,2.124,3.257,10.622,12.463,16.57s12.321,4.957,15.012,4.39S289.869,417.251,285.62,414.56Z" transform="translate(-259.224 -398.54)" fill="#fff" opacity="0.5"/>
      </g>
      <path id="Path_37220" data-name="Path 37220" d="M285.62,414.56a18.507,18.507,0,0,1-3.773-3.4A74.636,74.636,0,0,1,271.6,406.2c-3.682-2.266-2.832-3.682-4.957-5.806-1.632-1.632-4.838-1.841-6.231-1.852a3.914,3.914,0,0,0-1.133,1.569c-.566,2.124,3.257,10.622,12.463,16.57s12.321,4.957,15.012,4.39S289.869,417.251,285.62,414.56Z" transform="translate(-163.825 -272.855)" fill="none" stroke="#263238" stroke-linecap="round" stroke-linejoin="round" stroke-width="1"/>
      <path id="Path_37221" data-name="Path 37221" d="M286.338,416.426c-3.682-2.124-11.188-3.541-16-6.8s-3.541-6.09-7.081-8.356a3.6,3.6,0,0,0-3.965-.227c-.493,2.209,3.342,10.61,12.463,16.513s12.321,4.957,15.012,4.39c1.79-.38,2.566-1.943,1.643-3.739A7.727,7.727,0,0,0,286.338,416.426Z" transform="translate(-163.835 -273.729)" fill="#263238"/>
      <g id="Group_11705" data-name="Group 11705" transform="translate(95.411 126.827)" clip-path="url(#clip-path-12)">
        <path id="Path_37222" data-name="Path 37222" d="M286.338,416.426c-3.682-2.124-11.188-3.541-16-6.8s-3.541-6.09-7.081-8.356a3.6,3.6,0,0,0-3.965-.227c-.493,2.209,3.342,10.61,12.463,16.513s12.321,4.957,15.012,4.39c1.79-.38,2.566-1.943,1.643-3.739A7.727,7.727,0,0,0,286.338,416.426Z" transform="translate(-259.246 -400.556)" fill="#fff" opacity="0.53"/>
      </g>
      <path id="Path_37224" data-name="Path 37224" d="M286.338,416.426c-3.682-2.124-11.188-3.541-16-6.8s-3.541-6.09-7.081-8.356a3.6,3.6,0,0,0-3.965-.227c-.493,2.209,3.342,10.61,12.463,16.513s12.321,4.957,15.012,4.39c1.79-.38,2.566-1.943,1.643-3.739A7.727,7.727,0,0,0,286.338,416.426Z" transform="translate(-163.835 -273.729)" fill="none" stroke="#263238" stroke-linecap="round" stroke-linejoin="round" stroke-width="1"/>
      <path id="Path_37225" data-name="Path 37225" d="M181,379.428s2.719-3.3,3.1-.776-.193,7.183-2.136,8.928-2.912-.969-2.912-.969l1.167-1.552s.969,1.943,1.745-1.167-1.552-2.719-1.552-2.719Z" transform="translate(-129.073 -263.82)" fill="#fff" stroke="#263238" stroke-linecap="round" stroke-linejoin="round" stroke-width="1"/>
      <path id="Path_37226" data-name="Path 37226" d="M170.153,391.44c-1.609,1.19-6.855,1.19-8.458,0-3.4-2.521-2.832-14.7-2.832-14.7h14.083S173.558,388.919,170.153,391.44Z" transform="translate(-120.302 -263.404)" fill="#fff" stroke="#263238" stroke-linecap="round" stroke-linejoin="round" stroke-width="1"/>
      <path id="Path_37227" data-name="Path 37227" d="M161.61,360.78c0-1.53,1.422-1.53,1.422-3.065s-1.422-1.535-1.422-3.065,1.422-1.535,1.422-3.07-1.422-1.535-1.422-3.07,1.422-1.535,1.422-3.07" transform="translate(-121.508 -249.835)" fill="none" stroke="#263238" stroke-linecap="round" stroke-linejoin="round" stroke-width="1"/>
      <path id="Path_37228" data-name="Path 37228" d="M170.2,363.607c0-1.133,1.422-1.133,1.422-2.328s-1.422-1.161-1.422-2.328,1.422-1.161,1.422-2.328-1.422-1.167-1.422-2.334,1.422-1.161,1.422-2.328" transform="translate(-125.232 -252.662)" fill="none" stroke="#263238" stroke-linecap="round" stroke-linejoin="round" stroke-width="1"/>
      <path id="Path_37229" data-name="Path 37229" d="M179.65,360.78c0-1.53,1.416-1.53,1.416-3.065s-1.416-1.535-1.416-3.065,1.416-1.535,1.416-3.07-1.416-1.535-1.416-3.07,1.416-1.535,1.416-3.07" transform="translate(-129.329 -249.835)" fill="none" stroke="#263238" stroke-linecap="round" stroke-linejoin="round" stroke-width="1"/>
      <path id="Path_37230" data-name="Path 37230" d="M172.993,376.25c0,.357-3.15.64-7.041.64s-7.041-.283-7.041-.64,3.15-.64,7.041-.64S172.993,375.893,172.993,376.25Z" transform="translate(-120.338 -262.914)" fill="#fff" stroke="#263238" stroke-linecap="round" stroke-linejoin="round" stroke-width="1"/>
      <path id="Path_37231" data-name="Path 37231" d="M206.72,221.869s.663,7.155.94,9.415.906,8.752,1.558,10.9,4.2,5.88,4.532,5.019,2.1-6.7,1.394-10.2-.918-6.481-.482-7.364a6.843,6.843,0,0,1,2.005-1.875,56.9,56.9,0,0,1-5.319-3.1C208.844,223,207.071,221.116,206.72,221.869Z" transform="translate(-141.064 -196.192)" fill="#fff"/>
      <g id="Group_11706" data-name="Group 11706" transform="translate(65.656 25.507)" clip-path="url(#clip-path-13)">
        <path id="Path_37232" data-name="Path 37232" d="M215.821,228.163l-.566-1.1c-1.042-.566-2.493-1.4-3.869-2.328-2.521-1.7-4.294-3.609-4.645-2.832,0,0,.663,7.155.94,9.415s.906,8.752,1.558,10.9a7.325,7.325,0,0,0,.912,1.767c-.685-4.271.057-11.987.057-11.987Z" transform="translate(-206.729 -221.71)" fill="#86898e"/>
        <path id="Path_37233" data-name="Path 37233" d="M215.821,228.163l-.566-1.1c-1.042-.566-2.493-1.4-3.869-2.328-2.521-1.7-4.294-3.609-4.645-2.832,0,0,.663,7.155.94,9.415s.906,8.752,1.558,10.9a7.325,7.325,0,0,0,.912,1.767c-.685-4.271.057-11.987.057-11.987Z" transform="translate(-206.729 -221.71)" fill="#fff" opacity="0.5"/>
      </g>
      <path id="Path_37235" data-name="Path 37235" d="M206.72,221.869s.663,7.155.94,9.415.906,8.752,1.558,10.9,4.2,5.88,4.532,5.019,2.1-6.7,1.394-10.2-.918-6.481-.482-7.364a6.843,6.843,0,0,1,2.005-1.875,56.9,56.9,0,0,1-5.319-3.1C208.844,223,207.071,221.116,206.72,221.869Z" transform="translate(-141.064 -196.192)" fill="none" stroke="#263238" stroke-linecap="round" stroke-linejoin="round" stroke-width="1"/>
      <path id="Path_37236" data-name="Path 37236" d="M203.88,210.493a34.858,34.858,0,0,0,7.206,4.645c3.127,1.246,7.931,1.167,8.616-.459s-1.19-14.5-2.8-17.89-3.337-3.444-6.186-3.7-8.548,2.062-9.551,4.815.142,6.651.969,8.962a16.993,16.993,0,0,0,1.75,3.631Z" transform="translate(-138.484 -183.779)" fill="#fff"/>
      <g id="Group_11707" data-name="Group 11707" transform="translate(62.285 9.286)" clip-path="url(#clip-path-14)">
        <path id="Path_37237" data-name="Path 37237" d="M211.191,210.341c-1.445-4.283-1.807-11.024-1.807-12.82,0-1.388,3.614-2.912,5.263-3.535a8.835,8.835,0,0,0-3.965-.9c-2.832-.255-8.548,2.062-9.551,4.815s.142,6.651.969,8.962a17,17,0,0,0,1.75,3.631,34.859,34.859,0,0,0,7.206,4.645,12.978,12.978,0,0,0,6.8.651C215.616,214.946,212.154,213.2,211.191,210.341Z" transform="translate(-200.756 -193.065)" fill="#86898e"/>
        <path id="Path_37238" data-name="Path 37238" d="M211.191,210.341c-1.445-4.283-1.807-11.024-1.807-12.82,0-1.388,3.614-2.912,5.263-3.535a8.835,8.835,0,0,0-3.965-.9c-2.832-.255-8.548,2.062-9.551,4.815s.142,6.651.969,8.962a17,17,0,0,0,1.75,3.631,34.859,34.859,0,0,0,7.206,4.645,12.978,12.978,0,0,0,6.8.651C215.616,214.946,212.154,213.2,211.191,210.341Z" transform="translate(-200.756 -193.065)" fill="#fff" opacity="0.5"/>
      </g>
      <path id="Path_37240" data-name="Path 37240" d="M203.88,210.493a34.858,34.858,0,0,0,7.206,4.645c3.127,1.246,7.931,1.167,8.616-.459s-1.19-14.5-2.8-17.89-3.337-3.444-6.186-3.7-8.548,2.062-9.551,4.815.142,6.651.969,8.962a16.993,16.993,0,0,0,1.75,3.631Z" transform="translate(-138.484 -183.779)" fill="none" stroke="#263238" stroke-linecap="round" stroke-linejoin="round" stroke-width="1"/>
      <path id="Path_37241" data-name="Path 37241" d="M226.119,206.827a2.444,2.444,0,1,1-4.781.215,2.746,2.746,0,0,1,2.266-3.053A2.7,2.7,0,0,1,226.119,206.827Z" transform="translate(-147.4 -188.514)" fill="none" stroke="#263238" stroke-linecap="round" stroke-linejoin="round" stroke-width="1"/>
      <path id="Path_37242" data-name="Path 37242" d="M233.459,205.656c.068,1.631-.459,2.974-1.173,3s-1.348-1.269-1.411-2.9.465-2.98,1.178-3.008S233.4,204.024,233.459,205.656Z" transform="translate(-151.534 -187.977)" fill="none" stroke="#263238" stroke-linecap="round" stroke-linejoin="round" stroke-width="1"/>
      <path id="Path_37243" data-name="Path 37243" d="M230.08,207.94s4.679.889,4.226,2.017-3.614,2.345-3.614,2.345" transform="translate(-151.191 -190.228)" fill="#fff" stroke="#263238" stroke-linecap="round" stroke-linejoin="round" stroke-width="1"/>
      <path id="Path_37244" data-name="Path 37244" d="M229.57,206.749s.068-.566.787-.21" transform="translate(-150.97 -189.569)" fill="none" stroke="#263238" stroke-linecap="round" stroke-linejoin="round" stroke-width="1"/>
      <line id="Line_344" data-name="Line 344" x1="8.509" y2="3.348" transform="translate(65.282 18.755)" fill="none" stroke="#263238" stroke-linecap="round" stroke-linejoin="round" stroke-width="1"/>
      <path id="Path_37245" data-name="Path 37245" d="M221.28,203.937a2.158,2.158,0,0,1,2.119-1.28" transform="translate(-147.376 -187.935)" fill="none" stroke="#263238" stroke-linecap="round" stroke-linejoin="round" stroke-width="2"/>
      <line id="Line_345" data-name="Line 345" x1="1.309" y2="0.493" transform="translate(78.26 14.761)" fill="none" stroke="#263238" stroke-linecap="round" stroke-linejoin="round" stroke-width="2"/>
      <path id="Path_37246" data-name="Path 37246" d="M224.14,219.426a3,3,0,0,1,2.662.566" transform="translate(-148.616 -195.165)" fill="none" stroke="#263238" stroke-linecap="round" stroke-linejoin="round" stroke-width="1"/>
      <path id="Path_37247" data-name="Path 37247" d="M225.478,208.773c.079.566,0,1.054-.232,1.082s-.436-.408-.516-.98.028-1.048.238-1.076S225.4,208.207,225.478,208.773Z" transform="translate(-148.86 -190.166)" fill="#263238"/>
      <path id="Path_37248" data-name="Path 37248" d="M201,198.8s-.566,1.133,1.031,1.19,2.685-.719,1.909-1.7-1.926-1.9-.742-3.178,3.484-2.357,2.192-3.784-6.044-.13-4.855-1.286,6.685-2.362,9.154-2.209,7.081-1.762,8.1-4.266-.4-7.132-3.722-6.883-5.8,3.189-7.268,3.4-4.492-1.428-7.024,0-2.617,5.529-2.832,6.033-3.648,1.252-4.254,4.725a9.256,9.256,0,0,0,2.391,7.823c1.422,1.547,2.062,2.136,2.062,2.136Z" transform="translate(-134.929 -176.673)" fill="#263238" stroke="#263238" stroke-linecap="round" stroke-linejoin="round" stroke-width="1"/>
      <path id="Path_37249" data-name="Path 37249" d="M194.737,204.65a2.691,2.691,0,0,0,.363,1.507" transform="translate(-135.867 -188.801)" fill="none" stroke="#fff" stroke-linecap="round" stroke-linejoin="round" stroke-width="0.75"/>
      <path id="Path_37250" data-name="Path 37250" d="M209.6,186.752s-1.235-2.7,1.915-2.7,3.6,3.965.34,5.4-10.361,1.8-14.191,3.5a4.979,4.979,0,0,0-1.949,1.377" transform="translate(-136.295 -179.871)" fill="none" stroke="#fff" stroke-linecap="round" stroke-linejoin="round" stroke-width="0.75"/>
      <path id="Path_37251" data-name="Path 37251" d="M205.085,205.76c-1.133.408-2.6.974-4.09,1.665-3.155,1.467-2.481,2.929-2.481,2.929" transform="translate(-137.48 -189.282)" fill="none" stroke="#fff" stroke-linecap="round" stroke-linejoin="round" stroke-width="0.75"/>
      <path id="Path_37252" data-name="Path 37252" d="M213.3,204.53s-.278.079-.748.232" transform="translate(-143.591 -188.749)" fill="none" stroke="#fff" stroke-linecap="round" stroke-linejoin="round" stroke-width="0.75"/>
      <path id="Path_37253" data-name="Path 37253" d="M204.827,216.469s-1.83-2.64-3.756-1.58-.431,4.826.731,6.135,3.4-1.133,3.631-1.745" transform="translate(-138.214 -193.131)" fill="#fff"/>
      <g id="Group_11708" data-name="Group 11708" transform="translate(61.932 21.506)" clip-path="url(#clip-path-15)">
        <path id="Path_37254" data-name="Path 37254" d="M204.827,216.469s-1.83-2.64-3.756-1.58-.431,4.826.731,6.135,3.4-1.133,3.631-1.745" transform="translate(-200.145 -214.637)" fill="#86898e"/>
        <path id="Path_37255" data-name="Path 37255" d="M204.827,216.469s-1.83-2.64-3.756-1.58-.431,4.826.731,6.135,3.4-1.133,3.631-1.745" transform="translate(-200.145 -214.637)" fill="#fff" opacity="0.5"/>
      </g>
      <path id="Path_37257" data-name="Path 37257" d="M204.827,216.469s-1.83-2.64-3.756-1.58-.431,4.826.731,6.135,3.4-1.133,3.631-1.745" transform="translate(-138.214 -193.131)" fill="none" stroke="#263238" stroke-linecap="round" stroke-linejoin="round" stroke-width="1"/>
      <rect id="Rectangle_4214" data-name="Rectangle 4214" width="46.407" height="35.485" rx="5.12" transform="translate(0 20.93)" fill="#fff" stroke="#263238" stroke-linecap="round" stroke-linejoin="round" stroke-width="1"/>
      <path id="Path_37258" data-name="Path 37258" d="M171.18,253.911l27.191,7.081L171.18,247.68" transform="translate(-125.657 -207.455)" fill="#fff" stroke="#263238" stroke-linecap="round" stroke-linejoin="round" stroke-width="1"/>
      <rect id="Rectangle_4215" data-name="Rectangle 4215" width="10.916" height="28.664" transform="translate(3.75 24.34)" fill="#86898e" stroke="#263238" stroke-linecap="round" stroke-linejoin="round" stroke-width="1"/>
      <rect id="Rectangle_4216" data-name="Rectangle 4216" width="1.365" height="28.664" transform="translate(42.634 24.34)" fill="#86898e" stroke="#263238" stroke-linecap="round" stroke-linejoin="round" stroke-width="1"/>
      <rect id="Rectangle_4217" data-name="Rectangle 4217" width="1.365" height="2.447" transform="translate(42.634 37.443)" fill="#263238" stroke="#263238" stroke-linecap="round" stroke-linejoin="round" stroke-width="1"/>
      <line id="Line_346" data-name="Line 346" x2="21.498" transform="translate(18.082 25.02)" fill="#fff" stroke="#263238" stroke-linecap="round" stroke-linejoin="round" stroke-width="1"/>
      <line id="Line_347" data-name="Line 347" x2="21.498" transform="translate(18.082 28.091)" fill="#fff" stroke="#263238" stroke-linecap="round" stroke-linejoin="round" stroke-width="1"/>
      <line id="Line_348" data-name="Line 348" x2="21.498" transform="translate(18.082 31.167)" fill="#fff" stroke="#263238" stroke-linecap="round" stroke-linejoin="round" stroke-width="1"/>
      <line id="Line_349" data-name="Line 349" x2="21.498" transform="translate(18.082 34.237)" fill="#fff" stroke="#263238" stroke-linecap="round" stroke-linejoin="round" stroke-width="1"/>
      <line id="Line_350" data-name="Line 350" x2="21.498" transform="translate(18.082 41.743)" fill="#fff" stroke="#263238" stroke-linecap="round" stroke-linejoin="round" stroke-width="1"/>
      <line id="Line_351" data-name="Line 351" x2="21.498" transform="translate(18.082 44.473)" fill="#fff" stroke="#263238" stroke-linecap="round" stroke-linejoin="round" stroke-width="1"/>
      <line id="Line_352" data-name="Line 352" x2="21.498" transform="translate(18.082 47.204)" fill="#fff" stroke="#263238" stroke-linecap="round" stroke-linejoin="round" stroke-width="1"/>
      <line id="Line_353" data-name="Line 353" x2="21.498" transform="translate(18.082 52.869)" fill="#fff" stroke="#263238" stroke-linecap="round" stroke-linejoin="round" stroke-width="1"/>
      <line id="Line_354" data-name="Line 354" y1="28.659" x2="10.922" transform="translate(3.75 24.34)" fill="none" stroke="#263238" stroke-linecap="round" stroke-linejoin="round" stroke-width="1"/>
    </g>
    <g id="freepik--Plants--inject-39" transform="translate(169.013 113.606)">
      <ellipse id="Ellipse_2460" data-name="Ellipse 2460" cx="9.477" cy="4.249" rx="9.477" ry="4.249" transform="translate(3.742 69.959)" fill="#86898e"/>
      <ellipse id="Ellipse_2461" data-name="Ellipse 2461" cx="9.477" cy="4.249" rx="9.477" ry="4.249" transform="translate(3.742 69.959)" fill="#fff" opacity="0.5"/>
      <path id="Path_37259" data-name="Path 37259" d="M366.668,288.6a11.992,11.992,0,0,0,3.5.385s-.533-1.626-.566-1.7c-.566-1.133-2.266-3.019-3.665-2.832a1.7,1.7,0,0,0-1.343,2.1A3.434,3.434,0,0,0,366.668,288.6Z" transform="translate(-364.535 -277.258)" fill="#263238"/>
      <path id="Path_37260" data-name="Path 37260" d="M399.371,274.656c-1.4-.147-3.076,1.773-3.592,2.929-.045.1-.566,1.739-.533,1.739h.028c-.266.3-.566.629-.844.991-.566.674-1.167,1.439-1.779,2.323a29.151,29.151,0,0,0-1.841,2.934,21.8,21.8,0,0,0-1.575,3.546.108.108,0,0,0,0,.045c0-.414,0-1.575,0-1.665-.164-1.246-1.212-3.575-2.606-3.829a1.7,1.7,0,0,0-1.926,1.575,3.511,3.511,0,0,0,1.343,2.617,11.506,11.506,0,0,0,3.167,1.445,30.653,30.653,0,0,0-.929,3.841c-.136.759-.244,1.524-.351,2.294v-.725c-.164-1.252-1.212-3.575-2.6-3.829a1.7,1.7,0,0,0-1.932,1.569,3.5,3.5,0,0,0,1.343,2.617,11.2,11.2,0,0,0,3.076,1.422c-.034.295-.074.566-.113.884-.17,1.416-.329,2.832-.533,4.22-.074.487-.159.963-.244,1.439v-.623c-.164-1.252-1.212-3.575-2.606-3.835a1.7,1.7,0,0,0-1.926,1.575,3.5,3.5,0,0,0,1.343,2.617,10.26,10.26,0,0,0,2.985,1.388c-.1.487-.21.974-.329,1.445-.091.317-.159.629-.266.94s-.2.623-.3.929c-.21.566-.425,1.19-.646,1.75-.153.4-.306.77-.453,1.133.074-.487.2-1.439.2-1.518a6.492,6.492,0,0,0-.867-3.161,2.686,2.686,0,0,0,0-.368,1.7,1.7,0,0,0-2.045-1.416c-1.365.363-2.232,2.759-2.3,4.016,0,.079.045.889.085,1.4-.068-.295-.13-.566-.2-.889-.147-.606-.306-1.207-.476-1.847-.1-.312-.187-.623-.283-.935s-.221-.634-.329-.957c-.272-.736-.567-1.473-.912-2.209a10.884,10.884,0,0,0,3.155-1.178,3.468,3.468,0,0,0,1.53-2.51,1.666,1.666,0,0,0-1.8-1.7c-1.411.153-2.629,2.391-2.883,3.626,0,.079-.1.986-.136,1.484-.2-.442-.4-.878-.612-1.32-.629-1.263-1.3-2.521-1.971-3.784-.21-.385-.408-.77-.606-1.161a11.656,11.656,0,0,0,3.263-1.207,3.488,3.488,0,0,0,1.535-2.51,1.7,1.7,0,0,0-1.807-1.7c-1.4.153-2.623,2.391-2.878,3.626,0,.091-.136,1.4-.153,1.733-.442-.855-.872-1.7-1.269-2.566a29.649,29.649,0,0,1-1.377-3.558,11.691,11.691,0,0,0,3.286-1.212,3.488,3.488,0,0,0,1.535-2.51,1.7,1.7,0,0,0-1.807-1.7c-1.4.153-2.623,2.391-2.878,3.626,0,.1-.147,1.507-.153,1.762a.807.807,0,0,0-.074-.215,21.394,21.394,0,0,1-.714-3.761c-.079-.7-.113-1.377-.136-2.034a11.135,11.135,0,0,0,3.32-.833,3.429,3.429,0,0,0,1.8-2.328,1.7,1.7,0,0,0-1.609-1.9c-1.416,0-2.872,2.09-3.263,3.286,0,.068-.159.753-.255,1.258V282.3c0-1.065.068-2.045.136-2.912.045-.493.091-.935.142-1.354a11,11,0,0,0,2.544-2.266,3.451,3.451,0,0,0,.527-2.889,1.665,1.665,0,0,0-2.3-.946c-1.258.646-1.586,3.172-1.382,4.419,0,.108.493,1.756.516,1.745h0c-.051.4-.108.827-.159,1.292-.085.867-.176,1.847-.2,2.923a30.17,30.17,0,0,0,.079,3.461,21.936,21.936,0,0,0,.646,3.824.109.109,0,0,0,0,.045c-.221-.346-.878-1.3-.935-1.371-.827-.957-2.98-2.311-4.283-1.762a1.7,1.7,0,0,0-.742,2.374,3.489,3.489,0,0,0,2.566,1.445,11.686,11.686,0,0,0,3.439-.538,30.133,30.133,0,0,0,1.343,3.711c.306.708.634,1.411.974,2.107a4.474,4.474,0,0,0-.414-.566c-.827-.952-2.985-2.311-4.283-1.762a1.7,1.7,0,0,0-.742,2.379,3.506,3.506,0,0,0,2.56,1.445,11.331,11.331,0,0,0,3.348-.516c.13.266.261.533.4.8.64,1.28,1.286,2.549,1.881,3.812.21.448.4.9.566,1.343-.176-.266-.329-.482-.357-.516-.827-.952-2.985-2.311-4.283-1.762a1.7,1.7,0,0,0-.742,2.379,3.5,3.5,0,0,0,2.56,1.439,10.46,10.46,0,0,0,3.257-.487c.181.465.368.929.521,1.388.1.312.221.606.3.929s.176.629.266.94c.142.606.295,1.229.425,1.818.091.414.17.8.249,1.2-.2-.448-.623-1.309-.663-1.377-.674-1.071-2.6-2.742-3.965-2.391a1.665,1.665,0,0,0-1.093,2.238,3.494,3.494,0,0,0,2.311,1.813,13.074,13.074,0,0,0,3.467,0c.13.657.255,1.3.357,1.9.374,2.1.6,3.858.742,5.1a4.617,4.617,0,0,0,.068.6h-4.254l1.365,26.682a3.818,3.818,0,0,0,3.812,3.62h0a3.812,3.812,0,0,0,3.807-3.619l1.371-26.682h-3.965c.028-.062.057-.119.091-.181.566-1.133,1.3-2.764,2.113-4.753.255-.629.521-1.309.782-2.005a11.373,11.373,0,0,0,3.456.266,3.487,3.487,0,0,0,2.447-1.631,1.7,1.7,0,0,0-.923-2.317c-1.343-.448-3.4,1.076-4.135,2.09-.045.057-.448.765-.7,1.212.1-.289.21-.566.317-.861.215-.566.408-1.167.623-1.8.091-.306.187-.617.278-.935s.17-.651.255-.98c.181-.765.329-1.547.459-2.34a10.9,10.9,0,0,0,3.28.753,3.5,3.5,0,0,0,2.663-1.246,1.7,1.7,0,0,0-.567-2.425c-1.258-.651-3.507.566-4.4,1.433-.057.057-.629.77-.935,1.167.079-.482.153-.957.215-1.439.176-1.4.306-2.832.442-4.249l.136-1.3a11.675,11.675,0,0,0,3.4.793,3.508,3.508,0,0,0,2.663-1.246,1.7,1.7,0,0,0-.566-2.425c-1.258-.651-3.512.566-4.4,1.433-.068.068-.889,1.093-1.082,1.365.1-.957.21-1.909.357-2.832a29.836,29.836,0,0,1,.81-3.733,11.683,11.683,0,0,0,3.4.8,3.47,3.47,0,0,0,2.663-1.246A1.7,1.7,0,0,0,395,286.7c-1.258-.646-3.507.566-4.4,1.439-.068.068-.952,1.173-1.093,1.382a.757.757,0,0,1,.057-.215,21.412,21.412,0,0,1,1.479-3.535c.317-.629.663-1.212,1.008-1.767a11.576,11.576,0,0,0,3.229,1.133,3.46,3.46,0,0,0,2.781-.946,1.7,1.7,0,0,0-.289-2.476c-1.178-.782-3.546.159-4.532.946-.051.045-.567.566-.906.906l.476-.753c.595-.889,1.19-1.665,1.7-2.351.306-.391.595-.731.861-1.054a10.955,10.955,0,0,0,3.371-.476,3.442,3.442,0,0,0,2.039-2.124,1.7,1.7,0,0,0-1.411-2.153Zm-15.561,37.751c-.85,1.954-1.632,3.552-2.192,4.657l-.306.606h-.1c-.028-.215-.057-.453-.1-.719-.17-1.246-.436-3.019-.855-5.1-.136-.668-.289-1.382-.453-2.107a19.982,19.982,0,0,0,1.937-.906,11.982,11.982,0,0,0,2.832,1.813C384.308,311.246,384.058,311.846,383.809,312.407Z" transform="translate(-364.744 -271.764)" fill="#263238"/>
      <path id="Path_37261" data-name="Path 37261" d="M409.974,287.938s.448-1.648.465-1.756c.176-1.252-.227-3.767-1.5-4.385a1.7,1.7,0,0,0-2.266,1.008,3.5,3.5,0,0,0,.606,2.883A11.572,11.572,0,0,0,409.974,287.938Z" transform="translate(-382.752 -276.056)" fill="#263238"/>
    </g>
  </g>
</svg>
