<svg xmlns="http://www.w3.org/2000/svg" width="305.558" height="314.461" viewBox="0 0 305.558 314.461">
  <g id="CASE_STUDY" data-name="CASE STUDY" transform="translate(0.5 0.666)">
    <g id="Group_4568" data-name="Group 4568" transform="translate(5.806)">
      <path id="Path_3644" data-name="Path 3644" d="M413.209,326.931s3.388,14.378-4.783,31.914-6.379,31.884,5.479,35.47" transform="translate(-151.721 -107.64)" fill="none" stroke="#a7a7a7" stroke-linecap="round" stroke-miterlimit="10" stroke-width="1"/>
      <path id="Path_3645" data-name="Path 3645" d="M436.841,283.056S450.1,294,441.757,305.939c-10.23,14.636-40.557,6.8-45.567-13.445-3.544-14.32,9.3-12.726,11.292-3.427" transform="translate(-149.381 -94.19)" fill="none" stroke="#1c5d7a" stroke-linecap="round" stroke-miterlimit="10" stroke-width="1"/>
      <path id="Path_3646" data-name="Path 3646" d="M376.939,260.212s18.864-3.47,41.581,6.373" transform="translate(-143.813 -87.53)" fill="none" stroke="#a7a7a7" stroke-linecap="round" stroke-miterlimit="10" stroke-width="1"/>
      <path id="Path_3647" data-name="Path 3647" d="M59.876,195.252s-14.838,37,3.947,44.224,40.838-14.824,66.743-11.1" transform="translate(-47.427 -68.3)" fill="none" stroke="#a7a7a7" stroke-linecap="round" stroke-miterlimit="10" stroke-width="1"/>
      <g id="Group_4554" data-name="Group 4554" transform="translate(17.512 208.219)">
        <path id="Rectangle_580" data-name="Rectangle 580" d="M6,0H94.241a6,6,0,0,1,6,6V74.632a6,6,0,0,1-6,6H6a6,6,0,0,1-6-6V6A6,6,0,0,1,6,0Z" transform="translate(0.202 26.272) rotate(-10.407)" fill="#484d54"/>
        <path id="Rectangle_581" data-name="Rectangle 581" d="M6,0H94.24a6,6,0,0,1,6,6V74.632a6,6,0,0,1-6,6H6a6,6,0,0,1-6-6V6A6,6,0,0,1,6,0Z" transform="matrix(0.984, -0.181, 0.181, 0.984, 0, 25.174)" fill="#fff"/>
        <g id="Path_3740" data-name="Path 3740" transform="matrix(0.984, -0.181, 0.181, 0.984, 0, 25.174)" fill="none">
          <path d="M6,0H94.24a6,6,0,0,1,6,6V74.632a6,6,0,0,1-6,6H6a6,6,0,0,1-6-6V6A6,6,0,0,1,6,0Z" stroke="none"/>
          <path d="M 5.998573303222656 1.000007629394531 C 3.242347717285156 1.000007629394531 1 3.242347717285156 1 5.998580932617188 L 1 74.63155364990234 C 1 77.38772583007812 3.2423095703125 79.63002777099609 5.998481750488281 79.63002777099609 L 94.24057769775391 79.63002777099609 C 96.99673461914062 79.63002777099609 99.23904418945312 77.38772583007812 99.23904418945312 74.63156127929688 L 99.23904418945312 5.998580932617188 C 99.23904418945312 3.242347717285156 96.99669647216797 1.000007629394531 94.24047088623047 1.000007629394531 L 5.998573303222656 1.000007629394531 M 5.998573303222656 7.62939453125e-06 L 94.24047088623047 7.62939453125e-06 C 97.55339050292969 7.62939453125e-06 100.2390441894531 2.685661315917969 100.2390441894531 5.998580932617188 L 100.2390441894531 74.63156127929688 C 100.2390441894531 77.94441986083984 97.55342864990234 80.63002777099609 94.24057769775391 80.63002777099609 L 5.998481750488281 80.63002777099609 C 2.685600280761719 80.63002777099609 0 77.94441986083984 0 74.63155364990234 L 0 5.998580932617188 C 0 2.685661315917969 2.685653686523438 7.62939453125e-06 5.998573303222656 7.62939453125e-06 Z" stroke="none" fill="#484d54"/>
        </g>
        <path id="Path_3648" data-name="Path 3648" d="M177.159,405.129,97.386,419.78a2.14,2.14,0,0,1-2.492-1.718L83.721,357.228" transform="translate(-73.725 -324.911)" fill="none" stroke="#a7a7a7" stroke-linecap="round" stroke-miterlimit="10" stroke-width="1"/>
        <rect id="Rectangle_583" data-name="Rectangle 583" width="5.658" height="25.148" rx="0.778" transform="translate(22.839 66.576) rotate(-10.407)" fill="#a7a7a7"/>
        <rect id="Rectangle_584" data-name="Rectangle 584" width="5.658" height="31.846" rx="0.778" transform="translate(32.141 58.057) rotate(-10.407)" fill="#86898e"/>
        <rect id="Rectangle_585" data-name="Rectangle 585" width="5.658" height="51.268" rx="0.778" transform="translate(39.247 37.006) rotate(-10.407)" fill="#a7a7a7"/>
        <rect id="Rectangle_586" data-name="Rectangle 586" width="5.658" height="19.876" rx="0.778" transform="translate(55.533 65.932) rotate(-10.407)" fill="#86898e"/>
        <rect id="Rectangle_587" data-name="Rectangle 587" width="5.658" height="19.876" rx="0.778" transform="translate(87.275 60.102) rotate(-10.407)" fill="#a7a7a7"/>
        <rect id="Rectangle_588" data-name="Rectangle 588" width="5.658" height="25.148" rx="0.778" transform="matrix(0.984, -0.181, 0.181, 0.984, 65.196, 58.797)" fill="#a7a7a7"/>
        <rect id="Rectangle_589" data-name="Rectangle 589" width="5.658" height="39.071" rx="0.778" transform="translate(73.296 43.153) rotate(-10.407)" fill="#86898e"/>
        <path id="Path_3649" data-name="Path 3649" d="M80.55,346.478c-1.294.238-2.891-2.546-3.564-6.217s-.172-6.841,1.123-7.078S81,335.729,81.672,339.4q.084.459.144.906" transform="translate(-71.623 -317.723)" fill="none" stroke="#1c5d7a" stroke-linecap="round" stroke-miterlimit="10" stroke-width="1"/>
        <path id="Path_3650" data-name="Path 3650" d="M92.647,344.287c-1.06.194-2.465-2.624-3.139-6.3s-.362-6.8.7-7,2.466,2.624,3.139,6.3q.084.459.148.905" transform="translate(-75.347 -317.07)" fill="none" stroke="#1c5d7a" stroke-linecap="round" stroke-miterlimit="10" stroke-width="1"/>
        <path id="Path_3651" data-name="Path 3651" d="M104.61,342.114c-.864.159-2.111-2.689-2.785-6.36s-.52-6.776.344-6.935,2.111,2.689,2.785,6.36q.084.459.151.9" transform="translate(-79.008 -316.422)" fill="none" stroke="#1c5d7a" stroke-linecap="round" stroke-miterlimit="10" stroke-width="1"/>
        <path id="Path_3652" data-name="Path 3652" d="M116.939,339.893c-.432.079-1.329-2.832-2-6.5s-.87-6.712-.438-6.792,1.328,2.833,2,6.5q.084.459.158.9" transform="translate(-82.851 -315.76)" fill="none" stroke="#1c5d7a" stroke-linecap="round" stroke-miterlimit="10" stroke-width="1"/>
        <path id="Path_3653" data-name="Path 3653" d="M130.489,337.418c-.216.04-.938-2.9-1.612-6.575s-1.046-6.68-.83-6.719.938,2.9,1.611,6.576c.057.306.111.607.163.9" transform="translate(-86.949 -315.021)" fill="none" stroke="#564e4e" stroke-linecap="round" stroke-miterlimit="10" stroke-width="1"/>
        <path id="Path_3654" data-name="Path 3654" d="M200.477,324.451c1.294-.238,1.8-3.406,1.123-7.078s-2.271-6.454-3.565-6.217-1.8,3.407-1.123,7.078c.056.306.119.606.187.9" transform="translate(-107.452 -311.143)" fill="none" stroke="#564e4e" stroke-linecap="round" stroke-miterlimit="10" stroke-width="1"/>
        <path id="Path_3655" data-name="Path 3655" d="M188.694,326.646c1.06-.194,1.372-3.328.7-7s-2.08-6.49-3.139-6.3-1.372,3.328-.7,7c.056.306.118.606.184.9" transform="translate(-104.042 -311.8)" fill="none" stroke="#564e4e" stroke-linecap="round" stroke-miterlimit="10" stroke-width="1"/>
        <path id="Path_3656" data-name="Path 3656" d="M176.978,328.822c.864-.158,1.018-3.264.343-6.935s-1.921-6.519-2.785-6.36-1.018,3.264-.344,6.935q.085.46.18.9" transform="translate(-100.628 -312.451)" fill="none" stroke="#564e4e" stroke-linecap="round" stroke-miterlimit="10" stroke-width="1"/>
        <path id="Path_3657" data-name="Path 3657" d="M165.105,331.047c.432-.079.236-3.119-.439-6.791s-1.571-6.583-2-6.5-.236,3.12.439,6.791c.056.306.114.607.173.9" transform="translate(-97.241 -313.117)" fill="none" stroke="#564e4e" stroke-linecap="round" stroke-miterlimit="10" stroke-width="1"/>
        <path id="Path_3658" data-name="Path 3658" d="M151.7,333.523c.216-.04-.156-3.048-.83-6.719s-1.4-6.615-1.611-6.576.156,3.048.83,6.719q.084.459.169.9" transform="translate(-93.285 -313.857)" fill="none" stroke="#564e4e" stroke-linecap="round" stroke-miterlimit="10" stroke-width="1"/>
        <path id="Path_3659" data-name="Path 3659" d="M141.225,335.451s-.547-2.976-1.221-6.647-1.221-6.647-1.221-6.647.546,2.976,1.221,6.647l.165.9" transform="translate(-90.175 -314.433)" fill="none" stroke="#564e4e" stroke-linecap="round" stroke-miterlimit="10" stroke-width="1"/>
      </g>
      <g id="Group_4556" data-name="Group 4556" transform="translate(148.774 44.215)">
        <path id="Path_3660" data-name="Path 3660" d="M389.939,196.943l29.554-88.757L340.783,90.879l.174-8.47-15.871.777Z" transform="translate(-277.096 -78.803)" fill="#86898e"/>
        <path id="Path_3661" data-name="Path 3661" d="M262.937,77.268,256.651,173l112.842,22.4,23.787-87.544-78.866-16.69.028-11.328Z" transform="translate(-256.651 -77.268)" fill="#86898e"/>
        <path id="Path_3662" data-name="Path 3662" d="M360.847,207.32l-1.879,13.061,37.358,8.053,3.425-12.8Z" transform="translate(-287.219 -116.121)" fill="#86898e"/>
        <g id="Group_4555" data-name="Group 4555" transform="translate(11.006 5.658)">
          <path id="Path_3663" data-name="Path 3663" d="M272.346,85.336c2.1.1,1.888,4.306,3.984,4.411s2.307-4.1,4.405-3.993,1.888,4.306,3.987,4.411,2.306-4.1,4.4-3.994,1.889,4.307,3.988,4.412,2.306-4.1,4.4-3.994S299.408,90.9,301.507,91s2.31-4.1,4.41-3.994,1.891,4.307,3.992,4.412" transform="translate(-272.346 -85.336)" fill="none" stroke="#000" stroke-linecap="round" stroke-miterlimit="10" stroke-width="1"/>
        </g>
      </g>
      <path id="Path_3664" data-name="Path 3664" d="M347.9,154.025,342.92,154l.136-9.881h0a215.048,215.048,0,0,0-30.929,2.583c-5.367.841-10.415,1.839-15.107,2.923q-1.76.407-3.452.828-.847.21-1.675.424-1.658.427-3.247.863-3.609.991-6.843,2.008l-22.571-.093-2.581,39.318,92.991,18.461,1.5-48.738a3.2,3.2,0,0,0-.14-.891l.14-4.548A3.238,3.238,0,0,0,347.9,154.025Z" transform="translate(-107.877 -53.026)" opacity="0.2" style="mix-blend-mode: multiply;isolation: isolate"/>
      <g id="Group_4563" data-name="Group 4563" transform="translate(50.556 94.128)">
        <path id="Path_3665" data-name="Path 3665" d="M183.629,325.692a4.246,4.246,0,0,0-4.942-3.409l-59.66,10.958.356,9.705a3.239,3.239,0,0,0,3.238,3.238h64.771Z" transform="translate(-117.317 -200.358)" fill="#e2e2e2" style="mix-blend-mode: multiply;isolation: isolate"/>
        <path id="Path_3666" data-name="Path 3666" d="M296.855,297.174H124.284a3.238,3.238,0,0,1-3.238-3.238L116.589,172.5a3.238,3.238,0,0,1,3.238-3.238L300.57,170a3.238,3.238,0,0,1,3.238,3.238l-3.714,120.7A3.238,3.238,0,0,1,296.855,297.174Z" transform="translate(-116.589 -154.662)" fill="#86898e"/>
        <path id="Path_3667" data-name="Path 3667" d="M296.855,289.419H124.284a3.238,3.238,0,0,1-3.238-3.238l-4.457-121.441a3.238,3.238,0,0,1,3.238-3.238l180.743.743a3.238,3.238,0,0,1,3.238,3.238l-3.714,120.7A3.238,3.238,0,0,1,296.855,289.419Z" transform="translate(-116.589 -152.345)" fill="#a7a7a7"/>
        <line id="Line_25" data-name="Line 25" y1="121.875" transform="translate(93.609 13.108)" fill="none" stroke="#724c27" stroke-linecap="round" stroke-miterlimit="10" stroke-width="1"/>
        <path id="Path_3668" data-name="Path 3668" d="M132.48,256.023l-5.16-102.838s48.342-8.088,86.084,14.5c0,0,34.487-18.685,85.524-19.243L297.443,256.1,213.4,274.223Z" transform="translate(-119.795 -148.444)" fill="#fff"/>
        <g id="Path_3669" data-name="Path 3669" transform="translate(-119.795 -148.444)" fill="none" stroke-miterlimit="10">
          <path d="M132.48,256.023l-5.16-102.838s48.342-8.088,86.084,14.5c0,0,34.487-18.685,85.524-19.243L297.443,256.1,213.4,274.223Z" stroke="none"/>
          <path d="M 213.4086303710938 273.1989440917969 L 296.4539489746094 255.2853088378906 L 297.9140319824219 149.4576263427734 C 286.6771240234375 149.6351623535156 275.3554992675781 150.7130432128906 264.2472534179688 152.6637420654297 C 255.0870513916016 154.2723388671875 246.0498657226562 156.4747314453125 237.3866424560547 159.2097320556641 C 222.6305236816406 163.8682861328125 213.9661712646484 168.5197906494141 213.8805541992188 168.5661163330078 L 213.3795318603516 168.8375701904297 L 212.8905944824219 168.544921875 C 191.1163635253906 155.5124053955078 165.7418670654297 152.7767791748047 148.2895355224609 152.7767791748047 C 138.2652435302734 152.7767791748047 130.8260040283203 153.6924133300781 128.3641510009766 154.0399169921875 L 133.4404296875 255.2138977050781 L 213.4086303710938 273.1989440917969 M 213.4041748046875 274.222900390625 L 132.4797668457031 256.0227966308594 L 127.3200073242188 153.1851196289062 C 127.3200073242188 153.1851196289062 135.7394561767578 151.7767944335938 148.2895202636719 151.7767944335938 C 165.8184967041016 151.7767944335938 191.4092559814453 154.5222930908203 213.4041748046875 167.6868743896484 C 213.4041748046875 167.6868743896484 247.8914642333984 149.0015258789062 298.9281005859375 148.4440002441406 L 297.44287109375 256.0950012207031 L 213.4041748046875 274.222900390625 Z" stroke="none" fill="#e2e2e2"/>
        </g>
        <g id="Group_4559" data-name="Group 4559" transform="translate(21.585 18.662)">
          <g id="Group_4558" data-name="Group 4558">
            <g id="Group_4557" data-name="Group 4557">
              <path id="Path_3670" data-name="Path 3670" d="M163.191,175.057l.8,6.487-.438.024a8.2,8.2,0,0,0-2.732-4.071,6.1,6.1,0,0,0-3.97-1.071,6.052,6.052,0,0,0-5.646,4.379,13.758,13.758,0,0,0-.591,5.317,11.181,11.181,0,0,0,1.082,4.46,6.251,6.251,0,0,0,2.668,2.785,7.227,7.227,0,0,0,3.877.806,6.628,6.628,0,0,0,3.247-.98,10.868,10.868,0,0,0,2.961-3.344l.453.258a10.072,10.072,0,0,1-3.156,3.929,8.519,8.519,0,0,1-4.5,1.438,8.647,8.647,0,0,1-7.569-3.124,10.114,10.114,0,0,1-2.291-6.08,11.009,11.009,0,0,1,1-5.339,9.31,9.31,0,0,1,3.333-3.917,9.572,9.572,0,0,1,4.85-1.593,9.042,9.042,0,0,1,4.152.79,2.213,2.213,0,0,0,.865.264.935.935,0,0,0,.649-.305,2.208,2.208,0,0,0,.464-1.088Z" transform="translate(-147.37 -175.057)"/>
              <path id="Path_3671" data-name="Path 3671" d="M187.126,189.138l-7.411-.482-1.494,2.937a4.785,4.785,0,0,0-.589,1.635.971.971,0,0,0,.367.8,3.641,3.641,0,0,0,1.772.548l-.034.522-6.028-.393.034-.522a3.253,3.253,0,0,0,1.588-.45,8.652,8.652,0,0,0,1.774-2.65l7.758-15.316.494.032,5.628,16.358a7.28,7.28,0,0,0,1.3,2.587,2.984,2.984,0,0,0,1.786.761l-.034.522-7.552-.49.034-.523a2.828,2.828,0,0,0,1.57-.281.985.985,0,0,0,.454-.764,5.873,5.873,0,0,0-.437-2Zm-.327-1.07-2.745-7.947-3.834,7.519Z" transform="translate(-155.239 -175.269)"/>
              <path id="Path_3672" data-name="Path 3672" d="M219.889,180.36l-1.265,6.513-.513-.1a8.272,8.272,0,0,0-.316-3.16,4.748,4.748,0,0,0-1.5-2.121,5.2,5.2,0,0,0-2.346-1.133,3.43,3.43,0,0,0-2.56.419,2.735,2.735,0,0,0-1.334,1.823,2.426,2.426,0,0,0,.292,1.686,15.669,15.669,0,0,0,3.557,3.574,28.746,28.746,0,0,1,3.182,2.874,5.424,5.424,0,0,1,1.14,2.073,4.807,4.807,0,0,1,.1,2.254,4.966,4.966,0,0,1-2.376,3.365,6.119,6.119,0,0,1-4.571.718,9.143,9.143,0,0,1-1.518-.424,16.153,16.153,0,0,1-1.686-.853,8.16,8.16,0,0,0-1.63-.771.741.741,0,0,0-.589.1,1.7,1.7,0,0,0-.466.8l-.514-.1,1.255-6.458.513.1a9.322,9.322,0,0,0,.382,3.224,4.764,4.764,0,0,0,1.543,2.036A5.9,5.9,0,0,0,211.3,198a3.994,3.994,0,0,0,2.921-.384,2.892,2.892,0,0,0,1.428-1.971,2.989,2.989,0,0,0-.109-1.477,4.252,4.252,0,0,0-.931-1.55A34.483,34.483,0,0,0,212,190.276a29.091,29.091,0,0,1-3.017-2.827,5.936,5.936,0,0,1-1.2-2.078,4.494,4.494,0,0,1-.112-2.24,4.723,4.723,0,0,1,2.234-3.191,5.643,5.643,0,0,1,4.243-.7,8.1,8.1,0,0,1,3.037,1.353,3.316,3.316,0,0,0,1.029.56.841.841,0,0,0,.633-.1,1.741,1.741,0,0,0,.536-.8Z" transform="translate(-164.582 -176.268)"/>
              <path id="Path_3673" data-name="Path 3673" d="M235.889,185.936l-2.458,7.173,3.988,1.367a3.435,3.435,0,0,0,2.234.243,3.187,3.187,0,0,0,1.52-1.9l.5.17L239.5,199.3l-.5-.169a7.323,7.323,0,0,0,.208-1.828,1.773,1.773,0,0,0-.537-1.007,4.264,4.264,0,0,0-1.595-.846l-3.988-1.367-2.05,5.982a5.854,5.854,0,0,0-.4,1.5.887.887,0,0,0,.232.543,2.4,2.4,0,0,0,.965.5l3.078,1.055a8.821,8.821,0,0,0,2.308.552,3.514,3.514,0,0,0,1.628-.384,10.9,10.9,0,0,0,2.557-1.921l.535.184-3.125,4.013-13.985-4.794.17-.5.642.22a2.693,2.693,0,0,0,1.323.11,1.192,1.192,0,0,0,.8-.443,6.675,6.675,0,0,0,.755-1.7l4.041-11.79a4.126,4.126,0,0,0,.382-2.246,2.192,2.192,0,0,0-1.423-1.086l-.642-.22.17-.5,13.985,4.793-1.161,4.044-.522-.18a6.644,6.644,0,0,0,.053-2.181,2.268,2.268,0,0,0-.731-1.163,6.4,6.4,0,0,0-1.818-.847Z" transform="translate(-170.516 -177.483)"/>
            </g>
          </g>
        </g>
        <g id="Group_4562" data-name="Group 4562" transform="translate(24.099 46.571)">
          <g id="Group_4561" data-name="Group 4561">
            <g id="Group_4560" data-name="Group 4560">
              <path id="Path_3674" data-name="Path 3674" d="M159.176,214.856l.184,4.834-.382.015a6.039,6.039,0,0,0-.749-2.191,3.46,3.46,0,0,0-1.416-1.257,3.779,3.779,0,0,0-1.853-.415,2.5,2.5,0,0,0-1.748.722,1.993,1.993,0,0,0-.644,1.516,1.764,1.764,0,0,0,.488,1.148,11.382,11.382,0,0,0,3.118,1.945,21.119,21.119,0,0,1,2.737,1.511,3.939,3.939,0,0,1,1.153,1.283,3.494,3.494,0,0,1,.447,1.583,3.621,3.621,0,0,1-1.127,2.784,4.466,4.466,0,0,1-3.126,1.27,6.693,6.693,0,0,1-1.147-.049,11.733,11.733,0,0,1-1.339-.325,5.976,5.976,0,0,0-1.285-.277.545.545,0,0,0-.4.17,1.239,1.239,0,0,0-.2.648l-.381.014-.182-4.792.381-.015a6.774,6.774,0,0,0,.808,2.224,3.467,3.467,0,0,0,1.433,1.189,4.309,4.309,0,0,0,2.065.417,2.909,2.909,0,0,0,2.01-.758,2.105,2.105,0,0,0,.686-1.636,2.171,2.171,0,0,0-.323-1.03,3.1,3.1,0,0,0-.919-.946,25.223,25.223,0,0,0-2.245-1.23,21.388,21.388,0,0,1-2.612-1.506,4.32,4.32,0,0,1-1.2-1.276,3.266,3.266,0,0,1-.452-1.572,3.441,3.441,0,0,1,1.055-2.636,4.115,4.115,0,0,1,2.9-1.2,5.907,5.907,0,0,1,2.381.456,2.443,2.443,0,0,0,.824.227.617.617,0,0,0,.432-.177,1.272,1.272,0,0,0,.248-.655Z" transform="translate(-150.955 -214.856)"/>
              <path id="Path_3675" data-name="Path 3675" d="M179.151,215.584l.046,3.283-.392-.013a3.96,3.96,0,0,0-.269-1.248,2.07,2.07,0,0,0-.821-.91,2.966,2.966,0,0,0-1.387-.33l-1.97-.065-.353,10.68a2.865,2.865,0,0,0,.225,1.618,1.549,1.549,0,0,0,1.192.473l.484.016-.013.381-5.928-.2.013-.381.5.016a1.421,1.421,0,0,0,1.276-.494,3.138,3.138,0,0,0,.276-1.5l.354-10.68-1.68-.055a4.668,4.668,0,0,0-1.4.1,1.907,1.907,0,0,0-.942.722,3.052,3.052,0,0,0-.5,1.49l-.392-.013.274-3.273Z" transform="translate(-155.887 -214.961)"/>
              <path id="Path_3676" data-name="Path 3676" d="M196.391,217.369l.045-.379,4.916.586-.046.379-.522-.062a1.422,1.422,0,0,0-1.342.536,3.164,3.164,0,0,0-.391,1.449l-.672,5.634a10.033,10.033,0,0,1-.8,3.192,4.1,4.1,0,0,1-1.864,1.783,5.851,5.851,0,0,1-3.4.431,6.265,6.265,0,0,1-3.358-1.2,4.3,4.3,0,0,1-1.417-2.319,11.843,11.843,0,0,1,.08-3.46l.647-5.428a2.745,2.745,0,0,0-.153-1.722,1.468,1.468,0,0,0-1.095-.536l-.522-.062.046-.379,6,.716-.046.379-.532-.063a1.386,1.386,0,0,0-1.294.4,3.059,3.059,0,0,0-.44,1.506l-.722,6.053a13.5,13.5,0,0,0-.072,1.872,3.964,3.964,0,0,0,.344,1.693,2.945,2.945,0,0,0,1.006,1.1,3.914,3.914,0,0,0,1.752.593,4.993,4.993,0,0,0,2.508-.3A3.2,3.2,0,0,0,196.7,228.4a8.88,8.88,0,0,0,.769-3.092l.67-5.623a2.882,2.882,0,0,0-.093-1.663,1.516,1.516,0,0,0-1.134-.592Z" transform="translate(-161.573 -215.141)"/>
              <path id="Path_3677" data-name="Path 3677" d="M205.645,232.362l.085-.372.513.116a1.39,1.39,0,0,0,1.353-.274,3.242,3.242,0,0,0,.56-1.439l2-8.812a2.887,2.887,0,0,0,.081-1.663,1.513,1.513,0,0,0-1.067-.708l-.513-.116.084-.372,5.553,1.259a12.426,12.426,0,0,1,4.494,1.75,5.679,5.679,0,0,1,2.041,2.9,7.322,7.322,0,0,1,.121,3.963,7,7,0,0,1-2.809,4.365q-2.426,1.691-6.4.79Zm4.117-.1a10.547,10.547,0,0,0,2.079.768,5.217,5.217,0,0,0,4.245-.762,7.389,7.389,0,0,0,2.02-8.9,5.329,5.329,0,0,0-3.583-2.527,8.766,8.766,0,0,0-2.128-.176Z" transform="translate(-167.294 -216.011)"/>
              <path id="Path_3678" data-name="Path 3678" d="M241.842,227.331l4.592,1.649-.13.359-.252-.09a2.1,2.1,0,0,0-.818-.041,3.053,3.053,0,0,0-1.114.323,9.287,9.287,0,0,0-1.468,1.007l-4.969,3.86-1.185,3.3a2.783,2.783,0,0,0-.272,1.612,1.593,1.593,0,0,0,1.019.826l.427.153-.129.36-5.592-2.008.129-.359.466.167a1.419,1.419,0,0,0,1.366-.079,3.132,3.132,0,0,0,.722-1.341l1.119-3.116-1.632-6.811a12.34,12.34,0,0,0-.433-1.525,3.627,3.627,0,0,0-.737-.923,1.385,1.385,0,0,0-.529-.3l.129-.359,5.631,2.022-.129.359-.291-.1a1.8,1.8,0,0,0-.917-.088.733.733,0,0,0-.614.5,3.261,3.261,0,0,0,.139,1.475l1.225,5.229,4.038-3.131a3.184,3.184,0,0,0,1.071-1.15.919.919,0,0,0,.034-.536,1.012,1.012,0,0,0-.283-.48,2.066,2.066,0,0,0-.743-.4Z" transform="translate(-175.153 -217.587)"/>
            </g>
          </g>
        </g>
        <path id="Path_3679" data-name="Path 3679" d="M137.606,320.858H296.015a29.117,29.117,0,0,1,3.626-18.965s-49.409-2.231-84.039,18.128c0,0-32.677-19.666-80.924-18.2C134.678,301.822,138.024,307.611,137.606,320.858Z" transform="translate(-121.993 -194.243)" fill="#e2e2e2"/>
        <line id="Line_26" data-name="Line 26" y2="100.121" transform="translate(93.702 22.032)" fill="none" stroke="#e8d4d1" stroke-miterlimit="10" stroke-width="1"/>
        <path id="Path_3680" data-name="Path 3680" d="M237.279,261.481" transform="translate(-152.646 -182.214)" fill="none" stroke="#564e4e" stroke-linecap="round" stroke-miterlimit="10" stroke-width="1"/>
        <path id="Path_3681" data-name="Path 3681" d="M150.381,248.795s30.37-2.559,55.494,7.8" transform="translate(-126.685 -178.341)" fill="none" stroke="#564e4e" stroke-linecap="round" stroke-miterlimit="10" stroke-width="1"/>
        <path id="Path_3682" data-name="Path 3682" d="M150.381,257.1s30.37-2.559,55.494,7.8" transform="translate(-126.685 -180.823)" fill="none" stroke="#564e4e" stroke-linecap="round" stroke-miterlimit="10" stroke-width="1"/>
        <path id="Path_3683" data-name="Path 3683" d="M150.381,282.688s30.37-2.56,55.494,7.8" transform="translate(-126.685 -188.466)" fill="none" stroke="#564e4e" stroke-linecap="round" stroke-miterlimit="10" stroke-width="1"/>
        <path id="Path_3684" data-name="Path 3684" d="M213.77,269.3q1.217.328,2.433.687a88.484,88.484,0,0,1,8.611,3.022" transform="translate(-145.622 -184.551)" fill="none" stroke="#564e4e" stroke-linecap="round" stroke-miterlimit="10" stroke-width="1"/>
        <path id="Path_3685" data-name="Path 3685" d="M150.381,265.47a148.683,148.683,0,0,1,39.607,2.905" transform="translate(-126.685 -183.322)" fill="none" stroke="#564e4e" stroke-linecap="round" stroke-miterlimit="10" stroke-width="1"/>
        <path id="Path_3686" data-name="Path 3686" d="M229.518,282.956" transform="translate(-150.327 -188.63)" fill="none" stroke="#564e4e" stroke-linecap="round" stroke-miterlimit="10" stroke-width="1"/>
        <path id="Path_3687" data-name="Path 3687" d="M150.381,273.836a135.819,135.819,0,0,1,15.9-.114" transform="translate(-126.685 -185.822)" fill="none" stroke="#564e4e" stroke-linecap="round" stroke-miterlimit="10" stroke-width="1"/>
        <path id="Path_3688" data-name="Path 3688" d="M265.119,185.592s25.448-14.082,65.26-12.271" transform="translate(-160.963 -155.828)" fill="none" stroke="#222d3f" stroke-linecap="round" stroke-miterlimit="10" stroke-width="4"/>
        <path id="Path_3689" data-name="Path 3689" d="M265.119,202.178s32.909-12.78,65.26-8.6" transform="translate(-160.963 -161.678)" fill="none" stroke="#564e4e" stroke-linecap="round" stroke-miterlimit="10" stroke-width="1"/>
        <path id="Path_3690" data-name="Path 3690" d="M265.119,211.229s32.909-12.781,65.26-8.6" transform="translate(-160.963 -164.381)" fill="none" stroke="#564e4e" stroke-linecap="round" stroke-miterlimit="10" stroke-width="1"/>
        <path id="Path_3691" data-name="Path 3691" d="M265.119,220.28s32.909-12.781,65.26-8.6" transform="translate(-160.963 -167.085)" fill="none" stroke="#564e4e" stroke-linecap="round" stroke-miterlimit="10" stroke-width="1"/>
        <path id="Path_3692" data-name="Path 3692" d="M358.182,221.091" transform="translate(-188.766 -170.148)" fill="none" stroke="#564e4e" stroke-linecap="round" stroke-miterlimit="10" stroke-width="1"/>
        <path id="Path_3693" data-name="Path 3693" d="M265.119,230.171a160.181,160.181,0,0,1,28.825-7.464" transform="translate(-160.963 -170.63)" fill="none" stroke="#564e4e" stroke-linecap="round" stroke-miterlimit="10" stroke-width="1"/>
        <path id="Path_3694" data-name="Path 3694" d="M358.182,230.141" transform="translate(-188.766 -172.851)" fill="none" stroke="#564e4e" stroke-linecap="round" stroke-miterlimit="10" stroke-width="1"/>
        <path id="Path_3695" data-name="Path 3695" d="M265.119,239.22a160.192,160.192,0,0,1,28.853-7.469" transform="translate(-160.963 -173.332)" fill="none" stroke="#564e4e" stroke-linecap="round" stroke-miterlimit="10" stroke-width="1"/>
        <path id="Path_3696" data-name="Path 3696" d="M358.182,239.192" transform="translate(-188.766 -175.555)" fill="none" stroke="#564e4e" stroke-linecap="round" stroke-miterlimit="10" stroke-width="1"/>
        <path id="Path_3697" data-name="Path 3697" d="M265.119,248.26a160.287,160.287,0,0,1,29-7.493" transform="translate(-160.963 -176.026)" fill="none" stroke="#564e4e" stroke-linecap="round" stroke-miterlimit="10" stroke-width="1"/>
        <path id="Path_3698" data-name="Path 3698" d="M265.119,256.482s32.909-12.781,65.26-8.6" transform="translate(-160.963 -177.901)" fill="none" stroke="#564e4e" stroke-linecap="round" stroke-miterlimit="10" stroke-width="1"/>
        <path id="Path_3699" data-name="Path 3699" d="M265.119,265.532s32.909-12.78,65.26-8.6" transform="translate(-160.963 -180.605)" fill="none" stroke="#564e4e" stroke-linecap="round" stroke-miterlimit="10" stroke-width="1"/>
        <path id="Path_3700" data-name="Path 3700" d="M265.119,274.782s32.909-12.781,65.26-8.6" transform="translate(-160.963 -183.368)" fill="none" stroke="#564e4e" stroke-linecap="round" stroke-miterlimit="10" stroke-width="1"/>
        <path id="Path_3701" data-name="Path 3701" d="M265.119,284.031s32.909-12.781,65.26-8.6" transform="translate(-160.963 -186.131)" fill="none" stroke="#564e4e" stroke-linecap="round" stroke-miterlimit="10" stroke-width="1"/>
        <path id="Path_3702" data-name="Path 3702" d="M265.119,292.982s32.909-12.781,65.26-8.6" transform="translate(-160.963 -188.806)" fill="none" stroke="#564e4e" stroke-linecap="round" stroke-miterlimit="10" stroke-width="1"/>
        <path id="Path_3703" data-name="Path 3703" d="M318.213,218.563l.831,15.374a108.485,108.485,0,0,1,25.454.485V218.563A89.371,89.371,0,0,0,318.213,218.563Z" transform="translate(-176.825 -169.101)"/>
      </g>
      <circle id="Ellipse_36" data-name="Ellipse 36" cx="27.133" cy="27.133" r="27.133" transform="matrix(0.904, -0.427, 0.427, 0.904, 54.034, 23.168)" fill="none" stroke="#86898e" stroke-linecap="round" stroke-miterlimit="10" stroke-width="1"/>
      <path id="Path_3704" data-name="Path 3704" d="M200.754,92.729s16.606,11.422,17.6,37.726" transform="translate(-91.177 -37.671)" fill="none" stroke="#a7a7a7" stroke-linecap="round" stroke-miterlimit="10" stroke-width="1"/>
      <path id="Path_3705" data-name="Path 3705" d="M130.659,70.37s-.1,6.775,5.38,13.948" transform="translate(-70.236 -30.991)" fill="none" stroke="#a7a7a7" stroke-linecap="round" stroke-miterlimit="10" stroke-width="1"/>
      <path id="Path_3706" data-name="Path 3706" d="M156.092,64.547l10.362,6.576s6.576-9.465,11.059-16.241" transform="translate(-77.834 -26.364)" fill="none" stroke="#a7a7a7" stroke-linecap="round" stroke-linejoin="round" stroke-width="3"/>
      <g id="Group_4564" data-name="Group 4564" transform="translate(188.683 164.524)">
        <path id="Path_3707" data-name="Path 3707" d="M409.732,248.831l7.748,2.268,6.373,5.559,3.3,7.368-86.06,98.66-17.42-15.195Z" transform="translate(-316.582 -248.831)" fill="#86898e"/>
        <path id="Path_12566" data-name="Path 12566" d="M0,0H8.457V134.3H0Z" transform="matrix(-0.754, -0.657, 0.657, -0.754, 18.985, 109.037)"/>
        <path id="Path_3708" data-name="Path 3708" d="M338.071,404.644s2.288-7.038-5.524-4.818c0,0,4.091-10.8-6.373-5.559,0,0,.49-6.1-5.523-4.818,0,0-.12,16.659-7.09,25.71l4.642,1.111S329.039,405.146,338.071,404.644Z" transform="translate(-313.562 -290.788)" fill="#ffdaa9"/>
        <path id="Path_3709" data-name="Path 3709" d="M318.125,412.754a29.857,29.857,0,0,1-4.563,9.42l4.642,1.111a57.261,57.261,0,0,1,4.3-3.875A9.243,9.243,0,0,0,318.125,412.754Z" transform="translate(-313.562 -297.804)"/>
      </g>
      <path id="Path_3710" data-name="Path 3710" d="M258.107,367.865c11.28-.058,24,.381,29.428,2.39,10.761,3.986-47.228,20.525-48.623,28.895s37.9,9.366,56.811,13.55" transform="translate(-102.566 -119.868)" fill="none" stroke="#a7a7a7" stroke-linecap="round" stroke-miterlimit="10" stroke-width="1"/>
      <path id="Path_3711" data-name="Path 3711" d="M255.3,367.995c1.32-.031,2.7-.057,4.122-.078" transform="translate(-107.474 -119.885)" fill="none" stroke="#a7a7a7" stroke-linecap="round" stroke-miterlimit="10" stroke-width="1"/>
      <path id="Path_3712" data-name="Path 3712" d="M236.654,368.6s2.466-.138,6.333-.281" transform="translate(-101.903 -120.005)" fill="none" stroke="#a7a7a7" stroke-linecap="round" stroke-miterlimit="10" stroke-width="1"/>
      <path id="Path_3713" data-name="Path 3713" d="M354.575,342.934h-3.669l-1.3-5.438,20.463-15.071-.087,2.841Z" transform="translate(-135.649 -106.294)" fill="#d5e6ef" style="mix-blend-mode: multiply;isolation: isolate"/>
      <g id="Group_4567" data-name="Group 4567" transform="translate(0 39.378)">
        <g id="Group_4566" data-name="Group 4566">
          <g id="Group_4565" data-name="Group 4565">
            <path id="Path_3714" data-name="Path 3714" d="M55.615,190.839a4.911,4.911,0,0,0,9.3,2.285Z" transform="translate(-47.816 -106.36)" fill="#a7a7a7"/>
            <path id="Path_3715" data-name="Path 3715" d="M97.648,103.77a26.964,26.964,0,1,0-51.367,3.2l-.007-.012.032.074q.2.513.417,1.019c1.6,3.973,6.908,17.81,5.7,23.991l9.915,2.435,9.914,2.435c1.8-6.036,12.907-15.841,16.168-18.62q.428-.346.842-.71l.062-.05-.011.007A26.837,26.837,0,0,0,97.648,103.77Z" transform="translate(-44.494 -70.369)" fill="#86898e"/>
            <path id="Path_3716" data-name="Path 3716" d="M70.191,178.695,51.4,174.079a1.671,1.671,0,0,1-.2-.072,2.665,2.665,0,0,0-.856,1.389h0a2.659,2.659,0,0,0,.178,1.759,2.636,2.636,0,0,0-.795,3.234,2.675,2.675,0,0,0,1,4.729l15.1,3.709a2.675,2.675,0,0,0,3.075-3.729,2.636,2.636,0,0,0,.794-3.235,2.666,2.666,0,0,0,.973-1.476h0a2.669,2.669,0,0,0-.123-1.643A1.813,1.813,0,0,1,70.191,178.695Z" transform="translate(-45.742 -101.332)" fill="#e2e2e2"/>
            <path id="Path_3717" data-name="Path 3717" d="M66.586,144.309a.306.306,0,0,1-.058-.257c1.7-7.559,5.17-25.183,5.071-33.42-1.925-1.094-2.6-2.5-2.636-3.391a1.364,1.364,0,0,1,1.1-1.539,1.26,1.26,0,0,1,1.158.4c.6.645.889,2.117.953,4.136a13.908,13.908,0,0,0,5.352,1.323,12.68,12.68,0,0,0,3.128-.145c2.007-4.426,4.045-7.364,5.846-7.041a1.581,1.581,0,0,1,1.257,1.949c-.222,1.766-2.443,4.757-6.706,5.635-1.061,2.4-2.278,5.581-3.661,9.794-2.909,8.853-5.44,18.85-6.477,23.362a.306.306,0,0,1-.6-.137c.068-.3,4.91-21.194,10.042-32.9a13.322,13.322,0,0,1-2.877.09,14.882,14.882,0,0,1-5.3-1.236c.067,10.226-4.81,32.112-5.064,33.248a.306.306,0,0,1-.539.122Zm4.264-37.7c-.024-.03-.048-.058-.073-.084a.647.647,0,0,0-.616-.218c-.389.062-.609.4-.587.909a3.724,3.724,0,0,0,2,2.684A6.343,6.343,0,0,0,70.85,106.61ZM86.963,105.3a.888.888,0,0,0-.567-.316c-.853-.154-2.466.707-5.029,6.289,3.678-.91,5.592-3.475,5.785-5.018A1.308,1.308,0,0,0,86.963,105.3Z" transform="translate(-51.074 -80.523)" fill="#fff"/>
            <rect id="Rectangle_591" data-name="Rectangle 591" width="25.02" height="11.259" rx="2.993" transform="matrix(0.971, 0.238, -0.238, 0.971, 5.59, 61.102)" fill="#86898e"/>
          </g>
          <path id="Path_3718" data-name="Path 3718" d="M99.307,106.415c-3.841,3.022-10.583.862-15.058-4.825S79.261,88.841,83.1,85.819s10.583-.862,15.058,4.825S103.148,103.392,99.307,106.415Z" transform="translate(-55.259 -74.577)" style="mix-blend-mode: soft-light;isolation: isolate"/>
        </g>
        <line id="Line_27" data-name="Line 27" x2="13.484" y2="3.288" transform="translate(7.25 76.388)" fill="none" stroke="#bcbcbc" stroke-miterlimit="10" stroke-width="0.5"/>
        <line id="Line_28" data-name="Line 28" x2="12.886" y2="3.554" transform="translate(7.118 79.311)" fill="none" stroke="#bcbcbc" stroke-miterlimit="10" stroke-width="0.5"/>
      </g>
      <line id="Line_29" data-name="Line 29" x2="7.273" y2="11.857" transform="translate(4.627 26.525)" fill="none" stroke="#ffd252" stroke-linecap="round" stroke-linejoin="round" stroke-width="2"/>
      <line id="Line_34" data-name="Line 34" y2="12.872" transform="translate(24.696 22.082)" fill="none" stroke="#ffd252" stroke-linecap="round" stroke-linejoin="round" stroke-width="2"/>
      <line id="Line_30" data-name="Line 30" x2="1.404" y2="6.985" transform="translate(16.683 28.817)" fill="none" stroke="#ffd252" stroke-linecap="round" stroke-linejoin="round" stroke-width="2"/>
      <path id="Path_3719" data-name="Path 3719" d="M412.555,292.116" transform="translate(-154.454 -97.239)" fill="none" stroke="#1c5d7a" stroke-linecap="round" stroke-miterlimit="10" stroke-width="1"/>
      <path id="Path_3720" data-name="Path 3720" d="M441.236,288.052c2.909,4.313,5.381,10.932.521,17.887-10.23,14.636-40.557,6.8-45.567-13.445-2.651-10.712,3.867-12.519,8.155-8.857" transform="translate(-149.381 -94.19)" fill="none" stroke="#a7a7a7" stroke-linecap="round" stroke-miterlimit="10" stroke-width="1"/>
      <path id="Path_3721" data-name="Path 3721" d="M454.422,283.544" transform="translate(-166.962 -94.678)" fill="none" stroke="#1c5d7a" stroke-linecap="round" stroke-miterlimit="10" stroke-width="1"/>
      <path id="Path_3722" data-name="Path 3722" d="M425.952,415a11.022,11.022,0,0,0-1.225-.312c-4.651-.877-8.972,1.335-9.651,4.94s2.54,7.238,7.191,8.115a11.152,11.152,0,0,0,1.255.155Z" transform="translate(-155.18 -133.801)" fill="#a7a7a7"/>
      <path id="Path_3723" data-name="Path 3723" d="M431.92,427.377l-7.1-.729,1.316-6.984,7.7,1.452" transform="translate(-158.119 -135.344)" fill="none" stroke="#a7a7a7" stroke-linecap="round" stroke-miterlimit="10" stroke-width="1"/>
      <path id="Path_3724" data-name="Path 3724" d="M343.971,98.145l14.775,3.127L419.368,114.1l-16.656,61.3,1.112.313,17.012-62.61Z" transform="translate(-133.964 -39.289)" style="mix-blend-mode: multiply;isolation: isolate"/>
      <path id="Path_3725" data-name="Path 3725" d="M51.66,247.8s2.292,10.691,13.052,11.986" transform="translate(-46.635 -84.001)" fill="none" stroke="#a7a7a7" stroke-linecap="round" stroke-miterlimit="10" stroke-width="1"/>
      <path id="Path_3726" data-name="Path 3726" d="M403.3,277.693s-4.219-2.657-7.722.93" transform="translate(-149.381 -92.647)" fill="none" stroke="#a7a7a7" stroke-linecap="round" stroke-miterlimit="10" stroke-width="1"/>
      <line id="Line_31" data-name="Line 31" x1="3.188" y2="12.104" transform="translate(258.101 39.949)" fill="none" stroke="#a7a7a7" stroke-linecap="round" stroke-miterlimit="10" stroke-width="2"/>
      <line id="Line_32" data-name="Line 32" x1="5.057" y2="5.58" transform="translate(266.47 50.112)" fill="none" stroke="#a7a7a7" stroke-linecap="round" stroke-miterlimit="10" stroke-width="2"/>
    </g>
    <circle id="Ellipse_37" data-name="Ellipse 37" cx="5.39" cy="5.39" r="5.39" transform="matrix(0.162, -0.987, 0.987, 0.162, 30.932, 202.753)" fill="#e2e2e2"/>
    <path id="Path_3727" data-name="Path 3727" d="M102.467,273.8a1.85,1.85,0,1,1-1.85-1.85A1.85,1.85,0,0,1,102.467,273.8Z" transform="translate(-54.902 -91.216)" fill="#e2e2e2"/>
    <path id="Path_3728" data-name="Path 3728" d="M40.4,278.532a2.093,2.093,0,1,1-2.093-2.093A2.093,2.093,0,0,1,40.4,278.532Z" transform="translate(-36.214 -92.555)" fill="none" stroke="#e2e2e2" stroke-miterlimit="10" stroke-width="1"/>
    <path id="Path_3729" data-name="Path 3729" d="M294.447,404.6a2.12,2.12,0,1,1-2.12-2.119A2.12,2.12,0,0,1,294.447,404.6Z" transform="translate(-112.096 -130.21)" fill="none" stroke="#e2e2e2" stroke-miterlimit="10" stroke-width="1"/>
    <path id="Path_3730" data-name="Path 3730" d="M246.369,387.615a3.886,3.886,0,1,1-3.886-3.886A3.886,3.886,0,0,1,246.369,387.615Z" transform="translate(-96.677 -124.609)" fill="#e2e2e2"/>
    <path id="Path_3731" data-name="Path 3731" d="M318.908,364.461a1.212,1.212,0,1,1-1.212-1.212A1.212,1.212,0,0,1,318.908,364.461Z" transform="translate(-119.946 -118.49)" fill="#e2e2e2"/>
    <circle id="Ellipse_38" data-name="Ellipse 38" cx="5.933" cy="5.933" r="5.933" transform="matrix(0.231, -0.973, 0.973, 0.231, 280.192, 241.045)" fill="#e2e2e2"/>
    <path id="Path_3732" data-name="Path 3732" d="M432.176,370.917a1.6,1.6,0,1,1-1.6-1.6A1.6,1.6,0,0,1,432.176,370.917Z" transform="translate(-153.551 -120.302)" fill="#e2e2e2"/>
    <circle id="Ellipse_39" data-name="Ellipse 39" cx="4.707" cy="4.707" r="4.707" transform="translate(280.167 137.908)" fill="#e2e2e2"/>
    <path id="Path_3733" data-name="Path 3733" d="M457.333,236.445a1.483,1.483,0,1,1-1.484-1.484A1.484,1.484,0,0,1,457.333,236.445Z" transform="translate(-161.139 -80.164)" fill="#e2e2e2"/>
    <path id="Path_3734" data-name="Path 3734" d="M389.061,268.8a1.767,1.767,0,1,1-1.767-1.766A1.767,1.767,0,0,1,389.061,268.8Z" transform="translate(-140.573 -89.746)" fill="#e2e2e2"/>
    <path id="Path_3735" data-name="Path 3735" d="M248.524,83.569a4.946,4.946,0,1,1-4.946-4.945A4.946,4.946,0,0,1,248.524,83.569Z" transform="translate(-96.688 -33.457)" fill="#e2e2e2"/>
    <circle id="Ellipse_40" data-name="Ellipse 40" cx="2.382" cy="2.382" r="2.382" transform="translate(113.001 78.222)" fill="#e2e2e2"/>
    <circle id="Ellipse_41" data-name="Ellipse 41" cx="5.729" cy="5.729" r="5.729" transform="translate(68.638 68.191)" fill="none" stroke="#e2e2e2" stroke-miterlimit="10" stroke-width="1"/>
    <circle id="Ellipse_42" data-name="Ellipse 42" cx="3.492" cy="3.492" r="3.492" transform="translate(132.061 25.325)" fill="none" stroke="#e2e2e2" stroke-miterlimit="10" stroke-width="1"/>
    <circle id="Ellipse_43" data-name="Ellipse 43" cx="6.022" cy="6.022" r="6.022" transform="translate(230.415 39.378) rotate(-45)" fill="none" stroke="#e2e2e2" stroke-miterlimit="10" stroke-width="1"/>
    <path id="Path_3736" data-name="Path 3736" d="M58.68,431.826a4.186,4.186,0,1,1-4.186-4.186A4.186,4.186,0,0,1,58.68,431.826Z" transform="translate(-40.425 -137.727)" fill="none" stroke="#e2e2e2" stroke-miterlimit="10" stroke-width="1"/>
    <path id="Path_3737" data-name="Path 3737" d="M62.12,401.62a2.009,2.009,0,1,1-2.01-2.01A2.01,2.01,0,0,1,62.12,401.62Z" transform="translate(-42.753 -129.353)" fill="#e2e2e2"/>
    <circle id="Ellipse_44" data-name="Ellipse 44" cx="3.063" cy="3.063" r="3.063" transform="translate(251.367 14.223)" fill="#e2e2e2"/>
    <circle id="Ellipse_45" data-name="Ellipse 45" cx="2.446" cy="2.446" r="2.446" transform="translate(187.074 30.91)" fill="#e2e2e2"/>
    <path id="Path_3738" data-name="Path 3738" d="M469.411,179.276a1.483,1.483,0,1,1-1.484-1.484A1.484,1.484,0,0,1,469.411,179.276Z" transform="translate(-164.747 -63.084)" fill="#e2e2e2"/>
    <path id="Path_3739" data-name="Path 3739" d="M86.075,222.763a3.611,3.611,0,1,1-3.611-3.611A3.61,3.61,0,0,1,86.075,222.763Z" transform="translate(-48.953 -75.441)" fill="#e2e2e2"/>
  </g>
</svg>
