<svg id="Checklist-bro" xmlns="http://www.w3.org/2000/svg" xmlns:xlink="http://www.w3.org/1999/xlink" width="127.714" height="100.247" viewBox="0 0 127.714 100.247">
  <defs>
    <clipPath id="clip-path">
      <path id="Path_37311" data-name="Path 37311" d="M339.573,183.855c-1.527.179-5.485,2.876-5.756,3.147s-1.349.9-1.8,1.26c0,0-9.257,5.756-10.073,6.281s-2.427,1.62-2.337,1.984-4.767,8.265-4.767,8.265a3.052,3.052,0,0,0-.089,3.6c1.349,1.706,2.608.542,3.237.182s5.577-5.038,5.577-5.038l4.562,10.91s6.318-4.235,13.065-3.967l-4.5-17.627s6.209-4.675,6.387-6.281S341.11,183.673,339.573,183.855Z" transform="translate(-314.174 -183.838)" fill="#fff" stroke="#263238" stroke-linecap="round" stroke-linejoin="round" stroke-width="0.5"/>
    </clipPath>
  </defs>
  <g id="freepik--background-simple--inject-54" transform="translate(2.281)">
    <path id="Path_37262" data-name="Path 37262" d="M179.742,122.178a59.586,59.586,0,0,0-11.118-29.535c-10.163-14.015-26.749-21.586-44.793-17.46-17.062,3.9-21.393,21.136-35.609,28.771-10.91,5.859-27.44,15.418-24.795,32.379.863,5.529,4.787,9.559,10.169,11.832,7.359,3.1,17.651,1.85,24.213,6.362,7.6,5.242,13.885,12.643,30.415,18.194,13.075,4.391,27.82-.863,37.688-9.174C178.086,153.317,181.121,136.823,179.742,122.178Z" transform="translate(-63.146 -74.061)" fill="#86898e"/>
    <path id="Path_37263" data-name="Path 37263" d="M179.742,122.178a59.586,59.586,0,0,0-11.118-29.535c-10.163-14.015-26.749-21.586-44.793-17.46-17.062,3.9-21.393,21.136-35.609,28.771-10.91,5.859-27.44,15.418-24.795,32.379.863,5.529,4.787,9.559,10.169,11.832,7.359,3.1,17.651,1.85,24.213,6.362,7.6,5.242,13.885,12.643,30.415,18.194,13.075,4.391,27.82-.863,37.688-9.174C178.086,153.317,181.121,136.823,179.742,122.178Z" transform="translate(-63.146 -74.061)" fill="#fff" opacity="0.7"/>
  </g>
  <g id="freepik--Plants--inject-54" transform="translate(0 44.099)">
    <path id="Path_37266" data-name="Path 37266" d="M95.359,229.31s8.695,10.05,8.741,22.5-8.569,22.583-8.569,22.583-8.695-10.05-8.741-22.5S95.359,229.31,95.359,229.31Z" transform="translate(-76.692 -229.31)" fill="#86898e"/>
    <path id="Path_37267" data-name="Path 37267" d="M138.282,315.45s.053,8.182-4.341,13.383-11.571,5.452-11.571,5.452-.056-8.182,4.341-13.383S138.282,315.45,138.282,315.45Z" transform="translate(-100.509 -286.972)" fill="#86898e"/>
    <path id="Path_37268" data-name="Path 37268" d="M56.254,313.16s-.364,8.172,3.832,13.581,11.359,6.01,11.359,6.01.36-8.172-3.835-13.581S56.254,313.16,56.254,313.16Z" transform="translate(-56.246 -285.439)" fill="#86898e"/>
    <g id="Group_11711" data-name="Group 11711" opacity="0.5">
      <path id="Path_37269" data-name="Path 37269" d="M95.359,229.31s8.695,10.05,8.741,22.5-8.569,22.583-8.569,22.583-8.695-10.05-8.741-22.5S95.359,229.31,95.359,229.31Z" transform="translate(-76.692 -229.31)" fill="#fff"/>
      <path id="Path_37270" data-name="Path 37270" d="M138.282,315.45s.053,8.182-4.341,13.383-11.571,5.452-11.571,5.452-.056-8.182,4.341-13.383S138.282,315.45,138.282,315.45Z" transform="translate(-100.509 -286.972)" fill="#fff"/>
      <path id="Path_37271" data-name="Path 37271" d="M56.254,313.16s-.364,8.172,3.832,13.581,11.359,6.01,11.359,6.01.36-8.172-3.835-13.581S56.254,313.16,56.254,313.16Z" transform="translate(-56.246 -285.439)" fill="#fff"/>
    </g>
    <path id="Path_37272" data-name="Path 37272" d="M92.933,262.892h0a.205.205,0,0,1,.331-.043l4.569,4.083a.228.228,0,0,0,.367-.2l-.05-9.419a.284.284,0,0,0-.076-.192l-6.86-6.913a.281.281,0,0,1-.02-.364h0a.208.208,0,0,1,.331-.023l6.258,6.308a.222.222,0,0,0,.374-.192l-.04-10.364a.271.271,0,0,0-.076-.192L93.488,240.9a.281.281,0,0,1-.023-.364h0a.208.208,0,0,1,.331-.026l3.931,3.9c.145.145.374.026.374-.2l-.066-14.652a.245.245,0,0,1,.225-.258h0a.241.241,0,0,1,.228.255l.083,21.694a.225.225,0,0,0,.413.145l5.091-8.486a.212.212,0,0,1,.314-.066h0a.281.281,0,0,1,.06.357l-5.835,9.723-.036-.03.033,8.89a.225.225,0,0,0,.377.192l6.209-6.361a.2.2,0,0,1,.331.02h0a.281.281,0,0,1-.02.364l-6.88,7.052h0l.043,11.082a.241.241,0,0,1-.225.258h0a.238.238,0,0,1-.228-.255l-.023-6.1a.271.271,0,0,0-.086-.2l-5.134-4.585A.281.281,0,0,1,92.933,262.892Z" transform="translate(-79.602 -229.31)" fill="#fff"/>
    <path id="Path_37273" data-name="Path 37273" d="M56.867,314.647h0a.208.208,0,0,1,.331.023l6.9,8.774c.145.188.42.05.39-.2l-.565-5.118a.248.248,0,0,1,.2-.288h0a.231.231,0,0,1,.251.221l.741,6.668h0l2.671,3.428a.222.222,0,0,0,.393-.142l.486-4.893a.238.238,0,0,1,.251-.228h0a.248.248,0,0,1,.2.284l-.579,5.805a.281.281,0,0,0,.056.2l3.6,4.585a.284.284,0,0,1-.017.364h0a.208.208,0,0,1-.331-.02l-1.944-2.476a.215.215,0,0,0-.182-.086l-3.587.248a.241.241,0,0,1-.241-.241h0a.251.251,0,0,1,.215-.274l2.873-.2a.264.264,0,0,0,.155-.426l-2.879-3.666a.215.215,0,0,0-.169-.083H60.946a.245.245,0,0,1-.225-.258h0a.241.241,0,0,1,.225-.258h4.324a.265.265,0,0,0,.192-.436l-3.174-4.043a.215.215,0,0,0-.172-.086l-3.306.046a.241.241,0,0,1-.228-.255h0a.241.241,0,0,1,.222-.261l2.513-.033a.264.264,0,0,0,.165-.43l-4.615-5.885A.284.284,0,0,1,56.867,314.647Z" transform="translate(-56.618 -286.387)" fill="#fff"/>
    <path id="Path_37274" data-name="Path 37274" d="M124,326.813h0a.238.238,0,0,1,.255.221l.387,3.25a.222.222,0,0,0,.387.145l2.992-3.541a.278.278,0,0,0,.059-.2l-.367-5.832a.245.245,0,0,1,.208-.274h0a.235.235,0,0,1,.241.235l.331,4.916a.225.225,0,0,0,.39.159l3.306-3.911a.3.3,0,0,0,.063-.2l-.288-3.742a.255.255,0,0,1,.2-.281h0a.238.238,0,0,1,.245.235l.218,2.85a.222.222,0,0,0,.387.155l4.81-5.693a.208.208,0,0,1,.331,0h0a.284.284,0,0,1,0,.364l-7.167,8.486c-.155.182,0,.479.2.43l4.44-1.028a.228.228,0,0,1,.264.2h0a.258.258,0,0,1-.175.3L129.92,325.4h0l-2.8,3.306a.264.264,0,0,0,.155.436l4.318.188a.241.241,0,0,1,.218.264h0a.235.235,0,0,1-.235.245l-5.124-.221a.211.211,0,0,0-.172.079l-3.742,4.43a.208.208,0,0,1-.331,0h0a.284.284,0,0,1,0-.364l2.023-2.394a.281.281,0,0,0,.06-.212l-.483-4.06A.255.255,0,0,1,124,326.813Z" transform="translate(-100.356 -286.821)" fill="#fff"/>
  </g>
  <g id="freepik--Checklist--inject-54" transform="translate(16.721 5.543)">
    <path id="Path_37275" data-name="Path 37275" d="M196.21,186.748,147.1,200.571a2.569,2.569,0,0,1-2.807-1.157l-37.242-67.025a1.458,1.458,0,0,1,.936-2.208l49.11-13.822a2.562,2.562,0,0,1,2.8,1.154l37.235,67.025a1.461,1.461,0,0,1-.926,2.212Z" transform="translate(-106.824 -115.094)" fill="#263238" stroke="#000" stroke-miterlimit="10" stroke-width="0.5"/>
    <path id="Path_37276" data-name="Path 37276" d="M226.56,335.286s28.378-6.751,47.48-13.366Z" transform="translate(-186.976 -252.748)" fill="#884849"/>
    <path id="Path_37277" data-name="Path 37277" d="M199.676,188.1,152.2,201.466,115.47,135.373l47.48-13.363Z" transform="translate(-112.612 -118.928)" fill="#fff" stroke="#263238" stroke-miterlimit="10" stroke-width="0.5"/>
    <line id="Line_355" data-name="Line 355" y1="1.038" x2="3.686" transform="translate(36.275 16.041)" fill="#fff" stroke="#263238" stroke-miterlimit="10" stroke-width="0.5"/>
    <line id="Line_356" data-name="Line 356" y1="6.394" x2="22.715" transform="translate(10.707 17.883)" fill="#fff" stroke="#263238" stroke-miterlimit="10" stroke-width="0.5"/>
    <line id="Line_357" data-name="Line 357" y1="2.579" x2="9.158" transform="translate(32.232 18.607)" fill="#fff" stroke="#263238" stroke-miterlimit="10" stroke-width="0.5"/>
    <line id="Line_358" data-name="Line 358" y1="3.246" x2="11.535" transform="translate(18.198 21.89)" fill="#fff" stroke="#263238" stroke-miterlimit="10" stroke-width="0.5"/>
    <line id="Line_359" data-name="Line 359" y1="1.104" x2="3.924" transform="translate(12.131 25.738)" fill="#fff" stroke="#263238" stroke-miterlimit="10" stroke-width="0.5"/>
    <line id="Line_360" data-name="Line 360" y1="5.022" x2="17.842" transform="translate(24.975 21.176)" fill="#fff" stroke="#263238" stroke-miterlimit="10" stroke-width="0.5"/>
    <line id="Line_361" data-name="Line 361" y1="2.109" x2="7.491" transform="translate(13.56 27.302)" fill="#fff" stroke="#263238" stroke-miterlimit="10" stroke-width="0.5"/>
    <path id="Path_37278" data-name="Path 37278" d="M253.316,154.386a4.248,4.248,0,0,0-4.628-1.911,2.413,2.413,0,0,0-1.547,3.653,4.238,4.238,0,0,0,4.628,1.911A2.42,2.42,0,0,0,253.316,154.386Z" transform="translate(-200.508 -139.241)" fill="#fff" stroke="#263238" stroke-miterlimit="10" stroke-width="0.5"/>
    <line id="Line_362" data-name="Line 362" x1="3.686" y2="1.038" transform="translate(17.067 34.684)" fill="#fff" stroke="#263238" stroke-miterlimit="10" stroke-width="0.5"/>
    <line id="Line_363" data-name="Line 363" x1="22.715" y2="6.394" transform="translate(23.607 27.487)" fill="#fff" stroke="#263238" stroke-miterlimit="10" stroke-width="0.5"/>
    <line id="Line_364" data-name="Line 364" x1="9.158" y2="2.579" transform="translate(18.492 35.712)" fill="#fff" stroke="#263238" stroke-miterlimit="10" stroke-width="0.5"/>
    <line id="Line_365" data-name="Line 365" x1="11.535" y2="3.246" transform="translate(30.149 31.761)" fill="#fff" stroke="#263238" stroke-miterlimit="10" stroke-width="0.5"/>
    <line id="Line_366" data-name="Line 366" x1="3.924" y2="1.104" transform="translate(43.826 30.055)" fill="#fff" stroke="#263238" stroke-miterlimit="10" stroke-width="0.5"/>
    <line id="Line_367" data-name="Line 367" x1="17.839" y2="5.022" transform="translate(19.92 35.834)" fill="#fff" stroke="#263238" stroke-miterlimit="10" stroke-width="0.5"/>
    <line id="Line_368" data-name="Line 368" x1="7.495" y2="2.109" transform="translate(41.684 32.621)" fill="#fff" stroke="#263238" stroke-miterlimit="10" stroke-width="0.5"/>
    <path id="Path_37279" data-name="Path 37279" d="M272.556,189.013a4.238,4.238,0,0,0-4.628-1.911,2.4,2.4,0,0,0-1.547,3.637,4.235,4.235,0,0,0,4.628,1.911A2.4,2.4,0,0,0,272.556,189.013Z" transform="translate(-213.387 -162.419)" fill="#fff" stroke="#263238" stroke-miterlimit="10" stroke-width="0.5"/>
    <line id="Line_369" data-name="Line 369" y1="1.038" x2="3.686" transform="translate(48.996 38.932)" fill="#fff" stroke="#263238" stroke-miterlimit="10" stroke-width="0.5"/>
    <line id="Line_370" data-name="Line 370" y1="6.394" x2="22.715" transform="translate(23.428 40.773)" fill="#fff" stroke="#263238" stroke-miterlimit="10" stroke-width="0.5"/>
    <line id="Line_371" data-name="Line 371" y1="2.579" x2="9.158" transform="translate(44.953 41.501)" fill="#fff" stroke="#263238" stroke-miterlimit="10" stroke-width="0.5"/>
    <line id="Line_372" data-name="Line 372" y1="3.25" x2="11.535" transform="translate(30.919 44.78)" fill="#fff" stroke="#263238" stroke-miterlimit="10" stroke-width="0.5"/>
    <line id="Line_373" data-name="Line 373" y1="1.104" x2="3.924" transform="translate(24.853 48.632)" fill="#fff" stroke="#263238" stroke-miterlimit="10" stroke-width="0.5"/>
    <line id="Line_374" data-name="Line 374" y1="5.018" x2="17.839" transform="translate(37.697 44.069)" fill="#fff" stroke="#263238" stroke-miterlimit="10" stroke-width="0.5"/>
    <line id="Line_375" data-name="Line 375" y1="2.109" x2="7.491" transform="translate(26.281 50.195)" fill="#fff" stroke="#263238" stroke-miterlimit="10" stroke-width="0.5"/>
    <ellipse id="Ellipse_2462" data-name="Ellipse 2462" cx="2.803" cy="3.547" rx="2.803" ry="3.547" transform="translate(58.106 40.218) rotate(-68.54)" fill="#fff" stroke="#263238" stroke-miterlimit="10" stroke-width="0.5"/>
    <line id="Line_376" data-name="Line 376" x1="3.686" y2="1.038" transform="translate(29.789 57.578)" fill="#fff" stroke="#263238" stroke-miterlimit="10" stroke-width="0.5"/>
    <line id="Line_377" data-name="Line 377" x1="22.715" y2="6.394" transform="translate(36.328 50.381)" fill="#fff" stroke="#263238" stroke-miterlimit="10" stroke-width="0.5"/>
    <line id="Line_378" data-name="Line 378" x1="9.158" y2="2.575" transform="translate(31.214 58.606)" fill="#fff" stroke="#263238" stroke-miterlimit="10" stroke-width="0.5"/>
    <line id="Line_379" data-name="Line 379" x1="11.535" y2="3.246" transform="translate(42.87 54.655)" fill="#fff" stroke="#263238" stroke-miterlimit="10" stroke-width="0.5"/>
    <line id="Line_380" data-name="Line 380" x1="3.924" y2="1.104" transform="translate(56.547 52.946)" fill="#fff" stroke="#263238" stroke-miterlimit="10" stroke-width="0.5"/>
    <line id="Line_381" data-name="Line 381" x1="17.839" y2="5.022" transform="translate(32.642 58.728)" fill="#fff" stroke="#263238" stroke-miterlimit="10" stroke-width="0.5"/>
    <line id="Line_382" data-name="Line 382" x1="7.491" y2="2.109" transform="translate(54.405 55.515)" fill="#fff" stroke="#263238" stroke-miterlimit="10" stroke-width="0.5"/>
    <path id="Path_37280" data-name="Path 37280" d="M311.026,258.254a4.242,4.242,0,0,0-4.628-1.911A2.413,2.413,0,0,0,304.85,260a4.238,4.238,0,0,0,4.628,1.911A2.41,2.41,0,0,0,311.026,258.254Z" transform="translate(-239.139 -208.77)" fill="#fff" stroke="#263238" stroke-miterlimit="10" stroke-width="0.5"/>
    <line id="Line_383" data-name="Line 383" y1="1.038" x2="3.686" transform="translate(61.718 61.826)" fill="#fff" stroke="#263238" stroke-miterlimit="10" stroke-width="0.5"/>
    <line id="Line_384" data-name="Line 384" y1="6.394" x2="22.715" transform="translate(36.149 63.667)" fill="#fff" stroke="#263238" stroke-miterlimit="10" stroke-width="0.5"/>
    <line id="Line_385" data-name="Line 385" y1="2.575" x2="9.158" transform="translate(57.675 64.395)" fill="#fff" stroke="#263238" stroke-miterlimit="10" stroke-width="0.5"/>
    <line id="Line_386" data-name="Line 386" y1="3.246" x2="11.535" transform="translate(43.641 67.674)" fill="#fff" stroke="#263238" stroke-miterlimit="10" stroke-width="0.5"/>
    <line id="Line_387" data-name="Line 387" y1="1.108" x2="3.924" transform="translate(37.574 71.522)" fill="#fff" stroke="#263238" stroke-miterlimit="10" stroke-width="0.5"/>
    <line id="Line_388" data-name="Line 388" y1="5.022" x2="17.839" transform="translate(50.418 66.96)" fill="#fff" stroke="#263238" stroke-miterlimit="10" stroke-width="0.5"/>
    <line id="Line_389" data-name="Line 389" y1="2.109" x2="7.491" transform="translate(39.002 73.086)" fill="#fff" stroke="#263238" stroke-miterlimit="10" stroke-width="0.5"/>
    <ellipse id="Ellipse_2463" data-name="Ellipse 2463" cx="2.803" cy="3.547" rx="2.803" ry="3.547" transform="translate(70.826 63.11) rotate(-68.54)" fill="#fff" stroke="#263238" stroke-miterlimit="10" stroke-width="0.5"/>
    <path id="Path_37281" data-name="Path 37281" d="M172.006,116.89l-6.242,1.755c-.473.02-.992-.017-1.137-.258-.331-.622.093-1.2.225-1.752a2.512,2.512,0,0,0-.274-1.861,4.354,4.354,0,0,0-4.757-1.96,2.476,2.476,0,0,0-1.587,3.746,4.1,4.1,0,0,0,1.838,1.653s1.266.565,1.521,1.022c.136.241-.218.526-.579.741l-6.728,1.894a1.607,1.607,0,0,0-1.028,2.43l.909,1.633,21.843-6.146-.909-1.636a2.82,2.82,0,0,0-3.094-1.26Zm-11.118-2.136a1.392,1.392,0,0,1,1.524.628.79.79,0,0,1-.509,1.2,1.388,1.388,0,0,1-1.521-.625.793.793,0,0,1,.506-1.2Z" transform="translate(-137.741 -112.688)" fill="#86898e" stroke="#263238" stroke-miterlimit="10" stroke-width="0.5"/>
    <path id="Path_37282" data-name="Path 37282" d="M251.21,150.284l2.694,1.881,2.777-6.225" transform="translate(-203.476 -134.947)" fill="none" stroke="#86898e" stroke-linecap="round" stroke-linejoin="round" stroke-width="0.5"/>
    <path id="Path_37283" data-name="Path 37283" d="M270.15,184.374l2.694,1.878,2.777-6.222" transform="translate(-216.155 -157.767)" fill="none" stroke="#86898e" stroke-linecap="round" stroke-linejoin="round" stroke-width="0.5"/>
  </g>
  <g id="freepik--Character--inject-54" transform="translate(77.801 13.048)">
    <path id="Path_37284" data-name="Path 37284" d="M383.049,176.856a4.061,4.061,0,0,0,.268-2.7c-.45-1.17-8.724-3.058-8.724-3.058s-1.888,0-1.8,1.081,6.926,5.217,7.465,5.574S382.867,178.925,383.049,176.856Z" transform="translate(-345.943 -159.293)" fill="#fff" stroke="#263238" stroke-linecap="round" stroke-linejoin="round" stroke-width="0.5"/>
    <path id="Path_37285" data-name="Path 37285" d="M376.686,165.129a16.274,16.274,0,0,1-1.5-.641c-.714-.357.069,1.286.357,1.355s.992.215.992.215Z" transform="translate(-347.352 -154.833)" fill="#fff" stroke="#263238" stroke-linecap="round" stroke-linejoin="round" stroke-width="0.5"/>
    <path id="Path_37286" data-name="Path 37286" d="M297.236,161.721l-4.136,5.035.357.721,5.848-1.425,41.163-23.962a3.567,3.567,0,0,0,1.23-4.959h0a3.564,3.564,0,0,0-4.959-1.1Z" transform="translate(-292.597 -135.434)" fill="#86898e" stroke="#263238" stroke-linecap="round" stroke-linejoin="round" stroke-width="0.5"/>
    <line id="Line_390" data-name="Line 390" x1="1.342" y2="0.866" transform="translate(23.978 16.954)" fill="#fff" stroke="#263238" stroke-linecap="round" stroke-linejoin="round" stroke-width="0.5"/>
    <line id="Line_391" data-name="Line 391" x1="9.915" y2="6.381" transform="translate(26.96 9.522)" fill="#fff" stroke="#263238" stroke-linecap="round" stroke-linejoin="round" stroke-width="0.5"/>
    <path id="Path_37287" data-name="Path 37287" d="M292.466,229.81s-1.028.43-.869.863,1.633-.615,1.633-.615Z" transform="translate(-291.58 -198.594)" fill="#86898e" stroke="#263238" stroke-linecap="round" stroke-linejoin="round" stroke-width="0.5"/>
    <path id="Path_37288" data-name="Path 37288" d="M293.1,219.962l.357.721,5.848-1.425a3.293,3.293,0,0,1-2.069-4.318Z" transform="translate(-292.597 -188.64)" fill="#fff" stroke="#263238" stroke-linecap="round" stroke-linejoin="round" stroke-width="0.5"/>
    <path id="Path_37289" data-name="Path 37289" d="M414.929,137.061a3.564,3.564,0,0,0-4.959-1.1l-7.181,4.675a4.21,4.21,0,0,0-.291,1.547,4.017,4.017,0,0,0,3.918,4.093l7.3-4.245a3.567,3.567,0,0,0,1.217-4.969Z" transform="translate(-365.828 -135.387)" fill="#fff" stroke="#263238" stroke-linecap="round" stroke-linejoin="round" stroke-width="0.5"/>
    <path id="Path_37290" data-name="Path 37290" d="M418.2,137.061a3.564,3.564,0,0,0-4.959-1.1l-5.455,3.554a3.994,3.994,0,0,0-.4,1.746,3.914,3.914,0,0,0,3.868,3.967h.268l5.461-3.177a3.567,3.567,0,0,0,1.217-4.989Z" transform="translate(-369.103 -135.387)" fill="#263238" stroke="#263238" stroke-linecap="round" stroke-linejoin="round" stroke-width="0.5"/>
    <path id="Path_37291" data-name="Path 37291" d="M364.782,171.5s-.8,0-.8.364-.212,1.653.251,1.617.423-.846.463-1.131S364.782,171.5,364.782,171.5Z" transform="translate(-340.014 -159.561)" fill="#fff" stroke="#263238" stroke-linecap="round" stroke-linejoin="round" stroke-width="0.5"/>
    <path id="Path_37292" data-name="Path 37292" d="M367.025,167.407s-.714-.222-.879.218-.331,2.529.165,2.473S366.916,168.177,367.025,167.407Z" transform="translate(-341.383 -156.784)" fill="#fff" stroke="#263238" stroke-linecap="round" stroke-linejoin="round" stroke-width="0.5"/>
    <path id="Path_37293" data-name="Path 37293" d="M369.781,167.137s-.827-.714-1.1-.109-.331,2.314,0,2.314.827-.714.936-1.1A7.6,7.6,0,0,0,369.781,167.137Z" transform="translate(-343.038 -156.405)" fill="#fff" stroke="#263238" stroke-linecap="round" stroke-linejoin="round" stroke-width="0.5"/>
    <path id="Path_37294" data-name="Path 37294" d="M372.514,167.362s-1.045-.879-1.21-.714-.826,1.858-.331,2.2,1.124-1.18,1.124-1.18Z" transform="translate(-344.604 -156.3)" fill="#fff" stroke="#263238" stroke-linecap="round" stroke-linejoin="round" stroke-width="0.5"/>
    <path id="Path_37295" data-name="Path 37295" d="M330.328,174.5s.116,1.762.585,2.175a5.149,5.149,0,0,1,.764.823,12.13,12.13,0,0,1,.119,1.352c0,.529.354.469.661.469s.823.992,1.117,1.468a8.179,8.179,0,0,0,1.984,1.765c.529.294,1.412-.823,1.412-.823l.41,1.177,4.176-2.7-2.056-4a9.588,9.588,0,0,0-1.236-3.937c-1.177-2.116-2.764-3.306-5.409-2.529S330.328,174.5,330.328,174.5Z" transform="translate(-317.518 -158.221)" fill="#fff" stroke="#263238" stroke-linecap="round" stroke-linejoin="round" stroke-width="0.5"/>
    <path id="Path_37296" data-name="Path 37296" d="M328.012,160.929a9.588,9.588,0,0,0-2.886.579c-1.544.545-1.924,2.694-3.27,3.465s-.77-.661-1.445-.291-1.346,3.752.1,4.714,3.561-.288,3.561-.288-.192.661.383.866a9.9,9.9,0,0,0,1.061.288s-.1,1.157.767,1.058.1-1.441.1-1.441,1.636,3.174,2.889,3.561,3.078-1.349,3.557-2.119.1-6.252-.962-8.367S328.012,160.929,328.012,160.929Z" transform="translate(-310.372 -152.484)" fill="#263238" stroke="#263238" stroke-linecap="round" stroke-linejoin="round" stroke-width="0.5"/>
    <path id="Path_37297" data-name="Path 37297" d="M339.741,190.247s-.589-2.235.35-1.941,1.471,2.294,1.412,2.529-.529.35-.764.294" transform="translate(-323.697 -170.793)" fill="#fff" stroke="#263238" stroke-linecap="round" stroke-linejoin="round" stroke-width="0.5"/>
    <path id="Path_37298" data-name="Path 37298" d="M350.505,196.432a24.793,24.793,0,0,0-3.134,2.089,11.048,11.048,0,0,0-1.881,3.527s6.057-4.116,7.114-4.7a4.852,4.852,0,0,0,1.293-.883A11.767,11.767,0,0,0,350.505,196.432Z" transform="translate(-327.667 -176.168)" fill="#fff" stroke="#263238" stroke-linecap="round" stroke-linejoin="round" stroke-width="0.5"/>
    <path id="Path_37299" data-name="Path 37299" d="M385.32,182.017a3.713,3.713,0,0,1,2.427-1.8c1.709-.36,3.967.81,4.228,2.7a2.3,2.3,0,0,1-2.07,2.79c-.9,0-1.709-1.26-1.709-1.26S385.32,183.366,385.32,182.017Z" transform="translate(-354.33 -165.354)" fill="#fff" stroke="#263238" stroke-linecap="round" stroke-linejoin="round" stroke-width="0.5"/>
    <path id="Path_37300" data-name="Path 37300" d="M311.708,224.243l2.88-7.647a1.765,1.765,0,0,1-1.17.45c-.721,0-2.427-.268-1.984-.539s2.155-1.438,2.155-1.438-1.256.271-1.617,0-.539-.631-.271-.721a8.185,8.185,0,0,0,1.8-.36,6.427,6.427,0,0,1,2.248-.717c.81,0,1.531,1.438,1.531,1.888s-.631,8.992-.631,9.353,0,.721-2.337.992S311.619,225.231,311.708,224.243Z" transform="translate(-304.821 -187.522)" fill="#fff" stroke="#263238" stroke-linecap="round" stroke-linejoin="round" stroke-width="0.5"/>
    <line id="Line_392" data-name="Line 392" y1="1.679" x2="0.426" transform="translate(9.766 27.394)" fill="#fff" stroke="#263238" stroke-linecap="round" stroke-linejoin="round" stroke-width="0.5"/>
    <path id="Path_37301" data-name="Path 37301" d="M313.272,240.74s-2.876.81-3.415,2.07a4.052,4.052,0,0,0,.628,4.228c1.078,1.081,1.531,1.349,2.7.9a2.113,2.113,0,0,0,1.531-1.891A5.6,5.6,0,0,0,313.272,240.74Z" transform="translate(-303.599 -205.911)" fill="#fff" stroke="#263238" stroke-linecap="round" stroke-linejoin="round" stroke-width="0.5"/>
    <path id="Path_37302" data-name="Path 37302" d="M308.766,354.422s-2.519-1.17-3.508-.721-.992.9.268,2.88,4.767,4.407,5.951,3.865.089-4.136.089-4.136Z" transform="translate(-300.259 -281.459)" fill="#fff" stroke="#263238" stroke-linecap="round" stroke-linejoin="round" stroke-width="0.5"/>
    <path id="Path_37303" data-name="Path 37303" d="M306.972,357.993a14,14,0,0,1-2.182-3.223c-.463.41-.264,1.012.741,2.6,1.26,1.984,4.767,4.407,5.951,3.865a1.071,1.071,0,0,0,.493-.9C310.321,361.031,308.612,359.8,306.972,357.993Z" transform="translate(-300.264 -282.243)" fill="#fff" stroke="#263238" stroke-linecap="round" stroke-linejoin="round" stroke-width="0.5"/>
    <path id="Path_37304" data-name="Path 37304" d="M329.056,264.722l.089,2.7a48.048,48.048,0,0,0-8.182,3.967c-2.7,1.9-4.5,3.326-4.767,5.124s-.089,15.74-.089,15.74-.81.179-.539.717.807,2.519,1.527,2.7,1.62.542,1.8.093.721-3.147,1.081-4.047.988-5.121,1.527-8.1a31.208,31.208,0,0,0,.539-5.035,29.066,29.066,0,0,0,5.577-1.349c3.147-1.081,7.733-3.058,7.733-3.058s3.689,9.257,4.5,11.062,3.967,5.845,4.585,7.015,4.585,6.205,4.585,6.205,1.531-1.349,2.519-1.349h1.349s-1.62-4.5-2.975-7.2-4.136-7.1-4.136-7.1-2.516-15.733-2.608-16.818a22.224,22.224,0,0,0-1.5-5.21S337.331,259.865,329.056,264.722Z" transform="translate(-307.6 -219.28)" fill="#263238" stroke="#263238" stroke-linecap="round" stroke-linejoin="round" stroke-width="0.5"/>
    <path id="Path_37305" data-name="Path 37305" d="M411.9,370.421a11.838,11.838,0,0,0-.628,1.167c-.089.271-2.07.542-1.8,1.441s2.337,1.617,3.326,1.709,2.975-1.26,3.329-1.62a4.857,4.857,0,0,0,.36-2.7,2.787,2.787,0,0,0-.721-1.349S414.064,366.464,411.9,370.421Z" transform="translate(-370.484 -291.252)" fill="#fff" stroke="#263238" stroke-linecap="round" stroke-linejoin="round" stroke-width="0.5"/>
    <path id="Path_37306" data-name="Path 37306" d="M416.53,372.37a2.645,2.645,0,0,0-.612-1.23,2.747,2.747,0,0,0-1.984.869c-.9,1.078-.45,3.508-1.531,3.868-.8.268-2.208-.714-2.87-1.23a.509.509,0,0,0,0,.331c.268.9,2.337,1.617,3.326,1.709s2.975-1.26,3.329-1.62A5.1,5.1,0,0,0,416.53,372.37Z" transform="translate(-370.52 -293.201)" fill="#fff" stroke="#263238" stroke-linecap="round" stroke-linejoin="round" stroke-width="0.5"/>
    <path id="Path_37307" data-name="Path 37307" d="M420.939,374.121c-.357,1.62.093,2.7-1.349,3.689.992.089,2.975-1.26,3.329-1.62a4.857,4.857,0,0,0,.36-2.7,2.123,2.123,0,0,0-.221-.645h-.139A1.641,1.641,0,0,0,420.939,374.121Z" transform="translate(-377.27 -294.324)" fill="#263238" stroke="#263238" stroke-linecap="round" stroke-linejoin="round" stroke-width="0.5"/>
    <line id="Line_393" data-name="Line 393" y1="2.605" x2="5.306" transform="translate(28.65 52.1)" fill="none" stroke="#fff" stroke-linecap="round" stroke-linejoin="round" stroke-width="0.5"/>
    <line id="Line_394" data-name="Line 394" y1="0.631" x2="4.585" transform="translate(31.08 52.906)" fill="none" stroke="#fff" stroke-linecap="round" stroke-linejoin="round" stroke-width="0.5"/>
    <path id="Path_37308" data-name="Path 37308" d="M339.573,183.855c-1.527.179-5.485,2.876-5.756,3.147s-1.349.9-1.8,1.26c0,0-9.257,5.756-10.073,6.281s-2.427,1.62-2.337,1.984-4.767,8.265-4.767,8.265a3.052,3.052,0,0,0-.089,3.6c1.349,1.706,2.608.542,3.237.182s5.577-5.038,5.577-5.038l4.562,10.91s6.318-4.235,13.065-3.967l-4.5-17.627s6.209-4.675,6.387-6.281S341.11,183.673,339.573,183.855Z" transform="translate(-306.704 -167.82)" fill="#fff"/>
    <g id="Group_11712" data-name="Group 11712" transform="translate(7.47 16.018)" clip-path="url(#clip-path)">
      <path id="Path_37309" data-name="Path 37309" d="M339.844,183.856a8.9,8.9,0,0,0-2.615,1.111,1.184,1.184,0,0,1,1.207.5c.744.955-.85,4.033-.85,4.033s-.661-4.251-.635-2.975-.331,5.2-.331,5.2-2.122-2.546-2.017-1.911a87.284,87.284,0,0,0,2.334,8.807c.85,2.228-.638,8.486-1.484,10.288s-.331-7.637-1.276-5.29-4.136,8.8-4.88,9.442.238-8.652.5-9.862c-.331,1.012-2.516,7.422-2.516,7.422l-2.975-7.64s-5.091-4.136-4.562-3.4,1.805,3.078,1.805,3.078a17.351,17.351,0,0,0-2.546-.423c.532.215,2.863,1.379,2.863,1.379s-4.774,3.4-6.152,3.818a5.536,5.536,0,0,1-1.137.208,2.705,2.705,0,0,0,.426.767c1.349,1.709,2.608.542,3.237.182s5.577-5.038,5.577-5.038l4.562,10.91s6.318-4.235,13.065-3.967l-4.5-17.627s6.209-4.675,6.387-6.281S341.382,183.674,339.844,183.856Z" transform="translate(-314.446 -183.839)" fill="#86898e"/>
      <path id="Path_37310" data-name="Path 37310" d="M339.844,183.856a8.9,8.9,0,0,0-2.615,1.111,1.184,1.184,0,0,1,1.207.5c.744.955-.85,4.033-.85,4.033s-.661-4.251-.635-2.975-.331,5.2-.331,5.2-2.122-2.546-2.017-1.911a87.284,87.284,0,0,0,2.334,8.807c.85,2.228-.638,8.486-1.484,10.288s-.331-7.637-1.276-5.29-4.136,8.8-4.88,9.442.238-8.652.5-9.862c-.331,1.012-2.516,7.422-2.516,7.422l-2.975-7.64s-5.091-4.136-4.562-3.4,1.805,3.078,1.805,3.078a17.351,17.351,0,0,0-2.546-.423c.532.215,2.863,1.379,2.863,1.379s-4.774,3.4-6.152,3.818a5.536,5.536,0,0,1-1.137.208,2.705,2.705,0,0,0,.426.767c1.349,1.709,2.608.542,3.237.182s5.577-5.038,5.577-5.038l4.562,10.91s6.318-4.235,13.065-3.967l-4.5-17.627s6.209-4.675,6.387-6.281S341.382,183.674,339.844,183.856Z" transform="translate(-314.446 -183.839)" fill="#fff" opacity="0.5"/>
    </g>
    <path id="Path_37312" data-name="Path 37312" d="M339.573,183.855c-1.527.179-5.485,2.876-5.756,3.147s-1.349.9-1.8,1.26c0,0-9.257,5.756-10.073,6.281s-2.427,1.62-2.337,1.984-4.767,8.265-4.767,8.265a3.052,3.052,0,0,0-.089,3.6c1.349,1.706,2.608.542,3.237.182s5.577-5.038,5.577-5.038l4.562,10.91s6.318-4.235,13.065-3.967l-4.5-17.627s6.209-4.675,6.387-6.281S341.11,183.673,339.573,183.855Z" transform="translate(-306.704 -167.82)" fill="none" stroke="#263238" stroke-linecap="round" stroke-linejoin="round" stroke-width="0.5"/>
    <path id="Path_37313" data-name="Path 37313" d="M356.141,261.409a23.674,23.674,0,0,1,.38-7.409" transform="translate(-334.708 -214.787)" fill="#fff" stroke="#263238" stroke-linecap="round" stroke-linejoin="round" stroke-width="0.5"/>
    <path id="Path_37314" data-name="Path 37314" d="M353.83,247.021s0-1.521,1.709-6.281" transform="translate(-333.25 -205.911)" fill="#fff" stroke="#263238" stroke-linecap="round" stroke-linejoin="round" stroke-width="0.5"/>
    <path id="Path_37315" data-name="Path 37315" d="M331.819,231.5l3.508,3.954-3.6-2.608" transform="translate(-318.456 -199.725)" fill="#fff" stroke="#263238" stroke-linecap="round" stroke-linejoin="round" stroke-width="0.5"/>
    <path id="Path_37316" data-name="Path 37316" d="M382.32,192.948v5.035l1.17-6.473" transform="translate(-352.321 -172.956)" fill="#fff" stroke="#263238" stroke-linecap="round" stroke-linejoin="round" stroke-width="0.5"/>
    <path id="Path_37317" data-name="Path 37317" d="M360.72,241.967a.66.66,0,0,0-.03.112C360.73,241.967,360.743,241.924,360.72,241.967Z" transform="translate(-337.842 -206.721)" fill="#263238"/>
  </g>
</svg>
