<svg id="Component_13_1" data-name="Component 13 – 1" xmlns="http://www.w3.org/2000/svg" width="64" height="64" viewBox="0 0 64 64">
  <g id="Component_12_1" data-name="Component 12 – 1">
    <g id="Ellipse_2606" data-name="Ellipse 2606" fill="#fff" stroke="#000" stroke-width="4">
      <circle cx="32" cy="32" r="32" stroke="none"/>
      <circle cx="32" cy="32" r="30" fill="none"/>
    </g>
  </g>
  <g id="Iconly_Bold_Paper_Plus" data-name="Iconly/Bold/Paper Plus" transform="translate(19 19)">
    <g id="Paper_Plus" data-name="Paper Plus" transform="translate(0 0)">
      <path id="Paper_Plus-2" data-name="Paper Plus" d="M22.12,15.507H15.395v6.775a2.881,2.881,0,0,1-2.877,2.9,2.914,2.914,0,0,1-2.916-2.9V15.507H2.916a2.917,2.917,0,0,1,0-5.835H9.6V2.9A2.914,2.914,0,0,1,12.518,0a2.881,2.881,0,0,1,2.877,2.9V9.672H22.12a2.917,2.917,0,0,1,0,5.835"/>
    </g>
  </g>
</svg>
