<svg id="Component_16_1" data-name="Component 16 – 1" xmlns="http://www.w3.org/2000/svg" width="216.88" height="194.254" viewBox="0 0 216.88 194.254">
  <ellipse id="Ellipse_104" data-name="Ellipse 104" cx="108.209" cy="3.259" rx="108.209" ry="3.259" transform="translate(0.115 187.735)" opacity="0.06"/>
  <g id="Group_4065" data-name="Group 4065">
    <g id="Group_3153" data-name="Group 3153" transform="translate(6.169)">
      <g id="Group_3133" data-name="Group 3133" transform="translate(24.358)">
        <g id="Group_3118" data-name="Group 3118" transform="translate(4.141 32.604)">
          <g id="Group_3117" data-name="Group 3117">
            <path id="Path_11365" data-name="Path 11365" d="M665.328,1014.4l-9.38-59.306a4.933,4.933,0,0,0-1.113-2.781l-12.328-14.956a2.931,2.931,0,0,0-5.009.845l-6.547,17.66a4.886,4.886,0,0,0-.286,2.121l5.489,63.179Z" transform="translate(-630.376 -936.015)" fill="#eae9f0"/>
            <path id="Path_11366" data-name="Path 11366" d="M634.158,1019.412a.269.269,0,0,1-.269-.246L628.4,955.988a5.194,5.194,0,0,1,.3-2.238l6.547-17.66a3.2,3.2,0,0,1,5.471-.923l12.328,14.956a5.174,5.174,0,0,1,1.174,2.934l9.378,59.283a.269.269,0,0,1-.205.3l-29.176,6.762A.282.282,0,0,1,634.158,1019.412Zm4.1-84.872a2.809,2.809,0,0,0-.455.038,2.632,2.632,0,0,0-2.052,1.7l-6.547,17.66a4.658,4.658,0,0,0-.271,2l5.462,62.869,28.627-6.635-9.341-59.057a4.661,4.661,0,0,0-1.055-2.651L640.3,935.51A2.628,2.628,0,0,0,638.262,934.54Z" transform="translate(-628.381 -933.999)"/>
          </g>
          <path id="Path_11367" data-name="Path 11367" d="M696.665,1030.642a.27.27,0,0,1-.269-.254l-3.8-63.075a.117.117,0,0,1,0-.028l.739-16.366a1.383,1.383,0,0,1,2.688-.393l5.954,17.082a.277.277,0,0,1,.012.045l9.524,58.22a.27.27,0,0,1-.533.087l-9.52-58.2L695.51,950.7a.844.844,0,0,0-1.639.24l-.738,16.351,3.8,63.061a.271.271,0,0,1-.253.286Z" transform="translate(-684.972 -947.746)"/>
        </g>
        <g id="Group_3121" data-name="Group 3121" transform="translate(23.652 26.262)">
          <g id="Group_3119" data-name="Group 3119">
            <path id="Path_11368" data-name="Path 11368" d="M832.04,958.894l-12.2-59.4a4.925,4.925,0,0,0-1.466-2.612l-14.17-13.223a2.93,2.93,0,0,0-4.856,1.491l-4.193,18.362a4.892,4.892,0,0,0-.008,2.14l13.667,61.927Z" transform="translate(-794.769 -882.597)" fill="#ced0dc"/>
            <path id="Path_11369" data-name="Path 11369" d="M806.829,965.817a.263.263,0,0,1-.129-.033.271.271,0,0,1-.134-.179L792.9,903.678a5.192,5.192,0,0,1,.008-2.257l4.193-18.363a3.2,3.2,0,0,1,5.3-1.627l14.17,13.223a5.179,5.179,0,0,1,1.546,2.756l12.2,59.4a.27.27,0,0,1-.17.307l-23.22,8.685A.276.276,0,0,1,806.829,965.817Zm-6.6-84.71a2.69,2.69,0,0,0-.792.12,2.634,2.634,0,0,0-1.813,1.951l-4.193,18.363a4.645,4.645,0,0,0-.007,2.021l13.6,61.623,22.714-8.495-12.148-59.171a4.633,4.633,0,0,0-1.385-2.47l-14.17-13.223A2.637,2.637,0,0,0,800.231,881.107Z" transform="translate(-792.778 -880.566)"/>
          </g>
          <g id="Group_3120" data-name="Group 3120" transform="translate(5.936 1.867)">
            <path id="Path_11370" data-name="Path 11370" d="M847.179,899.192l8.127,16.161,14.57,59.546-11.206,4.377-12.2-63.166-1.4-16.323A1.114,1.114,0,0,1,847.179,899.192Z" transform="translate(-844.8 -898.306)" fill="#eae9f0"/>
            <path id="Path_11371" data-name="Path 11371" d="M856.67,977.537a.281.281,0,0,1-.131-.033.268.268,0,0,1-.134-.185l-12.2-63.166a.115.115,0,0,1,0-.029l-1.4-16.323a1.383,1.383,0,0,1,2.615-.739l8.127,16.162a.248.248,0,0,1,.021.057l14.57,59.547a.271.271,0,0,1-.164.316l-11.205,4.377A.293.293,0,0,1,856.67,977.537Zm-11.93-63.472L856.874,976.9l10.684-4.173-14.507-59.287-8.113-16.134a.843.843,0,0,0-1.593.451Z" transform="translate(-842.8 -896.297)"/>
          </g>
        </g>
        <g id="Group_3124" data-name="Group 3124" transform="translate(77.963 38.23)">
          <g id="Group_3122" data-name="Group 3122">
            <path id="Path_11372" data-name="Path 11372" d="M1277.358,1052.752l8.732-51.237a3.532,3.532,0,0,0-.485-2.476l-8.773-14.141c-1.023-1.649-3.831-1.619-5.048.052l-10.15,13.938a3.97,3.97,0,0,0-.732,1.739l-8.213,53.644Z" transform="translate(-1252.42 -983.41)" fill="#eae9f0"/>
            <path id="Path_11373" data-name="Path 11373" d="M1250.685,1052.545a.269.269,0,0,1-.2-.088.273.273,0,0,1-.068-.223l8.213-53.645a4.287,4.287,0,0,1,.781-1.857l10.149-13.937a3.559,3.559,0,0,1,2.991-1.38,3.03,3.03,0,0,1,2.505,1.345l8.773,14.142a3.779,3.779,0,0,1,.522,2.663l-8.732,51.237a.272.272,0,0,1-.249.224l-24.668,1.521Zm21.727-70.593a2.989,2.989,0,0,0-2.414,1.161l-10.149,13.937a3.747,3.747,0,0,0-.685,1.621L1251,1051.986l24.121-1.487,8.7-51.026a3.245,3.245,0,0,0-.448-2.288l-8.773-14.142a2.461,2.461,0,0,0-2.068-1.089C1272.491,981.952,1272.451,981.952,1272.412,981.952Zm2.942,68.8h0Z" transform="translate(-1250.415 -981.412)"/>
          </g>
          <g id="Group_3123" data-name="Group 3123" transform="translate(6.113 1.55)">
            <path id="Path_11374" data-name="Path 11374" d="M1320.585,997.526l2.123,15.089-6.56,51.924-11.968.885,10.008-54.3,4.227-13.614C1318.731,996.488,1320.441,996.5,1320.585,997.526Z" transform="translate(-1303.912 -996.48)" fill="#ced0dc"/>
            <path id="Path_11375" data-name="Path 11375" d="M1302.19,1063.685a.27.27,0,0,1-.265-.319l10.008-54.3c0-.011,0-.021.007-.031l4.227-13.613a1.437,1.437,0,0,1,1.529-.941,1.2,1.2,0,0,1,1.167,1l2.123,15.089a.257.257,0,0,1,0,.071l-6.559,51.924a.271.271,0,0,1-.248.235l-11.968.885Zm10.269-54.507-9.942,53.943,11.4-.843,6.527-51.67-2.118-15.053a.678.678,0,0,0-.677-.539.905.905,0,0,0-.969.562Z" transform="translate(-1301.921 -994.472)"/>
          </g>
        </g>
        <g id="Group_3127" data-name="Group 3127" transform="translate(50.102)">
          <g id="Group_3125" data-name="Group 3125">
            <path id="Path_11376" data-name="Path 11376" d="M1049.251,764.937l11-75.84a6.23,6.23,0,0,0-.621-3.735l-11.166-21.8a3.7,3.7,0,0,0-6.412-.313l-12.867,20.027a6.168,6.168,0,0,0-.928,2.54l-10.34,79.477Z" transform="translate(-1017.651 -661.276)" fill="#eae9f0"/>
            <path id="Path_11377" data-name="Path 11377" d="M1015.923,763.559a.27.27,0,0,1-.268-.3L1026,683.778a6.483,6.483,0,0,1,.968-2.651l12.867-20.027a3.973,3.973,0,0,1,6.879.337l11.166,21.8a6.463,6.463,0,0,1,.647,3.9l-11,75.84a.271.271,0,0,1-.265.232l-31.33.355A0,0,0,0,0,1015.923,763.559Zm27.243-103.746a3.4,3.4,0,0,0-2.882,1.578l-12.867,20.027a5.938,5.938,0,0,0-.887,2.429l-10.3,79.169,30.789-.349,10.971-75.611a5.924,5.924,0,0,0-.594-3.572l-11.166-21.8a3.4,3.4,0,0,0-2.888-1.864C1043.282,659.815,1043.223,659.814,1043.166,659.814Zm4.087,103.121h0Z" transform="translate(-1015.653 -659.274)" fill="#eae9f0"/>
          </g>
          <g id="Group_3126" data-name="Group 3126" transform="translate(7.762 2.303)">
            <path id="Path_11378" data-name="Path 11378" d="M1104.06,682.185l2.723,22.7-8.243,77.036-15.2.392,12.619-80.32,5.345-20A1.407,1.407,0,0,1,1104.06,682.185Z" transform="translate(-1083.069 -680.677)" fill="#eae9f0"/>
            <path id="Path_11379" data-name="Path 11379" d="M1081.324,780.586a.27.27,0,0,1-.267-.311l12.619-80.32a.2.2,0,0,1,.006-.027l5.345-20a1.677,1.677,0,0,1,3.285.232l2.722,22.7a.25.25,0,0,1,0,.06l-8.243,77.036a.27.27,0,0,1-.261.241l-15.2.391Zm12.884-80.535-12.567,79.986,14.639-.378,8.215-76.77-2.719-22.669a1.137,1.137,0,0,0-2.226-.159Z" transform="translate(-1081.054 -678.681)"/>
          </g>
        </g>
        <g id="Group_3129" data-name="Group 3129" transform="translate(87.577 64.843)">
          <g id="Group_3128" data-name="Group 3128">
            <path id="Path_11380" data-name="Path 11380" d="M1351.967,1259.646l16.195-35.565a3.2,3.2,0,0,0,.394-1.91l-1.324-12.544a1.907,1.907,0,0,0-3.023-1.338l-9.894,7.238a3.172,3.172,0,0,0-.916,1.048l-19.7,36.27Z" transform="translate(-1333.43 -1207.65)" fill="#ced0dc"/>
            <path id="Path_11381" data-name="Path 11381" d="M1349.963,1257.92a.289.289,0,0,1-.094-.017l-18.267-6.8a.274.274,0,0,1-.159-.158.27.27,0,0,1,.015-.223l19.7-36.271a3.464,3.464,0,0,1,.994-1.137l9.894-7.238a2.176,2.176,0,0,1,3.45,1.529l1.324,12.544a3.458,3.458,0,0,1-.427,2.07l-16.184,35.544A.27.27,0,0,1,1349.963,1257.92Zm-17.881-7.216,17.74,6.6,16.09-35.336a2.95,2.95,0,0,0,.372-1.77l-1.325-12.544a1.637,1.637,0,0,0-2.594-1.15l-9.894,7.238a2.928,2.928,0,0,0-.839.959Z" transform="translate(-1331.427 -1205.652)"/>
          </g>
          <path id="Path_11382" data-name="Path 11382" d="M1379.557,1263.021a.263.263,0,0,1-.11-.024.269.269,0,0,1-.135-.357l15.616-34.78,2.893-11.388a.455.455,0,0,0-.809-.38l-6.267,8.609-20.087,34.764a.27.27,0,1,1-.467-.271l20.094-34.776a.133.133,0,0,1,.015-.024l6.276-8.62a.995.995,0,0,1,1.768.831l-2.9,11.411a.275.275,0,0,1-.016.044l-15.625,34.8A.268.268,0,0,1,1379.557,1263.021Z" transform="translate(-1365.557 -1214.209)"/>
        </g>
        <g id="Group_3132" data-name="Group 3132" transform="translate(0 55.29)">
          <g id="Group_3130" data-name="Group 3130">
            <path id="Path_11383" data-name="Path 11383" d="M696.548,1189.627l-18.382-15.158-12.484.118-5.008-3.892-4.816-30.448a3.362,3.362,0,0,0-.758-1.9l-8.4-10.192a2,2,0,0,0-3.413.577l-4.462,12.035a3.331,3.331,0,0,0-.195,1.445l2.152,24.767-2.144.606-3.867,16.491-7.442-1.521-24.251-4.958-7.326,11.017,19.391,10.619,11.972,7.416,8.006-1.267,5.44-.933,4.973.663,11.748-4.342,7.08,1.069,3.535-7.678,15.422-.8,17.7,8.147,3.115-4.874Z" transform="translate(-595.481 -1127.162)" fill="#eae9f0"/>
            <path id="Path_11384" data-name="Path 11384" d="M625.118,1204.916a.274.274,0,0,1-.142-.04L613,1197.459l-19.378-10.612a.275.275,0,0,1-.133-.172.267.267,0,0,1,.038-.214l7.326-11.017a.271.271,0,0,1,.279-.115l31.435,6.426,3.807-16.236a.271.271,0,0,1,.19-.2l1.93-.546-2.133-24.544a3.607,3.607,0,0,1,.211-1.562l4.462-12.035a2.267,2.267,0,0,1,3.875-.654l8.4,10.192a3.6,3.6,0,0,1,.819,2.047l4.8,30.32,4.85,3.768,12.389-.116a.247.247,0,0,1,.175.062l18.382,15.157a.048.048,0,0,0,.012.01l7.589,7.011a.268.268,0,0,1,.044.343l-3.115,4.874a.273.273,0,0,1-.341.1l-17.643-8.12-15.193.788-3.467,7.53a.272.272,0,0,1-.286.154l-7.012-1.059-11.683,4.319a.262.262,0,0,1-.129.014l-4.931-.657-5.4.926-8.01,1.269A.331.331,0,0,1,625.118,1204.916Zm-30.976-18.4,19.133,10.478,11.9,7.37,7.906-1.252,5.438-.933a.279.279,0,0,1,.082,0l4.906.654,11.685-4.32a.271.271,0,0,1,.134-.014l6.88,1.038,3.45-7.493a.268.268,0,0,1,.232-.156l15.422-.8a.275.275,0,0,1,.127.025l17.49,8.049,2.867-4.485-7.417-6.853-18.3-15.091-12.385.116h0a.27.27,0,0,1-.166-.057l-5.008-3.891a.27.27,0,0,1-.1-.171L653.6,1138.28a3.1,3.1,0,0,0-.7-1.766l-8.4-10.191a1.728,1.728,0,0,0-2.953.5l-4.462,12.035a3.089,3.089,0,0,0-.179,1.328l2.152,24.767a.272.272,0,0,1-.2.284l-1.991.563-3.831,16.337a.269.269,0,0,1-.317.2L601.2,1175.9Z" transform="translate(-593.485 -1125.155)"/>
          </g>
          <g id="Group_3131" data-name="Group 3131" transform="translate(48.06 1.259)">
            <path id="Path_11385" data-name="Path 11385" d="M1013.245,1189.87l-6.491-39.675-4.057-11.641a.758.758,0,0,0-1.474.216l-.5,11.153,5.7,41.672,4.475,3.149Z" transform="translate(-1000.451 -1137.773)" fill="#ced0dc"/>
            <path id="Path_11386" data-name="Path 11386" d="M1008.895,1193a.267.267,0,0,1-.156-.05l-4.475-3.15a.262.262,0,0,1-.112-.184l-5.7-41.672a.327.327,0,0,1,0-.049l.5-11.152a1.029,1.029,0,0,1,2-.293l4.058,11.641a.291.291,0,0,1,.012.045l6.49,39.675a.258.258,0,0,1-.024.16l-2.35,4.874a.269.269,0,0,1-.176.143A.224.224,0,0,1,1008.895,1193Zm-4.224-3.573,4.119,2.9,2.174-4.51-6.473-39.568-4.049-11.618a.489.489,0,0,0-.95.139l-.5,11.128Z" transform="translate(-998.45 -1135.76)"/>
          </g>
        </g>
      </g>
      <g id="Group_3143" data-name="Group 3143" transform="translate(0 59.495)">
        <g id="Group_3138" data-name="Group 3138" transform="translate(3.312)">
          <g id="Group_3134" data-name="Group 3134" transform="translate(0 9.547)">
            <path id="Path_11387" data-name="Path 11387" d="M418.42,1243.31l14.926,56.025h5.427l-9.5-48.676Z" transform="translate(-418.15 -1243.039)" fill="#eae9f0"/>
            <path id="Path_11388" data-name="Path 11388" d="M436.768,1297.6h-5.427a.27.27,0,0,1-.261-.2l-14.926-56.027a.27.27,0,0,1,.412-.293l10.855,7.35a.274.274,0,0,1,.114.172l9.5,48.677a.266.266,0,0,1-.057.223A.274.274,0,0,1,436.768,1297.6Zm-5.221-.54h4.893l-9.415-48.246-10.165-6.882Z" transform="translate(-416.145 -1241.03)" fill="#eae9f0"/>
          </g>
          <g id="Group_3135" data-name="Group 3135" transform="translate(10.177 15.707)">
            <path id="Path_11389" data-name="Path 11389" d="M504.17,1297.143l19.336-1.933,9.158,47.389-18.318,2.714Z" transform="translate(-503.901 -1294.94)" fill="#eae9f0"/>
            <path id="Path_11390" data-name="Path 11390" d="M512.348,1343.58a.269.269,0,0,1-.263-.214l-10.177-48.17a.27.27,0,0,1,.237-.324l19.336-1.933a.27.27,0,0,1,.292.217l9.16,47.389a.27.27,0,0,1-.225.318l-18.318,2.714Zm-9.85-48.2,10.063,47.628,17.789-2.636-9.059-46.87Z" transform="translate(-501.903 -1292.938)"/>
          </g>
          <g id="Group_3136" data-name="Group 3136" transform="translate(29.512 8.217)">
            <path id="Path_11391" data-name="Path 11391" d="M667.1,1239.581l9.158,47.389,5.428-2.036-9.838-52.845Z" transform="translate(-666.829 -1231.821)" fill="#ced0dc"/>
            <path id="Path_11392" data-name="Path 11392" d="M674.248,1285.243a.27.27,0,0,1-.132-.035.274.274,0,0,1-.133-.184l-9.159-47.389a.271.271,0,0,1,.037-.2l4.749-7.491a.266.266,0,0,1,.279-.12.27.27,0,0,1,.214.216l9.837,52.845a.271.271,0,0,1-.171.3l-5.427,2.035A.3.3,0,0,1,674.248,1285.243Zm-8.874-47.606,9.079,46.971,4.917-1.844-9.671-51.948Z" transform="translate(-664.818 -1229.824)"/>
          </g>
          <g id="Group_3137" data-name="Group 3137" transform="translate(0)">
            <path id="Path_11393" data-name="Path 11393" d="M424.865,1163.585l-6.445,8.94L428.6,1180.5l19.336-1.933,4.748-7.491-10.516-8.216Z" transform="translate(-418.15 -1162.591)" fill="#ced0dc"/>
            <path id="Path_11394" data-name="Path 11394" d="M426.594,1178.768a.272.272,0,0,1-.166-.057l-10.177-7.974a.269.269,0,0,1-.052-.37l6.445-8.941a.269.269,0,0,1,.208-.112l17.3-.725a.271.271,0,0,1,.178.057l10.516,8.216a.27.27,0,0,1,.062.357l-4.75,7.491a.27.27,0,0,1-.2.125l-19.336,1.933A.184.184,0,0,0,426.594,1178.768Zm-9.806-8.3,9.887,7.747,19.1-1.91,4.548-7.173-10.245-8-17.07.716Z" transform="translate(-416.147 -1160.589)"/>
          </g>
        </g>
        <g id="Group_3141" data-name="Group 3141" transform="translate(38.379 7.844)">
          <g id="Group_3139" data-name="Group 3139" transform="translate(0 5.796)">
            <path id="Path_11395" data-name="Path 11395" d="M717.1,1277.81l-3.2,52.108,4.629,1.539,5.723-44.251Z" transform="translate(-713.63 -1277.539)" fill="#fff"/>
            <path id="Path_11396" data-name="Path 11396" d="M716.523,1329.718a.261.261,0,0,1-.085-.015l-4.629-1.539a.269.269,0,0,1-.184-.273l3.2-52.108a.27.27,0,0,1,.484-.147l7.155,9.4a.275.275,0,0,1,.053.2l-5.723,44.251a.275.275,0,0,1-.268.236Zm-4.346-2,4.12,1.371,5.667-43.816-6.648-8.731Z" transform="translate(-711.625 -1275.53)"/>
          </g>
          <path id="Path_11397" data-name="Path 11397" d="M757.883,1359.42l17.036,3.836-5.63,43.008-16.389-2.882Z" transform="translate(-748.001 -1343.668)" fill="#ced0dc"/>
          <g id="Group_3140" data-name="Group 3140" transform="translate(3.197)">
            <path id="Path_11398" data-name="Path 11398" d="M748.862,1228.97l-8.032,5.8,6.416,9.685,17.036,3.836,6.175-5.04-6.636-9.988Z" transform="translate(-740.561 -1228.699)" fill="#fff"/>
            <path id="Path_11399" data-name="Path 11399" d="M762.284,1246.547a.253.253,0,0,1-.059-.007l-17.036-3.836a.271.271,0,0,1-.166-.114l-6.416-9.686a.269.269,0,0,1,.068-.368l8.032-5.8a.267.267,0,0,1,.233-.04l14.958,4.288a.27.27,0,0,1,.151.11l6.637,9.988a.269.269,0,0,1-.055.358l-6.174,5.04A.273.273,0,0,1,762.284,1246.547Zm-16.871-4.345,16.8,3.784,5.883-4.8-6.447-9.7-14.736-4.225-7.715,5.567Z" transform="translate(-738.562 -1226.688)"/>
          </g>
        </g>
        <g id="Group_3142" data-name="Group 3142" transform="translate(0 22.123)">
          <path id="Path_11400" data-name="Path 11400" d="M464.024,1389.827c-4.658.048-6.3,5.812-8.875,6.8l6.531-47.355-6.174,5.04-4.925,37.621a19.458,19.458,0,0,0-6.106-8.66c-1.352-1.024-2.839-1.594-5.812-2.731-6.661-2.549-9.228-1.654-11.624-4.37-2-2.263-1.111-3.9-3.17-5.463-.647-.49-2.609-1.75-8.453-.546-8.286,1.707-9.856,5.375-13.209,4.37-4.651-1.393-4.852-9.416-7.4-9.285-2.164.112-3.831,6-4.227,10.377-.183,2.016-.749,10.944,4.755,18.024,4.219,5.427,10.416,7.727,21.135,9.285,22.379,3.253,53.907,1.74,54.95-6.007C471.83,1393.89,467.572,1389.79,464.024,1389.827Z" transform="translate(-390.209 -1349)" fill="#eae9f0"/>
          <path id="Path_11401" data-name="Path 11401" d="M437.906,1402.816a167.9,167.9,0,0,1-23.444-1.617c-11.516-1.675-17.291-4.218-21.309-9.386-5.368-6.906-5.039-15.687-4.811-18.213.392-4.335,2.041-10.5,4.482-10.623,1.317-.062,2.035,1.6,2.865,3.527.964,2.242,2.162,5.032,4.624,5.769,1.572.471,2.7-.14,4.562-1.155a28.176,28.176,0,0,1,8.515-3.221c4.115-.848,7.032-.647,8.672.6a4.743,4.743,0,0,1,1.746,2.735,6.8,6.8,0,0,0,1.464,2.763c1.364,1.545,2.778,1.87,5.121,2.409a44.036,44.036,0,0,1,6.4,1.887c2.994,1.145,4.5,1.72,5.878,2.767a18.5,18.5,0,0,1,5.8,7.862l4.8-36.644a.273.273,0,0,1,.1-.174l6.174-5.04a.27.27,0,0,1,.438.246l-6.461,46.845a10.463,10.463,0,0,0,2.23-2.354c1.55-1.973,3.306-4.21,6.3-4.241h.049a8.505,8.505,0,0,1,5.884,3.057,5.793,5.793,0,0,1,1.735,4.35,4.392,4.392,0,0,1-1.917,2.848C463.237,1401.252,451.1,1402.816,437.906,1402.816Zm-45.01-39.3h-.044c-1.809.093-3.545,5.414-3.972,10.133-.224,2.477-.547,11.085,4.7,17.835,3.92,5.044,9.6,7.532,20.961,9.183,19.265,2.8,45.743,2.139,52.937-3.287a3.88,3.88,0,0,0,1.707-2.488,5.269,5.269,0,0,0-1.6-3.92,7.952,7.952,0,0,0-5.478-2.874h-.044c-2.738.029-4.41,2.157-5.884,4.035a8.141,8.141,0,0,1-2.9,2.745.27.27,0,0,1-.364-.288l6.437-46.675-5.559,4.538-4.911,37.515a.27.27,0,0,1-.516.07c-1.24-2.956-2.726-6.051-6.021-8.549-1.321-1-2.8-1.567-5.744-2.694a43.659,43.659,0,0,0-6.327-1.865c-2.364-.543-3.926-.9-5.4-2.578a7.346,7.346,0,0,1-1.574-2.956,4.245,4.245,0,0,0-1.557-2.47c-1.881-1.426-5.517-1.058-8.236-.5a27.7,27.7,0,0,0-8.366,3.167c-1.85,1.006-3.185,1.733-4.975,1.2-2.7-.81-3.957-3.729-4.964-6.074C394.456,1365,393.817,1363.513,392.9,1363.513Zm69.158,24.311h0Z" transform="translate(-388.239 -1346.998)"/>
        </g>
      </g>
      <g id="Group_3152" data-name="Group 3152" transform="translate(89.871 84.373)">
        <path id="Path_11402" data-name="Path 11402" d="M1683.05,1637.47l7.306,3.272-9.95,16.824-4.886.5Z" transform="translate(-1611.915 -1605.753)" fill="#fff"/>
        <g id="Group_3144" data-name="Group 3144" transform="translate(0.062)">
          <path id="Path_11403" data-name="Path 11403" d="M1205.634,1424.542l9.53-16.67-2-3.927-6.705-1.467,8.215-14.251L1201.99,1372.5l-15.669,7.866-7.461,10.324-5.968.491-7.463-11.8-5.191,7.866-3.7,4.424v5.276l-10.389,2.1-3.792,5.9,8.177,13.273,15.655,1.965-3.739,3.442,14.174,6.391Z" transform="translate(-1142.091 -1372.229)" fill="#ced0dc"/>
          <path id="Path_11404" data-name="Path 11404" d="M1174.628,1428.274a.282.282,0,0,1-.112-.024l-14.174-6.391a.271.271,0,0,1-.156-.2.267.267,0,0,1,.084-.241l3.311-3.048-15.078-1.894a.272.272,0,0,1-.2-.126l-8.177-13.273a.27.27,0,0,1,0-.287l3.793-5.9a.267.267,0,0,1,.173-.119l10.172-2.053v-5.056a.274.274,0,0,1,.063-.173l3.688-4.412,5.183-7.853a.3.3,0,0,1,.228-.121.27.27,0,0,1,.225.126l7.375,11.659,5.682-.469,7.389-10.223a.263.263,0,0,1,.1-.083l15.669-7.866a.27.27,0,0,1,.331.071l12.683,15.729a.269.269,0,0,1,.024.3l-8.031,13.934,6.344,1.387a.266.266,0,0,1,.183.141l2,3.927a.269.269,0,0,1-.006.257l-9.53,16.669a.272.272,0,0,1-.184.132l-29.007,5.472A.247.247,0,0,1,1174.628,1428.274Zm-13.691-6.739,13.724,6.188,28.8-5.434,9.4-16.434-1.876-3.684-6.579-1.439a.27.27,0,0,1-.176-.4l8.121-14.092-12.43-15.415-15.415,7.739-7.422,10.27a.272.272,0,0,1-.2.112l-5.969.491a.274.274,0,0,1-.25-.125l-7.238-11.444-4.961,7.516-.018.025-3.635,4.35v5.178a.27.27,0,0,1-.216.265l-10.276,2.074-3.639,5.66,8.02,13.018,15.527,1.95a.269.269,0,0,1,.148.466Zm42.7,1h0Z" transform="translate(-1140.091 -1370.218)"/>
        </g>
        <g id="Group_3145" data-name="Group 3145" transform="translate(0 32.446)">
          <path id="Path_11405" data-name="Path 11405" d="M1141.84,1645.89l8.856,3.8,4.975,10.05-5.623-.579Z" transform="translate(-1141.571 -1645.619)" fill="#eae9f0"/>
          <path id="Path_11406" data-name="Path 11406" d="M1153.67,1658.005h-.027l-5.623-.58a.27.27,0,0,1-.2-.127l-8.208-13.272a.269.269,0,0,1,.025-.318.273.273,0,0,1,.311-.073l8.856,3.8a.269.269,0,0,1,.135.128l4.975,10.05a.271.271,0,0,1-.02.274A.268.268,0,0,1,1153.67,1658.005Zm-5.463-1.1,5,.516-4.714-9.523-7.979-3.425Z" transform="translate(-1139.57 -1643.612)"/>
        </g>
        <g id="Group_3146" data-name="Group 3146" transform="translate(13.995 6.886)">
          <path id="Path_11407" data-name="Path 11407" d="M1259.77,1442.79l4.478,2,4.658-14.289Z" transform="translate(-1259.5 -1430.231)" fill="#eae9f0"/>
          <path id="Path_11408" data-name="Path 11408" d="M1262.241,1443.063a.271.271,0,0,1-.11-.024l-4.478-2a.27.27,0,0,1-.107-.407l9.136-12.289a.27.27,0,0,1,.474.246l-4.658,14.289a.268.268,0,0,1-.147.162A.281.281,0,0,1,1262.241,1443.063Zm-4.06-2.377,3.9,1.74,4.054-12.434Z" transform="translate(-1257.493 -1428.237)"/>
        </g>
        <g id="Group_3147" data-name="Group 3147" transform="translate(36.561 7.867)">
          <path id="Path_11409" data-name="Path 11409" d="M1457.381,1438.78l-3.329,10.9-4.132-.579Z" transform="translate(-1449.649 -1438.511)" fill="#eae9f0"/>
          <path id="Path_11410" data-name="Path 11410" d="M1452.042,1447.951l-.038,0-4.132-.579a.273.273,0,0,1-.211-.161.269.269,0,0,1,.03-.263l7.461-10.324a.27.27,0,0,1,.476.237l-3.329,10.9A.266.266,0,0,1,1452.042,1447.951Zm-3.65-1.054,3.459.485,2.788-9.13Z" transform="translate(-1447.639 -1436.509)"/>
        </g>
        <g id="Group_3148" data-name="Group 3148" transform="translate(44.674 0.002)">
          <path id="Path_11411" data-name="Path 11411" d="M1533.3,1372.5l-.425,11.778-6.3,12.016-8.291-.437,6.3-.655,6.3-11.8Z" transform="translate(-1518.009 -1372.231)" fill="#eae9f0"/>
          <path id="Path_11412" data-name="Path 11412" d="M1524.561,1394.567h-.014l-8.292-.437a.27.27,0,0,1-.013-.538l6.159-.641,6.217-11.639,2.407-10.867a.27.27,0,0,1,.534.068l-.425,11.777a.255.255,0,0,1-.031.115l-6.3,12.017A.273.273,0,0,1,1524.561,1394.567Zm-4.835-.8,4.677.247,6.193-11.81.316-8.758-1.774,8.014a.282.282,0,0,1-.026.069l-6.3,11.8a.27.27,0,0,1-.21.141Z" transform="translate(-1515.999 -1370.234)"/>
        </g>
        <g id="Group_3149" data-name="Group 3149" transform="translate(26.1 11.124)">
          <path id="Path_11413" data-name="Path 11413" d="M1361.78,1466.21l8.623,13.765-1.99,10.05,1.59,22.58-6.233-22.361,3.648-10.924Z" transform="translate(-1361.509 -1465.942)" fill="#eae9f0"/>
          <path id="Path_11414" data-name="Path 11414" d="M1367.987,1510.883a.271.271,0,0,1-.26-.2l-6.233-22.36a.276.276,0,0,1,0-.158l3.616-10.827-5.6-13.014a.269.269,0,0,1,.476-.249l8.623,13.764a.264.264,0,0,1,.036.2l-1.983,10.015,1.588,22.543a.271.271,0,0,1-.223.285Zm-5.951-22.624,5.494,19.71-1.4-19.917a.281.281,0,0,1,0-.071l1.969-9.945-6.7-10.7,4.251,9.885a.27.27,0,0,1,.008.192Z" transform="translate(-1359.494 -1463.95)"/>
        </g>
        <g id="Group_3150" data-name="Group 3150" transform="translate(35.056 26.198)">
          <path id="Path_11415" data-name="Path 11415" d="M1442.2,1593.24l5.639,8.084-10.613,22.067,15.588-22.067Z" transform="translate(-1436.96 -1592.97)" fill="#eae9f0"/>
          <path id="Path_11416" data-name="Path 11416" d="M1435.226,1621.658a.274.274,0,0,1-.137-.037.271.271,0,0,1-.107-.35l10.545-21.925-5.548-7.955a.27.27,0,0,1,.385-.369l10.613,8.085a.269.269,0,0,1,.057.37l-15.588,22.067A.263.263,0,0,1,1435.226,1621.658Zm6.182-29.161,4.653,6.671a.27.27,0,0,1,.021.272l-9.213,19.156,13.574-19.216Z" transform="translate(-1434.957 -1590.968)"/>
        </g>
        <g id="Group_3151" data-name="Group 3151" transform="translate(50.644 15.728)">
          <path id="Path_11417" data-name="Path 11417" d="M1590.311,1505.03l-8.215,14.251-10.531,12.386-1.99,12.016-.995-12.891,11.94-13.109Z" transform="translate(-1568.309 -1504.759)" fill="#eae9f0"/>
          <path id="Path_11418" data-name="Path 11418" d="M1567.567,1541.94h-.012a.27.27,0,0,1-.258-.249l-.994-12.891a.266.266,0,0,1,.07-.2l11.94-13.109,9.777-12.638a.27.27,0,0,1,.448.3l-8.214,14.252a.314.314,0,0,1-.028.04l-10.483,12.328-1.977,11.943A.274.274,0,0,1,1567.567,1541.94Zm-.717-13.065.814,10.553,1.626-9.818a.269.269,0,0,1,.06-.131l10.516-12.367,6.218-10.789-7.361,9.512Z" transform="translate(-1566.303 -1502.746)"/>
        </g>
      </g>
    </g>
    <g id="Group_3172" data-name="Group 3172" transform="translate(0 15.552)">
      <g id="Group_3155" data-name="Group 3155" transform="translate(88.607)">
        <g id="Group_3154" data-name="Group 3154">
          <path id="Path_11419" data-name="Path 11419" d="M1082.88,813.348a22.813,22.813,0,1,0,22.812-23.028A22.921,22.921,0,0,0,1082.88,813.348Zm3.006,0a19.806,19.806,0,1,1,19.805,19.994A19.9,19.9,0,0,1,1085.886,813.348Z" transform="translate(-1082.88 -790.32)"/>
          <path id="Path_11420" data-name="Path 11420" d="M1093.81,1144.708a1.421,1.421,0,0,0,2-.312l6.661-9.177-2.311-1.709-6.661,9.177A1.456,1.456,0,0,0,1093.81,1144.708Z" transform="translate(-1091.997 -1092.781)"/>
        </g>
      </g>
      <g id="Group_3171" data-name="Group 3171" transform="translate(0 39)">
        <g id="Group_3158" data-name="Group 3158" transform="translate(7.547 100.429)">
          <g id="Group_3156" data-name="Group 3156">
            <path id="Path_11421" data-name="Path 11421" d="M411.454,1972.1l-5.351,4.242-3.983-4.824,5.477-4.089Z" transform="translate(-401.851 -1967.162)" fill="#fff"/>
            <path id="Path_11422" data-name="Path 11422" d="M404.1,1974.623a.264.264,0,0,1-.208-.1l-3.983-4.824a.27.27,0,0,1,.047-.388l5.477-4.089a.27.27,0,0,1,.369.045l3.857,4.671a.272.272,0,0,1,.061.2.265.265,0,0,1-.1.183l-5.351,4.242A.283.283,0,0,1,404.1,1974.623Zm-3.595-5.048,3.634,4.4,4.927-3.907-3.518-4.26Z" transform="translate(-399.851 -1965.171)"/>
          </g>
          <g id="Group_3157" data-name="Group 3157" transform="translate(33.191 10.535)">
            <path id="Path_11423" data-name="Path 11423" d="M688.218,2056.21l-.2,3.722H681.8l.394-3.722Z" transform="translate(-681.53 -2055.94)" fill="#fff"/>
            <path id="Path_11424" data-name="Path 11424" d="M686.018,2058.2H679.8a.269.269,0,0,1-.268-.3l.4-3.722a.269.269,0,0,1,.268-.24h6.024a.27.27,0,0,1,.269.285l-.2,3.722A.27.27,0,0,1,686.018,2058.2Zm-5.922-.54h5.666l.169-3.182h-5.5Z" transform="translate(-679.527 -2053.94)"/>
          </g>
        </g>
        <g id="Group_3160" data-name="Group 3160" transform="translate(38.577 114.551)">
          <g id="Group_3159" data-name="Group 3159">
            <path id="Path_11425" data-name="Path 11425" d="M671.712,2086.45h-5.776a1.011,1.011,0,0,0-.935.63,17.748,17.748,0,0,0-1.416,6.985,1.427,1.427,0,0,0,1.421,1.357h16.949a1.243,1.243,0,0,0,1.215-1.489,5.017,5.017,0,0,0-2.69-3.229c-3.008-1.767-6.791-3.535-7.984-4.082A1.859,1.859,0,0,0,671.712,2086.45Z" transform="translate(-663.305 -2086.179)" fill="#fff"/>
            <path id="Path_11426" data-name="Path 11426" d="M679.972,2093.682H663.023a1.694,1.694,0,0,1-1.69-1.614,18.163,18.163,0,0,1,1.435-7.1,1.275,1.275,0,0,1,1.185-.8h5.776a2.138,2.138,0,0,1,.9.2c1.111.509,4.969,2.31,8.007,4.094a5.277,5.277,0,0,1,2.817,3.409,1.513,1.513,0,0,1-1.48,1.813Zm-16.02-8.972a.738.738,0,0,0-.685.462,17.61,17.61,0,0,0-1.4,6.869,1.156,1.156,0,0,0,1.151,1.1h16.95a.974.974,0,0,0,.951-1.167,4.771,4.771,0,0,0-2.562-3.05c-3.017-1.771-6.855-3.563-7.958-4.068a1.6,1.6,0,0,0-.674-.147Z" transform="translate(-661.32 -2084.17)"/>
          </g>
          <path id="Path_11427" data-name="Path 11427" d="M741.368,2101.358a.265.265,0,0,1-.148-.045.269.269,0,0,1-.076-.374l2.3-3.49a.27.27,0,0,1,.45.3l-2.3,3.489A.271.271,0,0,1,741.368,2101.358Z" transform="translate(-731.63 -2095.767)"/>
          <path id="Path_11428" data-name="Path 11428" d="M760.157,2112.562a.27.27,0,0,1-.224-.419l2.3-3.49a.27.27,0,0,1,.45.3l-2.3,3.489A.269.269,0,0,1,760.157,2112.562Z" transform="translate(-748.19 -2105.641)"/>
        </g>
        <g id="Group_3162" data-name="Group 3162" transform="translate(0 104.483)">
          <g id="Group_3161" data-name="Group 3161">
            <path id="Path_11429" data-name="Path 11429" d="M349.989,2006.567l-3.577-4.579a1,1,0,0,0-1.069-.35,17.379,17.379,0,0,0-6.308,3.2,1.446,1.446,0,0,0-.177,1.968l10.5,13.434a1.228,1.228,0,0,0,1.912.041,5.057,5.057,0,0,0,.845-4.132c-.489-3.48-1.456-7.572-1.77-8.854A1.949,1.949,0,0,0,349.989,2006.567Z" transform="translate(-338.281 -2001.329)" fill="#fff"/>
            <path id="Path_11430" data-name="Path 11430" d="M348.311,2018.993h-.025a1.5,1.5,0,0,1-1.164-.582l-10.5-13.435a1.712,1.712,0,0,1,.21-2.335,17.8,17.8,0,0,1,6.412-3.26,1.27,1.27,0,0,1,1.357.444l3.577,4.579a2.181,2.181,0,0,1,.4.832c.292,1.2,1.281,5.368,1.774,8.882a5.324,5.324,0,0,1-.905,4.343A1.478,1.478,0,0,1,348.311,2018.993Zm-4.713-19.122a.731.731,0,0,0-.2.029,17.262,17.262,0,0,0-6.2,3.146,1.172,1.172,0,0,0-.143,1.6l10.5,13.435a.958.958,0,0,0,1.492.033,4.811,4.811,0,0,0,.786-3.921c-.49-3.489-1.475-7.639-1.765-8.829a1.639,1.639,0,0,0-.3-.628l-3.577-4.579A.737.737,0,0,0,343.6,1999.871Z" transform="translate(-336.26 -1999.331)"/>
          </g>
          <path id="Path_11431" data-name="Path 11431" d="M406.752,2074.486a.27.27,0,0,1-.021-.539l4.141-.334a.27.27,0,0,1,.044.539l-4.141.335Z" transform="translate(-398.149 -2064.795)"/>
          <path id="Path_11432" data-name="Path 11432" d="M409.682,2096.314a.27.27,0,0,1-.021-.539l4.141-.335a.27.27,0,0,1,.044.538l-4.141.335Z" transform="translate(-400.731 -2084.033)"/>
        </g>
        <g id="Group_3163" data-name="Group 3163" transform="translate(11.482 50.339)">
          <path id="Path_11433" data-name="Path 11433" d="M455.24,1543.11a78.062,78.062,0,0,0-2.645,15.9c-.659,9.437-14.712,20.1-19.584,34.459l5.174,6.264s15.625-12.073,18.623-17.063c3.166-5.271,6.978-16.216,6.978-16.216l-2.725-20.217-.477-.113a17.121,17.121,0,0,1-3.545-1.312A4.159,4.159,0,0,1,455.24,1543.11Z" transform="translate(-433.01 -1543.11)" fill="#fff"/>
          <path id="Path_11434" data-name="Path 11434" d="M631.924,1557.48s-1.372,8.545,2.973,15.523a24.411,24.411,0,0,1,3.16,17.745,60.368,60.368,0,0,0,0,25.919,8.757,8.757,0,0,0,6.024,0s8.394-19.14,8.789-30.9-4.543-27.714-4.543-27.714S638.435,1561.01,631.924,1557.48Z" transform="translate(-608.136 -1555.775)" fill="#fff"/>
        </g>
        <g id="Group_3167" data-name="Group 3167" transform="translate(15.555 5.913)">
          <g id="Group_3164" data-name="Group 3164" transform="translate(71.698)">
            <path id="Path_11435" data-name="Path 11435" d="M1074.357,1179.335a1.164,1.164,0,0,1-.508-.8c-.169-1.1-.4-3.673.812-5.172,1.568-1.944,4.254-2.713,4.568-2.17s-3.672,4.023-2.328,6.057c0,0,1.231.388,2.98-1.066a.423.423,0,0,1,.684.248,3.088,3.088,0,0,1-.438,1.994,6.461,6.461,0,0,1-2.43,2.346,1.141,1.141,0,0,1-1.206-.033Z" transform="translate(-1073.447 -1170.759)" fill="#fff"/>
            <path id="Path_11436" data-name="Path 11436" d="M1075.14,1179.211a1.408,1.408,0,0,1-.777-.235l-2.132-1.407a1.437,1.437,0,0,1-.625-.98c-.166-1.088-.415-3.792.868-5.382a6.431,6.431,0,0,1,4.427-2.435.677.677,0,0,1,.585.3c.193.334-.133.776-.781,1.657-.911,1.239-2.279,3.1-1.611,4.3a3.43,3.43,0,0,0,2.636-1.035.693.693,0,0,1,1.123.407,3.345,3.345,0,0,1-.467,2.168,6.655,6.655,0,0,1-2.532,2.452A1.424,1.424,0,0,1,1075.14,1179.211Zm-2.612-2.093,2.133,1.407a.871.871,0,0,0,.921.026,6.279,6.279,0,0,0,2.329-2.24,2.828,2.828,0,0,0,.41-1.819.142.142,0,0,0-.1-.111.15.15,0,0,0-.15.024c-1.84,1.531-3.177,1.133-3.233,1.117a.266.266,0,0,1-.144-.109c-1-1.512.548-3.614,1.571-5a7.107,7.107,0,0,0,.717-1.077.935.935,0,0,0-.351-.018,6.311,6.311,0,0,0-3.742,2.232c-1.148,1.424-.911,3.945-.755,4.962A.893.893,0,0,0,1072.527,1177.118Z" transform="translate(-1071.467 -1168.768)"/>
          </g>
          <g id="Group_3165" data-name="Group 3165" transform="translate(0 38.685)">
            <path id="Path_11437" data-name="Path 11437" d="M479.45,1497.2s-6.813-.63-8.517.344-1.533,2.178-.8,2.694c.573.4,4.158.145,5.733.01a.111.111,0,0,1,.055.212c-.906.4-2.368,1.145-2.21,1.783.227.917,5.962-.917,5.962-.917Z" transform="translate(-469.333 -1496.732)" fill="#fff"/>
            <path id="Path_11438" data-name="Path 11438" d="M472.422,1500.764a1.56,1.56,0,0,1-.712-.125.515.515,0,0,1-.263-.328c-.052-.209-.2-.8,1.58-1.724-2.918.22-4.614.177-5.05-.127a1.473,1.473,0,0,1-.647-1.271,2.482,2.482,0,0,1,1.463-1.879c1.758-1.005,8.394-.4,8.677-.378a.269.269,0,0,1,.244.254l.227,4.128a.269.269,0,0,1-.187.272A24.479,24.479,0,0,1,472.422,1500.764Zm1.453-2.785a.381.381,0,0,1,.152.729c-1.727.758-2.1,1.294-2.057,1.472.282.261,2.744-.206,5.419-1.047l-.2-3.685c-2.033-.172-6.842-.4-8.127.33-.747.427-1.169.936-1.192,1.435a.925.925,0,0,0,.418.8c.256.179,1.866.277,5.555-.038Z" transform="translate(-467.328 -1494.731)"/>
          </g>
          <g id="Group_3166" data-name="Group 3166" transform="translate(9.059 7.623)">
            <path id="Path_11439" data-name="Path 11439" d="M632.055,1258.587c2.238-7.975,5.794-18.609,11.982-20.2l-.1-4.835s11.049,2.052,11.922,8.334a21.3,21.3,0,0,0,14.762-1.4c2.79-1.354,5.663-4.414,8.438-7.483l4.592,2.99s-9.6,23.527-31.19,17.014c0,0-6.616,4.968-5.7,17.329,0,0-8.739,7.128-20.738.648A34.894,34.894,0,0,0,632.055,1258.587Z" transform="translate(-616.255 -1233)" fill="#86898e"/>
            <path id="Path_11440" data-name="Path 11440" d="M543.66,1378.106l.494,6.081s16.887,10.035,29.79-20.137l-11.061-1.13S559.067,1374.749,543.66,1378.106Z" transform="translate(-543.66 -1347.501)" fill="#86898e"/>
            <path id="Path_11441" data-name="Path 11441" d="M625.538,1466.925a.27.27,0,0,1-.062-.533c9.759-2.319,13.6-7.52,16.687-11.7a.27.27,0,1,1,.434.32c-3.139,4.25-7.046,9.54-17,11.9A.309.309,0,0,1,625.538,1466.925Z" transform="translate(-615.583 -1428.287)"/>
            <path id="Path_11442" data-name="Path 11442" d="M797.1,1265.3h-.011a.271.271,0,0,1-.259-.28,17.28,17.28,0,0,0-2.395-9.514.27.27,0,1,1,.448-.3,17.49,17.49,0,0,1,2.487,9.838A.271.271,0,0,1,797.1,1265.3Z" transform="translate(-764.635 -1252.461)"/>
            <path id="Path_11443" data-name="Path 11443" d="M849.548,1355.989a.27.27,0,0,1-.179-.471,7.3,7.3,0,0,0,2.708-5.238.271.271,0,0,1,.258-.281.275.275,0,0,1,.281.256,7.694,7.694,0,0,1-2.888,5.663A.265.265,0,0,1,849.548,1355.989Z" transform="translate(-813.009 -1336.115)"/>
          </g>
        </g>
        <g id="Group_3169" data-name="Group 3169" transform="translate(54.899)">
          <g id="Group_3168" data-name="Group 3168" transform="translate(0.92 8.524)">
            <path id="Path_11444" data-name="Path 11444" d="M818.756,1193.157s3.007-.618,2.711,1.307-.4,6.461-1.943,7.017-3.229-1.628-4.288-.659a9.01,9.01,0,0,0-2.317,4.221,3.106,3.106,0,0,1-1.776.108,3.5,3.5,0,0,1-2.264-2.12,12.926,12.926,0,0,0,1.208-1.5,9.491,9.491,0,0,0,1.589-3.423Z" transform="translate(-808.609 -1192.791)" fill="#fff"/>
            <path id="Path_11445" data-name="Path 11445" d="M809.826,1203.482a3.231,3.231,0,0,1-.758-.09,3.784,3.784,0,0,1-2.453-2.287.27.27,0,0,1,.057-.28,12.705,12.705,0,0,0,1.182-1.466,9.33,9.33,0,0,0,1.545-3.321.269.269,0,0,1,.11-.169l7.08-4.956a.254.254,0,0,1,.1-.043c.192-.039,1.894-.363,2.679.382a1.318,1.318,0,0,1,.352,1.229c-.058.38-.112.881-.167,1.41-.25,2.369-.561,5.318-1.95,5.82a3.221,3.221,0,0,1-2.457-.458c-.822-.393-1.347-.614-1.741-.255a8.676,8.676,0,0,0-2.239,4.1.27.27,0,0,1-.169.179A3.536,3.536,0,0,1,809.826,1203.482Zm-2.643-2.415a3.161,3.161,0,0,0,2.013,1.8,2.8,2.8,0,0,0,1.493-.058,9.052,9.052,0,0,1,2.353-4.208c.682-.625,1.524-.223,2.338.165a2.8,2.8,0,0,0,2.041.438c1.072-.387,1.387-3.386,1.6-5.369.057-.537.11-1.042.171-1.436a.806.806,0,0,0-.191-.756c-.475-.451-1.66-.346-2.144-.255l-6.946,4.861a9.679,9.679,0,0,1-1.61,3.418A13.528,13.528,0,0,1,807.183,1201.067Z" transform="translate(-806.598 -1190.768)"/>
          </g>
          <path id="Path_11446" data-name="Path 11446" d="M879.626,1201.693a.26.26,0,0,1-.092-.016c-1.052-.382-1.41-1.695-1.3-2.827.1-1.013.54-1.726,1.119-1.814,1.321-.2,1.768,1.819,1.786,1.9a.27.27,0,1,1-.528.113c0-.017-.367-1.6-1.176-1.485-.307.047-.593.621-.663,1.334-.088.893.17,1.984.946,2.267a.271.271,0,0,1-.093.525Z" transform="translate(-868.796 -1187.754)"/>
          <path id="Path_11447" data-name="Path 11447" d="M810.633,1129.353s3.086.573,2.987-2.484-2.263-6.056-8.057-4.86c0,0-1.316-4.021-4.675-2.858s-2.271,6.447,1.086,6.912c0,0-2.808,5.166.761,7.053a4.32,4.32,0,0,0,2.949.343,4.1,4.1,0,0,0,2.972-1.946s-.481-2.46.457-2.958S810.633,1129.353,810.633,1129.353Z" transform="translate(-798.848 -1118.941)"/>
        </g>
        <g id="Group_3170" data-name="Group 3170" transform="translate(11.214 50.071)">
          <path id="Path_11448" data-name="Path 11448" d="M436.195,1598.008a.264.264,0,0,1-.208-.1l-5.174-6.264a.271.271,0,0,1-.047-.258c2.395-7.058,7.035-13.28,11.128-18.769,4.352-5.837,8.11-10.877,8.442-15.621a79.194,79.194,0,0,1,2.656-15.96.27.27,0,0,1,.494-.052,3.868,3.868,0,0,0,1.683,1.59.27.27,0,1,1-.236.485,4.388,4.388,0,0,1-1.584-1.3,81.848,81.848,0,0,0-2.474,15.277c-.342,4.9-4.144,10-8.547,15.907-4.042,5.42-8.62,11.559-11,18.477l4.912,5.946c1.855-1.447,15.6-12.247,18.35-16.828,2.27-3.779,4.865-10.457,6.21-14.1a.27.27,0,0,1,.507.186c-1.352,3.662-3.96,10.376-6.253,14.193-2.99,4.976-18.05,16.644-18.689,17.138A.294.294,0,0,1,436.195,1598.008Z" transform="translate(-430.751 -1540.846)"/>
          <path id="Path_11449" data-name="Path 11449" d="M639.114,1615.47a8.441,8.441,0,0,1-3.112-.558.269.269,0,0,1-.156-.185,60.979,60.979,0,0,1,0-26.04,24.2,24.2,0,0,0-3.126-17.544c-4.349-6.983-3.024-15.621-3.01-15.708a.27.27,0,0,1,.4-.195c6.337,3.435,16.1.577,16.2.548a.269.269,0,0,1,.335.179c.05.16,4.946,16.128,4.555,27.8s-8.728,30.811-8.812,31a.268.268,0,0,1-.154.145A8.985,8.985,0,0,1,639.114,1615.47Zm-2.775-1.005a8.635,8.635,0,0,0,5.593-.014c.67-1.553,8.347-19.572,8.72-30.7.362-10.781-3.832-25.288-4.454-27.373-1.608.443-10,2.521-16-.484-.2,1.715-.746,8.972,2.984,14.963a24.763,24.763,0,0,1,3.195,17.945A60.447,60.447,0,0,0,636.339,1614.465Z" transform="translate(-605.921 -1553.504)"/>
        </g>
      </g>
    </g>
    <g id="Group_3176" data-name="Group 3176" transform="translate(71.13 157.814)">
      <path id="Path_11455" data-name="Path 11455" d="M940.739,2110.7h-.008c-1.616-.052-3.252-.128-4.862-.227a.27.27,0,0,1-.253-.286.274.274,0,0,1,.286-.253c1.6.1,3.235.174,4.847.227a.269.269,0,0,1-.01.539Z" transform="translate(-935.615 -2095.591)"/>
      <path id="Path_11456" data-name="Path 11456" d="M981.909,2028.486q-2.558,0-5.129-.082a.27.27,0,0,1-.261-.279.267.267,0,0,1,.279-.261c22.406.716,44.194-3.291,61.355-11.283a.27.27,0,0,1,.228.489C1022.459,2024.486,1002.575,2028.486,981.909,2028.486Z" transform="translate(-971.665 -2013.291)"/>
      <path id="Path_11457" data-name="Path 11457" d="M1011.969,1998.042a.27.27,0,0,1,0-.54c16.205-.259,31.713-3.178,44.847-8.441a.27.27,0,0,1,.2.5c-13.195,5.288-28.77,8.222-45.039,8.48Z" transform="translate(-1002.67 -1989.041)"/>
    </g>
    <g id="Group_3177" data-name="Group 3177" transform="translate(27.775 20.816)">
      <path id="Path_11458" data-name="Path 11458" d="M489.98,798.04a.227.227,0,0,1-.069-.01.269.269,0,0,1-.191-.33l.538-2.023a.27.27,0,1,1,.521.139l-.538,2.023A.271.271,0,0,1,489.98,798.04Z" transform="translate(-485.983 -795.477)"/>
      <path id="Path_11459" data-name="Path 11459" d="M479.44,837.767a.231.231,0,0,1-.069-.009.269.269,0,0,1-.191-.33l.538-2.024a.27.27,0,0,1,.521.139l-.538,2.023A.273.273,0,0,1,479.44,837.767Z" transform="translate(-476.694 -830.489)"/>
      <path id="Path_11460" data-name="Path 11460" d="M460.6,817.41a.231.231,0,0,1-.069-.01l-2.023-.536a.269.269,0,1,1,.138-.521l2.023.536a.27.27,0,0,1-.069.531Z" transform="translate(-458.305 -813.859)"/>
      <path id="Path_11461" data-name="Path 11461" d="M500.333,827.941a.23.23,0,0,1-.069-.01l-2.023-.538a.27.27,0,0,1,.139-.521l2.023.538a.27.27,0,0,1-.07.531Z" transform="translate(-493.325 -823.139)"/>
    </g>
    <path id="Path_11462" data-name="Path 11462" d="M1567.747,1943.2a3.016,3.016,0,0,1-1.1-.208,3.076,3.076,0,0,1-1.718-1.666,3.159,3.159,0,0,1,1.575-4.125,3,3,0,0,1,2.337-.06,3.08,3.08,0,0,1,1.72,1.666,3.158,3.158,0,0,1-1.575,4.125A3.04,3.04,0,0,1,1567.747,1943.2Zm0-5.726a2.488,2.488,0,0,0-1.018.219,2.616,2.616,0,0,0-1.3,3.419,2.539,2.539,0,0,0,1.419,1.376,2.465,2.465,0,0,0,1.92-.05,2.615,2.615,0,0,0,1.3-3.419,2.541,2.541,0,0,0-1.419-1.377A2.483,2.483,0,0,0,1567.746,1937.472Zm-1.13-.026h0Z" transform="translate(-1418.888 -1785.302)"/>
    <g id="Group_3194" data-name="Group 3194" transform="translate(158.696 37.819)">
      <g id="Group_3185" data-name="Group 3185" transform="translate(3.891 49.978)">
        <g id="Group_3180" data-name="Group 3180" transform="translate(39.828 72.048)">
          <path id="Path_11466" data-name="Path 11466" d="M2044.12,2008.44l1.292,9.075h2.8l.156-8.926Z" transform="translate(-2043.851 -2008.171)" fill="#fff"/>
          <path id="Path_11467" data-name="Path 11467" d="M2046.209,2015.786h-2.8a.27.27,0,0,1-.267-.231l-1.292-9.075a.271.271,0,0,1,.066-.218.253.253,0,0,1,.21-.089l4.246.149a.269.269,0,0,1,.26.274l-.156,8.926A.27.27,0,0,1,2046.209,2015.786Zm-2.565-.54h2.3l.146-8.395-3.658-.13Z" transform="translate(-2041.849 -2006.171)"/>
        </g>
        <g id="Group_3181" data-name="Group 3181" transform="translate(39.738 78.98)">
          <path id="Path_11468" data-name="Path 11468" d="M2044.631,2077.662a22.382,22.382,0,0,0,6.084-.2,1.429,1.429,0,0,0,1.137-1.8c-.641-2.278-2.021-6.591-3.759-8.554l-.379,1.109-.607-1.012a.51.51,0,0,0-.388-.244l-1.26-.117a.506.506,0,0,0-.547.417l-.169.957-.478-1.232-.9,9.117A1.426,1.426,0,0,0,2044.631,2077.662Z" transform="translate(-2043.091 -2066.572)" fill="#fff"/>
          <path id="Path_11469" data-name="Path 11469" d="M2044.917,2076.056a21.892,21.892,0,0,1-2.314-.121,1.7,1.7,0,0,1-1.5-1.855l.9-9.117a.268.268,0,0,1,.231-.241.272.272,0,0,1,.288.17l.129.332v0a.786.786,0,0,1,.838-.64l1.26.118a.78.78,0,0,1,.594.374l.309.514.191-.559a.266.266,0,0,1,.2-.177.276.276,0,0,1,.255.085c1.76,1.989,3.146,6.279,3.815,8.66a1.7,1.7,0,0,1-1.351,2.135A22.827,22.827,0,0,1,2044.917,2076.056Zm-2.5-9.915-.787,7.992a1.16,1.16,0,0,0,1.024,1.266h0a22.081,22.081,0,0,0,6.009-.2,1.169,1.169,0,0,0,.788-.526,1.144,1.144,0,0,0,.135-.93c-.618-2.2-1.851-6.042-3.4-8.081l-.222.649a.269.269,0,0,1-.487.052l-.608-1.011a.232.232,0,0,0-.182-.114l-1.26-.118a.239.239,0,0,0-.256.2l-.168.957a.27.27,0,0,1-.517.051Z" transform="translate(-2041.09 -2064.577)"/>
        </g>
        <path id="Path_11470" data-name="Path 11470" d="M2053.467,2141.451a15.8,15.8,0,0,1-3.483-.383.27.27,0,0,1,.132-.524,14.771,14.771,0,0,0,6.409,0,.269.269,0,0,1,.33.192.272.272,0,0,1-.192.331A12.761,12.761,0,0,1,2053.467,2141.451Z" transform="translate(-2009.01 -2052.541)"/>
        <path id="Path_11471" data-name="Path 11471" d="M2066.089,2114.339h-3a.269.269,0,0,1,0-.539h3a.269.269,0,1,1,0,.539Z" transform="translate(-2020.503 -2028.979)"/>
        <g id="Group_3182" data-name="Group 3182" transform="translate(10.475 71.966)">
          <path id="Path_11472" data-name="Path 11472" d="M1802.4,2008.634l-1.164,10.577-4.449.932.271-12.4Z" transform="translate(-1796.521 -2007.471)" fill="#fff"/>
          <path id="Path_11473" data-name="Path 11473" d="M1794.789,2018.414a.269.269,0,0,1-.27-.276l.271-12.4a.273.273,0,0,1,.1-.2.276.276,0,0,1,.217-.058l5.342.894a.27.27,0,0,1,.224.3l-1.164,10.578a.271.271,0,0,1-.213.235l-4.449.932A.393.393,0,0,1,1794.789,2018.414Zm.534-12.354-.257,11.751,3.925-.821,1.114-10.129Z" transform="translate(-1794.519 -2005.472)"/>
        </g>
        <g id="Group_3183" data-name="Group 3183" transform="translate(0 81.493)">
          <path id="Path_11474" data-name="Path 11474" d="M1725.32,2095.518s.569-5.09-1.026-7.414l-3.559,1.267v-.76a.444.444,0,0,0-.4-.459l-1.986-.114a4.3,4.3,0,0,0-2.155.444c-2.377,1.169-7.851,4.182-7.677,7.071C1708.52,2095.552,1712.828,2096.622,1725.32,2095.518Z" transform="translate(-1708.247 -2087.761)" fill="#fff"/>
          <path id="Path_11475" data-name="Path 11475" d="M1713.222,2094.285a31.793,31.793,0,0,1-6.762-.477.27.27,0,0,1-.2-.246c-.177-2.941,4.828-5.854,7.827-7.329a4.6,4.6,0,0,1,2.291-.47l1.985.114a.713.713,0,0,1,.653.729v.377l3.2-1.139a.271.271,0,0,1,.314.1c1.633,2.379,1.094,7.384,1.07,7.6a.269.269,0,0,1-.244.238C1719.061,2094.16,1715.74,2094.285,1713.222,2094.285Zm-6.43-.959c.98.182,5.616.864,16.284-.063.082-.96.321-4.832-.889-6.838l-3.357,1.195a.269.269,0,0,1-.36-.254v-.76a.177.177,0,0,0-.144-.19l-1.985-.114a4.072,4.072,0,0,0-2.021.417C1712.557,2087.585,1706.909,2090.576,1706.792,2093.326Zm16.532.186h0Z" transform="translate(-1706.252 -2085.755)"/>
        </g>
        <path id="Path_11476" data-name="Path 11476" d="M1727.487,2134.369a53.11,53.11,0,0,1-9.416-.817.27.27,0,0,1,.107-.53,52.71,52.71,0,0,0,14.582.515.27.27,0,1,1,.062.537A46.385,46.385,0,0,1,1727.487,2134.369Z" transform="translate(-1716.478 -2045.915)"/>
        <path id="Path_11477" data-name="Path 11477" d="M1761.374,2099.464a.269.269,0,0,1-.158-.488l3.426-2.465a.269.269,0,0,1,.315.437l-3.427,2.465A.26.26,0,0,1,1761.374,2099.464Z" transform="translate(-1754.594 -2013.696)"/>
        <g id="Group_3184" data-name="Group 3184" transform="translate(9.489)">
          <path id="Path_11478" data-name="Path 11478" d="M1793.665,1405.595s-6.384,40.573-5.025,69.775l7.1.184s7.612-41.181,11.408-48.547c0,0,10.317,37.546,10.714,48.233,0,0,4.591.462,6.42-.2.983-10.314,1.278-19.088,1.328-25.79.14-19.182-1.692-27.9-2.7-32.029-.922-3.8-1.913-6.88-2.636-8.966l-2.415-6.888Z" transform="translate(-1788.184 -1401.097)" fill="#fff"/>
          <path id="Path_11479" data-name="Path 11479" d="M1793.76,1473.8h-.007l-7.1-.184a.269.269,0,0,1-.262-.257c-1.344-28.895,4.963-69.423,5.027-69.83a.271.271,0,0,1,.221-.224l24.2-4.226a.271.271,0,0,1,.3.177l2.415,6.888c1.017,2.936,1.907,5.961,2.644,8.992,1.225,5.04,2.838,13.851,2.7,32.094-.062,8.528-.509,17.213-1.329,25.812a.268.268,0,0,1-.177.228c-1.866.672-6.349.23-6.539.211a.27.27,0,0,1-.243-.259c-.362-9.728-9.1-42.253-10.512-47.466-3.827,8.751-11,47.42-11.075,47.82A.274.274,0,0,1,1793.76,1473.8Zm-6.839-.717,6.615.171c.674-3.633,7.725-41.281,11.392-48.4a.271.271,0,0,1,.5.052c.1.373,10.18,37.153,10.713,48.056a21.588,21.588,0,0,0,5.909-.151c.807-8.527,1.248-17.136,1.31-25.589.133-18.184-1.471-26.95-2.689-31.962-.732-3.015-1.617-6.023-2.629-8.942l-2.339-6.671-23.78,4.154C1791.456,1406.857,1785.672,1445.284,1786.921,1473.085Z" transform="translate(-1786.206 -1399.076)"/>
        </g>
        <path id="Path_11480" data-name="Path 11480" d="M1912.55,1572.935a.27.27,0,0,1-.261-.2l-1.052-4.065-2.548-.527a.27.27,0,0,1,.109-.529l2.712.56a.27.27,0,0,1,.206.2l1.094,4.227a.274.274,0,0,1-.261.338Z" transform="translate(-1884.475 -1547.606)"/>
      </g>
      <g id="Group_3190" data-name="Group 3190" transform="translate(0 17.539)">
        <path id="Path_11481" data-name="Path 11481" d="M1695.7,1126.687c4.152-.468,12.939-1.3,19.12-.788a9.162,9.162,0,0,1,5.159,2.13c4.39,3.706,13.9,13,14.025,23.99l-9.743-1.413s3.44,12.327,3.206,14.308-6.265,5.351-13.808,2.587-18.4-2.428-21.911,0l-.339-15.209H1676.59s4.9-15.951,14.411-23.652A9.092,9.092,0,0,1,1695.7,1126.687Z" transform="translate(-1676.219 -1125.738)" fill="#86898e"/>
        <g id="Group_3186" data-name="Group 3186" transform="translate(0 23.049)">
          <path id="Path_11482" data-name="Path 11482" d="M1675.787,1325.466s-1.16,5.3,4.112,6.9,10.28-8,10.28-8l-3.671-2.128Z" transform="translate(-1675.416 -1321.96)" fill="#fff"/>
          <path id="Path_11483" data-name="Path 11483" d="M1679.164,1330.805a4.441,4.441,0,0,1-1.294-.192c-5.448-1.646-4.31-7.156-4.3-7.212a.271.271,0,0,1,.185-.2l10.721-3.236a.269.269,0,0,1,.213.025l3.671,2.128a.271.271,0,0,1,.1.358C1688.276,1322.842,1684.059,1330.805,1679.164,1330.805Zm-5.092-7.136a5.485,5.485,0,0,0,3.955,6.427,3.9,3.9,0,0,0,1.124.166c4.149,0,7.986-6.5,8.715-7.811l-3.342-1.937Z" transform="translate(-1673.466 -1319.953)"/>
        </g>
        <g id="Group_3187" data-name="Group 3187" transform="translate(1.723 14.423)">
          <path id="Path_11484" data-name="Path 11484" d="M1722.825,1273.48h-25.913a1.43,1.43,0,0,1-1.387-1.085l-5.231-21.093a1.429,1.429,0,0,1,1.387-1.773h25.913a1.43,1.43,0,0,1,1.387,1.085l5.231,21.092A1.429,1.429,0,0,1,1722.825,1273.48Z" transform="translate(-1689.982 -1249.262)" fill="#fff"/>
          <path id="Path_11485" data-name="Path 11485" d="M1720.826,1271.758h-25.913a1.7,1.7,0,0,1-1.648-1.29l-5.231-21.091a1.7,1.7,0,0,1,1.648-2.106h25.913a1.7,1.7,0,0,1,1.648,1.29l5.231,21.091a1.7,1.7,0,0,1-1.648,2.106Zm-31.143-23.949a1.159,1.159,0,0,0-1.125,1.438l5.231,21.092a1.157,1.157,0,0,0,1.125.88h25.913a1.16,1.16,0,0,0,1.125-1.438l-5.231-21.091a1.157,1.157,0,0,0-1.125-.881Z" transform="translate(-1687.982 -1247.27)"/>
        </g>
        <g id="Group_3188" data-name="Group 3188" transform="translate(3.424 24.051)">
          <path id="Path_11486" data-name="Path 11486" d="M1704.9,1331.517l.76,2.11,6.231-2.967s3.426,2.967-4.879,6.768C1703.555,1339.013,1704.9,1331.517,1704.9,1331.517Z" transform="translate(-1704.368 -1330.391)" fill="#fff"/>
          <path id="Path_11487" data-name="Path 11487" d="M1704.095,1335.921a1.345,1.345,0,0,1-.845-.284c-1.513-1.174-.756-5.658-.664-6.167a.27.27,0,0,1,.52-.044l.66,1.83,5.961-2.839a.272.272,0,0,1,.293.04,2.533,2.533,0,0,1,.768,2.188c-.246,1.716-2.167,3.408-5.711,5.031A2.4,2.4,0,0,1,1704.095,1335.921Zm-1.128-5.286c-.174,1.589-.225,3.925.615,4.576a1.181,1.181,0,0,0,1.271-.026c4.193-1.919,5.251-3.57,5.4-4.616a1.991,1.991,0,0,0-.469-1.58l-6.056,2.884a.275.275,0,0,1-.218.006.266.266,0,0,1-.151-.158Z" transform="translate(-1702.316 -1328.392)"/>
        </g>
        <g id="Group_3189" data-name="Group 3189" transform="translate(29.587 11.525)">
          <path id="Path_11488" data-name="Path 11488" d="M1935.811,1227.759s11.648,6.539,14.052,8.592,5.008,3.611,1.621,8.1-17.828-13.492-17.828-13.492-2.774.459-3.742-3.319c0,0-4.684.167-4.854-1.3l6.605-1.182a2.617,2.617,0,0,1,2.334.747Z" transform="translate(-1924.789 -1224.845)" fill="#fff"/>
          <path id="Path_11489" data-name="Path 11489" d="M1947.969,1243.446c-4.809,0-15.286-12.765-16.449-14.2-.63.031-2.906-.1-3.827-3.324-1.157.024-4.741-.025-4.917-1.548a.27.27,0,0,1,.221-.3l6.605-1.182a2.89,2.89,0,0,1,2.575.825l1.784,1.827c.825.464,11.705,6.591,14.061,8.6.185.158.371.313.555.468,2.255,1.88,4.387,3.654,1.106,8a2.032,2.032,0,0,1-1.675.826Zm-16.329-14.752a.27.27,0,0,1,.211.1c.114.141,11.388,14.111,16.115,14.112H1948a1.5,1.5,0,0,0,1.252-.613c2.97-3.937,1.209-5.4-1.021-7.262q-.279-.233-.561-.471c-2.356-2.013-13.891-8.5-14.008-8.563a.252.252,0,0,1-.061-.048l-1.811-1.854a2.345,2.345,0,0,0-2.095-.671l-6.281,1.124c.519.659,2.815.882,4.471.825a.275.275,0,0,1,.271.2c.892,3.479,3.335,3.137,3.438,3.119A.252.252,0,0,1,1931.64,1228.694Z" transform="translate(-1922.775 -1222.849)"/>
        </g>
      </g>
      <g id="Group_3193" data-name="Group 3193" transform="translate(18.184)">
        <path id="Path_11490" data-name="Path 11490" d="M1832.678,988.836c-.211.364.224,1.073.229,1.072s-.209-2.073-1.364-2.6c-.669-.3-1.016.2-2.013.065a3.46,3.46,0,0,1-2.662-2.078,4.144,4.144,0,0,1,.713-3.539,4.436,4.436,0,0,1,2.138-2.149c1.374-.52,1.949.278,3.521-.211,1.28-.4,1.186-1.015,2.324-1.339.949-.269,3.684-.116,4.3,1.339.388.922-.449,1.485-.032,2.852.251.82.645.921.933,1.555a4.636,4.636,0,0,1-1.883,5.258C1836.571,990.318,1833.179,987.972,1832.678,988.836Z" transform="translate(-1826.69 -977.951)"/>
        <g id="Group_3191" data-name="Group 3191" transform="translate(2.375 9.064)">
          <path id="Path_11491" data-name="Path 11491" d="M1853.313,1059.272l-.538,4.41a2.061,2.061,0,0,1-1.526,1.746l-2.269.591,6.993,5.325,7.857-5.961-2.817-.629a2.061,2.061,0,0,1-1.58-1.646l-1.171-6.5Z" transform="translate(-1848.71 -1056.339)" fill="#fff"/>
          <path id="Path_11492" data-name="Path 11492" d="M1853.968,1069.6a.278.278,0,0,1-.164-.054l-6.993-5.325a.27.27,0,0,1-.1-.268.267.267,0,0,1,.2-.208l2.269-.591a1.782,1.782,0,0,0,1.327-1.517l.538-4.411a.271.271,0,0,1,.14-.205l4.949-2.662a.271.271,0,0,1,.394.19l1.171,6.5a1.788,1.788,0,0,0,1.372,1.431l2.817.629a.269.269,0,0,1,.1.478l-7.858,5.961A.27.27,0,0,1,1853.968,1069.6Zm-6.387-5.473,6.388,4.865,7.229-5.485-2.25-.5a2.325,2.325,0,0,1-1.786-1.861l-1.1-6.132-4.5,2.42-.521,4.271a2.318,2.318,0,0,1-1.726,1.974Z" transform="translate(-1846.706 -1054.328)"/>
        </g>
        <g id="Group_3192" data-name="Group 3192" transform="translate(3.348 5.015)">
          <path id="Path_11493" data-name="Path 11493" d="M1864.926,1027.447s1.741-.656,1.087-2.095a.986.986,0,0,0-1.719-.376s-.989-3.544-3.068-2.147a14.659,14.659,0,0,1-4.047,1.906,25.237,25.237,0,0,0,2.047,5.94c.793,1.431,1.8,2.428,2.981,1.948C1865.449,1031.306,1864.926,1027.447,1864.926,1027.447Z" transform="translate(-1856.91 -1022.231)" fill="#fff"/>
          <path id="Path_11494" data-name="Path 11494" d="M1859.59,1031c-.917,0-1.791-.741-2.606-2.213a25.165,25.165,0,0,1-2.074-6.017.27.27,0,0,1,.2-.316,14.51,14.51,0,0,0,3.964-1.869,1.731,1.731,0,0,1,1.619-.276,3.708,3.708,0,0,1,1.739,2.207,1.278,1.278,0,0,1,.866-.192,1.377,1.377,0,0,1,.959.9,1.58,1.58,0,0,1,.059,1.3,2.3,2.3,0,0,1-1.107,1.077c.053.842.053,4.059-2.9,5.259A1.849,1.849,0,0,1,1859.59,1031Zm-4.1-8.1a24.275,24.275,0,0,0,1.965,5.621c.871,1.573,1.76,2.187,2.644,1.829,3-1.221,2.572-4.741,2.552-4.889a.269.269,0,0,1,.172-.288,1.931,1.931,0,0,0,.99-.866,1.045,1.045,0,0,0-.053-.864c-.16-.351-.35-.549-.564-.589a.982.982,0,0,0-.718.291.269.269,0,0,1-.45-.119c0-.019-.528-1.847-1.527-2.214a1.21,1.21,0,0,0-1.13.22A15.29,15.29,0,0,1,1855.491,1022.9Z" transform="translate(-1854.904 -1020.208)"/>
        </g>
      </g>
    </g>
  </g>
</svg>
