<svg id="Component_12_1" data-name="Component 12 – 1" xmlns="http://www.w3.org/2000/svg" width="22.187" height="18.888" viewBox="0 0 22.187 18.888">
  <path id="Path_40111" data-name="Path 40111" d="M9.087,3.579h0A1.057,1.057,0,0,0,9.069,5.07l.218.218L7.527,7.02l4.453,4.292L13.7,9.535l6.686,6.686a1.058,1.058,0,0,0,1.491-.018h0a1.057,1.057,0,0,0,.018-1.491L15.179,8l1.343-1.4L12.314,2.311,10.806,3.79l-.231-.231a1.054,1.054,0,0,0-1.488.02ZM0,18.038a.842.842,0,0,0,.829.85l9.571,0a.851.851,0,0,0,0-1.7H9.383a.855.855,0,0,0,.432-.746.843.843,0,0,0-.829-.85H2.251a.84.84,0,0,0-.831.849h0a.857.857,0,0,0,.435.748H.834A.839.839,0,0,0,0,18.038ZM12.5.255h0a.84.84,0,0,0-.014,1.186l4.911,4.911a.84.84,0,0,0,1.186-.014h0A.84.84,0,0,0,18.6,5.151L13.684.24A.84.84,0,0,0,12.5.255ZM5.516,7.235h0A.84.84,0,0,0,5.5,8.421l4.911,4.911a.84.84,0,0,0,1.186-.014h0a.84.84,0,0,0,.014-1.186L6.7,7.22a.84.84,0,0,0-1.186.014Z" transform="translate(-0.003 -0.002)" fill="#d4d4d4" fill-rule="evenodd"/>
</svg>
