<svg id="contact-us-icon" xmlns="http://www.w3.org/2000/svg" width="18.134" height="12.398" viewBox="0 0 18.134 12.398">
  <path id="contact-us-icon-2" data-name="contact-us-icon" d="M5.038.443H17.285a.856.856,0,0,1,.854.854v9.072a.85.85,0,0,1-.148.48.342.342,0,0,1-.081.121.325.325,0,0,1-.08.056.853.853,0,0,1-.546.2H10.039a2.278,2.278,0,0,0,.062-.657h6.968L12.518,5.789l-1.5,1.281h0a.328.328,0,0,1-.419,0L9.021,5.789h0L7.591,7.222a1.83,1.83,0,0,0-.651-.276L8.51,5.373,5.6,3a2.066,2.066,0,0,0-.1-.5l-.117-.515L10.8,6.4,17.012,1.1H5.186ZM2.581,4.575a9.069,9.069,0,0,0,.7,2.2,7.657,7.657,0,0,0,1.538,2.15.217.217,0,0,0,.173.066.784.784,0,0,0,.3-.1,2.643,2.643,0,0,0,.31-.2c.463-.322,1.033-.722,1.518-.273.012.01.018.021.03.03l1.545,1.7.015.019a.9.9,0,0,1,.117.851,2.112,2.112,0,0,1-.581.85,2.03,2.03,0,0,1-1.172.511,4.4,4.4,0,0,1-1.222-.059,4.008,4.008,0,0,1-1.669-.7A7.992,7.992,0,0,1,2.72,10.232l-.035-.043c-.224-.266-.466-.55-.692-.868A11.616,11.616,0,0,1,.152,5.068,5.623,5.623,0,0,1,.5,1.42,2.528,2.528,0,0,1,1.824.138a2.325,2.325,0,0,1,1.79.093.246.246,0,0,1,.148.183l.55,2.446a.674.674,0,0,1-.121.72,1.391,1.391,0,0,1-.633.369c-.083.035-.179.066-.28.1-.335.109-.717.238-.7.539h0Zm10.435.786,4.465,4.682V1.562l-4.465,3.8Z" transform="translate(-0.006 -0.001)"/>
</svg>
