<svg id="Component_6_1" data-name="Component 6 – 1" xmlns="http://www.w3.org/2000/svg" width="120.625" height="104.704" viewBox="0 0 120.625 104.704">
  <g id="Group_11724" data-name="Group 11724">
    <g id="Group_6724" data-name="Group 6724" transform="translate(3.429)">
      <g id="Group_6721" data-name="Group 6721" opacity="0.43" style="isolation: isolate">
        <path id="Path_37323" data-name="Path 37323" d="M27.334.019c15.6.508,28.649,11.129,29.157,23.722S44.767,46.133,29.172,45.626.523,34.5.015,21.9,11.739-.489,27.334.019Z" transform="translate(26.465 34.42) rotate(-9.345)" fill="gray"/>
        <path id="Path_6596" data-name="Path 6596" d="M358.812,307.351h0c-8.695-5.61-8.695-15.85,0-21.461h0a11.559,11.559,0,0,0,5.538-9.652c0-6.59-6.014-11.931-13.434-11.931a14.834,14.834,0,0,0-5.451,1.024c-9.842,3.7-21.987-2.707-23-12.173h0c-.639-6.061-6.382-10.805-13.374-10.805-6.872,0-12.538,4.583-13.337,10.5-1.326,9.431-15.766,16.56-25.5,12.618a14.8,14.8,0,0,0-5.782-1.159c-7.419,0-13.433,5.342-13.433,11.931a11.685,11.685,0,0,0,6.264,10.091c9.009,5.139,9.7,15.4,1.431,21.459a11.445,11.445,0,0,0-4.9,9.216c0,6.589,6.015,11.931,13.434,11.931a14.726,14.726,0,0,0,6.417-1.446c9.443-4.382,20.269.322,22.163,9.645,1.076,5.633,6.595,9.922,13.243,9.922s12.167-4.289,13.243-9.921c1.894-9.323,12.72-14.028,22.163-9.646a14.722,14.722,0,0,0,6.417,1.447c7.42,0,13.434-5.342,13.434-11.931A11.559,11.559,0,0,0,358.812,307.351Zm-43.3,17.288a14.956,14.956,0,0,0-12.834,0c-9.443,4.382-20.269-.323-22.162-9.645a11.983,11.983,0,0,0-6.072-8.081c-9.009-5.139-9.7-15.4-1.432-21.459a11.632,11.632,0,0,0,4.805-7.781c1.326-9.43,15.765-16.559,25.5-12.618a15.014,15.014,0,0,0,11.233.135c9.842-3.7,21.987,2.707,23,12.173h0a11.706,11.706,0,0,0,5.478,8.527h0c8.694,5.61,8.694,15.85,0,21.461h0a11.845,11.845,0,0,0-5.347,7.643C335.779,324.317,324.953,329.022,315.51,324.639Z" transform="translate(-251.045 -242.352)" fill="gray"/>
      </g>
    </g>
    <g id="Group_6733" data-name="Group 6733" transform="translate(0 4.315)" opacity="0.6" style="mix-blend-mode: color-burn;isolation: isolate">
      <g id="Group_6725" data-name="Group 6725" transform="translate(21.538 0.773)">
        <path id="Path_6598" data-name="Path 6598" d="M282.336,257.051l-.486-.282-.488.28v.563l.486.282.488-.28Zm2.852,0-.488-.284-.486.282,0,.562.488.283.486-.282Zm-2.852,0-.486-.282-.488.28v.563l.486.282.488-.28Zm2.852,0-.488-.284-.486.282,0,.562.488.283.486-.282Zm0,0-.488-.284-.486.282,0,.562.488.283.486-.282Zm-3.339-.282-.488.28v.563l.486.282.488-.28v-.564Zm.486.282-.486-.282-.488.28v.563l.486.282.488-.28Zm0,0-.486-.282-.488.28v.563l.486.282.488-.28Zm0,0-.486-.282-.488.28v.563l.486.282.488-.28Zm2.852,0-.488-.284-.486.282,0,.562.488.283.486-.282Zm-2.852,0-.486-.282-.488.28v.563l.486.282.488-.28Zm2.852,0-.488-.284-.486.282,0,.562.488.283.486-.282Zm0,0-.488-.284-.486.282,0,.562.488.283.486-.282Zm-3.339-.282-.488.28v.563l.486.282.488-.28v-.564Zm.486.282-.486-.282-.488.28v.563l.486.282.488-.28Zm0,0-.486-.282-.488.28v.563l.486.282.488-.28Zm0,0-.486-.282-.488.28v.563l.486.282.488-.28Zm2.852,0-.488-.284-.486.282,0,.562.488.283.486-.282Zm-2.852,0-.486-.282-.488.28v.563l.486.282.488-.28Zm2.852,0-.488-.284-.486.282,0,.562.488.283.486-.282Zm0,0-.488-.284-.486.282,0,.562.488.283.486-.282Zm-3.339-.282-.488.28v.563l.486.282.488-.28v-.564Zm3.339.282-.488-.284-.486.282,0,.562.488.283.486-.282Zm-3.339-.282-.488.28v.563l.486.282.488-.28v-.564Zm12.512,3.445V251.79a.543.543,0,0,0-.569-.507l-14.543,0a.538.538,0,0,0-.569.505v8.424a.538.538,0,0,0,.568.505h14.543A.54.54,0,0,0,294.362,260.214Zm-1.026-3.658a.306.306,0,0,1,.307.307.306.306,0,1,1-.613,0A.3.3,0,0,1,293.336,256.557Zm0-.885a.307.307,0,1,1-.307.307A.308.308,0,0,1,293.336,255.671Zm-.9,1.5a.308.308,0,0,1-.305-.308.306.306,0,0,1,.613,0A.311.311,0,0,1,292.432,257.17Zm.906-2.381a.306.306,0,1,1-.307.307A.306.306,0,0,1,293.338,254.789Zm-4.519.612a.306.306,0,1,1,.305-.305A.305.305,0,0,1,288.818,255.4Zm-.9.885a.307.307,0,0,1,0-.614.307.307,0,1,1,0,.614Zm0,.271a.3.3,0,0,1,.305.305.306.306,0,1,1-.305-.305Zm.9-.271a.307.307,0,1,1,0-.613.307.307,0,1,1,0,.613Zm.9-1.5a.306.306,0,0,1,.307.307.3.3,0,0,1-.305.305.306.306,0,1,1,0-.612Zm-1.807,2.651a.306.306,0,0,1,.307.307.306.306,0,0,1-.612,0A.308.308,0,0,1,287.913,257.439Zm.9-.271a.306.306,0,0,1,0-.612.3.3,0,0,1,.305.305A.306.306,0,0,1,288.817,257.169Zm.9-.883a.307.307,0,1,1,.307-.307A.307.307,0,0,1,289.722,256.285Zm.9-.885a.306.306,0,1,1,.305-.305A.3.3,0,0,1,290.625,255.4Zm-.9,1.155a.306.306,0,1,1,0,.613.306.306,0,0,1,0-.613Zm.9-.271a.307.307,0,1,1,.307-.307A.306.306,0,0,1,290.625,256.285Zm.9-.884a.306.306,0,1,1,.306-.305A.3.3,0,0,1,291.528,255.4Zm-.9,1.155a.306.306,0,1,1-.306.305A.3.3,0,0,1,290.625,256.557Zm.9-.271a.307.307,0,1,1,.307-.307A.306.306,0,0,1,291.528,256.285Zm.9-.885a.306.306,0,1,1,.305-.3A.3.3,0,0,1,292.432,255.4Zm-.9,1.156a.306.306,0,1,1,0,.612.306.306,0,1,1,0-.612Zm.9-.271a.307.307,0,1,1,.307-.307A.306.306,0,0,1,292.432,256.285Zm.9-2.38a.307.307,0,1,1-.307.307A.308.308,0,0,1,293.336,253.905Zm0-.885a.312.312,0,0,1,.307.307.307.307,0,0,1-.614,0A.311.311,0,0,1,293.336,253.021Zm-.9.885a.306.306,0,1,1-.307.307A.307.307,0,0,1,292.432,253.905Zm0-.885a.312.312,0,0,1,.307.307.307.307,0,0,1-.614,0A.311.311,0,0,1,292.432,253.021Zm-.9.885a.306.306,0,0,1,.307.307.307.307,0,0,1-.614,0A.307.307,0,0,1,291.529,253.905Zm0-.885a.311.311,0,0,1,.307.307.307.307,0,1,1-.307-.307Zm-.9.885a.306.306,0,1,1,0,.613.306.306,0,1,1,0-.613Zm0-.885a.311.311,0,0,1,.307.307.307.307,0,1,1-.307-.307Zm-.9.885a.306.306,0,1,1,0,.613.306.306,0,0,1,0-.613Zm0-.885a.311.311,0,0,1,.307.307.307.307,0,1,1-.307-.307Zm-.9.885a.306.306,0,0,1,0,.613.306.306,0,1,1,0-.613Zm-.9,1.5a.306.306,0,1,1,.305-.305A.306.306,0,0,1,287.915,255.4Zm.9-2.38a.311.311,0,0,1,.307.307.307.307,0,1,1-.307-.307Zm-.9.885a.306.306,0,1,1-.307.307A.3.3,0,0,1,287.915,253.905Zm0-.884a.311.311,0,0,1,.307.307.307.307,0,1,1-.307-.307Zm-1.664,7.336h-5.978a.668.668,0,0,1-.668-.668v-7.257a.668.668,0,0,1,.667-.67h5.978a.67.67,0,0,1,.669.669v7.258A.668.668,0,0,1,286.251,260.358Zm1.664-1.421a.307.307,0,0,1,0-.614.307.307,0,1,1,0,.614Zm.9-.885a.306.306,0,1,1,.305-.3A.305.305,0,0,1,288.818,258.051Zm0,.885a.307.307,0,1,1,0-.613.307.307,0,1,1,0,.613Zm.9-.885a.306.306,0,1,1,.305-.3A.3.3,0,0,1,289.722,258.051Zm0,.885a.307.307,0,1,1,.307-.307A.31.31,0,0,1,289.722,258.936Zm.9-.884a.306.306,0,1,1,.305-.305A.306.306,0,0,1,290.625,258.052Zm0,.884a.307.307,0,1,1,.307-.307A.306.306,0,0,1,290.625,258.936Zm.9-.884a.306.306,0,1,1,.306-.305A.306.306,0,0,1,291.528,258.052Zm0,.885a.307.307,0,1,1,.307-.307A.307.307,0,0,1,291.528,258.937Zm.9-.885a.306.306,0,1,1,.305-.305A.306.306,0,0,1,292.432,258.052Zm0,.885a.307.307,0,1,1,.307-.307A.307.307,0,0,1,292.432,258.937Zm.9-.885a.306.306,0,1,1,0-.612.306.306,0,1,1,0,.612Zm0,.885a.307.307,0,1,1,.307-.307A.306.306,0,0,1,293.336,258.936Zm-8.635-2.169-.486.282,0,.562.488.283.486-.282,0-.562Zm-2.85,0-.488.28v.563l.486.282.488-.28v-.564Zm.486.282-.486-.282-.488.28v.563l.486.282.488-.28Zm2.852,0-.488-.284-.486.282,0,.562.488.283.486-.282Zm-2.852,0-.486-.282-.488.28v.563l.486.282.488-.28Zm2.852,0-.488-.284-.486.282,0,.562.488.283.486-.282Zm0,0-.488-.284-.486.282,0,.562.488.283.486-.282Zm-3.339-.282-.488.28v.563l.486.282.488-.28v-.564Zm.486.282-.486-.282-.488.28v.563l.486.282.488-.28Zm2.852,0-.488-.284-.486.282,0,.562.488.283.486-.282Zm-2.852,0-.486-.282-.488.28v.563l.486.282.488-.28Zm2.852,0-.488-.284-.486.282,0,.562.488.283.486-.282Zm0,0-.488-.284-.486.282,0,.562.488.283.486-.282Zm-3.339-.282-.488.28v.563l.486.282.488-.28v-.564Zm.486.282-.486-.282-.488.28v.563l.486.282.488-.28Zm0,0-.486-.282-.488.28v.563l.486.282.488-.28Z" transform="translate(-278.681 -250.518)" fill="gray"/>
        <path id="Path_6599" data-name="Path 6599" d="M287.227,260.418h-.652a.238.238,0,0,1,0,.031v.029a1.193,1.193,0,0,1-2.039.842,1.18,1.18,0,0,1-.349-.84c0-.022,0-.043,0-.063h-.469c0,.02,0,.041,0,.063a1.194,1.194,0,0,1-2.388,0v-.027c0-.013,0-.024,0-.037l-.678,0v1.435h6.344l.221,0Z" transform="translate(-279.364 -253.667)" fill="gray"/>
        <path id="Path_6600" data-name="Path 6600" d="M287.225,263.572l0-.663h-6.566v.664a.151.151,0,0,0,.149.149h6.265A.15.15,0,0,0,287.225,263.572Zm-1.039-.434a.178.178,0,1,1,0,.355.178.178,0,1,1,0-.355Zm-1.727,0a.18.18,0,1,1-.18.18A.182.182,0,0,1,284.46,263.136Zm-1,0a.178.178,0,1,1-.178.178A.175.175,0,0,1,283.457,263.138Zm-1.83,0a.178.178,0,1,1,0,.356.178.178,0,0,1,0-.356Z" transform="translate(-279.363 -254.526)" fill="gray"/>
        <path id="Path_6601" data-name="Path 6601" d="M287.226,258.966h-.7a1.172,1.172,0,0,0-.3-.514,1.194,1.194,0,0,0-1.991.514h-.513l-.046,0a1.165,1.165,0,0,0-.3-.516,1.182,1.182,0,0,0-.842-.348,1.2,1.2,0,0,0-1.149.863h-.721v-1.833a.153.153,0,0,1,.151-.151h6.265a.153.153,0,0,1,.151.151Z" transform="translate(-279.363 -252.482)" fill="gray"/>
        <path id="Path_6602" data-name="Path 6602" d="M283.954,260.028c0-.022,0-.043,0-.063a.925.925,0,0,0-1.846,0c0,.022,0,.043,0,.063a.926.926,0,0,0,1.852,0Zm-.927.687a.688.688,0,0,1-.688-.687c0-.022,0-.043,0-.063a.688.688,0,0,1,1.371,0c0,.021,0,.044,0,.063A.689.689,0,0,1,283.028,260.716Z" transform="translate(-279.86 -253.214)" fill="gray"/>
        <path id="Path_6603" data-name="Path 6603" d="M288.3,260.025c0-.02,0-.041,0-.063a.925.925,0,0,0-1.847,0c0,.02,0,.041,0,.063a.926.926,0,0,0,1.852,0Zm-.925.69a.689.689,0,0,1-.689-.689c0-.021,0-.043,0-.064a.688.688,0,0,1,1.371,0c0,.02,0,.041,0,.063A.691.691,0,0,1,287.379,260.715Z" transform="translate(-281.36 -253.213)" fill="gray"/>
        <path id="Path_6604" data-name="Path 6604" d="M283.747,260.5l-.488.28-.486-.282v-.564l.488-.28.486.282Z" transform="translate(-280.091 -253.404)" fill="gray"/>
        <path id="Path_6605" data-name="Path 6605" d="M288.1,260.5l-.486.282-.488-.283,0-.562.486-.282.488.283Z" transform="translate(-281.591 -253.403)" fill="gray"/>
        <path id="Path_6606" data-name="Path 6606" d="M282.4,250.244v.353h-1.65v-.352a.129.129,0,0,1,.128-.128h1.394A.128.128,0,0,1,282.4,250.244Z" transform="translate(-279.395 -250.116)" fill="gray"/>
        <path id="Path_6607" data-name="Path 6607" d="M285.26,250.244v.352H283.61v-.352a.128.128,0,0,1,.128-.128h1.394A.128.128,0,0,1,285.26,250.244Z" transform="translate(-280.38 -250.116)" fill="gray"/>
        <path id="Path_6608" data-name="Path 6608" d="M288.119,250.244v.353h-1.651v-.353a.128.128,0,0,1,.128-.128h1.394A.128.128,0,0,1,288.119,250.244Z" transform="translate(-281.366 -250.116)" fill="gray"/>
        <path id="Path_6609" data-name="Path 6609" d="M290.979,250.244v.353h-1.65v-.353a.128.128,0,0,1,.128-.128h1.394A.129.129,0,0,1,290.979,250.244Z" transform="translate(-282.352 -250.116)" fill="gray"/>
        <path id="Rectangle_1095" data-name="Rectangle 1095" d="M.29,0H5.8a.29.29,0,0,1,.29.29v0a.29.29,0,0,1-.29.29H.289A.289.289,0,0,1,0,.288v0A.29.29,0,0,1,.29,0Z" transform="translate(1.554 3.116)" fill="gray"/>
      </g>
      <g id="Group_6726" data-name="Group 6726" transform="translate(27.421 85.043)">
        <path id="Path_6610" data-name="Path 6610" d="M288.8,404.917c.121.377.067,1.212.5.732a.835.835,0,0,1,.277-.183.5.5,0,0,1,.556.162c.507.447.846-.134,1.312-.171.024,0,.409.149.37.192.343-.377.683-.811,1.134-.387a.656.656,0,0,0,.854.19,2.442,2.442,0,0,1,1.362.016l1.524-2.516.87-1.436v-1.1h-.52v.609a.44.44,0,0,1,.062.223.448.448,0,1,1-.9,0,.436.436,0,0,1,.064-.229v-.6h-.4v.6a.436.436,0,0,1,.064.229.448.448,0,1,1-.9,0,.44.44,0,0,1,.062-.223v-.609h-.4v.6a.448.448,0,1,1-.832.231.428.428,0,0,1,.064-.227v-.606h-.4v.606a.434.434,0,0,1,.063.227.448.448,0,1,1-.833-.227v-.606h-.4v.606a.439.439,0,0,1,.063.227.448.448,0,1,1-.9,0,.443.443,0,0,1,.063-.231v-.6h-.4v.606a.433.433,0,0,1,.063.227.449.449,0,1,1-.9,0,.436.436,0,0,1,.064-.229v-.6h-.4v.6a.436.436,0,0,1,.064.229.448.448,0,1,1-.9,0,.44.44,0,0,1,.062-.223v-.609h-.4v.606a.448.448,0,1,1-.833.227.44.44,0,0,1,.063-.227v-.606h-.381V412.2h9.894v-7.432l-2.049,3.383-.486.813-.134.22-.141.15L293.5,410.63l-.322.337-.278.292-.648.676.267-.908.13-.383.149-.444.574-1.692.068-.2.13-.217.695-1.157.753-1.242a7.917,7.917,0,0,0-2.051.088c-.069.014-.151.012-.181-.063-.271-.651-.752.049-.913.2-.06.056-.208.113-.269.023-.3-.443-.893.178-1.286.132-.433-.049-.769-.384-1.153.123-.044.06-.221.113-.269.023a7.638,7.638,0,0,1-.41-1.221C288.444,404.863,288.752,404.779,288.8,404.917Zm.168,2.286c.066.52.125.72.625.466a2.7,2.7,0,0,1,.473-.188.93.93,0,0,1,.82.186c.457-.318.9-.545,1.226-.019a1.5,1.5,0,0,1,.74-.5c.447-.062.585.257.922.512.072.054-.207.176-.286.114-.567-.425-.811-.334-1.328.081-.049.041-.234.111-.275.023q-.542-.414-.92-.064c-.06.044-.2.1-.264.041-.858-.709-1.84,1.015-2.041-.574C288.647,407.181,288.956,407.115,288.967,407.2Zm-.125-4.793c.132-.087.382.041.208.153-1.126.728.3,1.638.982.708a3.369,3.369,0,0,0,.324-.478c.046-.075.218-.1.271-.018.421.692.333,1.158,1.043.452a1.051,1.051,0,0,1,.537-.3.16.16,0,0,1,.17.044c.307.313.307.7.822.343a1.368,1.368,0,0,1,.521-.267.147.147,0,0,1,.185.073c.178.378.005.225.333.061s.82-.273,1.17-.425c.415-.182.556-.066.832.3.1.132-.188.258-.28.139-.287-.373-1.675.3-1.879.519-.063.065-.208.113-.271.019-.275-.406-.144-.419-.64-.068a1.071,1.071,0,0,1-.463.237.164.164,0,0,1-.171-.042c-.221-.229-.3-.885-.835-.3a6.53,6.53,0,0,1-.632.638c-.062.051-.239.075-.258-.035-.435-2.426-.832.754-2.056.068A1.122,1.122,0,0,1,288.841,402.41Z" transform="translate(-287.658 -399.382)" fill="gray"/>
        <path id="Path_6611" data-name="Path 6611" d="M288.927,400.678a.209.209,0,0,1-.21.209h0a.209.209,0,0,1-.208-.209v-1.632a.209.209,0,0,1,.208-.209h0a.209.209,0,0,1,.21.209Z" transform="translate(-287.951 -398.837)" fill="gray"/>
        <path id="Path_6612" data-name="Path 6612" d="M290.719,400.678a.209.209,0,0,1-.209.209h0a.209.209,0,0,1-.209-.209v-1.632a.209.209,0,0,1,.209-.209h0a.209.209,0,0,1,.209.209Z" transform="translate(-288.569 -398.837)" fill="gray"/>
        <path id="Path_6613" data-name="Path 6613" d="M292.511,400.678a.209.209,0,0,1-.208.209h0a.209.209,0,0,1-.21-.209v-1.632a.209.209,0,0,1,.21-.209h0a.209.209,0,0,1,.208.209Z" transform="translate(-289.187 -398.837)" fill="gray"/>
        <path id="Path_6614" data-name="Path 6614" d="M294.3,400.678a.209.209,0,0,1-.209.209h0a.209.209,0,0,1-.209-.209v-1.632a.209.209,0,0,1,.209-.209h0a.209.209,0,0,1,.209.209Z" transform="translate(-289.805 -398.837)" fill="gray"/>
        <path id="Path_6615" data-name="Path 6615" d="M296.1,400.678a.209.209,0,0,1-.209.209h0a.209.209,0,0,1-.209-.209v-1.632a.209.209,0,0,1,.209-.209h0a.209.209,0,0,1,.209.209Z" transform="translate(-290.423 -398.837)" fill="gray"/>
        <path id="Path_6616" data-name="Path 6616" d="M297.888,400.678a.209.209,0,0,1-.209.209h0a.209.209,0,0,1-.209-.209v-1.632a.209.209,0,0,1,.209-.209h0a.209.209,0,0,1,.209.209Z" transform="translate(-291.04 -398.837)" fill="gray"/>
        <path id="Path_6617" data-name="Path 6617" d="M299.681,400.678a.209.209,0,0,1-.209.209h0a.209.209,0,0,1-.209-.209v-1.632a.209.209,0,0,1,.209-.209h0a.209.209,0,0,1,.209.209Z" transform="translate(-291.658 -398.837)" fill="gray"/>
        <path id="Path_6618" data-name="Path 6618" d="M301.473,400.678a.209.209,0,0,1-.209.209h0a.209.209,0,0,1-.209-.209v-1.632a.209.209,0,0,1,.209-.209h0a.209.209,0,0,1,.209.209Z" transform="translate(-292.276 -398.837)" fill="gray"/>
        <path id="Path_6619" data-name="Path 6619" d="M303,400.439l-.373.616L299.5,406.2l-.982,1.62-.486.813-.788-.479-.057-.033-.207-.127.695-1.157,1.52-2.509.892-1.473,1.854-3.056.264.16v0l.524.319,0,0Z" transform="translate(-290.873 -399.17)" fill="gray"/>
        <path id="Path_6620" data-name="Path 6620" d="M295.653,416.267l-.406.426.188-.558.058.035.1.062Z" transform="translate(-290.274 -404.8)" fill="gray"/>
        <path id="Path_6621" data-name="Path 6621" d="M297.476,413.246l-1.559,1.633-.056-.035-.1-.062-.058-.035.725-2.137.262.158h0l.524.319Z" transform="translate(-290.43 -403.584)" fill="gray"/>
      </g>
      <g id="Group_6727" data-name="Group 6727" transform="translate(0 43.324)">
        <path id="Path_6622" data-name="Path 6622" d="M254.429,331.194a.129.129,0,0,1,.247.071,2.446,2.446,0,0,0,.138,1.611,1.805,1.805,0,0,0,1.142.907.129.129,0,0,1-.078.245,2.047,2.047,0,0,1-1.293-1.034,2.687,2.687,0,0,1-.159-1.792Z" transform="translate(-248.753 -327.561)" fill="gray"/>
        <path id="Path_6623" data-name="Path 6623" d="M253.569,330.925a.128.128,0,0,1,.247.069,2.43,2.43,0,0,0,1.665,3.191.38.38,0,0,0,.5-.259.341.341,0,0,0-.226-.454,1.68,1.68,0,0,1-1.145-2.255.128.128,0,0,1,.161-.084.13.13,0,0,1,.084.162,1.444,1.444,0,0,0,.977,1.932.6.6,0,0,1,.394.777.637.637,0,0,1-.828.425,2.7,2.7,0,0,1-1.837-3.495Z" transform="translate(-248.444 -327.469)" fill="gray"/>
        <path id="Path_6624" data-name="Path 6624" d="M253.4,334.948l-.1-.239a2.024,2.024,0,0,1,1.671.111c.124.042.25.085.379.125a.906.906,0,0,0,1.132-.663l0,0a.8.8,0,0,0-.505-1.077c-1.293-.413-1.031-1.236-.918-1.587a.129.129,0,1,1,.246.079c-.119.37-.3.929.752,1.264a1.058,1.058,0,0,1,.672,1.4l0,0a1.156,1.156,0,0,1-1.453.832c-.132-.042-.259-.085-.387-.128C254.284,334.856,253.8,334.689,253.4,334.948Z" transform="translate(-248.394 -327.705)" fill="gray"/>
        <path id="Path_6625" data-name="Path 6625" d="M253.7,335.549l-.1-.263a.608.608,0,0,1,.547-.113l1.3.417a1.479,1.479,0,0,0,1.633-1.009,1.391,1.391,0,0,0-.748-1.78c-.758-.242-.762-.594-.652-.936a.129.129,0,0,1,.161-.084.131.131,0,0,1,.083.163c-.066.2-.132.415.485.612a1.653,1.653,0,0,1,.915,2.1,1.731,1.731,0,0,1-1.957,1.176l-1.3-.416A.342.342,0,0,0,253.7,335.549Z" transform="translate(-248.495 -327.792)" fill="gray"/>
        <path id="Path_6626" data-name="Path 6626" d="M254.019,335.914a.129.129,0,0,1,.162-.083l1.129.36a2.109,2.109,0,0,0,1.468-.1,2.014,2.014,0,0,0,.965-1.263,1.976,1.976,0,0,0-1.319-2.555.127.127,0,0,1-.083-.161h0a.129.129,0,0,1,.162-.083,2.377,2.377,0,0,1,.389,4.293,2.338,2.338,0,0,1-1.662.109l-1.126-.36A.128.128,0,0,1,254.019,335.914Z" transform="translate(-248.639 -327.879)" fill="gray"/>
        <path id="Path_6627" data-name="Path 6627" d="M253.076,335.748l-.048-.135v0c-.014-.035-.028-.071-.041-.106a1.2,1.2,0,0,1,.788-.157.131.131,0,0,1,.083.163.127.127,0,0,1-.161.083,1.018,1.018,0,0,0-.615.152Z" transform="translate(-248.285 -329.017)" fill="gray"/>
        <path id="Path_6628" data-name="Path 6628" d="M252.778,333.781l-.045-.1-.062-.142a.782.782,0,0,0,.284-.328,1.424,1.424,0,0,0-.107-.642,2.486,2.486,0,0,1-.113-1.5.128.128,0,1,1,.243.079,2.28,2.28,0,0,0,.116,1.343,1.482,1.482,0,0,1,.105.794A1.067,1.067,0,0,1,252.778,333.781Z" transform="translate(-248.172 -327.52)" fill="gray"/>
        <path id="Path_6629" data-name="Path 6629" d="M252.273,333.338c-.052-.135-.107-.269-.161-.4a3.835,3.835,0,0,0-.124-.687,1.918,1.918,0,0,1-.1-.868.128.128,0,1,1,.244.076,2.035,2.035,0,0,0,.1.731,2.244,2.244,0,0,1,.1,1.014A.556.556,0,0,1,252.273,333.338Z" transform="translate(-247.9 -327.624)" fill="gray"/>
        <path id="Path_6630" data-name="Path 6630" d="M250.6,338.706c-.224-.622-.431-1.227-.614-1.805l1.881-.705c.232.571.463,1.174.691,1.8,1.382,3.827,2.065,7.089,1.524,7.285S251.983,342.535,250.6,338.706Z" transform="translate(-247.251 -329.316)" fill="gray"/>
        <path id="Path_6631" data-name="Path 6631" d="M247.555,330.014l1.812-.655a26.14,26.14,0,0,0,1.251,3.5l.007.02c.1.262.226.5.32.756l-1.865.7c-.093-.258-.157-.541-.245-.809l-.007-.021A26.17,26.17,0,0,0,247.555,330.014Z" transform="translate(-246.413 -326.959)" fill="gray"/>
        <path id="Path_6632" data-name="Path 6632" d="M246.917,328.527a5.088,5.088,0,0,1-.451-.792c-.145-.271-.225-.387-.358-.6a3.023,3.023,0,0,0-.295-.44c.044-.047.284-.117.3-.189.118.038.161-.058.111-.159.128.06.653.056.568-.179a.179.179,0,0,0,.216.082c.037,0,.052-.073.077-.083.044-.017.092.007.128-.007s.081-.069.1-.077c.041,0,.092.034.129.021.068-.026.3-.035.307-.171.061.057.06.148.128.191a2.093,2.093,0,0,1,.306-.427c.121.478.17.784.261,1.181a7.343,7.343,0,0,1,.182,1.03Z" transform="translate(-245.812 -325.697)" fill="gray"/>
      </g>
      <g id="Group_6730" data-name="Group 6730" transform="translate(87.547)">
        <path id="Path_6633" data-name="Path 6633" d="M380.878,266.354h6.8l-.129,3.081h-6.539Z" transform="translate(-379.919 -254.941)" fill="gray"/>
        <path id="Path_6634" data-name="Path 6634" d="M387.856,252.471l-.071,1.666h-7.42l-.071-1.666Z" transform="translate(-379.717 -250.155)" fill="gray"/>
        <path id="Path_6635" data-name="Path 6635" d="M385.206,258.384a1.629,1.629,0,1,0,1.63,1.63A1.631,1.631,0,0,0,385.206,258.384Zm.686,2a1.409,1.409,0,0,1-1.387.4c-.015,0-.028-.011-.043-.017a.469.469,0,0,1-.221-.22.957.957,0,0,1,.032-.746,1.629,1.629,0,0,1,.811-.832.786.786,0,0,1,.213-.021,1.718,1.718,0,0,1,.305.041,1.411,1.411,0,0,1,.381.146.519.519,0,0,1,.219.228C386.33,259.646,386.06,260.162,385.892,260.383Z" transform="translate(-380.849 -252.194)" fill="gray"/>
        <path id="Path_6636" data-name="Path 6636" d="M379.9,255.441l.29,6.872h7.5l.29-6.872Zm4.038,6.124A2.565,2.565,0,1,1,386.5,259,2.566,2.566,0,0,1,383.938,261.565Z" transform="translate(-379.581 -251.179)" fill="gray"/>
        <path id="Path_6637" data-name="Path 6637" d="M388.129,251a.507.507,0,0,1-.506.507h-7.7a.506.506,0,0,1-.072-1.007.623.623,0,0,1,.072-.005h7.7a.624.624,0,0,1,.072.005A.508.508,0,0,1,388.129,251Z" transform="translate(-379.414 -249.475)" fill="gray"/>
        <path id="Path_6638" data-name="Path 6638" d="M387.922,249.44v.246a.371.371,0,0,0-.071,0h-7.7a.4.4,0,0,0-.073,0v-.246a.5.5,0,0,1,.5-.5h6.844A.5.5,0,0,1,387.922,249.44Z" transform="translate(-379.641 -248.937)" fill="gray"/>
        <g id="Group_6729" data-name="Group 6729" transform="translate(3.392 6.795)">
          <g id="Group_6728" data-name="Group 6728">
            <path id="Path_6639" data-name="Path 6639" d="M386.33,259.452c-.575.079-.463.9-.8,1.259a1.272,1.272,0,0,1-.715.374.472.472,0,0,1-.221-.221.753.753,0,0,0,.748-.552,4.73,4.73,0,0,1,.186-.556.938.938,0,0,1,.426-.451A1.381,1.381,0,0,1,386.33,259.452Z" transform="translate(-384.59 -259.306)" fill="gray"/>
          </g>
        </g>
      </g>
      <g id="Group_6731" data-name="Group 6731" transform="translate(112.43 41.904)">
        <path id="Path_6640" data-name="Path 6640" d="M421.142,338.8l-.013,4.573-3.327-.01.013-4.573h.257l2.814.008Z" transform="translate(-417.53 -328.475)" fill="gray"/>
        <rect id="Rectangle_1096" data-name="Rectangle 1096" width="5.391" height="2.814" transform="translate(0.544 9.713) rotate(-89.833)" fill="gray"/>
        <path id="Path_6641" data-name="Path 6641" d="M421.06,326.543l0,.946-2.814-.009,0-.946a1.4,1.4,0,0,1,.741-1.236h0a1.379,1.379,0,0,1,.489-.156,1.468,1.468,0,0,1,.179-.01c.031,0,.06,0,.089,0a1.48,1.48,0,0,1,.261.042,1.455,1.455,0,0,1,.318.126A1.41,1.41,0,0,1,421.06,326.543Z" transform="translate(-417.682 -323.766)" fill="gray"/>
        <path id="Path_6642" data-name="Path 6642" d="M417.742,334.933l0,1.487a.354.354,0,0,1-.248-.1.35.35,0,0,1-.1-.25l0-.785A.351.351,0,0,1,417.742,334.933Z" transform="translate(-417.387 -327.144)" fill="gray"/>
        <path id="Path_6643" data-name="Path 6643" d="M420.466,323.192h0a.669.669,0,0,0-1.083.524v.613a1.388,1.388,0,0,1,.49-.156,1.45,1.45,0,0,1,.178-.011h0c.031,0,.06,0,.09,0a1.4,1.4,0,0,1,.578.168v-.614a.663.663,0,0,0-.235-.509h0A.065.065,0,0,0,420.466,323.192Zm-.136.657a.334.334,0,1,1-.332-.515.015.015,0,0,1,.013,0h0a.149.149,0,0,1,.042,0,.336.336,0,0,1,.334.335.326.326,0,0,1-.047.17.04.04,0,0,1-.008.014Z" transform="translate(-418.075 -323.047)" fill="gray"/>
        <path id="Path_6644" data-name="Path 6644" d="M420.28,323.936c.337-.149,1.979.18,1.683.611-.368.534-.1.848.453,1.109a17.479,17.479,0,0,0,2.2.687c.519.161,1.168.309,1.588-.129,1.141-1.19-1.329-1.389-1.961-1.528q-.384-.085-.775-.14c-.138-.019-.49.049-.436-.133.06-.2.1-.5-.107-.651a3.126,3.126,0,0,0-2.551-.44c-.247.04-.486.691-.134.632.482-.079,2.465-.256,2.262.709-.1.482.566.509.871.552.664.092,1.366.218,2.02.372.455.107.659.31.076.25a4.508,4.508,0,0,1-1.028-.287c-.624-.223-1.314-.343-1.908-.623-.427-.2-.188-.02-.032-.4a.719.719,0,0,0,.081-.453c-.231-.749-1.658-1-2.293-.718-.236.1-.391.747-.008.578Z" transform="translate(-418.304 -323.113)" fill="gray"/>
      </g>
      <g id="Group_6732" data-name="Group 6732" transform="translate(86.08 83.66)">
        <path id="Path_6645" data-name="Path 6645" d="M377.176,397.671h.629v.226h-.4v2.91h-.228Z" transform="translate(-377.176 -397.053)" fill="gray"/>
        <path id="Path_6646" data-name="Path 6646" d="M385.69,397.671v3.135h-.216V397.9h-5.567v-.225Z" transform="translate(-378.117 -397.053)" fill="gray"/>
        <path id="Path_6647" data-name="Path 6647" d="M378.052,398.388v2.666H377.9v-2.666Z" transform="translate(-377.424 -397.3)" fill="gray"/>
        <path id="Path_6648" data-name="Path 6648" d="M385.231,398.388v1.532h-1.111v1.133h-.177v-1.133H382.78v1.133H382.6v-1.133h-1.162v1.133h-.178V399.92H380.1v1.134h-.194v-2.666Z" transform="translate(-378.117 -397.3)" fill="gray"/>
        <path id="Path_6649" data-name="Path 6649" d="M377.523,402.827v9.616h7.13v-9.617Zm5.939,3.449a2.741,2.741,0,0,1-3.74,3.74l-.613.613-.921-.922.114-.114-.2-.51a6.453,6.453,0,0,1-.231-.772,2.63,2.63,0,0,1,.492-2.285,2.335,2.335,0,0,0,.237-2.017l-.277-.755.651.473a1.977,1.977,0,0,1,.811,1.491,2.7,2.7,0,0,1,1.294-.326,2.747,2.747,0,0,1,1.482.436l.531-.531.923.923Z" transform="translate(-377.295 -398.83)" fill="gray"/>
        <rect id="Rectangle_1097" data-name="Rectangle 1097" width="4.323" height="0.818" transform="translate(1.237 10.876) rotate(-45)" fill="gray"/>
        <rect id="Rectangle_1098" data-name="Rectangle 1098" width="1.92" height="0.818" transform="translate(4.443 7.67) rotate(-45.003)" fill="gray"/>
        <path id="Path_6650" data-name="Path 6650" d="M379.392,407.3a3.505,3.505,0,0,0-.752,2,1.075,1.075,0,0,1-.04.276,6.105,6.105,0,0,1-.221-.743,2.384,2.384,0,0,1,.459-2.093,2.587,2.587,0,0,0,.263-2.235A2,2,0,0,1,379.392,407.3Z" transform="translate(-377.564 -399.407)" fill="gray"/>
        <path id="Path_6651" data-name="Path 6651" d="M380.155,409.412c-.193.28-.491.495-.707.765a1.939,1.939,0,0,0-.322.637c-.381-1.287,1.148-1.922,1.012-2.995A1.315,1.315,0,0,1,380.155,409.412Z" transform="translate(-377.827 -400.551)" fill="gray"/>
        <rect id="Rectangle_1099" data-name="Rectangle 1099" width="0.86" height="1.969" transform="translate(0.779 1.776)" fill="gray"/>
        <rect id="Rectangle_1100" data-name="Rectangle 1100" width="0.86" height="1.624" transform="translate(0.779)" fill="gray"/>
      </g>
    </g>
    <g id="Group_6794" data-name="Group 6794" transform="translate(2.822 1.947)">
      <g id="Group_6739" data-name="Group 6739" transform="translate(38.942 28.341)">
        <path id="Path_6652" data-name="Path 6652" d="M343.06,324.319a12.234,12.234,0,0,0,.938-1.914,14.686,14.686,0,0,0-4.223-4.16c1.576-.105,3.187-.016,4.793.015a8.776,8.776,0,0,0-4.326-6.776c.088-.322.168-.649.238-.982a1.26,1.26,0,0,0,.145-.038c.915-.286,1.755-1.638,2.017-3.369a4.932,4.932,0,0,0-.619-3.592c3.25-.565,5.278-1.362,5.278-2.248,0-1-2.586-1.891-6.612-2.457l-.006-.02c-.208-.675-.472-1.447-.7-2.121l-.006,0c-.151-.455-.287-.869-.377-1.179a15.914,15.914,0,0,0-2.178-4.892,3.453,3.453,0,0,0-2.954-1.5c-1.264.1-2.233.875-3.349,1.4-1.449.729-2.077-.047-3.294-.822a3,3,0,0,0-3.388.24c-1.652,1.162-2.473,3.054-3.2,4.846-.292.731-.562,1.408-.827,2.073l0,0c-.27.668-.533,1.329-.811,2.018l-.009.021c-3.78.574-6.181,1.434-6.181,2.4,0,.885,2.027,1.682,5.274,2.247a4.914,4.914,0,0,0-.622,3.593,4.833,4.833,0,0,0,1.547,3.115c.007.038.012.077.02.115.088.442.2.872.318,1.3a8.41,8.41,0,0,0-4.149,6.641c1.605-.031,3.217-.121,4.791-.015a14.669,14.669,0,0,0-4.221,4.16,11.758,11.758,0,0,0,.967,1.959l-3.921,1.454-2.79.99a.368.368,0,0,0-.053.015.056.056,0,0,1-.022.007v15.32h39.728V326.83Zm-7-5.831.009-.009.007,1.55-.015.03Z" transform="translate(-309.891 -288.745)" fill="gray" opacity="0.7" style="mix-blend-mode: multiply;isolation: isolate"/>
        <g id="Group_6738" data-name="Group 6738">
          <path id="Path_6653" data-name="Path 6653" d="M309.66,346.088c.081-.031.225-.075.4-.135Z" transform="translate(-309.585 -308.353)" fill="#fff"/>
          <path id="Path_6654" data-name="Path 6654" d="M310.666,345.649l.937-.315C311.446,345.395,311.041,345.529,310.666,345.649Z" transform="translate(-309.932 -308.14)" fill="#fff"/>
          <path id="Path_6655" data-name="Path 6655" d="M312.141,345.312a.428.428,0,0,1-.045.014l.031-.014Z" transform="translate(-310.425 -308.132)" fill="#fff"/>
          <path id="Path_6656" data-name="Path 6656" d="M342.06,342.361A18.956,18.956,0,0,1,337.778,347c-2.309,1.942-4.687,4-6.186,6.689a24.834,24.834,0,0,0-2.363,5.737c-.015.082-.037.165-.045.247-.014-.082-.038-.165-.052-.247a24.831,24.831,0,0,0-2.362-5.737c-1.5-2.685-3.877-4.747-6.187-6.689a18.773,18.773,0,0,1-4.252-4.6l-3.921,1.454-2.789.99a.364.364,0,0,0-.053.015.056.056,0,0,1-.022.007v15.32h39.728v-15.32Zm-30.843,1.948.031-.014h.014A.428.428,0,0,1,311.217,344.309Z" transform="translate(-309.546 -307.115)" fill="#cd9256"/>
          <g id="Group_6734" data-name="Group 6734" transform="translate(13.745 26.975)">
            <path id="Path_6657" data-name="Path 6657" d="M342.288,329.738v4.012l-1.14,2.437c-.271.719-.563,1.537-.87,2.438a5.164,5.164,0,0,1-2.716.719,17,17,0,0,1-4.934-.48c-.336-.982-.659-1.889-.951-2.677l-1.155-2.467v-3.981Z" transform="translate(-330.522 -329.738)" fill="#cfb99c"/>
          </g>
          <path id="Path_6658" data-name="Path 6658" d="M345.759,333.516a12.232,12.232,0,0,1-.938,1.914,18.955,18.955,0,0,1-4.282,4.641c-2.309,1.942-4.687,4-6.186,6.689a24.834,24.834,0,0,0-2.363,5.737c-.015.082-.037.165-.045.247-.014-.082-.038-.165-.052-.247a24.831,24.831,0,0,0-2.362-5.737c-1.5-2.685-3.877-4.747-6.186-6.689a18.771,18.771,0,0,1-4.252-4.6,11.753,11.753,0,0,1-.967-1.959,14.669,14.669,0,0,1,4.221-4.16c-1.574-.105-3.186-.016-4.791.015a8.423,8.423,0,0,1,4.8-6.989,13.455,13.455,0,0,0,3.7,5.144v3.615l1.155,2.467c.292.788.615,1.695.951,2.677.045.128.091.263.136.4a73.033,73.033,0,0,1,3.652,15.146c.4-4.715,2.183-10.849,3.7-15.319.052-.156.105-.315.158-.464.307-.9.6-1.718.87-2.438l1.14-2.437.015-.03-.015-3.779a13.034,13.034,0,0,0,3.546-5.107,8.8,8.8,0,0,1,4.964,7.116c-1.605-.031-3.217-.121-4.793-.015A14.686,14.686,0,0,1,345.759,333.516Z" transform="translate(-312.307 -300.183)" fill="#ecc486"/>
          <path id="Path_6659" data-name="Path 6659" d="M341.386,343.3c-.052.149-.106.308-.158.464-1.522,4.47-3.3,10.6-3.7,15.319a73.025,73.025,0,0,0-3.652-15.146c-.045-.135-.09-.269-.136-.4a17,17,0,0,0,4.934.48A5.164,5.164,0,0,0,341.386,343.3Z" transform="translate(-317.885 -307.438)" fill="#c2000b"/>
          <g id="Group_6737" data-name="Group 6737" transform="translate(2.86)">
            <g id="Group_6735" data-name="Group 6735" transform="translate(4.573 13.871)">
              <path id="Path_6660" data-name="Path 6660" d="M323.551,317.3a1.235,1.235,0,0,1-.882-.187,4.6,4.6,0,0,1-1.7-3.225c-.313-2.084.329-3.934,1.444-4.132a.808.808,0,0,1,.3-.008.547.547,0,0,1,.176.027,1.576,1.576,0,0,1,.7.383,5.09,5.09,0,0,1,1.4,3.009C325.307,315.256,324.658,317.1,323.551,317.3Z" transform="translate(-320.89 -309.741)" fill="#efd9b7"/>
            </g>
            <g id="Group_6736" data-name="Group 6736" transform="translate(5.867 6.409)">
              <path id="Path_6661" data-name="Path 6661" d="M344.469,309.609a17.33,17.33,0,0,1-.389,3.727,14.556,14.556,0,0,1-4.432,8.023,8.735,8.735,0,0,1-11.766.166,13.456,13.456,0,0,1-3.7-5.145,16.943,16.943,0,0,1-.969-3.186,18.663,18.663,0,0,1-.352-3.585,17.633,17.633,0,0,1,.4-3.78,2.951,2.951,0,0,1,.075-.36c.029.128.068.255.1.383a1.639,1.639,0,0,1,.7.381c-.338-1.328.653-3.7,1.425-4.85,1.065-1.62,2.843-1.934,4.627-2.325a40.292,40.292,0,0,1,6.817-.706,5.134,5.134,0,0,1,3.621,1.17c-.577,2.077,1.125,5.265,2.753,6.809a1.923,1.923,0,0,1,.7-.457,6.928,6.928,0,0,1,.143.773A17.336,17.336,0,0,1,344.469,309.609Z" transform="translate(-322.865 -298.353)" fill="#efd9b7"/>
            </g>
            <path id="Path_6662" data-name="Path 6662" d="M356.369,313.89c-.261,1.732-1.1,3.084-2.017,3.369a1.115,1.115,0,0,1-.564.043c-1.108-.2-1.755-2.047-1.438-4.132a5.22,5.22,0,0,1,1.3-2.915,1.883,1.883,0,0,1,.7-.455,1.145,1.145,0,0,1,.58-.041.076.076,0,0,1,.039.011C356.057,310,356.677,311.829,356.369,313.89Z" transform="translate(-327.134 -295.869)" fill="#efd9b7"/>
            <path id="Path_6663" data-name="Path 6663" d="M344.642,311.4v.594a.5.5,0,0,1-.046.21.645.645,0,0,1-.119.172.524.524,0,0,1-.375.157h-.54l-.254,2.008a1.9,1.9,0,0,1-1.831,1.613h-3.772a1.9,1.9,0,0,1-1.342-.585,2.276,2.276,0,0,1-.218-.257,1.851,1.851,0,0,1-.233-.441c-.014-.052-.036-.1-.052-.157s-.024-.113-.03-.165l-.022-.113c0-.007,0-.007-.009-.015-.358-.938-.45-1.979-.78-2.19a.438.438,0,0,0-.074-.029c-.121-.039-.254-.068-.4-.1a2.868,2.868,0,0,0-.914,0,3.462,3.462,0,0,0-.474.128c-.33.211-.419,1.252-.779,2.19l-.007.015-.024.113c-.007.052-.022.113-.029.165a1.333,1.333,0,0,1-.052.157,1.878,1.878,0,0,1-.233.441,2.345,2.345,0,0,1-.217.257,1.907,1.907,0,0,1-1.343.585h-3.763a1.9,1.9,0,0,1-1.838-1.613l-.255-2.008h-.533a.542.542,0,0,1-.383-.157.666.666,0,0,1-.12-.172.516.516,0,0,1-.045-.21V311.4a.488.488,0,0,1,.045-.209.563.563,0,0,1,.12-.172.54.54,0,0,1,.383-.158H344.1a.522.522,0,0,1,.375.158.548.548,0,0,1,.119.172A.47.47,0,0,1,344.642,311.4Z" transform="translate(-317.23 -296.256)" fill="#3f3d47"/>
            <path id="Path_6664" data-name="Path 6664" d="M349.575,310.861l-5.295,5.295h-.269a1.9,1.9,0,0,1-1.343-.577,3.26,3.26,0,0,1-.218-.264,1.734,1.734,0,0,1-.232-.441c-.015-.045-.037-.1-.052-.15s-.023-.113-.029-.172l-.023-.113-.007-.015a7.93,7.93,0,0,1-.27-.877l2.677-2.685Z" transform="translate(-323.538 -296.256)" fill="#fff" opacity="0.16"/>
            <path id="Path_6665" data-name="Path 6665" d="M333.02,310.861l-5.287,5.295H327.4a1.9,1.9,0,0,1-1.838-1.6l-.03-.255,3.427-3.435Z" transform="translate(-317.916 -296.256)" fill="#fff" opacity="0.16"/>
            <path id="Path_6666" data-name="Path 6666" d="M347.805,305.869c0,1.714-7.582,3.1-16.947,3.1s-16.947-1.387-16.947-3.1c0-.961,2.4-1.822,6.186-2.4q-.174.406-.349.837c0,.007-.007.015-.007.024a.272.272,0,0,0-.038.155c0,1.109,4.884,2,10.907,2,5.217,0,9.581-.666,10.659-1.573a.556.556,0,0,0,.256-.427.44.44,0,0,0-.116-.286c-.055-.233-.14-.5-.225-.792C345.216,303.977,347.805,304.869,347.805,305.869Z" transform="translate(-313.911 -293.688)" fill="#86898e"/>
            <path id="Path_6667" data-name="Path 6667" d="M344.573,299.374a.556.556,0,0,1-.256.427c-1.078.906-5.442,1.573-10.659,1.573-6.023,0-10.907-.891-10.907-2a.272.272,0,0,1,.038-.155c0-.008.007-.016.007-.024q.175-.431.349-.837c.559-1.381,1.055-2.636,1.644-4.109.729-1.792,1.55-3.683,3.2-4.846a3,3,0,0,1,3.388-.24c1.217.775,1.845,1.55,3.294.822,1.116-.528,2.085-1.3,3.35-1.4a3.453,3.453,0,0,1,2.953,1.5,15.915,15.915,0,0,1,2.178,4.892c.225.775.729,2.186,1.078,3.318.085.288.17.558.225.792A.44.44,0,0,1,344.573,299.374Z" transform="translate(-316.958 -288.573)" fill="#86898e"/>
            <path id="Path_6668" data-name="Path 6668" d="M344.574,303.339a.542.542,0,0,1-.254.427c-1.081.908-5.445,1.575-10.657,1.575-6.027,0-10.91-.893-10.91-2a.259.259,0,0,1,.037-.149c0-.009.007-.016.007-.024.12-.292.233-.569.353-.838.277-.689.541-1.351.811-2.018a2.684,2.684,0,0,0,1.117.825c.607.188,1.267.277,1.919.466a20.627,20.627,0,0,0,5.107.562,36.882,36.882,0,0,0,6.051-.42,14.3,14.3,0,0,0,3.42-.839c.555-.218,1.252-.457,1.964-.757.225.674.489,1.446.7,2.121.084.285.166.556.226.788A.448.448,0,0,1,344.574,303.339Z" transform="translate(-316.959 -292.562)" fill="#aeafb5"/>
          </g>
        </g>
      </g>
      <g id="Group_6742" data-name="Group 6742" transform="translate(28.583 57.508)">
        <g id="Group_6740" data-name="Group 6740" transform="translate(0.516 0.516)">
          <path id="Path_6669" data-name="Path 6669" d="M336.292,365.086a16.1,16.1,0,0,1-1.839-8.368,5.088,5.088,0,0,1-2.565-.725c.275-.964,1.243-1.416,2.215-1.868.948-.433,1.549-.8,1.232-1.8a8.23,8.23,0,0,0-2.588.6,4.642,4.642,0,0,1-2.075.132h0a1.921,1.921,0,0,0-1.434-2.27l-12.4-2.921a1.915,1.915,0,0,0-2.3,1.4l.008-.035a1.59,1.59,0,0,1,.191-.464h0v0l-1.769-.417v0l-6.348-1.5.1-.408a.314.314,0,0,0-.233-.376l-3.354-.791a.315.315,0,0,0-.377.234l-.911,3.864a.312.312,0,0,0,.233.375l3.353.791a.314.314,0,0,0,.378-.233l.036-.152,5.591,1.317h0l2.45.577-1.127,4.789a1.915,1.915,0,0,0,1.427,2.3l1.255.3c.927,1.294-.6,3.063-.052,4.546.689,1.834,3.964,2.246,5.636,2.542a6.979,6.979,0,0,0,2.863-.021.043.043,0,0,0,.019-.008,2.983,2.983,0,0,1,.45-.154,1.626,1.626,0,0,1,1.712.32,2.715,2.715,0,0,1,.339,1.683l-.028.118a15.013,15.013,0,0,0-.471,2.492c-.483,3.626.754,7.455,4.418,8.616,3.472,1.11,6.763-1.162,7.334-5.058C338.206,370.809,338.092,369.54,336.292,365.086Zm-20.448-13.2-.631,2.677-.3,1.274,1.006-4.266Zm14.549,2.339c.007.018.018.033.025.051-.007-.018-.017-.033-.025-.05Zm-2.6,13a11.673,11.673,0,0,1-.227,1.2C327.652,368.071,327.737,367.663,327.794,367.23Zm-.29-3.182c-.041-.117-.09-.235-.142-.353.053.119.1.236.145.355a5.716,5.716,0,0,1,.251.954A5.7,5.7,0,0,0,327.5,364.048Zm-.126,5.141-.01.04a12.026,12.026,0,0,0-.291,1.345,11.1,11.1,0,0,1,.291-1.343Zm-2.172-5.215a2.608,2.608,0,0,1-1.133,1.586,4.763,4.763,0,0,1-3.038.327c-1.438-.246-4.271-.571-4.821-2.3-.393-1.241.629-2.728.333-3.891l7.4,1.744a6.5,6.5,0,0,1,1.541,1.406C325.384,363.243,325.321,363.668,325.206,363.974Zm-9.151-6.3,6.5,1.533,3.088.727Zm8.422-6.668-6.49-1.53,9.593,2.26Zm2.581,19.966v0c-.088,3.593.751,5.895,2.549,7l.013.01C327.814,376.883,326.972,374.578,327.058,370.975Zm3.632-9.327a4.166,4.166,0,0,1-.6.2,4.221,4.221,0,0,0,.6-.2l.164-.073C330.8,361.6,330.741,361.626,330.689,361.648Zm1.542-.872c-.063.048-.124.094-.189.136s-.14.1-.216.143c.076-.047.142-.093.216-.144s.127-.086.19-.136c.113-.086.224-.174.329-.267C332.456,360.6,332.346,360.692,332.232,360.776Zm.659-.6a3.58,3.58,0,0,1-.265.266,3.409,3.409,0,0,0,.265-.267,1.476,1.476,0,0,1,.195-.038A1.394,1.394,0,0,0,332.891,360.181Zm.583.11a.276.276,0,0,0-.1-.11.286.286,0,0,1,.1.11Z" transform="translate(-301.836 -345.262)" fill="gray" opacity="0.7" style="mix-blend-mode: multiply;isolation: isolate"/>
          <path id="Path_6670" data-name="Path 6670" d="M321.339,362.566a2.575,2.575,0,0,1-1.108,1.648.2.2,0,0,1-.033.048.206.206,0,0,0,.066.162l0,0a.184.184,0,0,1,.057.03q.132.049.263.1a.315.315,0,0,1,.056,0,.135.135,0,0,1,.065-.007.224.224,0,0,1,.053-.015,3.185,3.185,0,0,0,.759-.423,3.7,3.7,0,0,0,.755-.9,4.526,4.526,0,0,0,.741-2.335l-1.358-.32A5.2,5.2,0,0,1,321.339,362.566Z" transform="translate(-301.258 -344.781)" fill="gray" opacity="0.7" style="mix-blend-mode: multiply;isolation: isolate"/>
        </g>
        <g id="Group_6741" data-name="Group 6741">
          <path id="Path_6671" data-name="Path 6671" d="M336.826,373.928c.548-3.7.434-4.966-1.366-9.419a16.1,16.1,0,0,1-1.839-8.368,5.092,5.092,0,0,1-2.567-.725,3.643,3.643,0,0,1-1.493-1.765l.277-1.176a1.921,1.921,0,0,0-1.434-2.27l-12.4-2.921a1.922,1.922,0,0,0-2.3,1.426l-1.778,7.548a1.915,1.915,0,0,0,1.426,2.3l1.255.3c.927,1.294-.6,3.064-.053,4.546.689,1.834,3.964,2.246,5.636,2.542a6.977,6.977,0,0,0,2.863-.021.044.044,0,0,0,.02-.008,2.961,2.961,0,0,1,.45-.154,1.626,1.626,0,0,1,1.712.32,2.715,2.715,0,0,1,.339,1.683l-.028.118a15.122,15.122,0,0,0-.471,2.492c-.483,3.626.754,7.456,4.418,8.616C332.965,380.1,336.256,377.823,336.826,373.928ZM324.374,363.4a2.608,2.608,0,0,1-1.133,1.586,4.763,4.763,0,0,1-3.038.327c-1.438-.246-4.271-.571-4.821-2.3-.393-1.241.629-2.728.334-3.891l7.4,1.744a6.5,6.5,0,0,1,1.541,1.406C324.552,362.665,324.489,363.09,324.374,363.4Zm2.286-5.177a1.533,1.533,0,0,1-1.844,1.14l-9.593-2.26a1.531,1.531,0,0,1-1.142-1.839l1.232-5.223a1.527,1.527,0,0,1,1.842-1.136l9.593,2.26A1.531,1.531,0,0,1,327.89,353Zm6.91,19.189a4.181,4.181,0,0,1-3.348.587c-.126-.03-.253-.065-.383-.1-2.535-.8-3.713-3.252-3.613-7.494v-.056a7.133,7.133,0,0,1,.309-1.687c.043-.166.088-.331.128-.5a13.643,13.643,0,0,0,.308-1.567,6.381,6.381,0,0,0-.3-3.114,4.97,4.97,0,0,0-.369-.806c.426-.983,2.841-1.267,3.552-1.595.12-.052.242-.105.373-.167.1-.045.2-.1.305-.156.054-.033.11-.061.17-.093.1-.057.195-.117.291-.176.076-.047.142-.093.216-.144s.127-.086.19-.136a4.18,4.18,0,0,0,.658-.6c.28-.073.574-.1.634.256v0c.03.17.054.328.087.484.011.067.024.131.038.19.042.214.092.42.137.616.024.1.052.2.075.291s.051.179.075.268a18.514,18.514,0,0,0,.9,2.325c.133.3.262.594.39.9,1.744,4.33,1.8,5.381,1.293,8.819A5.2,5.2,0,0,1,333.57,377.408Z" transform="translate(-301.004 -344.685)" fill="#e1f4f8"/>
          <path id="Path_6672" data-name="Path 6672" d="M322.514,360.372l-1.358-.32a5.205,5.205,0,0,1-.317,2.014,2.576,2.576,0,0,1-1.108,1.648.235.235,0,0,1-.032.048.2.2,0,0,0,.065.162l0,0a.186.186,0,0,1,.057.03q.131.05.263.1a.324.324,0,0,1,.056,0,.136.136,0,0,1,.065-.007.218.218,0,0,1,.053-.015,3.186,3.186,0,0,0,.759-.423,3.7,3.7,0,0,0,.755-.9A4.526,4.526,0,0,0,322.514,360.372Z" transform="translate(-300.758 -344.281)" fill="#bfcfd3"/>
          <path id="Path_6673" data-name="Path 6673" d="M334.186,364.707c-.124-.308-.256-.6-.389-.9a18.235,18.235,0,0,1-.9-2.325c-.027-.088-.05-.176-.074-.268s-.054-.191-.077-.291c-.048-.2-.094-.4-.138-.615-.013-.062-.027-.124-.038-.19-.03-.156-.056-.315-.081-.484l0,0c-.058-.352-.352-.33-.632-.255a4.343,4.343,0,0,1-.66.6c-.062.049-.124.094-.189.136s-.14.1-.215.142c-.1.06-.194.121-.293.175-.055.034-.113.064-.168.094-.1.058-.206.109-.308.156-.129.064-.252.117-.369.168-.715.327-3.126.609-3.554,1.594a5.319,5.319,0,0,1,.372.809,6.444,6.444,0,0,1,.3,3.111,12.339,12.339,0,0,1-.31,1.567c-.04.172-.084.338-.125.5a7.358,7.358,0,0,0-.312,1.69l0,.056c-.1,4.24,1.079,6.69,3.612,7.493.127.041.254.075.381.105a4.177,4.177,0,0,0,3.348-.588,5.85,5.85,0,0,0,2.124-3.65C336.21,370.549,335.935,369.037,334.186,364.707Z" transform="translate(-300.559 -344.304)" fill="gray" opacity="0.7" style="mix-blend-mode: multiply;isolation: isolate"/>
          <path id="Path_6674" data-name="Path 6674" d="M333.131,377.031a4.178,4.178,0,0,1-3.348.588c-.127-.03-.254-.064-.381-.105-2.533-.8-3.715-3.252-3.612-7.493l0-.056a7.4,7.4,0,0,1,.31-1.69c.041-.162.086-.329.126-.5a12.2,12.2,0,0,0,.309-1.568,6.444,6.444,0,0,0-.3-3.111,5.254,5.254,0,0,0-.372-.808c.428-.986,2.84-1.267,3.554-1.595.118-.051.24-.1.369-.167.1-.047.2-.1.308-.157.055-.03.113-.06.168-.094.1-.055.2-.115.292-.174.075-.045.144-.092.216-.143s.126-.088.189-.136a4.384,4.384,0,0,0,.659-.6c.282-.075.575-.1.633.255l0,0c.027.169.052.328.082.484.011.067.024.128.038.191.044.215.09.419.138.615.024.1.052.2.077.29s.047.18.074.269a18.432,18.432,0,0,0,.9,2.324c.134.3.266.594.39.9,1.748,4.33,2.024,5.842,1.3,8.819A5.844,5.844,0,0,1,333.131,377.031Z" transform="translate(-300.566 -344.308)" fill="#3a3346"/>
          <path id="Path_6675" data-name="Path 6675" d="M314.242,348.26a1.589,1.589,0,0,0-.191.464l-.665,2.821-8.041-1.895-.036.152a.314.314,0,0,1-.378.233l-3.353-.791a.312.312,0,0,1-.233-.375l.911-3.864a.315.315,0,0,1,.376-.234l3.354.791a.314.314,0,0,1,.233.376l-.1.409Z" transform="translate(-301.336 -344.762)" fill="#bddde4"/>
          <path id="Path_6676" data-name="Path 6676" d="M327.822,352.913l-1.23,5.218a1.533,1.533,0,0,1-1.844,1.14l-3.088-.727a.923.923,0,0,0,.211-.409,1.191,1.191,0,0,0-.992-1.349l-6.741-1.59a1.026,1.026,0,0,0-.125-.024l.3-1.274,6.772,1.6a1.373,1.373,0,0,0,1.481-2.06,1.529,1.529,0,0,0-.158-.212,1.342,1.342,0,0,0-.693-.4l-6.771-1.6.279-1.184a.677.677,0,0,0,.122.038l6.741,1.588a1.211,1.211,0,0,0,1.5-.814,1.019,1.019,0,0,0-.01-.507l3.1.73A1.531,1.531,0,0,1,327.822,352.913Z" transform="translate(-300.937 -344.596)" fill="#fff"/>
          <path id="Path_6677" data-name="Path 6677" d="M332.731,353.409c-.973.452-1.94.9-2.215,1.869a3.646,3.646,0,0,1-1.5-1.768l.275-1.174a4.655,4.655,0,0,0,2.079-.132,8.227,8.227,0,0,1,2.588-.6C334.28,352.61,333.679,352.976,332.731,353.409Z" transform="translate(-300.465 -344.547)" fill="#bddde4"/>
          <path id="Path_6678" data-name="Path 6678" d="M323.551,350.888a1.211,1.211,0,0,1-1.5.814l-6.741-1.589a.672.672,0,0,1-.122-.038l.022-.089a1.527,1.527,0,0,1,1.842-1.136l6.49,1.53A1.019,1.019,0,0,1,323.551,350.888Z" transform="translate(-300.9 -344.635)" fill="#c3dde4"/>
          <path id="Path_6679" data-name="Path 6679" d="M322.727,354.434a1.374,1.374,0,0,1-1.65,1.023l-6.772-1.6.631-2.677,6.771,1.6a1.341,1.341,0,0,1,.693.4,1.528,1.528,0,0,1,.158.212A1.374,1.374,0,0,1,322.727,354.434Z" transform="translate(-300.928 -344.56)" fill="#c0dbe1"/>
          <path id="Path_6680" data-name="Path 6680" d="M321.873,357.977a.923.923,0,0,1-.211.41l-6.5-1.533a1.531,1.531,0,0,1-1.142-1.839,1.018,1.018,0,0,1,.125.024l6.741,1.59A1.191,1.191,0,0,1,321.873,357.977Z" transform="translate(-300.938 -344.44)" fill="#bad4da"/>
          <path id="Path_6681" data-name="Path 6681" d="M313.947,348.163a1.671,1.671,0,0,0-.2.511l-.651,2.778-2.452-.577a14.157,14.157,0,0,0,1.537-3.128Z" transform="translate(-301.043 -344.668)" fill="#4d4d4d" opacity="0.11"/>
        </g>
      </g>
      <g id="Group_6747" data-name="Group 6747" transform="translate(91.232 23.932)">
        <path id="Path_6682" data-name="Path 6682" d="M406.893,284.263v-1.531a.388.388,0,1,0-.775,0v1.531h-1.4v-1.531a.387.387,0,1,0-.775,0v1.531h-1.4v-1.531a.388.388,0,1,0-.775,0v1.531h-1.4v-1.531a.388.388,0,1,0-.775,0v1.531h-1.4v-1.531a.388.388,0,1,0-.775,0v1.531h-1.4v-1.531a.388.388,0,1,0-.775,0v1.531h-1.4v-1.531a.388.388,0,1,0-.775,0v1.531h-1.4v-1.531a.387.387,0,1,0-.775,0v1.531h-1.033v21.846h18.339V284.263Z" transform="translate(-389.517 -282.017)" fill="gray" opacity="0.7" style="mix-blend-mode: multiply;isolation: isolate"/>
        <rect id="Rectangle_1101" data-name="Rectangle 1101" width="18.339" height="21.845" transform="translate(0 1.918)" fill="#fff"/>
        <path id="Path_6683" data-name="Path 6683" d="M391.906,286.691a.83.83,0,1,1-.83-.83A.83.83,0,0,1,391.906,286.691Z" transform="translate(-389.656 -283.229)" fill="#787878" opacity="0.71" style="mix-blend-mode: multiply;isolation: isolate"/>
        <path id="Path_6684" data-name="Path 6684" d="M391.7,285.258a.387.387,0,0,1-.387.388h0a.388.388,0,0,1-.387-.388v-3.025a.388.388,0,0,1,.387-.387h0a.387.387,0,0,1,.387.387Z" transform="translate(-389.889 -281.845)" fill="#c5e9db"/>
        <circle id="Ellipse_65" data-name="Ellipse 65" cx="0.83" cy="0.83" r="0.83" transform="translate(2.768 2.632)" fill="#787878" opacity="0.71" style="mix-blend-mode: multiply;isolation: isolate"/>
        <path id="Path_6685" data-name="Path 6685" d="M395.019,285.258a.388.388,0,0,1-.387.388h0a.388.388,0,0,1-.388-.388v-3.025a.388.388,0,0,1,.388-.387h0a.388.388,0,0,1,.387.387Z" transform="translate(-391.034 -281.845)" fill="#c5e9db"/>
        <path id="Path_6686" data-name="Path 6686" d="M398.551,286.691a.83.83,0,1,1-.83-.83A.83.83,0,0,1,398.551,286.691Z" transform="translate(-391.946 -283.229)" fill="#787878" opacity="0.71" style="mix-blend-mode: multiply;isolation: isolate"/>
        <path id="Path_6687" data-name="Path 6687" d="M398.341,285.258a.388.388,0,0,1-.387.388h0a.388.388,0,0,1-.388-.388v-3.025a.388.388,0,0,1,.388-.387h0a.388.388,0,0,1,.387.387Z" transform="translate(-392.179 -281.845)" fill="#c5e9db"/>
        <circle id="Ellipse_66" data-name="Ellipse 66" cx="0.83" cy="0.83" r="0.83" transform="translate(7.122 2.632)" fill="#787878" opacity="0.71" style="mix-blend-mode: multiply;isolation: isolate"/>
        <path id="Path_6688" data-name="Path 6688" d="M401.664,285.258a.388.388,0,0,1-.388.388h0a.388.388,0,0,1-.387-.388v-3.025a.388.388,0,0,1,.387-.387h0a.388.388,0,0,1,.388.387Z" transform="translate(-393.324 -281.845)" fill="#c5e9db"/>
        <circle id="Ellipse_67" data-name="Ellipse 67" cx="0.83" cy="0.83" r="0.83" transform="translate(9.299 2.632)" fill="#787878" opacity="0.71" style="mix-blend-mode: multiply;isolation: isolate"/>
        <path id="Path_6689" data-name="Path 6689" d="M404.986,285.258a.388.388,0,0,1-.387.388h0a.388.388,0,0,1-.388-.388v-3.025a.388.388,0,0,1,.388-.387h0a.388.388,0,0,1,.387.387Z" transform="translate(-394.47 -281.845)" fill="#c5e9db"/>
        <path id="Path_6690" data-name="Path 6690" d="M408.518,286.691a.83.83,0,1,1-.83-.83A.83.83,0,0,1,408.518,286.691Z" transform="translate(-395.382 -283.229)" fill="#787878" opacity="0.71" style="mix-blend-mode: multiply;isolation: isolate"/>
        <path id="Path_6691" data-name="Path 6691" d="M408.308,285.258a.388.388,0,0,1-.387.388h0a.388.388,0,0,1-.388-.388v-3.025a.388.388,0,0,1,.388-.387h0a.388.388,0,0,1,.387.387Z" transform="translate(-395.615 -281.845)" fill="#c5e9db"/>
        <path id="Path_6692" data-name="Path 6692" d="M411.841,286.691a.83.83,0,1,1-.83-.83A.83.83,0,0,1,411.841,286.691Z" transform="translate(-396.528 -283.229)" fill="#787878" opacity="0.71" style="mix-blend-mode: multiply;isolation: isolate"/>
        <path id="Path_6693" data-name="Path 6693" d="M411.632,285.258a.388.388,0,0,1-.387.388h0a.387.387,0,0,1-.387-.388v-3.025a.387.387,0,0,1,.387-.387h0a.388.388,0,0,1,.387.387Z" transform="translate(-396.761 -281.845)" fill="#c5e9db"/>
        <path id="Path_6694" data-name="Path 6694" d="M415.163,286.691a.83.83,0,1,1-.83-.83A.83.83,0,0,1,415.163,286.691Z" transform="translate(-397.673 -283.229)" fill="#787878" opacity="0.71" style="mix-blend-mode: multiply;isolation: isolate"/>
        <path id="Path_6695" data-name="Path 6695" d="M414.953,285.258a.388.388,0,0,1-.387.388h0a.388.388,0,0,1-.388-.388v-3.025a.388.388,0,0,1,.388-.387h0a.388.388,0,0,1,.387.387Z" transform="translate(-397.905 -281.845)" fill="#c5e9db"/>
        <g id="Group_6743" data-name="Group 6743" transform="translate(1.241 5.561)">
          <path id="Path_6696" data-name="Path 6696" d="M392.192,290.383c-1.092.705-1.376,2.686-.161,3.369,2.265,1.273,3-4.62,3.806-.124.037.206.365.162.478.067a12.432,12.432,0,0,0,1.174-1.183c.99-1.085,1.136.134,1.546.554a.308.308,0,0,0,.316.081,1.99,1.99,0,0,0,.859-.442c.919-.647.679-.624,1.187.128.117.173.387.086.5-.035.38-.4,2.953-1.653,3.484-.961.169.221.708-.013.52-.26-.513-.668-.776-.882-1.544-.547-.649.283-1.546.48-2.168.79s-.288.588-.617-.115a.273.273,0,0,0-.342-.134,2.546,2.546,0,0,0-.965.5c-.957.659-.957-.056-1.523-.636a.3.3,0,0,0-.316-.081,1.946,1.946,0,0,0-.993.55c-1.32,1.309-1.155.446-1.937-.838-.1-.158-.415-.107-.5.035a6.467,6.467,0,0,1-.6.887c-1.26,1.721-3.907.035-1.82-1.313.324-.209-.138-.446-.385-.286Z" transform="translate(-391.238 -290.331)" fill="#9bbac1"/>
        </g>
        <g id="Group_6744" data-name="Group 6744" transform="translate(1.533 10.13)">
          <path id="Path_6697" data-name="Path 6697" d="M391.693,297.589a14.313,14.313,0,0,0,.762,2.263c.086.165.415.07.5-.043.709-.939,1.333-.321,2.135-.227.73.085,1.825-1.067,2.385-.246.113.166.389.064.5-.043.3-.286,1.189-1.584,1.69-.375.058.138.21.142.338.117a14.873,14.873,0,0,1,4.13-.136c.276.031.584-.368.2-.41-1.172-.129-1.7-.432-2.8-.062a1.222,1.222,0,0,1-1.586-.352c-.834-.787-1.463.019-2.1.719.073-.079-.639-.36-.684-.357-.863.067-1.494,1.145-2.434.316a.932.932,0,0,0-1.028-.3,1.6,1.6,0,0,0-.514.337c-.794.892-.693-.659-.92-1.354-.085-.26-.654-.1-.571.152Z" transform="translate(-391.684 -297.303)" fill="#9bbac1"/>
        </g>
        <g id="Group_6745" data-name="Group 6745" transform="translate(1.854 14.388)">
          <path id="Path_6698" data-name="Path 6698" d="M392.175,304.063c.372,2.947,2.194-.25,3.783,1.063.128.105.378.008.491-.073q.7-.653,1.7.117c.074.163.417.031.51-.043.959-.767,1.411-.938,2.461-.148.149.112.665-.113.533-.212-.627-.472-.88-1.063-1.708-.951-.685.093-1.235.846-1.735,1.246l.51-.043c-.679-1.472-1.7-.767-2.725-.031l.492-.073a1.841,1.841,0,0,0-1.708-.487,4.972,4.972,0,0,0-.879.349c-.925.468-1.035.1-1.157-.865-.021-.164-.595-.039-.571.152Z" transform="translate(-392.174 -303.802)" fill="#9bbac1"/>
        </g>
        <g id="Group_6746" data-name="Group 6746" transform="translate(9.417 1.172)">
          <path id="Path_6699" data-name="Path 6699" d="M416.2,283.93l-.488-.3-3.436,5.665-1.656,2.728-2.815,4.653-1.509,2.509.489.293L412.526,290Z" transform="translate(-404.607 -283.633)" fill="#c25b60"/>
          <rect id="Rectangle_1102" data-name="Rectangle 1102" width="18.184" height="1.138" transform="translate(2.18 15.849) rotate(-58.811)" fill="#484d54"/>
          <path id="Path_6700" data-name="Path 6700" d="M418.432,285.279l-.485-.292,0,0-4.878,8.051-4.535,7.5.489.3,1.119-1.866,1.82-3.006,5.78-9.54Z" transform="translate(-405.376 -284.099)" fill="#a30009"/>
          <path id="Path_6701" data-name="Path 6701" d="M404.065,313.42l.4.245-.753.788Z" transform="translate(-403.717 -293.901)" fill="#736b60"/>
          <path id="Path_6702" data-name="Path 6702" d="M404.7,311.981l2.509-3.26.487.3-2.89,3.029Z" transform="translate(-404.057 -292.282)" fill="#c6aa98"/>
          <path id="Path_6703" data-name="Path 6703" d="M406.139,307.822l.974.589-2.509,3.26-.188-.114Z" transform="translate(-403.958 -291.972)" fill="#e1caaf"/>
          <path id="Path_6704" data-name="Path 6704" d="M405.592,307.371l.489.3-1.723,3.735-.11-.067Z" transform="translate(-403.9 -291.816)" fill="#efe6d5"/>
        </g>
        <path id="Path_6705" data-name="Path 6705" d="M412.637,295.846v14.589h-6.885l-2.036-2.037.755-.791,2.888-3.029h.005l1.116-1.866,1.819-3.005Z" transform="translate(-394.299 -286.672)" fill="#d4d4d4" opacity="0.75" style="mix-blend-mode: multiply;isolation: isolate"/>
      </g>
      <g id="Group_6752" data-name="Group 6752" transform="translate(42.979)">
        <path id="Path_6710" data-name="Path 6710" d="M345.8,254.816a7.168,7.168,0,0,0-5.964-3.357l-1.176-1.87a.433.433,0,0,0-.594-.136l-1.67,1.05a2.6,2.6,0,0,0-.442-.724,2.5,2.5,0,0,0-1.2-.782,2.336,2.336,0,0,0-1.231-1.661,2.51,2.51,0,0,0-1.309-.314,2.214,2.214,0,0,0-2.131-1.2,2.3,2.3,0,0,0-1.936,1.046,2.487,2.487,0,0,0-1.307.57,2.377,2.377,0,0,0-.881,1.709,2.611,2.611,0,0,0-.571.41,2.414,2.414,0,0,0-.778,1.634l-2.162-.626a.433.433,0,0,0-.534.295l-.615,2.122a7.174,7.174,0,1,0,7.511,2.176l.615-2.122a.433.433,0,0,0-.294-.535l-1.164-.337a2.394,2.394,0,0,0,.723-1.588,2.62,2.62,0,0,0,.509-.326,2.573,2.573,0,0,0,.628-.778,2.692,2.692,0,0,0,.358.016,2.622,2.622,0,0,0,.508-.065,2.463,2.463,0,0,0,1.072,1.129,2.608,2.608,0,0,0,.823.286,2.472,2.472,0,0,0,.59,1.333,2.72,2.72,0,0,0,.215.22l-1.215.763a.433.433,0,0,0-.136.594l1.579,2.512-.4-.642a7.173,7.173,0,1,0,12.585-.8Zm-14.6-6.661a1.2,1.2,0,0,1,.581-.518,1.327,1.327,0,0,1-.716,1.138A1.17,1.17,0,0,1,331.2,248.155Zm-1.689.77a1.385,1.385,0,0,1-1.023-1.223,1.165,1.165,0,0,1,.043-.324,1.214,1.214,0,0,1,.754.409A1.274,1.274,0,0,1,329.508,248.925Zm-.87,12.447a5.473,5.473,0,1,1-1.433-5.441A5.474,5.474,0,0,1,328.639,261.372Zm-1.051-9.489a1.772,1.772,0,0,1-.158.126l-2.285-.662a1.729,1.729,0,0,1,.566-1.448,1.964,1.964,0,0,1,.305-.233,1.56,1.56,0,0,0,.309.6,1.8,1.8,0,0,0,1.835.507A1.818,1.818,0,0,1,327.588,251.883Zm-1.064-2.442a1.323,1.323,0,0,1,1.323.317,1.163,1.163,0,0,1,.28.523,1.335,1.335,0,0,1-1.37-.377A1.156,1.156,0,0,1,326.523,249.442Zm2.373.451a1.924,1.924,0,0,1-.261.184,1.573,1.573,0,0,0-.38-.705,1.774,1.774,0,0,0-1.757-.432,1.8,1.8,0,0,1,.643-1.14,1.89,1.89,0,0,1,.809-.4,1.506,1.506,0,0,0-.027.318,1.868,1.868,0,0,0,1.408,1.655A1.941,1.941,0,0,1,328.9,249.892Zm1.275-.87c-.056,0-.108-.006-.162-.009a1.728,1.728,0,0,0-.3-1.588,1.614,1.614,0,0,0-.927-.536,1.771,1.771,0,0,1,1.311-.6,1.665,1.665,0,0,1,1.556.83,1.642,1.642,0,0,0-.949.762,1.617,1.617,0,0,0-.159,1.088A1.925,1.925,0,0,1,330.171,249.022Zm1,.243a1.833,1.833,0,0,0,1.171-1.669c0-.028-.005-.055-.007-.082a1.869,1.869,0,0,1,.962.233,1.762,1.762,0,0,1,.907,1.172,1.57,1.57,0,0,0-1.62,1.433,1.939,1.939,0,0,1-.6-.21A1.833,1.833,0,0,1,331.173,249.265Zm3.023.185a1.153,1.153,0,0,1-.107.286,1.275,1.275,0,0,1-.972.625,1.146,1.146,0,0,1,1.079-.911Zm-.665,2.418a1.852,1.852,0,0,1-.442-1,1.752,1.752,0,0,0,1.493-.861,1.538,1.538,0,0,0,.166-.487,1.859,1.859,0,0,1,.851.565,1.9,1.9,0,0,1,.375.683l-2.166,1.362A1.976,1.976,0,0,1,333.531,251.868Zm9.109,11.4a5.474,5.474,0,1,1,1.723-7.547A5.473,5.473,0,0,1,342.64,263.267Z" transform="translate(-315.88 -245.496)" fill="gray" opacity="0.7" style="mix-blend-mode: multiply;isolation: isolate"/>
        <g id="Group_6751" data-name="Group 6751">
          <g id="Group_6750" data-name="Group 6750" transform="translate(8.4)">
            <path id="Path_6711" data-name="Path 6711" d="M329.307,250.663a1.866,1.866,0,1,0,2.867-.188A2.05,2.05,0,0,0,329.307,250.663Zm2.2,2.324a1.39,1.39,0,1,1,.259-2.124A1.525,1.525,0,0,1,331.507,252.986Z" transform="translate(-328.527 -246.927)" fill="#c9e9d6"/>
            <path id="Path_6712" data-name="Path 6712" d="M331.468,247.48a1.866,1.866,0,1,0,2.873-.016A2.05,2.05,0,0,0,331.468,247.48Zm2.056,2.451a1.39,1.39,0,1,1,.386-2.1A1.525,1.525,0,0,1,333.524,249.931Z" transform="translate(-329.236 -245.862)" fill="#c9e9d6"/>
            <path id="Path_6713" data-name="Path 6713" d="M335.745,245.324a1.866,1.866,0,1,0,2.261,1.772A2.05,2.05,0,0,0,335.745,245.324Zm.088,3.2a1.39,1.39,0,1,1,1.61-1.41A1.527,1.527,0,0,1,335.833,248.522Z" transform="translate(-330.27 -245.323)" fill="#c9e9d6"/>
            <path id="Path_6714" data-name="Path 6714" d="M340.547,247.466a1.866,1.866,0,1,0,1.06,2.67A2.049,2.049,0,0,0,340.547,247.466Zm-1.535,2.807a1.39,1.39,0,1,1,2.1-.408A1.525,1.525,0,0,1,339.013,250.272Z" transform="translate(-331.633 -245.952)" fill="#c9e9d6"/>
            <path id="Path_6715" data-name="Path 6715" d="M344.059,250.908a1.866,1.866,0,1,0,.054,2.872A2.049,2.049,0,0,0,344.059,250.908ZM341.635,253a1.39,1.39,0,1,1,2.11.357A1.527,1.527,0,0,1,341.635,253Z" transform="translate(-332.712 -246.951)" fill="#c9e9d6"/>
          </g>
          <path id="Path_6716" data-name="Path 6716" d="M331.484,255.023l-.825,2.849a.433.433,0,0,1-.535.294l-.86-.249a5.476,5.476,0,0,0-4.962-1.438l-.86-.249a.432.432,0,0,1-.294-.534l.825-2.849a.433.433,0,0,1,.534-.295l6.683,1.936A.433.433,0,0,1,331.484,255.023Z" transform="translate(-318.267 -247.81)" fill="#e3e3e3"/>
          <path id="Path_6717" data-name="Path 6717" d="M328.31,258.426l-.21.727a.433.433,0,0,1-.535.294l-.86-.249a5.474,5.474,0,1,1-4.962-1.438l-.86-.249a.432.432,0,0,1-.294-.534l.21-.727a7.174,7.174,0,1,0,7.511,2.176Z" transform="translate(-315.708 -249.09)" fill="#f7f7f7"/>
          <path id="Path_6718" data-name="Path 6718" d="M346.456,250.964l1.579,2.512a.432.432,0,0,1-.136.594l-.758.477a5.479,5.479,0,0,0-4.375,2.749l-.757.477a.433.433,0,0,1-.594-.136l-1.579-2.512a.433.433,0,0,1,.136-.594l5.89-3.7A.433.433,0,0,1,346.456,250.964Z" transform="translate(-324.003 -247.199)" fill="#e3e3e3"/>
          <path id="Path_6719" data-name="Path 6719" d="M347.936,253.924l.4.642a.432.432,0,0,1-.136.594l-.758.477a5.473,5.473,0,1,1-4.375,2.749l-.757.477a.433.433,0,0,1-.594-.136l-.4-.642a7.173,7.173,0,1,0,6.62-4.162Z" transform="translate(-324.308 -248.288)" fill="#f7f7f7"/>
          <path id="Path_6720" data-name="Path 6720" d="M333.5,256.97a.68.68,0,0,1-.537.48l-.172.591a.3.3,0,0,1-.569-.164l.172-.591a.69.69,0,0,1-.14-.178.679.679,0,1,1,1.246-.138Z" transform="translate(-321.382 -249.039)" fill="#6e8388"/>
        </g>
      </g>
      <g id="Group_6785" data-name="Group 6785" transform="translate(0 19.57)">
        <path id="Path_6778" data-name="Path 6778" d="M412.589,371.063a16.084,16.084,0,0,0-.249-3.306,43.057,43.057,0,0,1-.589-8.269l.006,0c0-.252.007-.505.014-.756l-.006,0v-.006c.014-.94.038-1.884.063-2.834l.01.006q.033-1.12.052-2.262l-.013,0v-.019c-.133-.026-.27-.042-.417-.062a43.807,43.807,0,0,0-6.519-.484c-2.689.083-5.378.9-8.067,1.227a12.6,12.6,0,0,1-1.391.044c-.083,0-.167,0-.25,0q-.325-.011-.65-.035l-.147-.012c-3.328-.273-6.636-1.421-10.025-.914a32.21,32.21,0,0,1,1.721,5.185,7.06,7.06,0,0,1,.095.7,7.616,7.616,0,0,1,.031,1.016c-.109,2.608-1.085,5-1.084,7.609,0,.8.03,1.58.075,2.346l0,0c0,.046.008.092.01.139q.035.547.08,1.091c.01.123.02.248.031.371q.04.431.083.862c.111,1.089.241,2.188.375,3.342a35.281,35.281,0,0,1-.28,5.6c2.882.111,5.649-.391,8.534-.561l.008-.009c.326-.019.653-.038.983-.047a41.6,41.6,0,0,1,6.82.387l0,.014c1.2.16,2.4.361,3.609.586a20.143,20.143,0,0,0,6.906-.055l0-.02.01,0a23.384,23.384,0,0,1-.081-7c.083-.9.168-1.809.219-2.71l.007-.134q.018-.351.028-.7c0-.056,0-.112,0-.168s0-.109,0-.164Z" transform="translate(-384.01 -352.653)" fill="gray" opacity="0.7" style="mix-blend-mode: multiply;isolation: isolate"/>
        <path id="Path_6779" data-name="Path 6779" d="M411.829,374.435c.083-.9.168-1.809.219-2.71l.007-.134q.018-.351.028-.7c0-.056,0-.112,0-.168s0-.109,0-.164l0,.006a16.086,16.086,0,0,0-.249-3.306,43.043,43.043,0,0,1-.589-8.269l.006,0c0-.252.007-.505.014-.756l-.006,0v-.006c.014-.94.038-1.884.063-2.834l.01.006q.032-1.12.052-2.262l-.013,0v-.019c-.133-.026-.27-.042-.417-.062a43.826,43.826,0,0,0-6.519-.484c-2.689.083-5.378.9-8.067,1.227a12.411,12.411,0,0,1-1.391.044c-.083,0-.167,0-.25,0q-.325-.011-.65-.035l-.147-.012c-3.328-.273-6.636-1.421-10.025-.914a32.216,32.216,0,0,1,1.721,5.185c.043.232.075.466.095.7a7.6,7.6,0,0,1,.03,1.016c-.109,2.608-1.085,5-1.084,7.609,0,.8.03,1.58.075,2.346l0,0c0,.047.008.092.01.139q.035.547.08,1.091c.01.124.02.249.031.371.026.287.055.574.083.862.111,1.089.241,2.188.375,3.342a35.374,35.374,0,0,1-.28,5.6c2.882.111,5.649-.391,8.534-.561l.008-.009c.326-.019.653-.038.983-.047a41.6,41.6,0,0,1,6.82.387l0,.014c1.2.16,2.4.361,3.609.586a20.138,20.138,0,0,0,6.906-.055l0-.02.01,0A23.384,23.384,0,0,1,411.829,374.435Z" transform="translate(-383.911 -352.554)" fill="#c3dde4"/>
        <g id="Group_6784" data-name="Group 6784">
          <g id="Group_6770" data-name="Group 6770" transform="translate(3.754 10.97)">
            <path id="Path_6780" data-name="Path 6780" d="M401.623,375.172l-1.858,2.616a2.533,2.533,0,0,0-1.811.18c-2.347-1.57-3.978-2.728-6.164-4.469-2.059-1.906-3.823-4.515-2.982-7.262C392.7,369.9,397.843,371.561,401.623,375.172Z" transform="translate(-388.591 -366.233)" fill="#fff"/>
            <path id="Path_6781" data-name="Path 6781" d="M412.072,384.88a1.9,1.9,0,0,1-2.642.449l-7.047-5.014a1.543,1.543,0,0,1-2.031.651c-.6-.273-.432-.774.192-.5.328.141.687-.237,1.031-.8a21.1,21.1,0,0,0,1.214-2.718c.053-.132.115-.264.167-.379.44-.878,1.037-1.441,2.137-1.047.635.237.439.74-.192.51-.342-.131-.626.23-.89.8a1.226,1.226,0,0,1,.114.08l7.5,5.331A1.892,1.892,0,0,1,412.072,384.88Z" transform="translate(-390.846 -368.045)" fill="#375a45"/>
            <path id="Path_6782" data-name="Path 6782" d="M395.773,376.469c-1.335-.922-2.536-1.821-3.985-2.972-2.059-1.909-3.823-4.517-2.984-7.266.453.419.919.822,1.4,1.2.169,1.094-.153,2.405,1.148,3.169,1.844,1.142,2.3.506,3.31-.229.939.559,1.881,1.105,2.8,1.679-.6.613-1.42,1.052-1.757,1.761C395.233,374.729,395.765,375.571,395.773,376.469Z" transform="translate(-388.591 -366.232)" fill="#c2000b"/>
          </g>
          <g id="Group_6783" data-name="Group 6783">
            <g id="Group_6771" data-name="Group 6771" opacity="0.43" style="mix-blend-mode: multiply;isolation: isolate">
              <path id="Path_6783" data-name="Path 6783" d="M411.909,381.436a20.146,20.146,0,0,1-6.907.06,47.892,47.892,0,0,0-10.431-.971c-3.243.1-6.31.734-9.518.612a35.435,35.435,0,0,0,.277-5.6,68.745,68.745,0,0,1-.658-8.149c0-2.607.975-5,1.084-7.609a7.626,7.626,0,0,0-.031-1.016c-.02-.235-.052-.469-.1-.7a32.21,32.21,0,0,0-1.72-5.185c4.214-.631,8.3,1.3,12.462.922,2.689-.328,5.377-1.144,8.067-1.228a43.827,43.827,0,0,1,6.519.484c.147.02.284.036.417.062-.025,1.734-.089,3.426-.114,5.111-.006.251-.01.505-.013.756a42.986,42.986,0,0,0,.59,8.275C412.732,371.911,410.919,376.75,411.909,381.436Z" transform="translate(-383.911 -352.554)" fill="#86898e"/>
            </g>
            <g id="Group_6772" data-name="Group 6772" transform="translate(0.837 16.122)" opacity="0.4">
              <path id="Path_6784" data-name="Path 6784" d="M396.809,383.847c-.867.218-1.845-.164-2.66.381a1.727,1.727,0,0,0-.362.333c-2.885.169-5.652.671-8.534.561a35.378,35.378,0,0,0,.28-5.6c-.235-2.024-.466-3.879-.58-5.805a2.831,2.831,0,0,1,1.968-1.056c.164,1.467-1.467,2.334-1.522,3.586,0,.378.652,1.682,1.089,1.793.978.27,1.3-1.685,2.008-1.74,1.141,0,.652,1.685.382,2.119-.76,1.14-1.848,3.911.163,4.348.76.163,1.359-.218,2.064-.111,1.141.163,2.011.763,3.26.436.815-.218,2.5-1.088,3.315-.488C398.387,383.139,397.409,383.739,396.809,383.847Z" transform="translate(-384.954 -372.656)" fill="#fff"/>
            </g>
            <g id="Group_6773" data-name="Group 6773" transform="translate(2.262 0.252)" opacity="0.64">
              <path id="Path_6785" data-name="Path 6785" d="M395.153,357.438c-1.141.163-.651-.815-1.466-1.2a.982.982,0,0,0-1.3.707,5.759,5.759,0,0,0,.349,1.8,2.363,2.363,0,0,1,.052.61,1.331,1.331,0,0,1-.023.2c-.215,1.141-.7,1.248-1.574,1.848a12.873,12.873,0,0,0-3.967,4.237c-.867-.652-.378-2.607-.052-3.478.541-1.412,1.842-1.793,2.605-2.931l0,0a2.019,2.019,0,0,0,.206-.61c.212-.994.186-2.611-.587-2.053-.658.505-.28,1.437-1.186,1.868l-.2-.026a5.485,5.485,0,0,0,.078-2.872c-.172-.82-.825-1.848-.541-2.669,2.85.225,5.663,1.1,8.5,1.043a8.917,8.917,0,0,0-.029,1.841C396.131,356.568,396.238,357.275,395.153,357.438Z" transform="translate(-386.731 -352.868)" fill="#fff"/>
            </g>
            <g id="Group_6774" data-name="Group 6774" transform="translate(17.476 18.003)" opacity="0.54">
              <path id="Path_6786" data-name="Path 6786" d="M416.217,385.9a20.145,20.145,0,0,1-6.907.055c-1.212-.225-2.409-.427-3.608-.586.209-.9.584-1.558,1.571-1.331a6.667,6.667,0,0,0,2.555.434c1.249-.163,2.064-.978,3.1-1.63.815-.6,1.574-.815,1.519-1.849-.052-.815-.379-1.412-1.193-1.467-1.685-.107-3.1,2.174-3.8,3.371-1.034-.545-.327-2.337.107-3.1.707-1.2,1.848-1.686,2.989-2.392,1.248-.731,3.073-1.154,3.863-2.409C416.35,378.623,415.46,382.306,416.217,385.9Z" transform="translate(-405.701 -375.001)" fill="#fff"/>
            </g>
            <g id="Group_6775" data-name="Group 6775" transform="translate(9.631 8.417)" opacity="0.48">
              <path id="Path_6787" data-name="Path 6787" d="M407.943,372.221c-2.008.815-3.749-.436-5.756-.436-2.445.055-3.478,2.5-4.4,4.4-.273.489-.87,2.392-1.3,2.392-.763-.055-.6-1.848-.382-2.23.434-.815,1.2-.867,1.3-1.955.163-1.3,0-2.552.978-3.638,1.249-1.359,3.478-1.415,5.16-1.685.87-.163,2.607-.27,2.174-1.685-.381-1.193-1.737,0-2.444-.7-.76-.707.218-1.359-1.3-1.467-2.337-.111-3.8,2.282-6.031,2.389-.1-2.222,1.611-1.838,2.8-3.149a19.229,19.229,0,0,0,2.086-.926,2.068,2.068,0,0,1,2.282-.218c.815.488.6,1.74,1.141,2.118.219.164,1.249-.215,1.63-.107a3.652,3.652,0,0,1,1.3.6c.707.437,1.3.87,1.956,1.3.6.326,2.063.815,2.337,1.467C411.91,370.1,408.869,371.9,407.943,372.221Z" transform="translate(-395.919 -363.049)" fill="#fff"/>
            </g>
            <g id="Group_6776" data-name="Group 6776" transform="translate(22.836 0.076)" opacity="0.64">
              <path id="Path_6788" data-name="Path 6788" d="M417.024,353.154q-.019,1.143-.051,2.262a6,6,0,0,0-1.748-.792c-.111.434-.055,1.034-.163,1.467-.818-1.16-1.874-2.255-2.679-3.442,1.4.091,2.8.283,4.224.443C416.754,353.112,416.891,353.128,417.024,353.154Z" transform="translate(-412.383 -352.649)" fill="#fff"/>
            </g>
            <g id="Group_6782" data-name="Group 6782" transform="translate(1.727 4.905)">
              <g id="Group_6779" data-name="Group 6779" transform="translate(11.132 3.217)">
                <g id="Group_6777" data-name="Group 6777">
                  <path id="Path_6789" data-name="Path 6789" d="M412.348,370.409c-4.123,1.14-8.032-.815-12.154.325-.1-3.03-.151-4.545-.25-7.576,4.108-1.192,8.04.714,12.149-.477C412.2,365.772,412.246,367.318,412.348,370.409Z" transform="translate(-399.944 -362.681)" fill="#fff"/>
                </g>
                <g id="Group_6778" data-name="Group 6778" transform="translate(0.978 1.034)">
                  <path id="Path_6790" data-name="Path 6790" d="M411.522,366.431c-3.73.4-6.557-.573-10.286-.172-.029-.87-.043-1.3-.072-2.175,3.726-.431,6.558.525,10.284.091C411.478,365.077,411.493,365.529,411.522,366.431Z" transform="translate(-401.164 -363.97)" fill="#7372a3"/>
                </g>
              </g>
              <g id="Group_6780" data-name="Group 6780" transform="translate(12.3 7.821)">
                <path id="Path_6791" data-name="Path 6791" d="M402.3,370.552a.684.684,0,0,1-.115,0,1.059,1.059,0,0,1-.772-.678.151.151,0,0,1,.025-.171,5.463,5.463,0,0,1,2.517-.9,4.3,4.3,0,0,1,.313-.335.151.151,0,0,1,.206.221l-.06.058a2.6,2.6,0,0,1,1.07.066.151.151,0,0,1,.093.165,1.882,1.882,0,0,1-.128.4.8.8,0,0,1,.992.146,3.047,3.047,0,0,1,1.534-.041l.121.015a3.581,3.581,0,0,1,2.239-.34,1.037,1.037,0,0,1,.705.492.151.151,0,1,1-.265.144.749.749,0,0,0-.512-.342,3.315,3.315,0,0,0-1.8.205v.018a.151.151,0,0,1-.147.148l-.226.008a.153.153,0,0,1-.109-.041l-.046-.006c-.43-.053-1.229-.149-1.421.054a.15.15,0,0,1-.238-.022c-.21-.334-.435-.267-.845-.109-.069.026-.139.053-.209.076a.15.15,0,0,1-.189-.195c.028-.079.062-.157.1-.236.043-.1.087-.2.116-.3a3.735,3.735,0,0,0-1.141.031l-.126.149C403.471,369.844,402.893,370.533,402.3,370.552Zm-.563-.718a.708.708,0,0,0,.484.413c.434.051.99-.569,1.426-1.085A5.469,5.469,0,0,0,401.739,369.834Z" transform="translate(-401.4 -368.421)" fill="#ccc"/>
              </g>
              <g id="Group_6781" data-name="Group 6781">
                <path id="Path_6792" data-name="Path 6792" d="M411.694,359.445c-.006.251-.01.5-.013.756-3.605-1.448-8.23-.845-11.82-.274a43.226,43.226,0,0,1-13.7.036c-.02-.235-.052-.469-.095-.7a37.446,37.446,0,0,0,7.607.61c2.793-.075,5.474-.567,8.234-.913C404.885,358.587,408.621,358.415,411.694,359.445Z" transform="translate(-386.064 -358.669)" fill="#fdbb5d"/>
              </g>
            </g>
          </g>
        </g>
      </g>
    </g>
  </g>
  <g id="Group_6572" data-name="Group 6572" transform="translate(4.248 16.64)" opacity="0.7">
    <g id="Group_6568" data-name="Group 6568" transform="translate(9.773 86.983)">
      <path id="Path_6137" data-name="Path 6137" d="M270.359,176.462h-.1a.512.512,0,0,1-.423-.223.557.557,0,0,1,.105-.753.5.5,0,0,1,.567-.027.513.513,0,0,1-.147,1Zm-.1-.634-.057.039Z" transform="translate(-269.734 -175.381)" fill="#fff"/>
    </g>
    <g id="Group_6569" data-name="Group 6569" transform="translate(11.915 87.039)">
      <path id="Path_6138" data-name="Path 6138" d="M360.658,176.488h-.2a.512.512,0,1,1,0-1.025h.2a.512.512,0,1,1,0,1.025Zm-2.232,0h-.2a.512.512,0,0,1,0-1.025h.2a.512.512,0,0,1,0,1.025Zm-2.233,0h-.2a.512.512,0,1,1,0-1.025h.2a.512.512,0,0,1,0,1.025Zm-2.232,0h-.2a.512.512,0,1,1,0-1.025h.2a.512.512,0,0,1,0,1.025Zm-2.233,0h-.2a.512.512,0,1,1,0-1.025h.2a.512.512,0,0,1,0,1.025Zm-2.232,0h-.2a.512.512,0,1,1,0-1.025h.2a.512.512,0,1,1,0,1.025Zm-2.233,0h-.2a.512.512,0,0,1,0-1.025h.2a.512.512,0,1,1,0,1.025Zm-2.232,0h-.2a.512.512,0,1,1,0-1.025h.2a.512.512,0,1,1,0,1.025Zm-2.232,0h-.2a.512.512,0,1,1,0-1.025h.2a.512.512,0,0,1,0,1.025Zm-2.233,0h-.2a.512.512,0,0,1,0-1.025h.2a.512.512,0,0,1,0,1.025Zm-2.232,0h-.2a.512.512,0,1,1,0-1.025h.2a.512.512,0,0,1,0,1.025Zm-2.233,0h-.2a.512.512,0,0,1,0-1.025h.2a.512.512,0,0,1,0,1.025Zm-2.232,0h-.2a.512.512,0,0,1,0-1.025h.2a.512.512,0,1,1,0,1.025Zm-2.233,0h-.2a.512.512,0,0,1,0-1.025h.2a.512.512,0,0,1,0,1.025Zm-2.232,0h-.2a.512.512,0,1,1,0-1.025h.2a.512.512,0,0,1,0,1.025Zm-2.232,0h-.2a.512.512,0,0,1,0-1.025h.2a.512.512,0,0,1,0,1.025Zm-2.232,0h-.2a.512.512,0,1,1,0-1.025h.2a.512.512,0,1,1,0,1.025Zm-2.233,0h-.2a.512.512,0,0,1,0-1.025h.2a.512.512,0,0,1,0,1.025Zm-2.233,0h-.2a.512.512,0,0,1,0-1.025h.2a.512.512,0,1,1,0,1.025Zm-2.232,0h-.2a.512.512,0,0,1,0-1.025h.2a.512.512,0,1,1,0,1.025Zm-2.233,0h-.2a.512.512,0,0,1,0-1.025h.2a.512.512,0,1,1,0,1.025Zm-2.232,0h-.2a.512.512,0,0,1,0-1.025h.2a.512.512,0,0,1,0,1.025Zm-2.233,0h-.2a.512.512,0,1,1,0-1.025h.2a.512.512,0,0,1,0,1.025Zm-2.232,0h-.2a.512.512,0,0,1,0-1.025h.2a.512.512,0,0,1,0,1.025Zm-2.233,0h-.2a.512.512,0,1,1,0-1.025h.2a.512.512,0,0,1,0,1.025Zm-2.232,0h-.2a.512.512,0,1,1,0-1.025h.2a.512.512,0,1,1,0,1.025Zm-2.232,0h-.2a.512.512,0,0,1,0-1.025h.2a.512.512,0,1,1,0,1.025Zm-2.233,0h-.2a.512.512,0,1,1,0-1.025h.2a.512.512,0,0,1,0,1.025Zm-2.232,0h-.2a.512.512,0,1,1,0-1.025h.2a.512.512,0,0,1,0,1.025Zm-2.233,0h-.2a.512.512,0,1,1,0-1.025h.2a.512.512,0,0,1,0,1.025Zm-2.232,0h-.2a.512.512,0,1,1,0-1.025h.2a.512.512,0,1,1,0,1.025Zm-2.233,0h-.2a.512.512,0,0,1,0-1.025h.2a.512.512,0,0,1,0,1.025Zm-2.232,0h-.2a.512.512,0,1,1,0-1.025h.2a.512.512,0,1,1,0,1.025Zm-2.232,0h-.2a.512.512,0,0,1,0-1.025h.2a.512.512,0,1,1,0,1.025Zm-2.233,0h-.2a.512.512,0,0,1,0-1.025h.2a.512.512,0,0,1,0,1.025Zm-2.232,0h-.2a.512.512,0,0,1,0-1.025h.2a.512.512,0,1,1,0,1.025Zm-2.233,0h-.2a.512.512,0,0,1,0-1.025h.2a.512.512,0,0,1,0,1.025Zm-2.232,0h-.2a.512.512,0,0,1,0-1.025h.2a.512.512,0,0,1,0,1.025Zm-2.233,0h-.2a.512.512,0,1,1,0-1.025h.2a.512.512,0,1,1,0,1.025Zm-2.232,0h-.2a.512.512,0,1,1,0-1.025h.2a.512.512,0,0,1,0,1.025Z" transform="translate(-272.87 -175.463)" fill="#fff"/>
    </g>
    <g id="Group_6570" data-name="Group 6570" transform="translate(101.22 87.009)">
      <path id="Path_6139" data-name="Path 6139" d="M404.216,176.474h-.1a.513.513,0,0,1-.019-1.025.5.5,0,0,1,.439.048.472.472,0,0,1,.163.671A.712.712,0,0,1,404.216,176.474Z" transform="translate(-403.601 -175.419)" fill="#fff"/>
    </g>
    <g id="Group_6571" data-name="Group 6571">
      <path id="Path_6140" data-name="Path 6140" d="M358.448,134.319a.5.5,0,0,1-.274-.08.512.512,0,0,1-.158-.707l.109-.173a.512.512,0,0,1,.866.548l-.111.175A.513.513,0,0,1,358.448,134.319Zm-94.382-.3-.111-.176a.512.512,0,0,1,.871-.54l.077.124-.4.32Zm-.732-1.692a.513.513,0,0,1-.445-.256l-.1-.179a.512.512,0,1,1,.889-.51l.1.177a.512.512,0,0,1-.188.7A.506.506,0,0,1,263.334,132.328Zm96.751-.235-.467-.216-.421-.3.081-.141a.512.512,0,0,1,.885.517Zm-.467-.216h0Zm1.09-1.464a.5.5,0,0,1-.24-.059.511.511,0,0,1-.212-.693l.094-.181a.512.512,0,0,1,.906.478l-.1.183A.511.511,0,0,1,360.707,130.413Zm-98.461-.063a.512.512,0,0,1-.454-.273l-.1-.186a.512.512,0,1,1,.91-.47l.093.178a.512.512,0,0,1-.215.692A.506.506,0,0,1,262.246,130.35Zm99.469-1.955a.513.513,0,0,1-.462-.732l.088-.184a.512.512,0,0,1,.926.438l-.088.186A.514.514,0,0,1,361.715,128.4Zm-100.474-.065a.514.514,0,0,1-.464-.292l-.087-.187a.512.512,0,1,1,.926-.438l.088.184a.513.513,0,0,1-.462.733Zm101.4-1.993a.505.505,0,0,1-.2-.041.512.512,0,0,1-.271-.672l.078-.184a.512.512,0,1,1,.947.391l-.081.194A.513.513,0,0,1,362.641,126.337Zm-102.323-.067a.512.512,0,0,1-.472-.313l-.08-.189a.512.512,0,1,1,.943-.4l.08.189a.512.512,0,0,1-.272.672A.5.5,0,0,1,260.318,126.27Zm103.163-2.027a.489.489,0,0,1-.18-.033.513.513,0,0,1-.3-.66l.07-.187a.513.513,0,1,1,.963.351l-.074.2A.512.512,0,0,1,363.481,124.243Zm-104-.069a.511.511,0,0,1-.48-.333l-.072-.192a.512.512,0,0,1,.96-.359l.072.192a.512.512,0,0,1-.3.659A.507.507,0,0,1,259.479,124.174Zm104.756-2.058a.512.512,0,0,1-.486-.673l.064-.194a.512.512,0,0,1,.973.32l-.064.2A.513.513,0,0,1,364.235,122.117Zm-105.507-.07a.513.513,0,0,1-.486-.349l-.066-.2a.513.513,0,1,1,.974-.32l.063.192a.513.513,0,0,1-.322.649A.525.525,0,0,1,258.728,122.046ZM364.9,119.962a.528.528,0,0,1-.14-.02.512.512,0,0,1-.353-.633l.057-.2a.512.512,0,1,1,.984.282l-.055.2A.513.513,0,0,1,364.9,119.962Zm-106.835-.072a.513.513,0,0,1-.493-.372l-.056-.2a.512.512,0,0,1,.986-.279l.056.2a.512.512,0,0,1-.352.633A.529.529,0,0,1,258.065,119.889ZM365.48,117.78a.522.522,0,0,1-.121-.014.513.513,0,0,1-.378-.618l.047-.195a.512.512,0,1,1,1,.232l-.049.2A.513.513,0,0,1,365.48,117.78Zm-107.99-.074a.513.513,0,0,1-.5-.393l-.048-.2a.512.512,0,1,1,1-.238l.048.2a.51.51,0,0,1-.5.631Zm108.477-2.128a.52.52,0,0,1-.1-.01.511.511,0,0,1-.4-.6l.038-.2a.513.513,0,0,1,1.008.191l-.041.206A.513.513,0,0,1,365.967,115.578ZM257,115.5a.51.51,0,0,1-.5-.412l-.04-.2a.512.512,0,0,1,1-.2l.04.2a.512.512,0,0,1-.4.6A.5.5,0,0,1,257,115.5Zm109.36-2.144a.542.542,0,0,1-.081-.006.513.513,0,0,1-.426-.586l.031-.2a.512.512,0,0,1,1.014.151l-.032.206A.512.512,0,0,1,366.364,113.357Zm-109.754-.078a.512.512,0,0,1-.506-.433l-.032-.2a.512.512,0,0,1,1.012-.16l.032.2a.513.513,0,0,1-.427.585A.526.526,0,0,1,256.61,113.279Zm110.061-2.157a.463.463,0,0,1-.061,0,.512.512,0,0,1-.449-.568l.022-.193a.52.52,0,0,1,.56-.46.512.512,0,0,1,.459.56l-.023.213A.513.513,0,0,1,366.67,111.122ZM255.8,110.59l-.024-.209a.513.513,0,0,1,1.019-.11l.022.189Zm111.09-1.713-.041,0a.513.513,0,0,1-.471-.551l.014-.194a.525.525,0,0,1,.542-.481.512.512,0,0,1,.482.542l-.015.213A.514.514,0,0,1,366.888,108.877ZM256.094,108.8a.512.512,0,0,1-.51-.468l-.016-.215a.512.512,0,0,1,.477-.546.518.518,0,0,1,.546.476l.014.2a.512.512,0,0,1-.466.555Zm110.917-2.171h-.02a.512.512,0,0,1-.492-.532l.006-.2a.513.513,0,0,1,.512-.5h.015a.513.513,0,0,1,.5.527l-.007.209A.511.511,0,0,1,367.011,106.624Zm-111.04-.083a.512.512,0,0,1-.511-.493l-.007-.21a.513.513,0,0,1,.5-.527.5.5,0,0,1,.527.5l.005.2a.511.511,0,0,1-.491.532Zm111.075-2.173a.512.512,0,0,1-.512-.512v-.2a.512.512,0,0,1,.508-.518h0a.512.512,0,0,1,.512.508v.21A.512.512,0,0,1,367.046,104.368Zm-111.106-.085a.513.513,0,0,1-.512-.512v-.21a.512.512,0,0,1,.512-.507h0a.512.512,0,0,1,.508.517v.2A.513.513,0,0,1,255.94,104.283Zm111.05-2.17a.511.511,0,0,1-.511-.488l-.01-.2a.513.513,0,0,1,.487-.537.527.527,0,0,1,.536.487l.01.2a.513.513,0,0,1-.487.537ZM256,102.027h-.021a.512.512,0,0,1-.492-.532l.01-.21a.537.537,0,0,1,.536-.486.512.512,0,0,1,.487.537l-.01.2A.511.511,0,0,1,256,102.027Zm110.845-2.166a.512.512,0,0,1-.51-.467l-.018-.2a.512.512,0,1,1,1.021-.089l.018.2a.513.513,0,0,1-.466.555Zm-110.7-.086-.046,0a.513.513,0,0,1-.465-.555l.018-.2a.525.525,0,0,1,.555-.465.512.512,0,0,1,.466.555l-.018.2A.512.512,0,0,1,256.148,99.775Zm110.461-2.157a.513.513,0,0,1-.508-.448l-.026-.2a.512.512,0,1,1,1.016-.129l.026.2a.513.513,0,0,1-.443.573A.528.528,0,0,1,366.609,97.618Zm-110.22-.086a.529.529,0,0,1-.066,0,.512.512,0,0,1-.443-.573l.026-.2a.512.512,0,1,1,1.016.13l-.026.2A.512.512,0,0,1,256.388,97.532Zm109.894-2.146a.512.512,0,0,1-.5-.427l-.033-.2a.512.512,0,1,1,1.008-.178l.036.207a.512.512,0,0,1-.42.59A.52.52,0,0,1,366.282,95.386ZM256.719,95.3a.522.522,0,0,1-.085-.007.512.512,0,0,1-.42-.59l.034-.2a.512.512,0,1,1,1.01.17l-.034.2A.512.512,0,0,1,256.719,95.3Zm109.145-2.132a.513.513,0,0,1-.5-.408l-.042-.2a.512.512,0,0,1,1-.22l.044.206a.513.513,0,0,1-.5.617Zm-108.219-.509-1.007-.193.044-.2a.512.512,0,0,1,1,.22ZM365.356,90.97a.513.513,0,0,1-.5-.387l-.05-.195a.513.513,0,0,1,.992-.259l.052.2a.513.513,0,0,1-.372.622A.531.531,0,0,1,365.356,90.97Zm-107.2-.491-1-.23.052-.2a.512.512,0,1,1,.991.26ZM364.76,88.794a.512.512,0,0,1-.491-.368l-.057-.192a.512.512,0,0,1,.98-.3l.06.2a.511.511,0,0,1-.347.636A.506.506,0,0,1,364.76,88.794Zm-106.509-.083a.514.514,0,0,1-.492-.657l.061-.2a.512.512,0,0,1,.98.3l-.057.191A.514.514,0,0,1,258.251,88.711Zm105.822-2.073a.512.512,0,0,1-.485-.348l-.064-.187a.512.512,0,0,1,.965-.346l.07.2a.511.511,0,0,1-.485.676Zm-104.638-.45-.98-.3.068-.2a.512.512,0,1,1,.967.339ZM363.3,84.513a.515.515,0,0,1-.479-.328L362.747,84a.512.512,0,0,1,.949-.387l.079.2a.512.512,0,0,1-.478.7Zm-103.58-.068a.505.505,0,0,1-.185-.035.512.512,0,0,1-.293-.663l.076-.2a.512.512,0,0,1,.952.378l-.073.187A.513.513,0,0,1,259.717,84.445Zm102.717-2.023a.514.514,0,0,1-.471-.308l-.08-.183a.512.512,0,0,1,.935-.419l.085.194a.512.512,0,0,1-.266.674A.5.5,0,0,1,362.434,82.421Zm-101.858-.056a.513.513,0,0,1-.468-.722l.081-.183a.512.512,0,1,1,.938.411l-.084.191A.512.512,0,0,1,260.576,82.365Zm100.912-2a.513.513,0,0,1-.462-.288l-.089-.184a.512.512,0,1,1,.92-.45l.091.186a.512.512,0,0,1-.237.684A.5.5,0,0,1,361.488,80.368Zm-99.969-.045a.512.512,0,0,1-.46-.736l.091-.186a.512.512,0,0,1,.919.452l-.089.182A.512.512,0,0,1,261.519,80.323Zm98.939-1.967a.512.512,0,0,1-.451-.268l-.1-.183a.513.513,0,0,1,.9-.482l.1.178a.512.512,0,0,1-.45.756Zm-97.913-.036a.505.505,0,0,1-.24-.06.513.513,0,0,1-.212-.693l.1-.184a.512.512,0,0,1,.9.49l-.1.176A.512.512,0,0,1,262.546,78.319Zm96.8-1.932a.512.512,0,0,1-.442-.253l-.1-.172a.512.512,0,0,1,.878-.529l.107.182a.511.511,0,0,1-.182.7A.5.5,0,0,1,359.348,76.387Zm-95.694-.029a.512.512,0,0,1-.438-.776l.1-.173a.512.512,0,1,1,.882.521l-.107.18A.512.512,0,0,1,263.654,76.359Zm94.506-1.892a.514.514,0,0,1-.43-.233l-.113-.176a.512.512,0,0,1,.863-.552l.109.169a.511.511,0,0,1-.15.708A.5.5,0,0,1,358.16,74.466Zm-93.319-.023a.512.512,0,0,1-.43-.79l.114-.174a.512.512,0,1,1,.857.562l-.11.169A.512.512,0,0,1,264.841,74.444ZM356.894,72.6a.511.511,0,0,1-.42-.218l-.116-.163a.513.513,0,0,1,.833-.6l.122.172a.512.512,0,0,1-.418.807Zm-90.79-.018a.512.512,0,0,1-.415-.811l.117-.164a.512.512,0,1,1,.836.591l-.12.171A.513.513,0,0,1,266.1,72.578Zm1.339-1.814a.512.512,0,0,1-.406-.824l.128-.165a.512.512,0,1,1,.809.629l-.123.159A.514.514,0,0,1,267.443,70.764Zm87.7-.185.406-.314-.441.268-.092-.12a.513.513,0,0,1,.814-.623l.089.115-.37.359Zm-1.007-1.562a.51.51,0,0,1-.392-.183l-.134-.159a.513.513,0,0,1,.79-.654l.129.155a.512.512,0,0,1-.393.842Zm-85.286-.011a.513.513,0,0,1-.393-.842l.132-.156a.512.512,0,1,1,.784.659l-.132.157A.51.51,0,0,1,268.855,69.006Zm83.8-1.691a.511.511,0,0,1-.379-.168l-.137-.15a.512.512,0,1,1,.756-.691l.139.153a.513.513,0,0,1-.38.857Zm-82.322-.009a.513.513,0,0,1-.38-.856l.14-.154a.512.512,0,0,1,.757.691l-.137.15A.509.509,0,0,1,270.336,67.306Zm80.774-1.632a.511.511,0,0,1-.365-.152l-.143-.145a.512.512,0,0,1,.727-.722l.146.147a.513.513,0,0,1-.365.872Zm-79.225-.008a.513.513,0,0,1-.365-.872l.144-.146a.513.513,0,0,1,.73.72l-.144.146A.512.512,0,0,1,271.884,65.666ZM349.5,64.1a.512.512,0,0,1-.35-.137l-.152-.143a.512.512,0,0,1,.7-.745l.147.138a.512.512,0,0,1-.349.887Zm-76-.008a.513.513,0,0,1-.35-.887l.15-.14a.512.512,0,0,1,.7.749l-.15.14A.509.509,0,0,1,273.5,64.09Zm74.32-1.5a.513.513,0,0,1-.336-.126l-.107-.093.289-.428.335-.387.156.135a.513.513,0,0,1-.337.9Zm-72.643-.009a.513.513,0,0,1-.337-.9l.159-.136a.512.512,0,1,1,.667.777l-.152.132A.509.509,0,0,1,275.176,62.579Zm70.908-1.432a.508.508,0,0,1-.32-.113l-.159-.126a.512.512,0,1,1,.637-.8l.162.128a.512.512,0,0,1-.32.913Zm-69.17-.01a.512.512,0,0,1-.318-.915l.16-.127a.512.512,0,1,1,.637.8l-.162.128A.507.507,0,0,1,276.914,61.138Zm67.379-1.359a.509.509,0,0,1-.3-.1l-.167-.121a.513.513,0,0,1,.605-.827l.165.12a.512.512,0,0,1-.3.926Zm-65.585-.011a.513.513,0,0,1-.3-.927l.166-.121a.512.512,0,1,1,.6.828l-.166.121A.5.5,0,0,1,278.708,59.768Zm63.741-1.284a.512.512,0,0,1-.285-.087L342,58.284a.512.512,0,1,1,.567-.853l.172.115a.513.513,0,0,1-.286.938Zm-61.892-.013a.512.512,0,0,1-.286-.938l.17-.114a.512.512,0,0,1,.571.851l-.172.114A.51.51,0,0,1,280.557,58.47Zm60-1.206a.505.505,0,0,1-.268-.077l-.173-.105a.512.512,0,0,1,.534-.875l.176.108a.512.512,0,0,1-.268.949Zm-58.1-.016a.512.512,0,0,1-.271-.947l.18-.109a.512.512,0,1,1,.532.875l-.171.105A.51.51,0,0,1,282.458,57.249Zm56.155-1.125a.5.5,0,0,1-.25-.066l-.176-.1a.512.512,0,0,1,.5-.9l.18.1a.512.512,0,0,1-.251.958Zm-54.207-.018a.513.513,0,0,1-.249-.96l.18-.1a.512.512,0,0,1,.5.9l-.18.1A.514.514,0,0,1,284.405,56.106Zm52.221-1.042a.512.512,0,0,1-.232-.056l-.18-.092a.512.512,0,0,1,.462-.915l.184.094a.512.512,0,0,1-.233.969ZM286.4,55.042a.512.512,0,0,1-.232-.969l.186-.094a.512.512,0,1,1,.458.917l-.182.092A.5.5,0,0,1,286.4,55.042Zm48.2-.957a.513.513,0,0,1-.213-.046l-.185-.085a.512.512,0,0,1,.426-.932l.185.085a.512.512,0,0,1-.212.978Zm-46.163-.024a.512.512,0,0,1-.213-.978l.19-.086a.512.512,0,1,1,.422.934l-.186.084A.51.51,0,0,1,288.437,54.061Zm44.1-.872a.52.52,0,0,1-.195-.038l-.187-.077a.512.512,0,0,1,.384-.95l.193.079a.513.513,0,0,1-.2.986Zm-42.022-.026a.512.512,0,0,1-.193-.987l.191-.078a.512.512,0,0,1,.384.95l-.19.077A.519.519,0,0,1,290.513,53.164Zm39.918-.786a.512.512,0,0,1-.176-.031l-.189-.068a.512.512,0,1,1,.343-.965l.2.071a.512.512,0,0,1-.176.994Zm-37.805-.025a.512.512,0,0,1-.174-.994l.2-.07a.512.512,0,1,1,.343.965l-.192.069A.512.512,0,0,1,292.625,52.352Zm35.669-.7a.506.506,0,0,1-.154-.025l-.194-.061a.512.512,0,1,1,.307-.978l.2.062a.512.512,0,0,1-.155,1Zm-33.525-.025a.512.512,0,0,1-.152-1l.2-.062a.512.512,0,0,1,.3.978l-.2.061A.5.5,0,0,1,294.769,51.628Zm31.361-.613A.518.518,0,0,1,326,51l-.2-.053a.512.512,0,0,1,.266-.99l.2.055a.513.513,0,0,1-.135,1.007Zm-29.195-.022a.512.512,0,0,1-.135-1.006l.2-.054a.512.512,0,1,1,.265.99l-.2.053A.51.51,0,0,1,296.935,50.993Zm27.007-.527a.52.52,0,0,1-.115-.013l-.2-.045a.513.513,0,0,1,.225-1l.2.046a.512.512,0,0,1-.114,1.012Zm-24.818-.018a.513.513,0,0,1-.112-1.012l.2-.045a.513.513,0,1,1,.225,1l-.2.045A.534.534,0,0,1,299.124,50.448Zm22.609-.44a.508.508,0,0,1-.1-.009l-.146-.027.039-.514.094-.5.2.037a.513.513,0,0,1-.094,1.016Zm-20.4-.015a.512.512,0,0,1-.092-1.016l.2-.037a.512.512,0,0,1,.184,1.008l-.2.037A.532.532,0,0,1,301.334,49.993Zm18.172-.353a.444.444,0,0,1-.073-.005l-.2-.028a.513.513,0,0,1,.144-1.015l.2.029a.512.512,0,0,1-.072,1.019Zm-15.947-.012a.512.512,0,0,1-.072-1.019l.207-.029a.512.512,0,0,1,.139,1.015l-.2.028A.447.447,0,0,1,303.56,49.628Zm13.708-.266-.053,0-.2-.02a.512.512,0,0,1,.1-1.02l.207.02a.512.512,0,0,1-.052,1.022ZM305.8,49.354a.512.512,0,0,1-.052-1.022l.206-.021a.507.507,0,0,1,.56.46.513.513,0,0,1-.46.56l-.2.02Zm9.22-.178h-.033l-.2-.012a.513.513,0,0,1-.482-.541.5.5,0,0,1,.542-.482l.208.012a.513.513,0,0,1-.032,1.024Zm-6.971-.005a.512.512,0,0,1-.029-1.024l.2-.012a.512.512,0,1,1,.059,1.023l-.2.012Zm4.716-.091h-.013l-.2,0a.512.512,0,1,1,.02-1.025l.208,0a.512.512,0,0,1-.013,1.025Zm-2.463,0a.512.512,0,0,1-.01-1.025l.206,0a.537.537,0,0,1,.522.5.513.513,0,0,1-.5.523l-.206,0Z" transform="translate(-255.428 -48.05)" fill="#fff"/>
    </g>
  </g>
</svg>
