<svg id="export-share-icon" xmlns="http://www.w3.org/2000/svg" width="18.134" height="16.87" viewBox="0 0 18.134 16.87">
  <path id="Path_40372" data-name="Path 40372" d="M48.1,5.208,42.94,10.415V7.821c-3.26-.675-5.835.069-7.791,2.549.34-5.1,3.823-7.561,7.791-7.724V0L48.1,5.208Z" transform="translate(-29.962)" fill-rule="evenodd"/>
  <path id="Path_40373" data-name="Path 40373" d="M1.019,23.746H6.277a10.341,10.341,0,0,0-1.81,2.039H2.039v9.289H13.934V32.908l2.039-2v5.189a1.019,1.019,0,0,1-1.019,1.019H1.019A1.019,1.019,0,0,1,0,36.093V24.765a1.019,1.019,0,0,1,1.019-1.019Z" transform="translate(0 -20.242)"/>
</svg>
