<svg id="Filter-amico" xmlns="http://www.w3.org/2000/svg" width="119.677" height="134.973" viewBox="0 0 119.677 134.973">
  <g id="freepik--Floor--inject-2" transform="translate(0 75.044)">
    <path id="freepik--floor--inject-2-2" data-name="freepik--floor--inject-2" d="M70.99,331.324c23.367,11.7,61.254,11.7,84.624,0s23.367-30.674,0-42.377-61.257-11.7-84.624,0S47.62,319.621,70.99,331.324Z" transform="translate(-53.464 -280.17)" fill="#fafafa"/>
  </g>
  <g id="freepik--Shadows--inject-2" transform="translate(3.395 97.338)">
    <ellipse id="freepik--Shadow--inject-2" cx="11.935" cy="6.487" rx="11.935" ry="6.487" transform="translate(88.689 0.832)" fill="#e6e6e6"/>
    <ellipse id="freepik--shadow--inject-2-2" data-name="freepik--shadow--inject-2" cx="11.935" cy="6.487" rx="11.935" ry="6.487" transform="translate(0)" fill="#e6e6e6"/>
  </g>
  <g id="freepik--Plants--inject-2" transform="translate(0.605 87.685)">
    <g id="freepik--plants--inject-2-2" data-name="freepik--plants--inject-2" transform="translate(0 0)">
      <path id="Path_40272" data-name="Path 40272" d="M68.36,330.66a12.5,12.5,0,0,0-1.269-4.749,6.791,6.791,0,0,0-4.52-3.757c-1.669-.25-3.095,1.187-1.377,2.365s4.8,2.474,5.975,6.511Z" transform="translate(-58.927 -322.125)"/>
      <path id="Path_40273" data-name="Path 40273" d="M68.36,330.66a12.5,12.5,0,0,0-1.269-4.749,6.791,6.791,0,0,0-4.52-3.757c-1.669-.25-3.095,1.187-1.377,2.365s4.8,2.474,5.975,6.511Z" transform="translate(-58.927 -322.125)" opacity="0.15"/>
      <path id="Path_40274" data-name="Path 40274" d="M70.925,331.693h.018a.09.09,0,0,0,.057-.112,10.678,10.678,0,0,0-6.168-6.951.087.087,0,0,0-.111.06.09.09,0,0,0,.057.112,10.474,10.474,0,0,1,6.05,6.834A.087.087,0,0,0,70.925,331.693Z" transform="translate(-61.932 -323.872)" fill="#fff"/>
      <path id="Path_40275" data-name="Path 40275" d="M55.526,341.628a1.56,1.56,0,0,0,.871.762,1.808,1.808,0,0,1,.919.717c.35.717-.374,1.642,0,2.344a1.262,1.262,0,0,0,.811.548c.268.069.548.087.823.133a3.487,3.487,0,0,0,.4,0,1.78,1.78,0,0,1,1.133.2c.527.347.645,1.052.94,1.609a2.612,2.612,0,0,0,1.766,1.287,1.822,1.822,0,0,0,.961,0l.054-.03h0c.036-.036.084-.084.1-.108v-.015a3.322,3.322,0,0,0,0-1.106V347.9q.069-.642.127-1.284.118-1.181.193-2.365a3.934,3.934,0,0,0-.051-1.57c-.2-.545-.8-.6-.988-1.136-.075-.214-.108-.443-.181-.657a1.841,1.841,0,0,0-1.488-1.205c-1.037-.126-2.031.651-3.067.5a7.25,7.25,0,0,1-.789-.208,2.263,2.263,0,0,0-2.35.636A1.091,1.091,0,0,0,55.526,341.628Z" transform="translate(-55.473 -334.386)"/>
      <path id="Path_40276" data-name="Path 40276" d="M66.885,349.7h0a.09.09,0,0,0,.072-.105c-1.061-5.5-6.7-6.686-8.039-6.683a.09.09,0,0,0,0,.178c1.311,0,6.825,1.154,7.861,6.542a.09.09,0,0,0,.105.069Z" transform="translate(-57.829 -336.647)" fill="#fff"/>
      <path id="Path_40277" data-name="Path 40277" d="M64.941,352.213a.087.087,0,0,0,.048-.021,4.739,4.739,0,0,1,3.953-.82.091.091,0,0,0,.105-.069.087.087,0,0,0-.066-.105,4.923,4.923,0,0,0-4.11.859.09.09,0,0,0,.069.157Z" transform="translate(-62.019 -342.343)" fill="#fff"/>
    </g>
    <g id="freepik--plants--inject-2-3" data-name="freepik--plants--inject-2" transform="translate(107.914 0.69)">
      <path id="Path_40278" data-name="Path 40278" d="M414.279,334.358a13.631,13.631,0,0,1,2.664-6.852c1.594-2.031,4.122-3.556,5.939-2.959,1.69.554,1.534,2.766-.491,4.255s-5.074,3.366-5.942,5.906L414.6,337.85Z" transform="translate(-414.079 -324.416)"/>
      <path id="Path_40279" data-name="Path 40279" d="M414.279,334.358a13.631,13.631,0,0,1,2.664-6.852c1.594-2.031,4.122-3.556,5.939-2.959,1.69.554,1.534,2.766-.491,4.255s-5.074,3.366-5.942,5.906L414.6,337.85Z" transform="translate(-414.079 -324.416)" opacity="0.1"/>
      <path id="Path_40280" data-name="Path 40280" d="M413.731,338.98a.114.114,0,0,0,.1-.093c.979-5.339,5.237-9.72,7.8-10.706a.117.117,0,0,0,.066-.148.111.111,0,0,0-.139-.051c-2.618,1.006-6.951,5.46-7.949,10.877a.115.115,0,0,0,.093.133Z" transform="translate(-413.614 -326.903)" fill="#fff"/>
      <path id="Path_40281" data-name="Path 40281" d="M415.856,355.506a7.838,7.838,0,0,1,3.013-3.556c1.9-1.347,4.318-1.983,4.866-3.013.657-1.244-.4-2.411-2.365-2.133s-5.4,3-5.9,7.048Z" transform="translate(-414.911 -340.03)"/>
      <path id="Path_40282" data-name="Path 40282" d="M415.163,357.073a.115.115,0,0,0,.1-.075c1.576-4.583,5.038-6.225,6.647-6.454a.114.114,0,1,0-.03-.226c-1.781.253-5.222,1.929-6.834,6.6a.115.115,0,0,0,.069.145A.142.142,0,0,0,415.163,357.073Z" transform="translate(-414.61 -342.512)" fill="#fff"/>
    </g>
  </g>
  <g id="freepik--character-2--inject-2" transform="translate(85.958 46.096)">
    <g id="freepik--character-boy--inject-2" transform="translate(0 0)">
      <path id="Path_40283" data-name="Path 40283" d="M341.831,223.015a14.324,14.324,0,0,1,1.247.9,2.8,2.8,0,0,0,1.1.768c.545.214,1.061.151,2.579-.09a6.138,6.138,0,0,0,3.456-1.293c.937-.8,3.034-3.209,4.047-4.155a2.881,2.881,0,0,1,2.543-.6,15.336,15.336,0,0,1-2.019,4.161,16.605,16.605,0,0,1-3.013,2.829c-1.1.9-1.678,1.275-4.089,1.455a24.94,24.94,0,0,1-3.546.139c-.539-.018-.874-.021-1.754-.1a5.2,5.2,0,0,1-1.133-.2,4.278,4.278,0,0,1-1.181-.467,3.189,3.189,0,0,1-1.121-1.263,2,2,0,0,1-.211-.9,1.344,1.344,0,0,1,.328-.862.4.4,0,0,1,.151-.112.449.449,0,0,1,.328.072,19.306,19.306,0,0,0,1.742.922c.5.2.886.262.85.16s-.344-.193-.657-.545-.389-.847-.187-1S341.464,222.717,341.831,223.015Z" transform="translate(-338.74 -208.112)" fill="#ffa8a7"/>
      <path id="Path_40284" data-name="Path 40284" d="M384.264,218.035a2.766,2.766,0,0,0-1.841-.2,5.762,5.762,0,0,0-2.582,1.841c-.895.961-2.411,2.51-2.411,2.51a4.962,4.962,0,0,0,2.411,2.549l3.5-3.239Z" transform="translate(-365.772 -207.616)"/>
      <path id="Path_40285" data-name="Path 40285" d="M384.264,218.035a2.766,2.766,0,0,0-1.841-.2,5.762,5.762,0,0,0-2.582,1.841c-.895.961-2.411,2.51-2.411,2.51a4.962,4.962,0,0,0,2.411,2.549l3.5-3.239Z" transform="translate(-365.772 -207.616)" opacity="0.1"/>
      <path id="Path_40286" data-name="Path 40286" d="M344.252,229.4l3.314-1.928a1.145,1.145,0,0,1,1.034,0l3.164,1.636a1.139,1.139,0,0,1,.518.9l.015,3.839a1.139,1.139,0,0,1-.512.9l-3.314,1.928a1.145,1.145,0,0,1-1.034,0l-3.164-1.636a1.148,1.148,0,0,1-.518-.9l-.015-3.836A1.148,1.148,0,0,1,344.252,229.4Z" transform="translate(-342.233 -214.319)" fill="#37474f"/>
      <path id="Path_40287" data-name="Path 40287" d="M352.646,229.909c-.036-.262-.25-.359-.509-.208l-3.315,1.931a1.091,1.091,0,0,0-.425.512,1.187,1.187,0,0,1,.06-.127l-4.2-2.227a1.024,1.024,0,0,1,.365-.386l3.314-1.931a1.139,1.139,0,0,1,1.031,0l3.167,1.636A1.151,1.151,0,0,1,352.646,229.909Z" transform="translate(-342.597 -214.319)" fill="#455a64" opacity="0.4"/>
      <path id="Path_40288" data-name="Path 40288" d="M343.755,239.823a1.148,1.148,0,0,0,.518.9l3.164,1.636a1.148,1.148,0,0,0,.946.036c-.244.093-.428-.042-.431-.337l-.015-3.836a1.055,1.055,0,0,1,.151-.509l-4.2-2.227a1.046,1.046,0,0,0-.151.509Z" transform="translate(-342.233 -220.005)" fill="#263238"/>
      <g id="freepik--character-boy--inject-2-2" data-name="freepik--character-boy--inject-2" transform="translate(5.49)">
        <rect id="Rectangle_4326" data-name="Rectangle 4326" width="2.121" height="3.631" transform="translate(16.021 53.378)" fill="#ffa8a7"/>
        <path id="Path_40289" data-name="Path 40289" d="M392.527,355.372l-2.118.072L390.3,351.6l2.227-.072Z" transform="translate(-380.254 -301.081)" fill="#ffa8a7"/>
        <path id="Path_40290" data-name="Path 40290" d="M395.56,264.574c0,2.025-.359,13.806-.359,13.806a16.607,16.607,0,0,1,.654,3.718c.063,3.046-1.109,11.4-1.109,11.4a2.784,2.784,0,0,1-2.359.048s-.964-11.332-1.344-14.346c-.331-2.63-.9-9.775-.9-9.775l-1,8.584a12.022,12.022,0,0,1,.262,3.372c-.1,1.4-.491,10.025-.491,10.025a2.9,2.9,0,0,1-2.444.2s-1.507-12.3-1.522-13.583c-.027-1.458.554-16.34.554-16.34Z" transform="translate(-376.514 -238.311)" fill="#37474f"/>
        <path id="Path_40291" data-name="Path 40291" d="M395.19,218.863a1.953,1.953,0,0,1,1.021,1.064,4.981,4.981,0,0,1,.3,1.832v4.155l.06,7.834a9.474,9.474,0,0,1-10.163-.66s.181-10.1.181-11.751v-.226a3.772,3.772,0,0,1,4.731-3.393l1.922.5,1.931.636Z" transform="translate(-377.536 -207.5)"/>
        <path id="Path_40292" data-name="Path 40292" d="M359.853,230.709a11.93,11.93,0,0,1,1.362.729,2.815,2.815,0,0,0,1.205.6,19.925,19.925,0,0,0,5.9-2.025c1.693-1.3,3.158-3.763,3.971-4.694.672-.768,1.434-1.925,2.26-1.931,1.368.416,1.058,2.45-.087,4.282a17.016,17.016,0,0,1-4.779,4.761,27.157,27.157,0,0,1-7.039,1.919c-.458.03-.8.133-1.672.256a3.7,3.7,0,0,1-1.091.06,4.825,4.825,0,0,1-1.293-.395,3.215,3.215,0,0,1-1.287-1.094,1.967,1.967,0,0,1-.334-.868,1.323,1.323,0,0,1,.2-.9.357.357,0,0,1,.136-.133.449.449,0,0,1,.334.024,18.878,18.878,0,0,0,1.85.672c.527.124.9.136.865.039s-.368-.145-.726-.449-.5-.783-.325-.961S359.452,230.465,359.853,230.709Z" transform="translate(-356.96 -211.551)" fill="#ffa8a7"/>
        <circle id="Ellipse_2619" data-name="Ellipse 2619" cx="2.914" cy="2.914" r="2.914" transform="translate(9.293 0.717)" fill="#263238"/>
        <path id="Path_40293" data-name="Path 40293" d="M411.311,203a25.007,25.007,0,0,1-.66,2.585,1,1,0,0,1-.582.467l.033-1.561Z" transform="translate(-394.067 -197.305)" fill="#263238"/>
        <path id="Path_40294" data-name="Path 40294" d="M411.566,192.462a1.091,1.091,0,0,1,.9.316c.389.4.172,1.642-.3,2.862l-.889.1Z" transform="translate(-394.913 -189.937)" fill="#263238"/>
        <path id="Path_40295" data-name="Path 40295" d="M395.64,192.573c.178.105.431-.235.651-.467a.777.777,0,0,1,1.3.211,1.618,1.618,0,0,1-.883,1.965c-.973.3-1.121-.319-1.121-.319l-.072,3.616h0c-1.205,1.555-4.574,1.422-3.173-.2v-1.07a6.191,6.191,0,0,1-1.314.066,1.79,1.79,0,0,1-1.386-1.452,10.4,10.4,0,0,1-.184-4.7c.322-2.685,3.447-2.712,5.122-1.651S395.64,192.573,395.64,192.573Z" transform="translate(-379.55 -186.767)" fill="#ffa8a7"/>
        <path id="Path_40296" data-name="Path 40296" d="M394.931,190.208c.087,0,.431-.566.651-.768.3-.28-.087-2.814-.087-2.814a1.205,1.205,0,0,0-.3-1.284c-.422-.464-1.127-.515-2.329-.705-.63-.1-1.588-.274-2.218-.392-.753-.142-1.377-.3-1.907.172a1.272,1.272,0,0,0,.386,2.2,2.824,2.824,0,0,0,1.47.431,16.919,16.919,0,0,0,3.164-.06c.331-.045.4.277.578,1.154C394.5,188.891,394.627,190.2,394.931,190.208Z" transform="translate(-378.841 -184.1)" fill="#263238"/>
        <path id="Path_40297" data-name="Path 40297" d="M412.063,191.005l1.079-.579a.6.6,0,0,0-.817-.271.645.645,0,0,0-.262.85Z" transform="translate(-395.413 -188.285)" fill="#263238"/>
        <path id="Path_40298" data-name="Path 40298" d="M399.42,212.576a12.16,12.16,0,0,0,2.157-.621,1.838,1.838,0,0,0,.774-.765,2.506,2.506,0,0,1-.44.9c-.407.524-2.492.9-2.492.9Z" transform="translate(-386.626 -203.027)" fill="#f28f8f"/>
        <path id="Path_40299" data-name="Path 40299" d="M399.68,201.225a.325.325,0,0,0,.319.334.334.334,0,1,0-.319-.334Z" transform="translate(-386.808 -195.832)" fill="#263238"/>
        <path id="Path_40300" data-name="Path 40300" d="M400.81,197.5l.684.377a.41.41,0,0,0-.16-.545.376.376,0,0,0-.524.169Z" transform="translate(-387.597 -193.31)" fill="#263238"/>
        <path id="Path_40301" data-name="Path 40301" d="M398.2,209.39l-.732.277a.386.386,0,0,0,.5.241A.41.41,0,0,0,398.2,209.39Z" transform="translate(-385.264 -201.77)" fill="#f28f8f"/>
        <path id="Path_40302" data-name="Path 40302" d="M390.323,197.42l.624-.482a.38.38,0,0,0-.542-.081A.413.413,0,0,0,390.323,197.42Z" transform="translate(-380.217 -192.957)" fill="#263238"/>
        <path id="Path_40303" data-name="Path 40303" d="M391.14,200.964a.325.325,0,1,0,.09-.234A.322.322,0,0,0,391.14,200.964Z" transform="translate(-380.841 -195.649)" fill="#263238"/>
        <path id="Path_40304" data-name="Path 40304" d="M393.982,200.73l-.105,1.928-1.006-.343Z" transform="translate(-382.05 -195.719)" fill="#f28f8f"/>
        <path id="Path_40305" data-name="Path 40305" d="M402.391,369.116v-.3c-.2.087-.675,1.886-1.507,2.655-.669.6-1.582,1.314-1.808,1.995s1.272,1.1,1.9.988a4.545,4.545,0,0,0,2.3-1.115c.316-.473.464-1.172.72-1.522s.85-.735.988-1.136a2.611,2.611,0,0,0-.121-1.115c-.1-.374-.2-.786-.334-.75v.229a1.667,1.667,0,0,1-1.061.359C403.141,369.415,402.388,369.354,402.391,369.116Z" transform="translate(-386.37 -313.156)" fill="#263238"/>
        <path id="Path_40306" data-name="Path 40306" d="M378.886,362.046c-.108,0-.2.16-.443.422a4.545,4.545,0,0,1-1.247.9c-.792.4-2.338,1.009-3.037,1.326-.437.2-.416.723.036,1.024a4.078,4.078,0,0,0,2.847.223c.714-.16,1.642-.817,2.23-.783a4.371,4.371,0,0,0,2.109-.271c.425-.3.262-.937.139-1.485-.133-.6-.3-1.531-.5-1.489v.2a2.309,2.309,0,0,1-2.13.259Z" transform="translate(-368.756 -308.337)" fill="#263238"/>
        <path id="Path_40307" data-name="Path 40307" d="M395.363,283.453a7.891,7.891,0,0,1-2.953-1.693,6.093,6.093,0,0,0,2.266,2.058l-.226,7.5Z" transform="translate(-381.728 -252.334)" fill="#263238"/>
        <path id="Path_40308" data-name="Path 40308" d="M403.141,221.749c1.009.494,1.419,1.247.97,2.929a15.728,15.728,0,0,1-3.164,5.336,11.454,11.454,0,0,1-3.188-2.269c1.1-1.675,1.624-2.664,2.655-4.083S402.524,221.577,403.141,221.749Z" transform="translate(-385.466 -210.386)"/>
        <g id="Group_12300" data-name="Group 12300" transform="translate(12.294 11.336)" opacity="0.1">
          <path id="Path_40309" data-name="Path 40309" d="M403.141,221.749c1.009.494,1.419,1.247.97,2.929a15.728,15.728,0,0,1-3.164,5.336,11.454,11.454,0,0,1-3.188-2.269c1.1-1.675,1.624-2.664,2.655-4.083S402.524,221.577,403.141,221.749Z" transform="translate(-397.76 -221.722)"/>
        </g>
      </g>
    </g>
  </g>
  <g id="freepik--character-1--inject-2" transform="translate(7.697 45.632)">
    <g id="freepik--Character--inject-2" transform="translate(0)">
      <path id="Path_40310" data-name="Path 40310" d="M105.73,216.93c1.118,0,2.3-.319,3.254,1.124s3.739,7.858,3.739,7.858a22.057,22.057,0,0,1-2.326,1.121c-.057-.084-3.878-6.469-3.878-6.469Z" transform="translate(-97.679 -206.553)" fill="#ffa8a7"/>
      <path id="Path_40311" data-name="Path 40311" d="M90.843,191.612h0a4.643,4.643,0,0,1-4.643-4.643V186.5a3.935,3.935,0,0,1,3.935-3.935h1.428a3.935,3.935,0,0,1,3.917,3.935v.473A4.643,4.643,0,0,1,90.843,191.612Z" transform="translate(-84.033 -182.56)"/>
      <g id="Group_12301" data-name="Group 12301" transform="translate(2.167)" opacity="0.2">
        <path id="Path_40312" data-name="Path 40312" d="M90.843,191.612h0a4.643,4.643,0,0,1-4.643-4.643V186.5a3.935,3.935,0,0,1,3.935-3.935h1.428a3.935,3.935,0,0,1,3.917,3.935v.473A4.643,4.643,0,0,1,90.843,191.612Z" transform="translate(-86.2 -182.56)"/>
      </g>
      <path id="Path_40313" data-name="Path 40313" d="M79.61,199.237h0a2.16,2.16,0,0,0,2.16-2.172V192.78h0a2.16,2.16,0,0,0-2.16,2.176Z" transform="translate(-79.429 -189.701)"/>
      <path id="Path_40314" data-name="Path 40314" d="M79.61,199.237h0a2.16,2.16,0,0,0,2.16-2.172V192.78h0a2.16,2.16,0,0,0-2.16,2.176Z" transform="translate(-79.429 -189.701)" opacity="0.2"/>
      <path id="Path_40315" data-name="Path 40315" d="M108.264,362.875a12.58,12.58,0,0,0,1.808,1.579.754.754,0,0,1,.253.262c.084.178.217.6-.6.9a3.013,3.013,0,0,1-2.5-.241c-.666-.416-.7-1.284-1.326-1.781-.467-.368-1.049-.461-1.425-.94-.262-.334-.193-.777-.057-1.326.151-.6.217-1.055.416-1.009l-.03.277c.247.395,1.531.512,2.109.238A23.218,23.218,0,0,0,108.264,362.875Z" transform="translate(-96.673 -306.758)" fill="#263238"/>
      <path id="Path_40316" data-name="Path 40316" d="M110.02,359.453h0c-.193-.178-.383-.359-.563-.557a15.906,15.906,0,0,1-1.049-1.546,2.411,2.411,0,0,1-.449-1.13c0-.53.039-1.473.039-1.473l-1.9-.127-.093,2h0c-.048.455.325.856.988,1.425s1.507,1.9,2.109,2.236,1.027.323,1.284.154S110.665,360.113,110.02,359.453Z" transform="translate(-97.865 -302.776)" fill="#ffa8a7"/>
      <path id="Path_40317" data-name="Path 40317" d="M87.232,369.185a12.578,12.578,0,0,0,1.808,1.579.781.781,0,0,1,.253.262c.084.178.217.6-.6.9a3.013,3.013,0,0,1-2.507-.241c-.666-.416-.7-1.284-1.323-1.781-.467-.365-1.049-.461-1.425-.94-.262-.331-.2-.777-.057-1.326.148-.6.217-1.055.416-1.009l-.033.277c.247.395,1.534.512,2.109.238a23.948,23.948,0,0,0,1.362,2.037Z" transform="translate(-81.977 -311.167)" fill="#263238"/>
      <path id="Path_40318" data-name="Path 40318" d="M89,366.121h0c-.193-.178-.38-.358-.563-.557a15.54,15.54,0,0,1-1.04-1.552,2.669,2.669,0,0,1-.443-1.148c-.036-.467,0-1.434,0-1.434h-1.9l-.066,1.844h0c-.048.452.325.853.988,1.422s1.507,1.9,2.109,2.239,1.027.322,1.284.151S89.652,366.772,89,366.121Z" transform="translate(-83.185 -307.534)" fill="#ffa8a7"/>
      <path id="Path_40319" data-name="Path 40319" d="M83.49,257.865c-1.657,3.616.229,17.353.229,17.353a16.16,16.16,0,0,0-.63,3.3c-.078,2.305.331,10.814.331,10.814a2.411,2.411,0,0,0,2.169.042s1.965-11.549,2.347-14.59c.334-2.652.976-8.886.976-8.886l1.32,8.871a8.6,8.6,0,0,0-.714,2.82c-.045,1.793.22,10.124.22,10.124a4.985,4.985,0,0,0,2.2.075s2-11.272,2.188-13.424c.111-1.287-.85-17.042-.85-17.042Z" transform="translate(-81.664 -234.794)" fill="#37474f"/>
      <path id="Path_40320" data-name="Path 40320" d="M103.07,275.565l.539-2.962a8.506,8.506,0,0,0,3.314-1.443,5.867,5.867,0,0,1-2.691,1.79l-.6,2.591.6,7.741Z" transform="translate(-95.82 -244.464)" fill="#263238"/>
      <path id="Path_40321" data-name="Path 40321" d="M88.285,217.124h0c-1.452.2-2.233.524-2.712,1.892a5.321,5.321,0,0,0,.084,3.1l1.272,3.715a20.119,20.119,0,0,0-1.889,3.887c3.718,2.073,8.672.97,9.79-.545.048-.319-.253-1.874-.163-3.519a21.93,21.93,0,0,0,.1-4.86,5.051,5.051,0,0,0-3.5-3.757Z" transform="translate(-83.223 -206.651)" fill="#f5f5f5"/>
      <path id="Path_40322" data-name="Path 40322" d="M89,230.27c-.063.955-.35,3.583-.35,3.583l1.205,1.925-1.347-.7L87.3,231.587Z" transform="translate(-84.802 -215.894)" fill="#e6e6e6"/>
      <path id="Path_40323" data-name="Path 40323" d="M96.731,188.94c.5.3,1.124,1.561,1.064,4.218-.054,2.245-.78,2.8-1.148,2.959a3.852,3.852,0,0,1-1.754-.051v1.329s.946,1.1.886,1.72-1.368.762-2.254.16a5.7,5.7,0,0,1-1.452-1.522v-3.248a.865.865,0,0,1-1.22.118,1.615,1.615,0,0,1-.347-2.194.988.988,0,0,1,1.567.3,5.379,5.379,0,0,0,2.546-.759A4.089,4.089,0,0,0,96.731,188.94Z" transform="translate(-86.841 -187.018)" fill="#ffa8a7"/>
      <path id="Path_40324" data-name="Path 40324" d="M105.818,200.393a.283.283,0,0,1-.265.3.3.3,0,0,1-.03-.585.283.283,0,0,1,.3.283Z" transform="translate(-97.384 -194.821)" fill="#263238"/>
      <path id="Path_40325" data-name="Path 40325" d="M107.245,207.36l.657.211a.338.338,0,0,1-.425.235A.362.362,0,0,1,107.245,207.36Z" transform="translate(-98.727 -199.887)" fill="#f28f8f"/>
      <path id="Path_40326" data-name="Path 40326" d="M113.392,196.886l-.572-.4a.337.337,0,0,1,.476-.1A.368.368,0,0,1,113.392,196.886Z" transform="translate(-102.632 -192.182)"/>
      <g id="Group_12302" data-name="Group 12302" transform="translate(10.188 4.15)" opacity="0.2">
        <path id="Path_40327" data-name="Path 40327" d="M113.392,196.886l-.572-.4a.337.337,0,0,1,.476-.1A.368.368,0,0,1,113.392,196.886Z" transform="translate(-112.82 -196.332)"/>
      </g>
      <path id="Path_40328" data-name="Path 40328" d="M112.959,199.72a.285.285,0,1,1-.3-.28A.3.3,0,0,1,112.959,199.72Z" transform="translate(-102.332 -194.354)" fill="#263238"/>
      <path id="Path_40329" data-name="Path 40329" d="M109.86,199.83l.045,1.7.895-.277Z" transform="translate(-100.564 -194.626)" fill="#f28f8f"/>
      <path id="Path_40330" data-name="Path 40330" d="M100.071,210c-.723-.093-2.209-.521-2.441-1.109a1.528,1.528,0,0,0,.521.75,7.825,7.825,0,0,0,1.919.807Z" transform="translate(-92.019 -200.956)" fill="#f28f8f"/>
      <path id="Path_40331" data-name="Path 40331" d="M122.084,235.72l-7.7,2.031-2.272,9.555,7.322-2.124Z" transform="translate(-102.136 -219.702)"/>
      <path id="Path_40332" data-name="Path 40332" d="M134.07,256.71a1.379,1.379,0,0,0,1.389.7l.112-.4Z" transform="translate(-117.479 -234.367)" opacity="0.1"/>
      <path id="Path_40333" data-name="Path 40333" d="M119.085,257.7c-.033.256-.557.729-1.44,1.021a7.314,7.314,0,0,1-2.555.16l.139-.476Z" transform="translate(-104.218 -235.059)" opacity="0.1"/>
      <path id="Path_40334" data-name="Path 40334" d="M130.121,239.328l.063-.3c.033-.163-.419-.169-1.009-.015l-1.136.3c-.6.154-1.1.41-1.136.572l-.063.3Z" transform="translate(-112.428 -221.925)" opacity="0.1"/>
      <path id="Path_40335" data-name="Path 40335" d="M130.229,235.722c.021-.1-.163-.127-.41-.06l-.449.124s.133-.633-.862-.413a1.57,1.57,0,0,0-1.205.943l-.479.139c-.265.075-.5.217-.536.319l-.057.181,3.968-1.043A1.477,1.477,0,0,1,130.229,235.722Z" transform="translate(-112.002 -219.427)" fill="#37474f"/>
      <path id="Path_40336" data-name="Path 40336" d="M131.6,237.411c-.365.087-.515.136-.569.386s-.087.5-.087.5l-1.757.464s.084-.362.111-.5-.033-.226-.3-.154l-.024-.112,2.751-.7Z" transform="translate(-113.916 -220.799)" fill="#37474f"/>
      <path id="Path_40337" data-name="Path 40337" d="M130.281,239.413s.027-.133.063-.3-.419-.169-1.009-.015l-1.136.3c-.6.154-1.1.41-1.136.572l-.063.3Z" transform="translate(-112.54 -221.982)" fill="#37474f"/>
      <path id="Path_40338" data-name="Path 40338" d="M83.72,250.231l1.4-2.341s6.168,1.808,6.78,1.853a1.606,1.606,0,0,0,1.528-.985c.232-.6.645-.527.645-.527s-.181.762-.241,1.006,1.413.443,2.227.169,1.992.124,1.263,1.232a3.575,3.575,0,0,1-3.137,1.238,10.161,10.161,0,0,1-1.232-.084c-.319-.039-.639-.072-.958-.1A69.236,69.236,0,0,1,83.72,250.231Z" transform="translate(-82.301 -228.205)" fill="#ffa8a7"/>
      <path id="Path_40339" data-name="Path 40339" d="M136.018,244.591l-.343,1.205c-.063.235-.961.663-1.525.817s-1.187.341-.9,1.133a1.64,1.64,0,0,0,1.654.874,1.759,1.759,0,0,0,1.377-1.205,13.251,13.251,0,0,0,.28-2.474C136.687,244.4,136.3,244.266,136.018,244.591Z" transform="translate(-116.855 -225.777)" fill="#ffa8a7"/>
      <path id="Path_40340" data-name="Path 40340" d="M81.833,226.93l1.232-4.688a8.086,8.086,0,0,0,0-4.324s-.585-.208-1.479.53-1.386,2.411-1.7,3.763a51.206,51.206,0,0,0-.874,6.292c.075.464.9.75,3.372,1.205Z" transform="translate(-79.01 -207.245)" fill="#ffa8a7"/>
    </g>
  </g>
  <g id="freepik--Filter--inject-2" transform="translate(20.276)">
    <path id="Path_40341" data-name="Path 40341" d="M231.459,290.5c-4.351,0-7.879,2.034-7.879,4.541v10.947c0,2.507,3.528,4.541,7.879,4.541s7.879-2.034,7.879-4.541V295.041C239.339,292.534,235.81,290.5,231.459,290.5Z" transform="translate(-192.598 -212.344)" fill="#ebebeb"/>
    <path id="Path_40342" data-name="Path 40342" d="M231.459,290.5c-4.351,0-7.879,2.034-7.879,4.541v10.947c0,2.507,3.528,4.541,7.879,4.541s7.879-2.034,7.879-4.541V295.041C239.339,292.534,235.81,290.5,231.459,290.5Z" transform="translate(-192.598 -212.344)"/>
    <path id="Path_40343" data-name="Path 40343" d="M223.58,295.53v10.947c0,2.031,2.314,3.748,5.508,4.33V291.2C225.894,291.779,223.58,293.5,223.58,295.53Z" transform="translate(-192.598 -212.833)" opacity="0.1"/>
    <path id="Path_40344" data-name="Path 40344" d="M187.152,227.685c.06-.09,21.833-35.115,21.833-35.115s-11,7.1-30.906,7.1a78.539,78.539,0,0,1-10.685-.717c-13.116-1.808-20.224-6.385-20.224-6.385l21.818,35.109h0c1.338,2.145,4.9,3.679,9.082,3.679s7.741-1.534,9.079-3.679Z" transform="translate(-139.211 -143.921)" fill="#ebebeb"/>
    <path id="Path_40345" data-name="Path 40345" d="M162.235,201.625l-3.314-4.357a45.148,45.148,0,0,1-11.79-4.7l21.818,35.109h0c1.076,1.727,3.592,3.055,6.71,3.507Z" transform="translate(-139.183 -143.921)" fill="#e0e0e0"/>
    <path id="Path_40346" data-name="Path 40346" d="M187.168,86.663c-6.653-3.842-15.117-6-23.8-6.472h0c-11.149-.6-22.632,1.552-31.156,6.475-15.177,8.765-15.174,22.972,0,31.735a46.637,46.637,0,0,0,11.67,4.637,65.557,65.557,0,0,0,32.768-.3q2.176-.6,4.234-1.38c.572-.214,1.139-.44,1.693-.675h0q1.184-.5,2.311-1.052c.783-.389,1.549-.792,2.287-1.22C202.333,109.635,202.336,95.431,187.168,86.663Z" transform="translate(-120.805 -65.335)"/>
    <path id="Path_40347" data-name="Path 40347" d="M163.294,80.191c-11.149-.6-22.632,1.552-31.156,6.475-15.177,8.765-15.174,22.972,0,31.735a46.636,46.636,0,0,0,11.67,4.637h0c-1.449-2.022-2.411-6.837.383-7.135a42.015,42.015,0,0,1-10.338-4.128c-4.363-2.519-7.319-5.523-8.563-8.69a8.995,8.995,0,0,1,.741-8.114,21.059,21.059,0,0,1,7.813-7.165c7.25-4.188,17.1-6.2,26.838-6.026C160.682,81.77,160.462,80.553,163.294,80.191Z" transform="translate(-120.756 -65.335)" opacity="0.1"/>
    <path id="Path_40348" data-name="Path 40348" d="M194.3,91.674c-6.7-3.869-15.629-5.885-24.639-6.026-9.742-.166-19.585,1.844-26.838,6.026a20.848,20.848,0,0,0-7.813,7.165,8.97,8.97,0,0,0-.741,8.114c1.244,3.167,4.2,6.171,8.563,8.69a42.017,42.017,0,0,0,10.338,4.128c1.428.377,2.893.7,4.384.961a61.188,61.188,0,0,0,8,.871q.832.039,1.663.054c.919.024,1.847.027,2.766,0a61.648,61.648,0,0,0,9.311-.88l.105-.018a54.908,54.908,0,0,0,5.858-1.347q2.037-.6,3.947-1.341c.533-.2,1.055-.425,1.573-.651.618-.274,1.226-.563,1.823-.862s1.139-.6,1.69-.9a21.032,21.032,0,0,0,7.834-7.171C205.45,102.706,202.53,96.423,194.3,91.674Z" transform="translate(-129.746 -69.21)" fill="#f5f5f5"/>
    <path id="Path_40349" data-name="Path 40349" d="M203.365,167.83c-9.127,0-16.913,3.293-20,7.928a47.241,47.241,0,0,0,4.568,1.443c1.428.377,2.893.7,4.384.961a61.2,61.2,0,0,0,7.994.868q.832.039,1.663.054c.919.024,1.847.027,2.766,0a61.645,61.645,0,0,0,9.311-.88l.105-.018a55.13,55.13,0,0,0,5.858-1.347q1.705-.5,3.314-1.1C220.254,171.114,212.486,167.83,203.365,167.83Z" transform="translate(-164.504 -126.636)" fill="#ebebeb"/>
    <circle id="Ellipse_2620" data-name="Ellipse 2620" cx="3.715" cy="3.715" r="3.715" transform="translate(44.478 37.783)"/>
    <path id="Path_40350" data-name="Path 40350" d="M271.026,162.367c-1.769-1.284-1.913-3.8-.53-4.707h0a3.715,3.715,0,1,0,5.273,3.369C275.637,162.819,272.8,163.647,271.026,162.367Z" transform="translate(-223.869 -119.53)" opacity="0.1"/>
    <circle id="Ellipse_2621" data-name="Ellipse 2621" cx="6.231" cy="6.231" r="6.231" transform="translate(54.711 18.424)" fill="#455a64"/>
    <path id="Path_40351" data-name="Path 40351" d="M306.813,102.074c-2.968-2.151-3.212-6.376-.889-7.894h0a6.234,6.234,0,1,0,8.862,5.653C314.548,102.834,309.784,104.223,306.813,102.074Z" transform="translate(-247.61 -75.178)" fill="#37474f"/>
    <circle id="Ellipse_2622" data-name="Ellipse 2622" cx="4.887" cy="4.887" r="4.887" transform="translate(12.418 9.263) rotate(-45)" fill="#455a64"/>
    <path id="Path_40352" data-name="Path 40352" d="M172.2,53.339c-2.329-1.684-2.519-5-.7-6.189h0a4.887,4.887,0,1,0,6.948,4.432C178.266,53.936,174.53,55.026,172.2,53.339Z" transform="translate(-154.238 -42.319)" fill="#37474f"/>
    <path id="Path_40353" data-name="Path 40353" d="M163.189,122.346l2.579-5.607a1.838,1.838,0,0,1,1.353-.961L172.8,115a1.841,1.841,0,0,1,1.507.693l3.568,5.038a1.838,1.838,0,0,1,.154,1.654l-2.579,5.607a1.844,1.844,0,0,1-1.356.961l-5.68.771a1.835,1.835,0,0,1-1.507-.693L163.343,124A1.829,1.829,0,0,1,163.189,122.346Z" transform="translate(-150.313 -89.722)"/>
    <path id="Path_40354" data-name="Path 40354" d="M166.932,145.838a1.835,1.835,0,0,0,1.507.693l5.68-.771a1.859,1.859,0,0,0,1.278-.823c-.232.343-.6.337-.877-.048l-3.568-5.041a1.663,1.663,0,0,1-.274-.808l-7.587.949a1.688,1.688,0,0,0,.274.811Z" transform="translate(-150.334 -106.521)" opacity="0.1"/>
    <path id="Path_40355" data-name="Path 40355" d="M174.245,115.6c-.3-.3-.663-.238-.862.2l-2.582,5.61a1.787,1.787,0,0,0-.087,1.067,1.757,1.757,0,0,1-.033-.22l-7.587.949a1.669,1.669,0,0,1,.121-.847l2.579-5.607a1.838,1.838,0,0,1,1.356-.961l5.68-.789a1.847,1.847,0,0,1,1.416.6Z" transform="translate(-150.328 -89.723)" fill="#fff" opacity="0.4"/>
    <path id="Path_40356" data-name="Path 40356" d="M273.771,31.79l5.195-.66a1.549,1.549,0,0,1,1.3.545l3.107,3.742a1.561,1.561,0,0,1,.178,1.4l-2.025,4.821a1.558,1.558,0,0,1-1.121.853l-5.207.669a1.558,1.558,0,0,1-1.3-.545l-3.1-3.742a1.56,1.56,0,0,1-.178-1.4l2.028-4.821A1.558,1.558,0,0,1,273.771,31.79Z" transform="translate(-225.403 -31.123)"/>
    <path id="Path_40357" data-name="Path 40357" d="M270.622,39.691a1.561,1.561,0,0,0,.178,1.4l3.107,3.742a1.573,1.573,0,0,0,1.163.551c-.353,0-.512-.283-.359-.654l2.028-4.821a1.4,1.4,0,0,1,.458-.572L273.108,34.3a1.416,1.416,0,0,0-.458.56Z" transform="translate(-225.403 -33.341)" opacity="0.1"/>
    <path id="Path_40358" data-name="Path 40358" d="M289.584,36.7c.093-.353-.127-.585-.527-.533l-5.2.66a1.537,1.537,0,0,0-.808.416c.045-.042.093-.084.145-.124l-4.086-5.035a1.386,1.386,0,0,1,.663-.3l5.192-.66a1.555,1.555,0,0,1,1.3.542L289.37,35.4A1.573,1.573,0,0,1,289.584,36.7Z" transform="translate(-231.396 -31.116)" fill="#fff" opacity="0.4"/>
    <path id="Path_40359" data-name="Path 40359" d="M235.451,103.56l2.805.048a.828.828,0,0,1,.657.386l1.359,2.221a.838.838,0,0,1,0,.756l-1.443,2.41a.838.838,0,0,1-.66.365l-2.805-.048a.828.828,0,0,1-.645-.389l-1.359-2.221a.829.829,0,0,1,0-.753l1.443-2.411A.831.831,0,0,1,235.451,103.56Z" transform="translate(-199.368 -81.731)" fill="#37474f"/>
    <path id="Path_40360" data-name="Path 40360" d="M244.488,106.927c.075-.181-.021-.322-.241-.325l-2.8-.048a.8.8,0,0,0-.461.16.529.529,0,0,1,.087-.054l-1.781-2.983a.789.789,0,0,1,.374-.105l2.8.048a.841.841,0,0,1,.654.383l1.359,2.221A.844.844,0,0,1,244.488,106.927Z" transform="translate(-203.574 -81.738)" fill="#455a64" opacity="0.4"/>
    <path id="Path_40361" data-name="Path 40361" d="M233.32,106.556a.828.828,0,0,0,0,.753l1.359,2.221a.832.832,0,0,0,.576.38c-.187-.033-.253-.187-.142-.374l1.443-2.411a.777.777,0,0,1,.3-.262l-1.781-2.983a.777.777,0,0,0-.3.262Z" transform="translate(-199.34 -81.955)" fill="#263238"/>
    <circle id="Ellipse_2623" data-name="Ellipse 2623" cx="4.113" cy="4.113" r="4.113" transform="translate(31.091 112.264) rotate(-80.78)"/>
    <path id="Path_40362" data-name="Path 40362" d="M228.907,385.22c-1.959-1.419-2.109-4.218-.588-5.21h0a4.113,4.113,0,1,0,5.845,3.73C234.008,385.732,230.865,386.636,228.907,385.22Z" transform="translate(-194.245 -274.883)" opacity="0.1"/>
    <path id="Path_40363" data-name="Path 40363" d="M258.753,365.15l2.13.039a.636.636,0,0,1,.491.3l1.031,1.69a.63.63,0,0,1,0,.573l-1.1,1.826a.633.633,0,0,1-.5.277l-2.13-.036a.63.63,0,0,1-.491-.3l-1.034-1.687a.639.639,0,0,1,0-.573l1.1-1.829A.648.648,0,0,1,258.753,365.15Z" transform="translate(-216.007 -264.5)" fill="#37474f"/>
    <path id="Path_40364" data-name="Path 40364" d="M265.63,367.709c.057-.136-.015-.244-.181-.247l-2.13-.036a.6.6,0,0,0-.349.121l.063-.042-1.353-2.266a.631.631,0,0,1,.286-.078l2.13.036a.636.636,0,0,1,.491.3l1.031,1.687A.639.639,0,0,1,265.63,367.709Z" transform="translate(-219.218 -264.507)" fill="#455a64" opacity="0.4"/>
    <path id="Path_40365" data-name="Path 40365" d="M257.153,367.473a.639.639,0,0,0,0,.572l1.034,1.687a.63.63,0,0,0,.437.3c-.142-.027-.193-.145-.108-.283l1.1-1.826a.578.578,0,0,1,.217-.2l-1.353-2.266a.6.6,0,0,0-.217.2Z" transform="translate(-216.007 -264.717)" fill="#263238"/>
  </g>
</svg>
