<svg xmlns="http://www.w3.org/2000/svg" xmlns:xlink="http://www.w3.org/1999/xlink" width="340.132" height="318.525" viewBox="0 0 340.132 318.525">
  <defs>
    <linearGradient id="linear-gradient" x1="0.5" y1="1" x2="0.5" gradientUnits="objectBoundingBox">
      <stop offset="0.011" stop-color="#143345"/>
      <stop offset="1" stop-color="#1e4054"/>
    </linearGradient>
  </defs>
  <g id="Group_5193" data-name="Group 5193" transform="translate(-43.934 -100.238)">
    <path id="Path_4105" data-name="Path 4105" d="M980.426,86.468c0-19.833-72.361-35.91-161.624-35.91S657.178,66.636,657.178,86.468s72.361,35.91,161.624,35.91S980.426,106.3,980.426,86.468Z" transform="translate(-609.058 296.384)" fill="#a7a7a7"/>
    <g id="Group_4667" data-name="Group 4667" transform="translate(43.934 318.177)">
      <g id="Group_4662" data-name="Group 4662" transform="translate(13.265 9.712)">
        <g id="Group_4646" data-name="Group 4646" transform="translate(5.734 4.862)">
          <path id="Path_3972" data-name="Path 3972" d="M691.076,60.054s-7.228,9.137-9.564,12.114-3.614,4.194-6.59,3.769-5.394-8.182-5.309-12.056c.127-5.936,0-12.963-3.187-20.612l-.64-.957s3.476,10.464,2.926,16.258c-.692,7.221,1.009,19.965,4.621,20.39s6.213.368,7.968-3.662c2.582-5.934,9.775-14.606,10.835-15.029S691.076,60.054,691.076,60.054Z" transform="translate(-665.786 -42.312)" fill="#484d54"/>
        </g>
        <g id="Group_4649" data-name="Group 4649" transform="translate(0 11.131)">
          <g id="Group_4648" data-name="Group 4648">
            <g id="Group_4647" data-name="Group 4647">
              <path id="Path_3973" data-name="Path 3973" d="M672.532,69.519a26.96,26.96,0,0,0-.96-3.022q-.56-1.51-1.215-2.988a32.606,32.606,0,0,0-3.1-5.638c-.31-.442-.644-.845-1-1.267a11.993,11.993,0,0,1-.945-1.354,17.526,17.526,0,0,1-1.394-2.96,27.571,27.571,0,0,1-1.465-6.335,27.409,27.409,0,0,0,1.683,6.249,16.865,16.865,0,0,0,1.475,2.859,11.574,11.574,0,0,0,.957,1.279,15.878,15.878,0,0,1,1.06,1.251,33.318,33.318,0,0,1,3.347,5.626q.715,1.477,1.334,2.991a25.757,25.757,0,0,1,1.1,3.136Z" transform="translate(-662.454 -45.955)" fill="#484d54"/>
            </g>
          </g>
        </g>
        <g id="Group_4651" data-name="Group 4651" transform="translate(12.489 8.474)">
          <g id="Group_4650" data-name="Group 4650">
            <path id="Path_3974" data-name="Path 3974" d="M669.959,74.386a13.261,13.261,0,0,1,.895-7.863c1.019-2.382,2.024-4.765,2.958-7.177a60.721,60.721,0,0,0,2.437-7.354,12.884,12.884,0,0,0-.754-7.581,13.005,13.005,0,0,1,.976,7.629,61.44,61.44,0,0,1-2.232,7.462c-.867,2.446-1.807,4.865-2.759,7.275a12.5,12.5,0,0,0-.647,7.368Z" transform="translate(-669.711 -44.411)" fill="#484d54"/>
          </g>
        </g>
        <g id="Group_4653" data-name="Group 4653" transform="translate(18.574 8.474)">
          <g id="Group_4652" data-name="Group 4652">
            <path id="Path_3975" data-name="Path 3975" d="M673.34,74.484l-.034-.057a.752.752,0,0,1-.059-.26.571.571,0,0,1,.021-.184l.034-.11a1.965,1.965,0,0,1,.138-.3c.1-.179.2-.327.3-.48l.623-.859c.415-.556.824-1.11,1.213-1.68a18.9,18.9,0,0,0,2.014-3.559,9.554,9.554,0,0,0,.58-1.931,17.96,17.96,0,0,0,.153-2.046,23.278,23.278,0,0,1,.73-4.153,28.768,28.768,0,0,1,1.361-3.974,13.8,13.8,0,0,1,2.112-3.636,23.531,23.531,0,0,0,2.791-3.086,10.346,10.346,0,0,0,1.736-3.753,10.416,10.416,0,0,1-1.642,3.819,24.113,24.113,0,0,1-2.717,3.175,13.446,13.446,0,0,0-1.965,3.611,28.251,28.251,0,0,0-1.237,3.955,22.675,22.675,0,0,0-.6,4.077,18.061,18.061,0,0,1-.105,2.115,10.014,10.014,0,0,1-.561,2.076,20.123,20.123,0,0,1-1.983,3.753c-.389.592-.788,1.169-1.187,1.736l-.584.85c-.089.138-.177.279-.244.408a1.13,1.13,0,0,0-.072.17l-.005.014c-.007.012,0,.021,0-.052a.234.234,0,0,0-.053-.134l.033.057Z" transform="translate(-673.247 -44.411)" fill="#484d54"/>
          </g>
        </g>
        <g id="Group_4655" data-name="Group 4655" transform="translate(14.435 9.748)">
          <g id="Group_4654" data-name="Group 4654">
            <path id="Path_3976" data-name="Path 3976" d="M672.322,60.631a13.827,13.827,0,0,0-.36-3.841,15.409,15.409,0,0,0-.542-1.864,8.034,8.034,0,0,1-.466-1.936,19.127,19.127,0,0,1-.021-3.945,32.97,32.97,0,0,1,.558-3.895,34.3,34.3,0,0,0-.448,3.9,19.1,19.1,0,0,0,.134,3.9c.151,1.289.828,2.444,1.115,3.75a14.125,14.125,0,0,1,.477,3.958Z" transform="translate(-670.842 -45.151)" fill="#484d54"/>
          </g>
        </g>
        <g id="Group_4657" data-name="Group 4657" transform="translate(8.829 0.506)">
          <g id="Group_4656" data-name="Group 4656">
            <path id="Path_3977" data-name="Path 3977" d="M667.584,59.751a64.167,64.167,0,0,1,1.06-10.133c.3-1.678.99-3.261,1.041-4.96a8.612,8.612,0,0,0-1.074-4.877,8.653,8.653,0,0,1,1.187,4.884c-.015,1.723-.673,3.335-.936,5a63.51,63.51,0,0,0-.824,10.092Z" transform="translate(-667.584 -39.781)" fill="#484d54"/>
          </g>
        </g>
        <g id="Group_4659" data-name="Group 4659" transform="translate(15.692 3.191)">
          <g id="Group_4658" data-name="Group 4658">
            <path id="Path_3978" data-name="Path 3978" d="M671.572,77.4a39.326,39.326,0,0,1,2.024-9.367,18.541,18.541,0,0,1,.984-2.213c.385-.726.821-1.366,1.184-2.065a39.383,39.383,0,0,0,1.972-4.284,43.874,43.874,0,0,0,2.5-9.116c.243-1.551.313-3.156.713-4.7a10.517,10.517,0,0,1,1.91-4.315,10.491,10.491,0,0,0-1.8,4.335c-.356,1.549-.387,3.13-.6,4.712a44.484,44.484,0,0,1-2.3,9.242,39.259,39.259,0,0,1-1.9,4.39c-.351.716-.79,1.4-1.132,2.084a16.5,16.5,0,0,0-.892,2.155,38.576,38.576,0,0,0-1.767,9.209Z" transform="translate(-671.572 -41.341)" fill="#484d54"/>
          </g>
        </g>
        <g id="Group_4661" data-name="Group 4661" transform="translate(9.925)">
          <g id="Group_4660" data-name="Group 4660">
            <path id="Path_3979" data-name="Path 3979" d="M668.221,73.392a40.594,40.594,0,0,0,1.5-8.557c.007-2.921.026-5.874.222-8.806a56.4,56.4,0,0,1,1.17-8.736,24.2,24.2,0,0,1,1.33-4.2,9.721,9.721,0,0,1,2.477-3.6,9.55,9.55,0,0,0-2.372,3.649,23.925,23.925,0,0,0-1.213,4.2,55.655,55.655,0,0,0-.94,8.715c-.124,2.924-.067,5.841,0,8.786a41.464,41.464,0,0,1-1.3,8.781Z" transform="translate(-668.221 -39.487)" fill="#484d54"/>
          </g>
        </g>
      </g>
      <g id="Group_4663" data-name="Group 4663" transform="translate(0 0)">
        <path id="Path_3980" data-name="Path 3980" d="M654.746,55.964a3.048,3.048,0,0,1,2.63-2.817,5.54,5.54,0,0,1,4.853-4.891,2.857,2.857,0,0,1-.072-.594,3.529,3.529,0,0,1,2.415-3.148,4.517,4.517,0,0,1-.616-2.244,4.664,4.664,0,0,1,4.714-4.612,4.729,4.729,0,0,1,3.809,1.915,4.051,4.051,0,0,1,4.22-.549,5.8,5.8,0,0,1,.9-1.174c0-.041-.012-.083-.012-.126a2.419,2.419,0,0,1,2.459-2.377,2.469,2.469,0,0,1,1.389.42c.281-.067.564-.12.854-.162a4.179,4.179,0,0,1,3.442-1.762,4.128,4.128,0,0,1,3.68,2.177l.045,0a5.84,5.84,0,0,1,1.009,11.6,5.205,5.205,0,0,1-3.516,1.246,6.233,6.233,0,0,1-1.012-.089,4.846,4.846,0,0,1-2.27.573,4.742,4.742,0,0,1-.724-.065,5.177,5.177,0,0,1-5.1,3.767l-.026,0c.005.081.026.155.026.236a2.824,2.824,0,0,1-2.953,2.68,3.179,3.179,0,0,1-1.354-.315,4.677,4.677,0,0,1-2.286,1.974,3.983,3.983,0,0,1,.673,2.036A3.4,3.4,0,0,1,674.89,62.7c0,1.511-1.356,2.773-3.168,3.086a2.511,2.511,0,0,1,.22,1.014,2.574,2.574,0,0,1-4.991.828,4.579,4.579,0,0,1-1.848.394c-2.225,0-4.024-1.528-4.024-3.413a2.954,2.954,0,0,1,.459-1.559c-1.971-.232-3.485-1.561-3.485-3.17a2.556,2.556,0,0,1,.227-1.015c-.027,0-.055.007-.083.007A3.215,3.215,0,0,1,654.746,55.964Z" transform="translate(-654.746 -33.844)" fill="#86898e"/>
      </g>
      <g id="Group_4664" data-name="Group 4664" transform="translate(7.603 3.136)">
        <path id="Path_3981" data-name="Path 3981" d="M661.3,51.3a4.486,4.486,0,0,1,3.929-3.962,2.239,2.239,0,0,1-.062-.482,2.865,2.865,0,0,1,1.957-2.547,3.66,3.66,0,0,1-.5-1.817,3.779,3.779,0,0,1,3.817-3.738,3.835,3.835,0,0,1,3.086,1.556,3.281,3.281,0,0,1,3.416-.446,4.866,4.866,0,0,1,.733-.953c0-.029-.007-.062-.007-.1a1.956,1.956,0,0,1,1.988-1.926,2.038,2.038,0,0,1,1.127.339c.227-.053.458-.1.694-.133a3.383,3.383,0,0,1,2.786-1.423,3.349,3.349,0,0,1,2.981,1.764l.036-.005a4.755,4.755,0,0,1,4.743,4.373,5.874,5.874,0,0,1-4.746,4.509,5.206,5.206,0,0,1-3.516,1.246,6.233,6.233,0,0,1-1.012-.089,4.846,4.846,0,0,1-2.27.573,4.742,4.742,0,0,1-.724-.065,5.177,5.177,0,0,1-5.1,3.767l-.026,0c.005.081.026.155.026.236a2.824,2.824,0,0,1-2.953,2.68,3.179,3.179,0,0,1-1.354-.315,4.677,4.677,0,0,1-2.286,1.974,3.983,3.983,0,0,1,.673,2.036,3.4,3.4,0,0,1,2.967,3.039,3.065,3.065,0,0,1-1.853,2.652,2.052,2.052,0,0,1-.8-1.007,3.763,3.763,0,0,1-1.5.32,3.045,3.045,0,0,1-3.261-2.771,2.418,2.418,0,0,1,.37-1.256,2.9,2.9,0,0,1-2.821-2.573,2.067,2.067,0,0,1,.184-.817l-.067,0a2.6,2.6,0,0,1-2.8-2.356A2.476,2.476,0,0,1,661.3,51.3Z" transform="translate(-659.164 -35.666)" fill="#a7a7a7"/>
      </g>
      <g id="Group_4665" data-name="Group 4665" transform="translate(24.624 4.633)">
        <path id="Path_3982" data-name="Path 3982" d="M673.369,49.653a3.706,3.706,0,0,1,1.043.158,3.969,3.969,0,0,1,2.755-6.786c.031,0,.057.005.091.007a3.656,3.656,0,0,1-.07-.706,3.6,3.6,0,0,1,6.073-2.63,7.391,7.391,0,0,1,6-3.161,7.732,7.732,0,0,1,7.534,7.917l0,.038A2.206,2.206,0,0,1,698,48.156a4.434,4.434,0,0,1,3.146,4.137,4.072,4.072,0,0,1-.49,1.921,3.157,3.157,0,0,1,2.922,2.8,2.4,2.4,0,0,1-.563,1.5,3.859,3.859,0,0,1,2.32,3.3c0,2.218-2.389,4.015-5.337,4.015-.143,0-.277-.024-.42-.034,0,.012.005.021.005.034a2.273,2.273,0,0,1-2.463,2.014,3.291,3.291,0,0,1-.367-.031,3.649,3.649,0,0,1-6.965.573c-.06,0-.115.017-.179.017a2.214,2.214,0,0,1-2.174-2.254,2.238,2.238,0,0,1,.127-.723,3.315,3.315,0,0,1-1.953-2.614,3.12,3.12,0,0,1-.928.157,3.051,3.051,0,0,1-3.086-3.015,2.949,2.949,0,0,1,.977-2.186,3.365,3.365,0,0,1-.836-1.465,4.872,4.872,0,0,1-1.163.447,3.152,3.152,0,0,1-4.444,1.458,4,4,0,0,1-2.766,1.16,4.889,4.889,0,0,1,0-9.71Z" transform="translate(-669.054 -36.536)" fill="#86898e"/>
      </g>
      <g id="Group_4666" data-name="Group 4666" transform="translate(28.102 6.603)">
        <path id="Path_3983" data-name="Path 3983" d="M674.574,48.3a3.115,3.115,0,0,1,.843.127,3.212,3.212,0,0,1,2.232-5.493c.024,0,.047,0,.071,0a3.279,3.279,0,0,1-.053-.571,2.918,2.918,0,0,1,4.92-2.131,5.979,5.979,0,0,1,4.857-2.557,6.263,6.263,0,0,1,6.1,6.411l0,.033a1.786,1.786,0,0,1,.983,2.969,3.583,3.583,0,0,1,2.547,3.352,3.361,3.361,0,0,1-.4,1.554,2.552,2.552,0,0,1,2.361,2.265,1.934,1.934,0,0,1-.451,1.21,3.132,3.132,0,0,1,1.879,2.678c0,1.8-1.933,3.249-4.327,3.249-.112,0-.222-.017-.336-.026V61.4a1.841,1.841,0,0,1-1.991,1.633,1.913,1.913,0,0,1-.3-.026,2.884,2.884,0,0,1-2.888,2.341,2.916,2.916,0,0,1-2.754-1.876,1.365,1.365,0,0,1-.144.015,1.8,1.8,0,0,1-1.762-1.828,1.87,1.87,0,0,1,.1-.583,2.682,2.682,0,0,1-1.576-2.119,2.612,2.612,0,0,1-.757.122,2.47,2.47,0,0,1-2.5-2.437,2.408,2.408,0,0,1,.79-1.774,2.69,2.69,0,0,1-.673-1.184,4.187,4.187,0,0,1-.941.363,2.6,2.6,0,0,1-2.354,1.514,2.539,2.539,0,0,1-1.246-.334,3.245,3.245,0,0,1-2.241.938,3.959,3.959,0,0,1,0-7.865Z" transform="translate(-671.075 -37.681)" fill="#a7a7a7"/>
      </g>
    </g>
    <g id="Group_4919" data-name="Group 4919" transform="translate(323.158 319.045)">
      <g id="Group_4662-2" data-name="Group 4662" transform="translate(13.265 9.712)">
        <g id="Group_4646-2" data-name="Group 4646" transform="translate(5.734 4.862)">
          <path id="Path_3972-2" data-name="Path 3972" d="M691.076,60.054s-7.228,9.137-9.564,12.114-3.614,4.194-6.59,3.769-5.394-8.182-5.309-12.056c.127-5.936,0-12.963-3.187-20.612l-.64-.957s3.476,10.464,2.926,16.258c-.692,7.221,1.009,19.965,4.621,20.39s6.213.368,7.968-3.662c2.582-5.934,9.775-14.606,10.835-15.029S691.076,60.054,691.076,60.054Z" transform="translate(-665.786 -42.312)" fill="#484d54"/>
        </g>
        <g id="Group_4649-2" data-name="Group 4649" transform="translate(0 11.131)">
          <g id="Group_4648-2" data-name="Group 4648">
            <g id="Group_4647-2" data-name="Group 4647">
              <path id="Path_3973-2" data-name="Path 3973" d="M672.532,69.519a26.96,26.96,0,0,0-.96-3.022q-.56-1.51-1.215-2.988a32.606,32.606,0,0,0-3.1-5.638c-.31-.442-.644-.845-1-1.267a11.993,11.993,0,0,1-.945-1.354,17.526,17.526,0,0,1-1.394-2.96,27.571,27.571,0,0,1-1.465-6.335,27.409,27.409,0,0,0,1.683,6.249,16.865,16.865,0,0,0,1.475,2.859,11.574,11.574,0,0,0,.957,1.279,15.878,15.878,0,0,1,1.06,1.251,33.318,33.318,0,0,1,3.347,5.626q.715,1.477,1.334,2.991a25.757,25.757,0,0,1,1.1,3.136Z" transform="translate(-662.454 -45.955)" fill="#484d54"/>
            </g>
          </g>
        </g>
        <g id="Group_4651-2" data-name="Group 4651" transform="translate(12.489 8.474)">
          <g id="Group_4650-2" data-name="Group 4650">
            <path id="Path_3974-2" data-name="Path 3974" d="M669.959,74.386a13.261,13.261,0,0,1,.895-7.863c1.019-2.382,2.024-4.765,2.958-7.177a60.721,60.721,0,0,0,2.437-7.354,12.884,12.884,0,0,0-.754-7.581,13.005,13.005,0,0,1,.976,7.629,61.44,61.44,0,0,1-2.232,7.462c-.867,2.446-1.807,4.865-2.759,7.275a12.5,12.5,0,0,0-.647,7.368Z" transform="translate(-669.711 -44.411)" fill="#484d54"/>
          </g>
        </g>
        <g id="Group_4653-2" data-name="Group 4653" transform="translate(18.574 8.474)">
          <g id="Group_4652-2" data-name="Group 4652">
            <path id="Path_3975-2" data-name="Path 3975" d="M673.34,74.484l-.034-.057a.752.752,0,0,1-.059-.26.571.571,0,0,1,.021-.184l.034-.11a1.965,1.965,0,0,1,.138-.3c.1-.179.2-.327.3-.48l.623-.859c.415-.556.824-1.11,1.213-1.68a18.9,18.9,0,0,0,2.014-3.559,9.554,9.554,0,0,0,.58-1.931,17.96,17.96,0,0,0,.153-2.046,23.278,23.278,0,0,1,.73-4.153,28.768,28.768,0,0,1,1.361-3.974,13.8,13.8,0,0,1,2.112-3.636,23.531,23.531,0,0,0,2.791-3.086,10.346,10.346,0,0,0,1.736-3.753,10.416,10.416,0,0,1-1.642,3.819,24.113,24.113,0,0,1-2.717,3.175,13.446,13.446,0,0,0-1.965,3.611,28.251,28.251,0,0,0-1.237,3.955,22.675,22.675,0,0,0-.6,4.077,18.061,18.061,0,0,1-.105,2.115,10.014,10.014,0,0,1-.561,2.076,20.123,20.123,0,0,1-1.983,3.753c-.389.592-.788,1.169-1.187,1.736l-.584.85c-.089.138-.177.279-.244.408a1.13,1.13,0,0,0-.072.17l-.005.014c-.007.012,0,.021,0-.052a.234.234,0,0,0-.053-.134l.033.057Z" transform="translate(-673.247 -44.411)" fill="#484d54"/>
          </g>
        </g>
        <g id="Group_4655-2" data-name="Group 4655" transform="translate(14.435 9.748)">
          <g id="Group_4654-2" data-name="Group 4654">
            <path id="Path_3976-2" data-name="Path 3976" d="M672.322,60.631a13.827,13.827,0,0,0-.36-3.841,15.409,15.409,0,0,0-.542-1.864,8.034,8.034,0,0,1-.466-1.936,19.127,19.127,0,0,1-.021-3.945,32.97,32.97,0,0,1,.558-3.895,34.3,34.3,0,0,0-.448,3.9,19.1,19.1,0,0,0,.134,3.9c.151,1.289.828,2.444,1.115,3.75a14.125,14.125,0,0,1,.477,3.958Z" transform="translate(-670.842 -45.151)" fill="#484d54"/>
          </g>
        </g>
        <g id="Group_4657-2" data-name="Group 4657" transform="translate(8.829 0.506)">
          <g id="Group_4656-2" data-name="Group 4656">
            <path id="Path_3977-2" data-name="Path 3977" d="M667.584,59.751a64.167,64.167,0,0,1,1.06-10.133c.3-1.678.99-3.261,1.041-4.96a8.612,8.612,0,0,0-1.074-4.877,8.653,8.653,0,0,1,1.187,4.884c-.015,1.723-.673,3.335-.936,5a63.51,63.51,0,0,0-.824,10.092Z" transform="translate(-667.584 -39.781)" fill="#484d54"/>
          </g>
        </g>
        <g id="Group_4659-2" data-name="Group 4659" transform="translate(15.692 3.191)">
          <g id="Group_4658-2" data-name="Group 4658">
            <path id="Path_3978-2" data-name="Path 3978" d="M671.572,77.4a39.326,39.326,0,0,1,2.024-9.367,18.541,18.541,0,0,1,.984-2.213c.385-.726.821-1.366,1.184-2.065a39.383,39.383,0,0,0,1.972-4.284,43.874,43.874,0,0,0,2.5-9.116c.243-1.551.313-3.156.713-4.7a10.517,10.517,0,0,1,1.91-4.315,10.491,10.491,0,0,0-1.8,4.335c-.356,1.549-.387,3.13-.6,4.712a44.484,44.484,0,0,1-2.3,9.242,39.259,39.259,0,0,1-1.9,4.39c-.351.716-.79,1.4-1.132,2.084a16.5,16.5,0,0,0-.892,2.155,38.576,38.576,0,0,0-1.767,9.209Z" transform="translate(-671.572 -41.341)" fill="#484d54"/>
          </g>
        </g>
        <g id="Group_4661-2" data-name="Group 4661" transform="translate(9.925)">
          <g id="Group_4660-2" data-name="Group 4660">
            <path id="Path_3979-2" data-name="Path 3979" d="M668.221,73.392a40.594,40.594,0,0,0,1.5-8.557c.007-2.921.026-5.874.222-8.806a56.4,56.4,0,0,1,1.17-8.736,24.2,24.2,0,0,1,1.33-4.2,9.721,9.721,0,0,1,2.477-3.6,9.55,9.55,0,0,0-2.372,3.649,23.925,23.925,0,0,0-1.213,4.2,55.655,55.655,0,0,0-.94,8.715c-.124,2.924-.067,5.841,0,8.786a41.464,41.464,0,0,1-1.3,8.781Z" transform="translate(-668.221 -39.487)" fill="#484d54"/>
          </g>
        </g>
      </g>
      <g id="Group_4663-2" data-name="Group 4663" transform="translate(0 0)">
        <path id="Path_3980-2" data-name="Path 3980" d="M654.746,55.964a3.048,3.048,0,0,1,2.63-2.817,5.54,5.54,0,0,1,4.853-4.891,2.857,2.857,0,0,1-.072-.594,3.529,3.529,0,0,1,2.415-3.148,4.517,4.517,0,0,1-.616-2.244,4.664,4.664,0,0,1,4.714-4.612,4.729,4.729,0,0,1,3.809,1.915,4.051,4.051,0,0,1,4.22-.549,5.8,5.8,0,0,1,.9-1.174c0-.041-.012-.083-.012-.126a2.419,2.419,0,0,1,2.459-2.377,2.469,2.469,0,0,1,1.389.42c.281-.067.564-.12.854-.162a4.179,4.179,0,0,1,3.442-1.762,4.128,4.128,0,0,1,3.68,2.177l.045,0a5.84,5.84,0,0,1,1.009,11.6,5.205,5.205,0,0,1-3.516,1.246,6.233,6.233,0,0,1-1.012-.089,4.846,4.846,0,0,1-2.27.573,4.742,4.742,0,0,1-.724-.065,5.177,5.177,0,0,1-5.1,3.767l-.026,0c.005.081.026.155.026.236a2.824,2.824,0,0,1-2.953,2.68,3.179,3.179,0,0,1-1.354-.315,4.677,4.677,0,0,1-2.286,1.974,3.983,3.983,0,0,1,.673,2.036A3.4,3.4,0,0,1,674.89,62.7c0,1.511-1.356,2.773-3.168,3.086a2.511,2.511,0,0,1,.22,1.014,2.574,2.574,0,0,1-4.991.828,4.579,4.579,0,0,1-1.848.394c-2.225,0-4.024-1.528-4.024-3.413a2.954,2.954,0,0,1,.459-1.559c-1.971-.232-3.485-1.561-3.485-3.17a2.556,2.556,0,0,1,.227-1.015c-.027,0-.055.007-.083.007A3.215,3.215,0,0,1,654.746,55.964Z" transform="translate(-654.746 -33.844)" fill="#86898e"/>
      </g>
      <g id="Group_4664-2" data-name="Group 4664" transform="translate(7.603 3.136)">
        <path id="Path_3981-2" data-name="Path 3981" d="M661.3,51.3a4.486,4.486,0,0,1,3.929-3.962,2.239,2.239,0,0,1-.062-.482,2.865,2.865,0,0,1,1.957-2.547,3.66,3.66,0,0,1-.5-1.817,3.779,3.779,0,0,1,3.817-3.738,3.835,3.835,0,0,1,3.086,1.556,3.281,3.281,0,0,1,3.416-.446,4.866,4.866,0,0,1,.733-.953c0-.029-.007-.062-.007-.1a1.956,1.956,0,0,1,1.988-1.926,2.038,2.038,0,0,1,1.127.339c.227-.053.458-.1.694-.133a3.383,3.383,0,0,1,2.786-1.423,3.349,3.349,0,0,1,2.981,1.764l.036-.005a4.755,4.755,0,0,1,4.743,4.373,5.874,5.874,0,0,1-4.746,4.509,5.206,5.206,0,0,1-3.516,1.246,6.233,6.233,0,0,1-1.012-.089,4.846,4.846,0,0,1-2.27.573,4.742,4.742,0,0,1-.724-.065,5.177,5.177,0,0,1-5.1,3.767l-.026,0c.005.081.026.155.026.236a2.824,2.824,0,0,1-2.953,2.68,3.179,3.179,0,0,1-1.354-.315,4.677,4.677,0,0,1-2.286,1.974,3.983,3.983,0,0,1,.673,2.036,3.4,3.4,0,0,1,2.967,3.039,3.065,3.065,0,0,1-1.853,2.652,2.052,2.052,0,0,1-.8-1.007,3.763,3.763,0,0,1-1.5.32,3.045,3.045,0,0,1-3.261-2.771,2.418,2.418,0,0,1,.37-1.256,2.9,2.9,0,0,1-2.821-2.573,2.067,2.067,0,0,1,.184-.817l-.067,0a2.6,2.6,0,0,1-2.8-2.356A2.476,2.476,0,0,1,661.3,51.3Z" transform="translate(-659.164 -35.666)" fill="#a7a7a7"/>
      </g>
      <g id="Group_4665-2" data-name="Group 4665" transform="translate(24.624 4.633)">
        <path id="Path_3982-2" data-name="Path 3982" d="M673.369,49.653a3.706,3.706,0,0,1,1.043.158,3.969,3.969,0,0,1,2.755-6.786c.031,0,.057.005.091.007a3.656,3.656,0,0,1-.07-.706,3.6,3.6,0,0,1,6.073-2.63,7.391,7.391,0,0,1,6-3.161,7.732,7.732,0,0,1,7.534,7.917l0,.038A2.206,2.206,0,0,1,698,48.156a4.434,4.434,0,0,1,3.146,4.137,4.072,4.072,0,0,1-.49,1.921,3.157,3.157,0,0,1,2.922,2.8,2.4,2.4,0,0,1-.563,1.5,3.859,3.859,0,0,1,2.32,3.3c0,2.218-2.389,4.015-5.337,4.015-.143,0-.277-.024-.42-.034,0,.012.005.021.005.034a2.273,2.273,0,0,1-2.463,2.014,3.291,3.291,0,0,1-.367-.031,3.649,3.649,0,0,1-6.965.573c-.06,0-.115.017-.179.017a2.214,2.214,0,0,1-2.174-2.254,2.238,2.238,0,0,1,.127-.723,3.315,3.315,0,0,1-1.953-2.614,3.12,3.12,0,0,1-.928.157,3.051,3.051,0,0,1-3.086-3.015,2.949,2.949,0,0,1,.977-2.186,3.365,3.365,0,0,1-.836-1.465,4.872,4.872,0,0,1-1.163.447,3.152,3.152,0,0,1-4.444,1.458,4,4,0,0,1-2.766,1.16,4.889,4.889,0,0,1,0-9.71Z" transform="translate(-669.054 -36.536)" fill="#86898e"/>
      </g>
      <g id="Group_4666-2" data-name="Group 4666" transform="translate(28.102 6.603)">
        <path id="Path_3983-2" data-name="Path 3983" d="M674.574,48.3a3.115,3.115,0,0,1,.843.127,3.212,3.212,0,0,1,2.232-5.493c.024,0,.047,0,.071,0a3.279,3.279,0,0,1-.053-.571,2.918,2.918,0,0,1,4.92-2.131,5.979,5.979,0,0,1,4.857-2.557,6.263,6.263,0,0,1,6.1,6.411l0,.033a1.786,1.786,0,0,1,.983,2.969,3.583,3.583,0,0,1,2.547,3.352,3.361,3.361,0,0,1-.4,1.554,2.552,2.552,0,0,1,2.361,2.265,1.934,1.934,0,0,1-.451,1.21,3.132,3.132,0,0,1,1.879,2.678c0,1.8-1.933,3.249-4.327,3.249-.112,0-.222-.017-.336-.026V61.4a1.841,1.841,0,0,1-1.991,1.633,1.913,1.913,0,0,1-.3-.026,2.884,2.884,0,0,1-2.888,2.341,2.916,2.916,0,0,1-2.754-1.876,1.365,1.365,0,0,1-.144.015,1.8,1.8,0,0,1-1.762-1.828,1.87,1.87,0,0,1,.1-.583,2.682,2.682,0,0,1-1.576-2.119,2.612,2.612,0,0,1-.757.122,2.47,2.47,0,0,1-2.5-2.437,2.408,2.408,0,0,1,.79-1.774,2.69,2.69,0,0,1-.673-1.184,4.187,4.187,0,0,1-.941.363,2.6,2.6,0,0,1-2.354,1.514,2.539,2.539,0,0,1-1.246-.334,3.245,3.245,0,0,1-2.241.938,3.959,3.959,0,0,1,0-7.865Z" transform="translate(-671.075 -37.681)" fill="#a7a7a7"/>
      </g>
    </g>
    <g id="Group_4806" data-name="Group 4806" transform="translate(210.413 125.999)">
      <g id="Group_4800" data-name="Group 4800" transform="translate(48.819 32.967)">
        <path id="Path_4092" data-name="Path 4092" d="M780.3-58.667c.274,14.6.668,29.209,1.444,43.787a208.554,208.554,0,0,0,1.976,21.669,66.408,66.408,0,0,1,1.306,11.042c.222,3.662.377,7.319.5,10.985.91,29.26.917,58.483.885,87.728l-6.461-.127c1.019-29.169,1.995-58.383,2.07-87.545,0-3.642-.04-7.287-.136-10.918a63.043,63.043,0,0,0-.9-10.744A211.678,211.678,0,0,1,779.9-14.816C779.744-29.446,779.949-44.063,780.3-58.667Z" transform="translate(-779.847 58.667)" fill="#484d54"/>
      </g>
      <g id="Group_4801" data-name="Group 4801" transform="translate(21.504 64.386)">
        <path id="Path_4093" data-name="Path 4093" d="M763.975-40.411A397.863,397.863,0,0,0,776.318,3.858a223.041,223.041,0,0,0,8.538,21.318c3.265,6.894,6.943,13.691,11.775,19.5l-2.544,1.9c-4.912-6.347-8.374-13.382-11.451-20.49a223.37,223.37,0,0,1-7.858-21.765A397.331,397.331,0,0,1,763.975-40.411Z" transform="translate(-763.975 40.411)" fill="#484d54"/>
      </g>
      <g id="Group_4802" data-name="Group 4802" transform="translate(51.706 66.972)">
        <path id="Path_4094" data-name="Path 4094" d="M781.524,21.291a68.209,68.209,0,0,0,10.1-12.906A77.642,77.642,0,0,0,798.7-6.438a74.023,74.023,0,0,0,3.791-32.47A74.567,74.567,0,0,1,800.24-5.98a79.046,79.046,0,0,1-6.514,15.5,70.56,70.56,0,0,1-9.913,13.945Z" transform="translate(-781.524 38.908)" fill="#484d54"/>
      </g>
      <g id="Group_4803" data-name="Group 4803" transform="translate(40.774 66.972)">
        <path id="Path_4095" data-name="Path 4095" d="M775.42,26.862a11.727,11.727,0,0,1-.215-2.339l-.033-2.067.01-4.1.112-8.2.358-16.36.922-32.706L776.862-6.2l.244,16.353.2,8.173.139,4.068.108,2.031a15.263,15.263,0,0,0,.172,1.724Z" transform="translate(-775.172 38.908)" fill="#484d54"/>
      </g>
      <g id="Group_4804" data-name="Group 4804">
        <path id="Path_4096" data-name="Path 4096" d="M849.849-28.124A25.356,25.356,0,0,0,837.666-49.7a14.315,14.315,0,0,0,1.439-6.233c0-8.676-7.767-15.711-17.339-15.711a19.74,19.74,0,0,0-3.358.308,23.48,23.48,0,0,0-16.518-6.486c-10.575,0-19.39,6.421-21.454,14.959-.15,0-.3-.021-.456-.021-12.167,0-22.053,10.147-22.053,22.66a23.063,23.063,0,0,0,3.432,12.1c-6,3.394-9.879,8.7-9.879,14.684,0,7.743,6.466,14.363,15.642,17.146-.014.2-.047.413-.047.632,0,9.817,10.347,17.766,23.108,17.766a28.612,28.612,0,0,0,11.341-2.285,22.342,22.342,0,0,0,9.894,2.285c11.723,0,21.229-8.875,21.229-19.833a18.5,18.5,0,0,0-1.026-6.067A25.592,25.592,0,0,0,849.849-28.124Z" transform="translate(-751.48 77.823)" fill="#86898e"/>
      </g>
      <g id="Group_4805" data-name="Group 4805" transform="translate(10.135 10.302)">
        <path id="Path_4097" data-name="Path 4097" d="M829.883-35.209a18.686,18.686,0,0,0-8.984-15.9,10.632,10.632,0,0,0,1.058-4.59c0-6.4-5.715-11.582-12.78-11.582a14.106,14.106,0,0,0-2.468.227,17.312,17.312,0,0,0-12.19-4.783c-7.786,0-14.282,4.729-15.807,11.032-.112-.009-.219-.029-.33-.029A16.488,16.488,0,0,0,762.134-44.12a16.912,16.912,0,0,0,2.53,8.918c-4.428,2.5-7.3,6.409-7.3,10.823,0,5.7,4.772,10.586,11.532,12.632-.005.158-.033.31-.033.468,0,7.235,7.627,13.1,17.034,13.1A20.945,20.945,0,0,0,794.26.125a16.435,16.435,0,0,0,7.3,1.693C810.2,1.818,817.2-4.718,817.2-12.8a13.834,13.834,0,0,0-.754-4.476A18.864,18.864,0,0,0,829.883-35.209Z" transform="translate(-757.369 71.837)" fill="#a7a7a7"/>
      </g>
    </g>
    <g id="Group_4814" data-name="Group 4814" transform="translate(104.763 100.238)">
      <g id="Group_4807" data-name="Group 4807" transform="translate(80.445 127.73)">
        <path id="Path_4098" data-name="Path 4098" d="M742.778,17.96s-.437-10.62,5.967-15.337,16.566-6.593,16.864-21.2h-2.521s.632,9.412-5.061,11.772S746.435-3.97,742.852,4.5c-2.347,5.559-4.234,4.179-5.464.583-1.246-3.588,0,15.9,0,15.9Z" transform="translate(-736.834 18.573)" fill="#484d54"/>
      </g>
      <g id="Group_4808" data-name="Group 4808" transform="translate(53.33 96.162)">
        <path id="Path_4099" data-name="Path 4099" d="M721.079-18.852s1.368,23.863,8.543,31.4,15.585,12.725,17.635,28.732-6.684,27.985-8.853,40.975c-.489,3,.083,5.5-.821,7.516-2.26,5.048-7.276,7.137-.917,6.757,2.881-.165,1.628-.224,2.881-.227,2.9-.012,2.75.258,5.612.065,4.1-.294,4.1.086,7.171-.527,2.521-.5,2.967.293,9.476.453,3.963.095-3.525-4.359-4.795-6.621-3.74-6.646-7.065-8.044-3.993-16.21s6.82-24.476,2.731-37.666c-4.106-13.191-11.513-22.235-8.493-31.544,3.024-9.278,16.838-22.82,14.888-41.164h-2.306s.351,14.293-3.75,19.007S745.98-7.551,745.233-3.78,738.842,15.373,733.89,8.79c-3.542-4.726-4.44-1.261-6.151-7.535s-4.6-13.594-4.7-20.3S721.079-18.852,721.079-18.852Z" transform="translate(-721.079 36.916)" fill="#484d54"/>
      </g>
      <g id="Group_4809" data-name="Group 4809" transform="translate(40.582)" style="isolation: isolate">
        <path id="Path_4100" data-name="Path 4100" d="M782.232-59.634a11.231,11.231,0,0,0,.122-2.294,10.611,10.611,0,0,0-8.04-9.83,14.256,14.256,0,0,0,.095-2.525c-.27-5.536-3.809-9.932-8.359-10.927-1.322-4.671-4.282-7.829-7.546-7.567a5.684,5.684,0,0,0-3.649,1.914,6.048,6.048,0,0,0-4.077-1.291,7.256,7.256,0,0,0-5.505,3.982,9.924,9.924,0,0,0-4.783-.823c-6.5.527-11.477,7.411-11.453,15.594a10.574,10.574,0,0,0-3.542-.322c-6.931.563-12.216,7.684-11.8,15.9.339,6.789,4.469,12.21,9.808,13.567a7.39,7.39,0,0,0-.014,1.069c.274,5.447,5.4,9.469,11.436,8.975A11.61,11.61,0,0,0,744.194-40a13.608,13.608,0,0,0,11.094,4.113A14.685,14.685,0,0,0,762.1-38.2a14.225,14.225,0,0,0,11.859,4.685A15.127,15.127,0,0,0,787.88-49.117,13.871,13.871,0,0,0,782.232-59.634Z" transform="translate(-713.672 92.792)" fill="#86898e"/>
      </g>
      <g id="Group_4810" data-name="Group 4810" transform="translate(49.009 7.437)" style="isolation: isolate">
        <path id="Path_4101" data-name="Path 4101" d="M766.723-65.181A7.867,7.867,0,0,0,766.8-66.8a7.451,7.451,0,0,0-5.652-6.9,9.947,9.947,0,0,0,.074-1.776c-.189-3.9-2.681-6.975-5.869-7.677-.931-3.268-3.005-5.493-5.308-5.308a4.038,4.038,0,0,0-2.563,1.335,4.23,4.23,0,0,0-2.86-.9,5.107,5.107,0,0,0-3.865,2.8,6.732,6.732,0,0,0-3.356-.582c-4.569.372-8.065,5.2-8.047,10.946a7.506,7.506,0,0,0-2.485-.225c-4.869.392-8.576,5.4-8.29,11.178.246,4.769,3.143,8.572,6.894,9.522a5.739,5.739,0,0,0-.009.754c.188,3.819,3.784,6.638,8.02,6.294a8.152,8.152,0,0,0,6.518-4.058A9.554,9.554,0,0,0,747.79-48.5a10.493,10.493,0,0,0,4.786-1.614,10.039,10.039,0,0,0,8.326,3.282,10.618,10.618,0,0,0,9.782-10.968A9.708,9.708,0,0,0,766.723-65.181Z" transform="translate(-718.568 88.47)" fill="#a7a7a7"/>
      </g>
      <g id="Group_4811" data-name="Group 4811" transform="translate(94.317 97.27)">
        <path id="Path_4102" data-name="Path 4102" d="M748.3-16.308a6.339,6.339,0,0,1-.072-1.4,6.384,6.384,0,0,1,4.845-5.906,8.394,8.394,0,0,1-.062-1.518,6.851,6.851,0,0,1,5.036-6.583c.8-2.816,2.575-4.722,4.543-4.55a3.369,3.369,0,0,1,2.194,1.146,3.632,3.632,0,0,1,2.458-.771,4.368,4.368,0,0,1,3.309,2.4,5.987,5.987,0,0,1,2.883-.49c3.91.324,6.908,4.461,6.893,9.376a6.346,6.346,0,0,1,2.139-.184c4.172.33,7.35,4.619,7.1,9.57-.2,4.086-2.685,7.347-5.91,8.175a5.16,5.16,0,0,1,.009.637c-.158,3.273-3.244,5.7-6.877,5.4a7.02,7.02,0,0,1-5.6-3.476,8.133,8.133,0,0,1-6.662,2.47,8.983,8.983,0,0,1-4.11-1.389,8.6,8.6,0,0,1-7.137,2.826,9.112,9.112,0,0,1-8.383-9.409A8.332,8.332,0,0,1,748.3-16.308Z" transform="translate(-744.895 36.272)" fill="#a7a7a7"/>
      </g>
      <g id="Group_4812" data-name="Group 4812" transform="translate(0 37.464)" style="isolation: isolate">
        <path id="Path_4103" data-name="Path 4103" d="M835.439-25.288a14.617,14.617,0,0,0,.313-2.974,14.422,14.422,0,0,0-9.86-13.675,17.677,17.677,0,0,0,.31-3.278c0-7.266-4.335-13.364-10.2-15.15-1.425-6.211-5.07-10.658-9.35-10.658a7.169,7.169,0,0,0-4.882,2.1,8.079,8.079,0,0,0-5.244-2.1c-2.952,0-5.579,1.8-7.433,4.616a13.05,13.05,0,0,0-6.182-1.585c-8.338,0-15.174,8.1-15.935,18.437-1.929-3.032-4.877-5.024-8.232-5.024a5.4,5.4,0,0,0-.673.086,14.936,14.936,0,0,0-13.061-8.132,14.372,14.372,0,0,0-9.607,3.729c-2.107-3.544-5.38-5.858-9.094-5.858-6.228,0-11.276,6.416-11.5,14.424A17.317,17.317,0,0,0,705.413-34.6a17.969,17.969,0,0,0,.274,3.11c-3.22,2.131-5.241,5.16-5.241,8.538a8.463,8.463,0,0,0,.313,2.285A15.2,15.2,0,0,0,690.091-6.257,15.357,15.357,0,0,0,705.609,8.926a16,16,0,0,0,3.623-.432c.365,7.55,7.861,13.591,17.081,13.591,6.55,0,12.236-3.053,15.109-7.535a15.642,15.642,0,0,0,3.592.441A15.13,15.13,0,0,0,759.237,4.947a18.27,18.27,0,0,0,10.047,2.967c7.555,0,13.95-4.407,16.224-10.538a18.422,18.422,0,0,0,13.231,5.478,18.721,18.721,0,0,0,9.04-2.308A19.208,19.208,0,0,0,822.95,7.914a19.034,19.034,0,0,0,19.174-18.888A18.723,18.723,0,0,0,835.439-25.288Z" transform="translate(-690.091 71.023)" fill="#86898e"/>
      </g>
      <g id="Group_4813" data-name="Group 4813" transform="translate(17.909 50.117)" style="isolation: isolate">
        <path id="Path_4104" data-name="Path 4104" d="M813-34.609a11.466,11.466,0,0,0,.523-3.261,11.643,11.643,0,0,0-9.068-11.321,12.889,12.889,0,0,0,.6-3.864c0-5.863-3.8-10.617-8.493-10.617-3.413,0-6.335,2.52-7.686,6.149a10.8,10.8,0,0,0-6.387-2.11,11.355,11.355,0,0,0-11.142,11.551,13.007,13.007,0,0,0,.134,1.454,11.739,11.739,0,0,0-6.464,7.414,12.344,12.344,0,0,0-9.841-4.573,13.565,13.565,0,0,0-3.249.435,14.578,14.578,0,0,0-13.427-9.7,14.18,14.18,0,0,0-11.644,6.326,9.414,9.414,0,0,0-4.666-1.263,9.237,9.237,0,0,0-9.354,9.109,8.919,8.919,0,0,0,2.437,6.085c-7.089.146-12.778,4.375-12.778,9.6a8.087,8.087,0,0,0,2.821,5.934c-2.948,1.95-4.817,4.795-4.817,7.97,0,5.877,6.332,10.632,14.135,10.632A16.5,16.5,0,0,0,724.98-2.073,16.586,16.586,0,0,0,734.127.581c8.02,0,14.534-5.321,14.534-11.883a9.639,9.639,0,0,0-.187-1.785,16.664,16.664,0,0,0,10.684,3.8c6.874,0,12.706-3.991,14.866-9.55a14.667,14.667,0,0,0,11.446,5.252,14.767,14.767,0,0,0,10.9-4.6c1.824,5.166,7.142,8.9,13.407,8.9,7.793,0,14.11-5.738,14.11-12.823C823.884-28.193,819.23-33.273,813-34.609Z" transform="translate(-700.497 63.671)" fill="#a7a7a7"/>
      </g>
    </g>
    <g id="Group_4871" data-name="Group 4871" transform="translate(178.646 159.509)">
      <path id="Path_4106" data-name="Path 4106" d="M782.3-9.858s1.155,1.217,3.174,3.347c1,1.086,2.239,2.358,3.7,3.716s3.051,3.01,4.9,4.611,3.8,3.437,5.948,5.227,4.382,3.728,6.76,5.607,4.8,3.884,7.333,5.789c2.518,1.933,5.068,3.908,7.664,5.788,5.156,3.836,10.384,7.516,15.3,10.937s9.534,6.531,13.548,9.075,7.343,4.693,9.717,6.1l3.733,2.182-.721,1.81-13.246-8.844c-3.96-2.683-8.579-5.815-13.527-9.169-4.931-3.4-10.176-7.053-15.353-10.868l-7.712-5.722c-2.55-1.872-5-3.853-7.4-5.705s-4.652-3.779-6.824-5.535-4.149-3.573-6.013-5.17c-1.871-1.58-3.5-3.223-4.989-4.58s-2.748-2.614-3.755-3.679l-3.2-3.3Z" transform="translate(-698.183 93.316)" fill="#1f386b"/>
      <g id="Group_4816" data-name="Group 4816" transform="translate(92.828 92.337)">
        <rect id="Rectangle_612" data-name="Rectangle 612" width="13.864" height="8.185" rx="1.64" transform="matrix(0.857, 0.516, -0.516, 0.857, 4.22, 1.676)" fill="#1f386b"/>
        <g id="Group_4815" data-name="Group 4815" transform="translate(3.296)">
          <path id="Path_4107" data-name="Path 4107" d="M798.127,7.44a.883.883,0,0,1-.3-1.213l2.387-3.967L792.134-2.6,790.518.087a.885.885,0,0,1-1.213.3A.887.887,0,0,1,789-.826l2.074-3.444a.885.885,0,0,1,1.213-.3L801.88,1.2a.883.883,0,0,1,.3,1.213L799.34,7.139A.884.884,0,0,1,798.127,7.44Z" transform="translate(-788.876 4.698)" fill="#1f386b"/>
        </g>
      </g>
      <g id="Group_4866" data-name="Group 4866">
        <g id="Group_4839" data-name="Group 4839" transform="translate(0 2.641)">
          <g id="Group_4819" data-name="Group 4819" transform="translate(44.756 193.271)">
            <g id="Group_4818" data-name="Group 4818" transform="translate(0 0)">
              <g id="Group_4817" data-name="Group 4817">
                <path id="Path_4108" data-name="Path 4108" d="M770.96,55.666c-1.095,1.007-10.517-.189-10.989.976-.5,1.153-1.335,4.4-.683,6.118a1.2,1.2,0,0,0-.157,1.308c.3.89,2.676,1.12,5.748,1.081s12.328.59,14.89-.129c2.549-.7,4.874-1.628,5.2-2.724s1.051-3.418-1.234-3.091-4.993.31-6.171-.3a30.113,30.113,0,0,1-4.74-2.492C771.808,55.528,771.409,55.268,770.96,55.666Z" transform="translate(-759.028 -55.485)" fill="#4e5156"/>
              </g>
            </g>
          </g>
          <g id="Group_4822" data-name="Group 4822" transform="translate(0 178.6)">
            <g id="Group_4821" data-name="Group 4821" transform="translate(0 0)">
              <g id="Group_4820" data-name="Group 4820">
                <path id="Path_4109" data-name="Path 4109" d="M748.115,54.923c-1.569-.145-7.316-8.4-8.569-7.944-1.26.429-4.4,2.072-5.294,3.81,0,0-.652-.072-1.139.8s1.017,2.9,3.23,5.283,8.288,10.106,10.674,11.61c2.363,1.506,4.736,2.678,5.836,2.153s3.428-1.594,1.551-3.16-3.79-3.7-4.146-5.06-1.373-4.065-1.408-5.5S748.745,54.993,748.115,54.923Z" transform="translate(-733.022 -46.96)" fill="#152c5c"/>
              </g>
            </g>
          </g>
          <g id="Group_4824" data-name="Group 4824" transform="translate(40.102 93.39)">
            <g id="Group_4823" data-name="Group 4823" transform="translate(0 0)">
              <path id="Path_4110" data-name="Path 4110" d="M756.324,4.778c-.069,6.232,2.631,15.274,2.852,16.766a246.951,246.951,0,0,1,.145,26.058c-.573,11.216.236,41.213,1.124,51.726,0,0,5.258,1.893,15.487-.917,0,0-2.678-31.078-.786-40.523s1.25-51.231,1.537-60.44Z" transform="translate(-756.323 2.552)" fill="#303030"/>
            </g>
          </g>
          <g id="Group_4826" data-name="Group 4826" transform="translate(5.186 91.712)">
            <g id="Group_4825" data-name="Group 4825">
              <path id="Path_4111" data-name="Path 4111" d="M765.11-3.527c-5.271,9.825,1.2,22.456,1.2,23.963A214.122,214.122,0,0,1,762.874,44c-2.2,11.014-20.769,28.756-26.839,38.66,0,0,3.194,10.224,13.419,11.183,0,0,24.877-32.148,28.118-41.216S788.89,9.14,790.511.068Z" transform="translate(-736.035 3.527)" fill="#404040"/>
            </g>
          </g>
          <g id="Group_4834" data-name="Group 4834" transform="translate(46.866)">
            <g id="Group_4828" data-name="Group 4828" transform="translate(1.653 4.812)">
              <g id="Group_4827" data-name="Group 4827">
                <path id="Path_4112" data-name="Path 4112" d="M781.852-41.733c-.654-.756-1.805-2.182-1.229-3.442.356-.759.509-.537-.127-2.742-1.126-4-5.034-5.385-5.733-6.1l-.391.79c-1.046-1.859-15.584,9.462-12.807,14.584,2,3.655.151,6.862-.217,7.843.847.291,8.171,7.727,8.171,7.727a9.592,9.592,0,0,0,2.5-3.3c.151-.46.59-.525.916-1.1.322-.525.22-1.836.558-2.366.065-.1.138-.194.207-.3a6.821,6.821,0,0,1,2.167-.208c1.225.043,3.585.494,4.459-.189s.313-2.556.361-3.043c.028-.489.633-.447,1.141-.959.525-.518-.3-1.274-.3-1.274.219-.212.919-.95.523-1.3-.525-.446-1.253-1,.418-1.919C783.955-39.85,782.856-40.544,781.852-41.733Z" transform="translate(-761.214 54.021)" fill="#f7b799"/>
              </g>
            </g>
            <g id="Group_4833" data-name="Group 4833">
              <g id="Group_4832" data-name="Group 4832">
                <g id="Group_4831" data-name="Group 4831">
                  <g id="Group_4830" data-name="Group 4830">
                    <g id="Group_4829" data-name="Group 4829">
                      <path id="Path_4113" data-name="Path 4113" d="M761.667-48.976c1.659-5.132,18.21-5.168,18.89-7.841,0,0,.09,4.433-1.788,7.142-.6-1.036-7.98,5.858-9.214,9.343-.621,1.754-.257-4.409-3.74-3.234-2.576.873-1.227,5-.434,7.01.6,1.523-2.086,4.228-2.086,4.228l.091,1.358s-2.031-4.917-2.439-6.144C759.869-40.364,760-43.841,761.667-48.976Z" transform="translate(-760.253 56.817)" fill="#622818"/>
                    </g>
                  </g>
                </g>
              </g>
            </g>
          </g>
          <g id="Group_4836" data-name="Group 4836" transform="translate(33.782 23.681)">
            <g id="Group_4835" data-name="Group 4835">
              <path id="Path_4114" data-name="Path 4114" d="M767.7-43.057c-.89,1.385-11.395,11.78-11.656,22.813-.2,8.581-3.392,36.841-3.392,40.664,0,4.605.478,5.034.478,5.034s1.468,4.552,14.857,4.552,12.3-2.716,12.3-2.716,1.289-9.958,2.235-17.644c2.876-23.325,2.222-35.609-4.33-43.932C772.859-41.066,767.7-43.057,767.7-43.057Z" transform="translate(-752.651 43.057)" fill="#4e5156"/>
            </g>
          </g>
          <g id="Group_4838" data-name="Group 4838" transform="translate(53.095 21.228)">
            <g id="Group_4837" data-name="Group 4837">
              <path id="Path_4115" data-name="Path 4115" d="M763.908-44.482s-.976,4.975,7.45,8.5a2.15,2.15,0,0,1,.219-.747c.065-.1.138-.194.206-.3a6.821,6.821,0,0,1,2.167-.208S764.472-39.539,763.908-44.482Z" transform="translate(-763.873 44.482)" fill="#f7b799" opacity="0.3" style="mix-blend-mode: multiply;isolation: isolate"/>
            </g>
          </g>
        </g>
        <g id="Group_4841" data-name="Group 4841" transform="translate(44.165 45.709)">
          <g id="Group_4840" data-name="Group 4840">
            <path id="Path_4116" data-name="Path 4116" d="M776.934,10.544c-4.089-2.919-10.923-15-12.883-20-3.514-8.947-5.366-22.339-5.366-22.339l19.49,33.317C777.871,4.01,777.223,8.681,776.934,10.544Z" transform="translate(-758.684 31.792)" fill="#27292c"/>
          </g>
        </g>
        <g id="Group_4848" data-name="Group 4848" transform="translate(42.413 32.017)">
          <g id="Group_4843" data-name="Group 4843" transform="translate(43.941 54.172)">
            <g id="Group_4842" data-name="Group 4842" transform="translate(0 0)">
              <path id="Path_4117" data-name="Path 4117" d="M789.934-8.271c.272.7.157.73-1,4.623a10.337,10.337,0,0,1-4.23,5.829s-2.392-1.372-1.138-5.1S789.934-8.271,789.934-8.271Z" transform="translate(-783.199 8.271)" fill="#27292c"/>
            </g>
          </g>
          <g id="Group_4845" data-name="Group 4845" transform="translate(43.013 55.13)">
            <g id="Group_4844" data-name="Group 4844">
              <path id="Path_4118" data-name="Path 4118" d="M786.175-7.714c.7.563,3.432.85,5.1,1.623s7.362,3.64,7.782,4.072-.58,2.32-4.545.5c0,0-.85-.64-.737-.069s3.229,2.329,5.4,3.8c2.311,1.568-4.748,3.3-5.69,2.921s-4.573-.807-6.344-2.878-3.081-3.914-4.487-4.951Z" transform="translate(-782.659 7.714)" fill="#f7b799"/>
            </g>
          </g>
          <g id="Group_4847" data-name="Group 4847">
            <g id="Group_4846" data-name="Group 4846">
              <path id="Path_4119" data-name="Path 4119" d="M770.988-39.748c2.215,1.972,5.937,6.977,9.925,15.346,3.285,6.9,8.338,23.079,8.338,23.079l19.091,15.747s-5.326,5.7-5.233,10.452c0,0-21.457-15.035-23.64-16.909-2.848-2.446-21.8-34.248-21.8-34.248Z" transform="translate(-757.666 39.748)" fill="#4e5156"/>
            </g>
          </g>
        </g>
        <g id="Group_4858" data-name="Group 4858" transform="translate(53.026 41.958)">
          <g id="Group_4851" data-name="Group 4851">
            <g id="Group_4849" data-name="Group 4849">
              <path id="Path_4120" data-name="Path 4120" d="M767.683-32.427a11.82,11.82,0,0,0-3.85,3.406l1.045,1.881a32.66,32.66,0,0,1,8.915-4.95q-.521-.94-1.045-1.883A12.751,12.751,0,0,0,767.683-32.427Z" transform="translate(-763.833 33.972)" fill="#152c5c"/>
              <path id="Path_4121" data-name="Path 4121" d="M766.362-24.468h0c1.227,2.22,6.218,3.79,7.567,3.125,1.134-.721,2.581-5.865,1.348-8.075h0q-.953-1.714-1.9-3.428a32.52,32.52,0,0,0-8.915,4.95Q765.411-26.182,766.362-24.468Z" transform="translate(-763.382 34.784)" fill="#152c5c"/>
            </g>
            <g id="Group_4850" data-name="Group 4850" transform="translate(0.702 1.263)">
              <path id="Path_4122" data-name="Path 4122" d="M773.156-33.238a32.615,32.615,0,0,0-8.915,4.951q.359.645.716,1.291a32.571,32.571,0,0,1,8.917-4.948Z" transform="translate(-764.241 33.238)" fill="#2a4b7a"/>
            </g>
          </g>
          <g id="Group_4857" data-name="Group 4857" transform="translate(4.382 4.867)">
            <g id="Group_4852" data-name="Group 4852" transform="translate(1.513 0.215)">
              <path id="Path_4123" data-name="Path 4123" d="M769.727-28.622a6.5,6.5,0,0,1,.721,3.328A6.479,6.479,0,0,1,768-27.665a6.589,6.589,0,0,1-.735-3.354A6.6,6.6,0,0,1,769.727-28.622Z" transform="translate(-767.258 31.019)" fill="#b5cbdc"/>
            </g>
            <g id="Group_4853" data-name="Group 4853" transform="translate(0 1.928)">
              <path id="Path_4124" data-name="Path 4124" d="M769.768-29.812a6.837,6.837,0,0,1,2.919,1.909,7.893,7.893,0,0,1-3.463-.017,6.286,6.286,0,0,1-2.845-1.778A5.6,5.6,0,0,1,769.768-29.812Z" transform="translate(-766.379 30.024)" fill="#b5cbdc"/>
            </g>
            <g id="Group_4854" data-name="Group 4854" transform="translate(0.325 1.585)">
              <path id="Path_4125" data-name="Path 4125" d="M768.878-29.59a5.919,5.919,0,0,1,3.428-.585,7.532,7.532,0,0,1-2.473,2.3,7.47,7.47,0,0,1-3.265.878A5.952,5.952,0,0,1,768.878-29.59Z" transform="translate(-766.568 30.223)" fill="#b5cbdc"/>
            </g>
            <g id="Group_4855" data-name="Group 4855" transform="translate(1.974)">
              <path id="Path_4126" data-name="Path 4126" d="M767.722-28.328a5.622,5.622,0,0,1,1.888-2.816,6.243,6.243,0,0,1,.005,3.354,7.845,7.845,0,0,1-1.816,2.946A6.8,6.8,0,0,1,767.722-28.328Z" transform="translate(-767.526 31.144)" fill="#b5cbdc"/>
            </g>
            <g id="Group_4856" data-name="Group 4856" transform="translate(1.279 1.238)">
              <path id="Path_4127" data-name="Path 4127" d="M770.6-29.437a1.806,1.806,0,0,1-.749,2.47,1.806,1.806,0,0,1-2.492-.671,1.9,1.9,0,0,1,.7-2.563A1.9,1.9,0,0,1,770.6-29.437Z" transform="translate(-767.122 30.425)" fill="#dfe5e4"/>
            </g>
          </g>
        </g>
        <g id="Group_4865" data-name="Group 4865" transform="translate(41.938)">
          <g id="Group_4860" data-name="Group 4860" transform="translate(4.247 7.09)">
            <g id="Group_4859" data-name="Group 4859">
              <path id="Path_4128" data-name="Path 4128" d="M780.247-52.781l.218,2.406-11.288,1.6s-5.709,2.39-8.837,5.97l-.482-2.852,10.049-8.579Z" transform="translate(-759.858 54.232)" fill="#86898e"/>
            </g>
          </g>
          <g id="Group_4862" data-name="Group 4862" transform="translate(13.566 9.531)">
            <g id="Group_4861" data-name="Group 4861">
              <path id="Path_4129" data-name="Path 4129" d="M765.273-49.794c1.086-.733,4.956-2.618,11.181-3.02,0,0,6.922.971,6.235,2.432C781-46.78,765.273-49.794,765.273-49.794Z" transform="translate(-765.273 52.814)" fill="#303030"/>
            </g>
          </g>
          <g id="Group_4864" data-name="Group 4864">
            <g id="Group_4863" data-name="Group 4863">
              <path id="Path_4130" data-name="Path 4130" d="M782.026-49.811c.607-2.588,2.392-8.65-.494-8.54s-6.06-.208-15.078,6.165c-9.228,6.519-9.849,11.822-8.557,12.271a8.35,8.35,0,0,0,4.222.084,24.236,24.236,0,0,1,8.521-7.218A28.02,28.02,0,0,1,782.026-49.811Z" transform="translate(-757.39 58.352)" fill="#26211f"/>
            </g>
          </g>
          <path id="Path_4131" data-name="Path 4131" d="M773.173-51.664c-3.542-.05-3.07-4.39-3.07-4.39.494.418,3.33-.737,3.772-1.422C774.147-55.924,773.619-53.492,773.173-51.664Z" transform="translate(-748.24 58.983)" fill="#86898e"/>
        </g>
      </g>
      <g id="Group_4870" data-name="Group 4870" transform="translate(44.165 116.342)">
        <path id="Path_4132" data-name="Path 4132" d="M811.18,43.676c2.23,6.237-.12,14.172-10.174,19.4-11.03,5.74-9.118,11.069-6.022,13.372,1.439,1.069,2.952,2.859,4.328,2.544a5.224,5.224,0,0,1,3.886.248c1.654.842,3.141,4.376-1.246,4.555s-5.263.009-9.3-3.382-9.052-6.932-8.221-8.485c.778-1.453,9.312-8.8,6.466-17.363s10.706-19.463,10.706-19.463Z" transform="translate(-740.185 9.393)" fill="#592912"/>
        <path id="Path_4133" data-name="Path 4133" d="M820.969,35.042c1.828,5.819-.284,11.613-3.411,13.873s1.079,6.531,3.235,13.887c2.647,9.02,4.146,21.836,8.9,22.087,5.237.279,6.772-.835,6.435-2.991a2.805,2.805,0,0,0-1.99-2.365c-.8-.272-2.506.7-3.215.446a2.44,2.44,0,0,1-1.21-1.884c-.2-1.819-2.53-21.23-1.343-22.932s8.287-7.121,10.066-14.914C840.581,30.841,820.969,35.042,820.969,35.042Z" transform="translate(-717.042 8.672)" fill="#592912"/>
        <path id="Path_4134" data-name="Path 4134" d="M859.295,22.336c-5.836,4.318-9.2,2.733-17.134,5.984-6.8,2.788-31.121,4.168-41.115,9.909s-12.6,22.812-16.139,25.443-8.937,2.647-10.417,7.072-2.137,12.04-3.819,15.348.17,5.6,4.526,5.631,5.7-2.771,1.072-5.387c0,0-.143-12.185,8.161-13.374s18.871.54,28.105-15.783c0,0,1.733-1.855,15.148,3.42s28.959,7.037,36.891-.585,7.851-13.761,12.441-24.889C881.754,23.639,859.295,22.336,859.295,22.336Z" transform="translate(-750.486 0.185)" fill="#753617"/>
        <path id="Path_4135" data-name="Path 4135" d="M810.267,32.784c-4.975-.241-11.369,3.864-16.446,9.223-4.275,4.512-21.981,16.42-33.861,14.37-.874-.15-1.618.415-1.112,1.547,1.129,2.526,4.545,5.762,12.63,6.517,12.229,1.143,24.528-7.937,28.1-14.949S810.267,32.784,810.267,32.784Z" transform="translate(-758.684 7.711)" fill="#753617"/>
        <g id="Group_4869" data-name="Group 4869" transform="translate(105.081 0)">
          <path id="Path_4136" data-name="Path 4136" d="M839.621,21.169a15.958,15.958,0,0,0,1.065-5.915c.117-2.908-.32-5.235-1.024-5.308s-1.413,1.5-3,3.616a37.705,37.705,0,0,1-5.17,6.215c-1.934,1.633,4.7,4.142,4.7,4.142Z" transform="translate(-811.528 -8.75)" fill="#753617"/>
          <path id="Path_4137" data-name="Path 4137" d="M839.621,21.169a15.958,15.958,0,0,0,1.065-5.915c.117-2.908-.32-5.235-1.024-5.308s-1.413,1.5-3,3.616a37.705,37.705,0,0,1-5.17,6.215c-1.934,1.633,4.7,4.142,4.7,4.142Z" transform="translate(-811.528 -8.75)" fill="#753617" opacity="0.3" style="mix-blend-mode: multiply;isolation: isolate"/>
          <path id="Path_4138" data-name="Path 4138" d="M839.827,14.858c6.359-.5,9.252,1.514,11.057,2.979s.976,3.457,2.692,4.831,11.033,6.7,10.937,7.517a6.065,6.065,0,0,1-5.3,4.012c-3.27.069-9.6-2.327-10.331-1.7s7.853,1.687,9.045,2.33-.905,2.263-1.453,2.533-6.624-.408-8.622-.513a6.448,6.448,0,0,0-5.369,1.812c-1.644,1.623-4.693,9.412-4.693,9.412s-16.757-5.922-18.046-16.917c0,0,8.221-7.392,11.054-10.187S837.292,15.058,839.827,14.858Z" transform="translate(-819.743 -5.263)" fill="#753617"/>
          <path id="Path_4139" data-name="Path 4139" d="M838.194,20.424a15.917,15.917,0,0,0,.494-5.989c-.162-2.907-.819-5.18-1.526-5.185s-1.265,1.626-2.64,3.886a37.792,37.792,0,0,1-4.554,6.681c-1.769,1.812,5.074,3.674,5.074,3.674Z" transform="translate(-812.582 -9.25)" fill="#753617"/>
          <g id="Group_4867" data-name="Group 4867" transform="translate(16.425)">
            <path id="Path_4140" data-name="Path 4140" d="M846.695,26.654c-1.716-1.373-.886-3.366-2.692-4.831a13.036,13.036,0,0,0-3.132-1.948,6.394,6.394,0,0,0-5.524-.289s3.237-7.772,2.095-10.336h0c-.709-.005-1.265,1.626-2.64,3.886a37.792,37.792,0,0,1-4.554,6.681v0h0a2.177,2.177,0,0,0,1.7,3.934c2.229-.485,1.941,2.936,3.652,3.655,2.731,1.15,1.236,3.977,4.783,3.712,1.953-.145,3.79.934,5.65.327.976-.318,1.009-1.11,2.229-.547s-.246,3.475-1.8,3.284a19.644,19.644,0,0,0-4.777-.33c-1.227.219-2.671,1.571.32,2.635h0c.73-.632,7.061,1.764,10.331,1.7a6.068,6.068,0,0,0,5.3-4.012C857.728,33.356,848.411,28.028,846.695,26.654Z" transform="translate(-829.287 -9.25)" fill="#3a251d"/>
            <path id="Path_4141" data-name="Path 4141" d="M839.134,25.8c1.583.43,3.377.9,5.094,1.342a.712.712,0,0,0-.282-.255A31.571,31.571,0,0,0,839.134,25.8Z" transform="translate(-822.187 2.682)" fill="#3a251d"/>
          </g>
          <path id="Path_4142" data-name="Path 4142" d="M844.51,21.849h0c-.184.666,1.32,2.091,1.671,2.721s1.995.6,1.1.962-.83,2.952-2.829,2.936a7.522,7.522,0,0,0-2.927.48,14.078,14.078,0,0,0,2.659.286c3.268-.069,4.53-3.33,4.626-4.146C848.854,24.708,846.842,23.339,844.51,21.849Z" transform="translate(-804.039 -0.166)" fill="#663b2d"/>
          <path id="Path_4143" data-name="Path 4143" d="M835.557,9.936c.933.188.991,4,.977,5.953s-.57,3.857-1.752,4.12-3.556-.244-2.721-1.718a36.225,36.225,0,0,0,2.921-6.075C835.428,10.585,835.322,9.941,835.557,9.936Z" transform="translate(-810.987 -8.755)" fill="#b26631"/>
          <path id="Path_4144" data-name="Path 4144" d="M840.752,19.163h0c-.671-.869-.711-1.229-1.58-1.055s-1.239,1.337-2.258,1.776-.864,2.554,1.081,2.733,2-.265,3,.021,1.511-.933,1.4-1.8h0c-.318-.215-.58-.4-.757-.54A3.133,3.133,0,0,1,840.752,19.163Z" transform="translate(-807.811 -2.894)" fill="#663b2d"/>
          <path id="Path_4145" data-name="Path 4145" d="M846.914,24.433a2.775,2.775,0,0,1-.42,1.234,1.263,1.263,0,0,1-.95-.336c-.1-.065-.7.253-1.053-.095-.785-.769-.028-1.693.5-2.478C846.148,23.56,846.943,24.193,846.914,24.433Z" transform="translate(-802.144 0.489)" fill="#1a0d07"/>
          <g id="Group_4868" data-name="Group 4868" transform="translate(30.524 16.82)">
            <path id="Path_4146" data-name="Path 4146" d="M837.971,20.417s-.392-.036-.454-.188a.659.659,0,0,1,.1-.626,1.689,1.689,0,0,1,.616-.546,1.081,1.081,0,0,1,1.063.353c.306.355-.229.62-.3.64S837.971,20.417,837.971,20.417Z" transform="translate(-837.479 -19.024)" fill="#100a07"/>
            <path id="Path_4147" data-name="Path 4147" d="M837.628,19.94a.747.747,0,0,0,1.007.6c.509-.139.683-.5.836-.52s.193.05.027-.334a1.025,1.025,0,0,0-1.039-.54C838.059,19.221,837.583,19.49,837.628,19.94Z" transform="translate(-837.374 -18.945)" fill="#330800"/>
            <path id="Path_4148" data-name="Path 4148" d="M838.8,19.527a.344.344,0,1,1-.408-.2A.32.32,0,0,1,838.8,19.527Z" transform="translate(-837.005 -18.812)"/>
            <path id="Path_4149" data-name="Path 4149" d="M838.4,19.449a.229.229,0,1,1-.27-.131A.215.215,0,0,1,838.4,19.449Z" transform="translate(-837.136 -18.818)" fill="#fff"/>
          </g>
          <path id="Path_4150" data-name="Path 4150" d="M845.144,24.326c.083-.274.057-.525-.095-.549s-.232.194-.148.367.084.408-.078.477h0c.114-.022.2-.045.236-.022.064.043.119.079.167.114A.33.33,0,0,1,845.144,24.326Z" transform="translate(-801.66 1.222)" fill="#0f0804"/>
        </g>
        <path id="Path_4151" data-name="Path 4151" d="M807.58,40.555a3.88,3.88,0,0,1,3.724-4.342c.136-3.256,1.764-3.256,2.308-2.036s.351,8.228,2.21,5.674,4.574-11.73,4.574-11.73-.411-.905-.938-1.983c-3.8,1.1-10.264,2.02-17.089,3.186l-3.141,5.669s5.02,13.074,5.156,13.253a1.553,1.553,0,0,1,.2.348C807.461,46.814,807.685,45.238,807.58,40.555Z" transform="translate(-729.453 2.926)" fill="#1d130f"/>
        <path id="Path_4152" data-name="Path 4152" d="M839.4,16.879c.246.181-1.175,1.2-1.158,1.833s-.153.54-.494,1.554-.468.749-.3,1.532-.253,1.022.172,1.222.459.731.79.972.053.79.482.936.428.306.428.306a2.354,2.354,0,0,1-1.377.139c-.633-.189-.893-.268-1.716-.508a1.441,1.441,0,0,1-.771-2.065,2.333,2.333,0,0,0,.656-1.735,2.305,2.305,0,0,1,.879-1.977,5.817,5.817,0,0,0,.964-1.313C838.227,17.437,839.067,16.635,839.4,16.879Z" transform="translate(-703.476 -3.782)" fill="#1d130f"/>
        <path id="Path_4153" data-name="Path 4153" d="M830.206,20.5c.826.351.232,1.767,1.977,2.779s.527,1.42,2.5,2.518,1.055,1.477,3.041,3.492,3.28,1.91,2.752,3.155c-.552,1.3-2.449-.826-4.23-.984s-2.452.157-4.531-.685a11.516,11.516,0,0,1-5.137-5.282c-.408-1.422.289-5.672,1.454-5.413S830.206,20.5,830.206,20.5Z" transform="translate(-709.817 -1.453)" fill="#3a251d"/>
        <path id="Path_4154" data-name="Path 4154" d="M830.314,16.458c-3.678,3.3-.716,5.516-.06,9.108s2.5,2.619,3.144,5.535,5.168,3.175,5.919,3.21c5.044.232.788,2.433-1.4,2.311a65.714,65.714,0,0,1-7.221-.793c-1.668-.262-2.563-3.461-4.3-5.672s.286-5.314-.625-6.471.864-3.922.864-3.922Z" transform="translate(-710.501 -4.053)" fill="#b26631"/>
        <path id="Path_4155" data-name="Path 4155" d="M783.049,58.231c-3.544,2.633-8.937,2.647-10.417,7.072,2.473-1.914,7.232-2.285,8.892-2.857,5.6-1.928,5.961-6.514,13.074-10.106,9.218-4.657,1.485-6.49,12.147-12.687,0,0,.007-4.64-.3-9.77a34.537,34.537,0,0,0-7.259,2.905C789.195,38.528,786.593,55.6,783.049,58.231Z" transform="translate(-748.628 5.626)" fill="#b26631"/>
        <path id="Path_4156" data-name="Path 4156" d="M817.939,36.124c1.554,1.179,1.922,2.85,2.378,9.471a8.375,8.375,0,0,0,1.532,4.3c.539.84,3.435,2.335,2.815,0-1.523-5.741,3.366-10.364.229-15.057s-2.941-9.194-.857-10.572v0a49.435,49.435,0,0,0-9.7,2.671,25.716,25.716,0,0,1-3.886,1.122,6.3,6.3,0,0,1-.561,4.958c-2.359,3.6-1.069,10.224,1.415,13.245s1.661,8.584,1.4,10.429c-.151,1.074,1.6,5.306,2.153,6.6,1.377.2,2.74.337,4.079.413a13.914,13.914,0,0,0-2.408-6.473c-2.3-3.488,1.473-6.717-1.492-12.388S816.385,34.947,817.939,36.124Z" transform="translate(-722.663 1.573)" fill="#3a251d"/>
        <path id="Path_4157" data-name="Path 4157" d="M833.386,47.991c2.623-2.332,3.865-3.21,1.551-6.5a11.2,11.2,0,0,1,1.752-14c-9.608,1.578-21.266,3.461-27.448,7.013a16.989,16.989,0,0,0-3.714,2.941c-3.922,1.454-8.14,4.6-11.71,8.362-4.275,4.512-21.981,16.42-33.861,14.37-.642-.108-1.208.169-1.267.769,5.37,3.186,14.468,2.857,19.692,1.532,5.765-1.463,13.651-8.25,17.014-12.064s8.672-11.6,13.553-12S813.641,48.5,820.73,53.459h0s3.778-1,11.329,1.995C834.722,56.509,830.025,50.979,833.386,47.991Z" transform="translate(-758.68 3.905)" fill="#1d130f"/>
        <path id="Path_4158" data-name="Path 4158" d="M826.421,22.791c-3.922,2.9-6.736,3.141-10.563,3.97-.716,3.113.5,6.251,2.48,10.576,2.327,5.087-.26,10.367,1.471,8.507s3.07-5.974,2.816-9.312.589-7.732,1.12-6.688,2.291,3.994,2.809,1.268c.365-1.917.654-6.595,1.058-9.407C826.889,22.347,826.421,22.791,826.421,22.791Z" transform="translate(-717.612 -0.27)" fill="#1d130f"/>
        <path id="Path_4159" data-name="Path 4159" d="M842.655,26.336l-.1-.052L835.814,24.6c.4,1.552,1.685,2.568,5.017,3.371a38.926,38.926,0,0,1,4.939,1.681,2.585,2.585,0,0,0,.924-1.275c-.551-.293-1.425-.735-2.232-1.141-2.869-.6-7.725-1.332-7.168-1.812C837.724,25.051,840.1,25.73,842.655,26.336Z" transform="translate(-703.075 1.816)" fill="#1d130f"/>
        <path id="Path_4160" data-name="Path 4160" d="M846.3,26.868c-3.363-.379-8.917-2.342-9.608-1.743-.138.117.052.251.459.394h0l.014.005c2.246,1.053,6.039,1.05,7.572,2.127a3.875,3.875,0,0,1,1.012,1.1c.656,1.021.318,4.091,1.5,4.1C848.841,32.867,848.339,28.016,846.3,26.868Z" transform="translate(-702.473 2.114)" fill="#ba5047"/>
        <path id="Path_4161" data-name="Path 4161" d="M829.765,35.239c1.828,5.819-5.82,12.89-9.447,14.209-2.993,1.089-9.906,22.158-12.443,28.383-1.5,3.685-1.919,7.116,3.32,7.364s4.929-1.465,3.936-3.187c-.886-1.537-2.945-1.382-3.148-3.2s16.794-22,17.981-23.7,9.453-2.778,11.123-12.283S829.765,35.239,829.765,35.239Z" transform="translate(-723.933 9.373)" fill="#753617"/>
        <path id="Path_4162" data-name="Path 4162" d="M829.187,39.171c-1.76,5.719-10.415,11.708-8.8,19.829a17.768,17.768,0,0,0,8.054-4.272c7.93-7.619,7.849-13.758,12.436-24.882C835.126,34.628,830.991,33.317,829.187,39.171Z" transform="translate(-714.344 5.6)" fill="#b26631"/>
      </g>
      <path id="Path_4163" data-name="Path 4163" d="M821.909,23.482l2.991-2.736s6.516,11.262,16.021,13.617l-2.229,4.414S829.283,36.471,821.909,23.482Z" transform="translate(-668.935 115.381)" fill="#1f386b"/>
    </g>
    <g id="Group_4917" data-name="Group 4917" transform="translate(53.629 129.399)">
      <g id="Group_4911" data-name="Group 4911">
        <g id="Group_4909" data-name="Group 4909">
          <path id="Path_4164" data-name="Path 4164" d="M724.1,70.675c.578,3.012,4.142,10.374,5.635,11.6s3.256,1.687,3.648,5.691-7.567,4.18-11.821,4.051-7.457-2.425-8.27-5.578-2.483-4.11-3.6-5.43-1.186-8.027-.68-10.476S724.1,70.675,724.1,70.675Z" transform="translate(-625.531 180.63)" fill="#27292c"/>
          <path id="Path_4165" data-name="Path 4165" d="M685.828,70.371c-.58,3.012-4.142,10.374-5.635,11.6s-3.256,1.687-3.649,5.691,7.566,4.18,11.82,4.051,7.459-2.425,8.271-5.578,2.483-3.041,3.6-4.359,1.188-8.028.682-10.477S685.828,70.371,685.828,70.371Z" transform="translate(-648.734 180.934)" fill="#27292c"/>
          <path id="Path_4166" data-name="Path 4166" d="M709.221-65.092c-.06-.225-.064-.48-.119-.714a1.6,1.6,0,0,0-.287-.676.658.658,0,0,0-.594-.27,1.222,1.222,0,0,0-.4.255c-.172.131-.313.281-.491.406a3.3,3.3,0,0,0-.446.458c-.217.229-.429.472-.637.709a3.57,3.57,0,0,0-.749,1.633,9.788,9.788,0,0,0-.15,1.022,7.144,7.144,0,0,0,0,.718,2.907,2.907,0,0,0,.009.587c.062.3.136.616.217.914a1.95,1.95,0,0,0,.249.768,1.893,1.893,0,0,0,.453.375,2.506,2.506,0,0,0,.644.215,3.249,3.249,0,0,0,.878.022.786.786,0,0,0,.191,0c.071-.021.127-.1.186-.143s.25-.115.028-.093c.11-.1.079-.317.1-.442.031-.146.034-.294.062-.439a6.442,6.442,0,0,1,.179-.735c.034-.112.091-.222.119-.334.012-.05,0-.1.009-.145s.045-.076.052-.139a1.092,1.092,0,0,1,.045-.286c.04-.11.052-.215.091-.315a1.667,1.667,0,0,0,.057-.329c.022-.119.067-.239.091-.358a1.6,1.6,0,0,0,.047-.284.915.915,0,0,1,.045-.167,1.718,1.718,0,0,0,0-.189,2,2,0,0,0,.05-.31c0-.127.045-.229.047-.358s.05-.212.048-.332,0-.237,0-.356A2.849,2.849,0,0,0,709.221-65.092Z" transform="translate(-627.969 82.397)" fill="#0f0f12"/>
          <path id="Path_4167" data-name="Path 4167" d="M691.542-65.092c.058-.225.062-.48.117-.714a1.62,1.62,0,0,1,.287-.676.661.661,0,0,1,.6-.27,1.257,1.257,0,0,1,.4.255c.172.131.313.281.491.406a3.3,3.3,0,0,1,.444.458c.218.229.43.472.638.709a3.568,3.568,0,0,1,.747,1.633,9.354,9.354,0,0,1,.15,1.022,7.108,7.108,0,0,1,.005.718,3.028,3.028,0,0,1-.009.587c-.062.3-.138.616-.218.914a1.924,1.924,0,0,1-.25.768,1.862,1.862,0,0,1-.453.375,2.486,2.486,0,0,1-.644.215,3.245,3.245,0,0,1-.878.022.772.772,0,0,1-.189,0c-.072-.021-.127-.1-.188-.143s-.248-.115-.028-.093c-.11-.1-.079-.317-.1-.442-.031-.146-.033-.294-.06-.439a6.416,6.416,0,0,0-.179-.735c-.034-.112-.093-.222-.12-.334-.012-.05,0-.1-.009-.145s-.043-.076-.05-.139a1.087,1.087,0,0,0-.047-.286c-.04-.11-.052-.215-.089-.315a1.653,1.653,0,0,1-.059-.329c-.022-.119-.067-.239-.089-.358a1.6,1.6,0,0,1-.048-.284.7.7,0,0,0-.045-.167c-.012-.062.005-.127,0-.189a1.989,1.989,0,0,1-.048-.31c0-.127-.046-.229-.048-.358s-.05-.212-.048-.332,0-.237,0-.356A2.755,2.755,0,0,1,691.542-65.092Z" transform="translate(-637.934 82.397)" fill="#0f0f12"/>
          <g id="Group_4873" data-name="Group 4873" transform="translate(19.953 23.171)">
            <g id="Group_4872" data-name="Group 4872">
              <path id="Path_4168" data-name="Path 4168" d="M671.973-46.972c1.929-1.931,7.137-6.368,11.575-8.3s13.835-8.445,15.153-6.872c1.807,2.156-8.443,8.595-9.6,9.558s3.1-2.458,4.168-.833c.532.805-2.334,3.046-3.685,4.2s-3.335,3.414-5.055,4.041c-4.244,1.542-3.938-.341-5.481,1.01S671.973-46.972,671.973-46.972Z" transform="translate(-671.973 62.383)" fill="#f7b799"/>
            </g>
          </g>
          <g id="Group_4875" data-name="Group 4875" transform="translate(0 35.418)">
            <g id="Group_4874" data-name="Group 4874">
              <path id="Path_4169" data-name="Path 4169" d="M718.762-46.777a57.356,57.356,0,0,0-21.917,6.3c-4.407,2.265-16.836,6.189-16.836,6.189s8.385-10.479,10.107-14.35a22.5,22.5,0,0,0-7.6-6.628S658.766-33.441,660.466-24.52c.37,1.943,3.533,4.669,6.911,5.518,12.133,3.051,38.349-3.218,38.349-3.218Z" transform="translate(-660.379 55.267)" fill="#86898e"/>
            </g>
          </g>
          <g id="Group_4877" data-name="Group 4877" transform="translate(35.089 126.145)">
            <g id="Group_4876" data-name="Group 4876" transform="translate(0 0)">
              <path id="Path_4170" data-name="Path 4170" d="M688.1-2.549c-.444,4.423-2.533,54.683-2.533,58.664s-2.592,34.721-3.034,43.345-1.769,25.211-1.769,25.211,4.865,1.989,17.692,1.1c0,0,3.094-27.643,3.537-36.266s5.476-37.693,6.583-42.336S713.164,24.3,713.164,24.3V2.027Z" transform="translate(-680.768 2.549)" fill="#86898e"/>
            </g>
          </g>
          <g id="Group_4879" data-name="Group 4879" transform="translate(67.485 126.145)">
            <g id="Group_4878" data-name="Group 4878" transform="translate(0 0)">
              <path id="Path_4171" data-name="Path 4171" d="M723.775-2.549c2.21,25.1,3.411,54.683,3.411,58.664s2.59,34.721,3.033,43.345,1.769,25.211,1.769,25.211-4.864,1.989-17.69,1.1c0,0-3.1-27.643-3.538-36.266s-5.962-38.12-7.066-42.765-4.1-22.44-4.1-22.44V5.536Z" transform="translate(-699.592 2.549)" fill="#86898e"/>
            </g>
          </g>
          <g id="Group_4881" data-name="Group 4881" transform="translate(67.485 44.668)">
            <g id="Group_4880" data-name="Group 4880">
              <path id="Path_4172" data-name="Path 4172" d="M710.927-49.892s16.086,4.043,16.253,5.2-3.146,18.73-3.643,24.793.718,31.308,1.7,40.757c.466,4.48-2.506,14.7-2.506,14.7S719.439,36.715,699.592,37V-47.918Z" transform="translate(-699.592 49.892)" fill="#86898e"/>
            </g>
          </g>
          <g id="Group_4883" data-name="Group 4883" transform="translate(39.892 44.668)">
            <g id="Group_4882" data-name="Group 4882">
              <path id="Path_4173" data-name="Path 4173" d="M699.819-49.892s-16.088,4.043-16.253,5.2,2.654,20.645,3.151,26.71-.356,28.063-1.953,36.458c-.843,4.423,2.3,16.8,2.3,16.8s4.239,1.444,24.085,1.733V-47.918Z" transform="translate(-683.559 49.892)" fill="#86898e"/>
            </g>
          </g>
          <g id="Group_4885" data-name="Group 4885" transform="translate(59.303 36.211)">
            <g id="Group_4884" data-name="Group 4884">
              <path id="Path_4174" data-name="Path 4174" d="M695.5-54.806l-.663,4.2s4.423,4.975,8.182,4.975v-8.4Z" transform="translate(-694.838 54.806)" fill="#f7b799"/>
            </g>
          </g>
          <g id="Group_4887" data-name="Group 4887" transform="translate(67.485 36.211)">
            <g id="Group_4886" data-name="Group 4886">
              <path id="Path_4175" data-name="Path 4175" d="M707.111-54.806l.663,4.2s-4.421,4.975-8.182,4.975v-8.4Z" transform="translate(-699.592 54.806)" fill="#f7b799"/>
            </g>
          </g>
          <g id="Group_4889" data-name="Group 4889" transform="translate(59.303 36.211)" opacity="0.3" style="mix-blend-mode: multiply;isolation: isolate">
            <g id="Group_4888" data-name="Group 4888">
              <path id="Path_4176" data-name="Path 4176" d="M695.5-54.806l-.663,4.2s4.423,4.975,8.182,4.975v-8.4Z" transform="translate(-694.838 54.806)" fill="#f7b799"/>
            </g>
          </g>
          <g id="Group_4891" data-name="Group 4891" transform="translate(67.485 36.211)" opacity="0.3" style="mix-blend-mode: multiply;isolation: isolate">
            <g id="Group_4890" data-name="Group 4890">
              <path id="Path_4177" data-name="Path 4177" d="M707.111-54.806l.663,4.2s-4.421,4.975-8.182,4.975v-8.4Z" transform="translate(-699.592 54.806)" fill="#f7b799"/>
            </g>
          </g>
          <g id="Group_4893" data-name="Group 4893" transform="translate(54.725 40.412)">
            <g id="Group_4892" data-name="Group 4892">
              <path id="Path_4178" data-name="Path 4178" d="M704.938-47.39s-5.695-2.267-8.182-4.975l-4.578,3.726s5.738,7,9.885,9.321Z" transform="translate(-692.178 52.365)" fill="#4e5156"/>
            </g>
          </g>
          <g id="Group_4895" data-name="Group 4895" transform="translate(67.485 40.412)">
            <g id="Group_4894" data-name="Group 4894">
              <path id="Path_4179" data-name="Path 4179" d="M699.592-47.39s5.695-2.267,8.182-4.975l5.142,4.652s-6.3,6.073-10.448,8.4Z" transform="translate(-699.592 52.365)" fill="#4e5156"/>
            </g>
          </g>
          <g id="Group_4897" data-name="Group 4897" transform="translate(63.394 45.387)">
            <g id="Group_4896" data-name="Group 4896">
              <path id="Path_4180" data-name="Path 4180" d="M699.066-43.183l1.356,1.78L697.215-3.38l4.091,5.744V-49.474Z" transform="translate(-697.215 49.474)" fill="#27292c"/>
            </g>
          </g>
          <g id="Group_4899" data-name="Group 4899" transform="translate(67.485 45.387)">
            <g id="Group_4898" data-name="Group 4898">
              <path id="Path_4181" data-name="Path 4181" d="M701.833-43.183l-1.356,1.78L703.684-3.38l-4.092,5.744V-49.474Z" transform="translate(-699.592 49.474)" fill="#27292c"/>
            </g>
          </g>
          <g id="Group_4901" data-name="Group 4901" transform="translate(54.051 7.684)">
            <g id="Group_4900" data-name="Group 4900">
              <path id="Path_4182" data-name="Path 4182" d="M705.165-58.28v20.4a8.267,8.267,0,0,1-5.141-1.325c-2.488-1.659-5.307-6.276-5.64-8.86s-2.156-2.088-2.156-3.58-.995-6.137,0-5.97a2.287,2.287,0,0,1,1.492,1.16s-1.16-6.468-.33-8.292,2.487-6.468,11.775-6.634Z" transform="translate(-691.786 71.382)" fill="#f7b799"/>
            </g>
          </g>
          <g id="Group_4903" data-name="Group 4903" transform="translate(67.43 7.684)">
            <g id="Group_4902" data-name="Group 4902">
              <path id="Path_4183" data-name="Path 4183" d="M699.56-58.28v20.4a8.273,8.273,0,0,0,5.142-1.325c2.487-1.659,5.308-6.276,5.638-8.86s2.156-2.088,2.156-3.58.995-6.137,0-5.97A2.287,2.287,0,0,0,711-56.456s1.16-6.468.33-8.292-2.487-6.468-11.775-6.634Z" transform="translate(-699.56 71.382)" fill="#f7b799"/>
            </g>
          </g>
          <g id="Group_4905" data-name="Group 4905" transform="translate(48.113)">
            <g id="Group_4904" data-name="Group 4904">
              <path id="Path_4184" data-name="Path 4184" d="M693.776-59.649c-2.211-.372-5.757-1.795-5.418-4.2.332-2.349,4.865-11.994,19.349-11.994v11.87Z" transform="translate(-688.336 75.847)" fill="#4e5156"/>
            </g>
          </g>
          <g id="Group_4907" data-name="Group 4907" transform="translate(67.485)">
            <g id="Group_4906" data-name="Group 4906">
              <path id="Path_4185" data-name="Path 4185" d="M713.524-59.649c2.211-.372,5.758-1.795,5.418-4.2-.332-2.349-4.864-11.994-19.349-11.994v11.87Z" transform="translate(-699.592 75.847)" fill="#4e5156"/>
            </g>
          </g>
          <path id="Path_4186" data-name="Path 4186" d="M717.038-67.141c-1.99-.885-3.869-2.189-11.61-2.189s-9.619,1.3-11.61,2.189A3.91,3.91,0,0,0,691.5-64.6v2.459l13.931-.441,13.932.441V-64.6A3.91,3.91,0,0,0,717.038-67.141Z" transform="translate(-637.944 80.546)" fill="#86898e"/>
          <path id="Path_4187" data-name="Path 4187" d="M705.428-66.435c-10.061.11-13.931,2.21-13.931,2.21,1.991,3.428,11.278,3.34,13.931,3.34s11.942.088,13.932-3.34C719.36-64.225,715.489-66.325,705.428-66.435Z" transform="translate(-637.944 82.633)" fill="#4e5156"/>
          <g id="Group_4908" data-name="Group 4908" transform="translate(64.093 2.116)">
            <path id="Path_4188" data-name="Path 4188" d="M704.405-72.271v-1.867a.144.144,0,0,0-.248-.095,1.926,1.926,0,0,1-1.382.552,2.139,2.139,0,0,1-1.649-.883.148.148,0,0,0-.229,0,2.139,2.139,0,0,1-1.647.883,1.93,1.93,0,0,1-1.384-.552.143.143,0,0,0-.246.095v1.867c.057,3.4,3.392,5.232,3.392,5.232s3.337-1.833,3.394-5.232Z" transform="translate(-697.621 74.617)" fill="#ebaf38"/>
            <path id="Path_4189" data-name="Path 4189" d="M700.623-68.64a5.549,5.549,0,0,1-2.456-4.158v-.577a3.064,3.064,0,0,0,.69.077,2.923,2.923,0,0,0,1.762-.607,2.916,2.916,0,0,0,1.762.607,3.037,3.037,0,0,0,.688-.077v.64A5.533,5.533,0,0,1,700.623-68.64Z" transform="translate(-697.227 75.131)" fill="#ebaf38" opacity="0.4" style="mix-blend-mode: multiply;isolation: isolate"/>
          </g>
        </g>
        <path id="Path_4190" data-name="Path 4190" d="M719.03-.348c-.27,6.622-2.446,8.789-2.31,13.618s-.406,5.657.945,5.657,1.683-7,2.5-6.867.831,1.113,1.957,5.817c.649,2.712,1.845,9.524,3.774,7.918,1.261-1.052,1.676-9.539,1.626-11.353-.1-3.671-1.867-12.307-1.463-14.79Z" transform="translate(-619.762 130.281)" fill="#f7b799"/>
        <path id="Path_4191" data-name="Path 4191" d="M712.888-47.94c4.328,1.418,9.221,1.064,10.727,8.684s7.8,33.785,8.419,38.533c.637,4.888-.893,38.538-.893,38.538s-3.724,1.172-12.624-1.024c0,0,.016-33.337-.172-34.933s-5.457-22.33-5.457-22.33Z" transform="translate(-622.521 95.968)" fill="#86898e"/>
        <path id="Path_4192" data-name="Path 4192" d="M724.637,97.28c-.442-8.624-3.033-39.364-3.033-43.345,0-3.707-1.045-29.641-2.972-53.461l-11.3.993c.024,5.844,4.876,54.165,6.048,69.033.948,12.006,3.812,42.077,4.881,53.225,5.721-.293,8.144-1.234,8.144-1.234S725.079,105.906,724.637,97.28Z" transform="translate(-626.525 130.874)" fill="#4e5156"/>
        <path id="Path_4193" data-name="Path 4193" d="M689.817,75.18c-1.26,15.511-2.891,39.261-3.535,48.759,2.265.062,4.981.022,8.2-.2,0,0,3.094-27.643,3.537-36.266S703.5,49.779,704.6,45.136s4.585-22.869,4.585-22.869V.275H697.735S691.419,55.436,689.817,75.18Z" transform="translate(-641.704 130.73)" fill="#4e5156"/>
        <path id="Path_4194" data-name="Path 4194" d="M685.218-2.549s24.681,3.841,49.243,0l.479,5.676a118.493,118.493,0,0,1-24.662,2.4,231.309,231.309,0,0,1-25.505-2.031Z" transform="translate(-642.792 128.694)" fill="#27292c"/>
        <rect id="Rectangle_613" data-name="Rectangle 613" width="9.653" height="7.397" transform="translate(62.659 127.307)" fill="#ebaf38"/>
        <path id="Path_4195" data-name="Path 4195" d="M690.507-3.135l-.78,10.667h2.6l1.157-10.667Z" transform="translate(-639.22 128.272)" fill="#1f386b"/>
        <path id="Path_4196" data-name="Path 4196" d="M710.252-3.135l.7,9.567H708.31l-1.037-9.567Z" transform="translate(-626.569 128.272)" fill="url(#linear-gradient)"/>
        <path id="Path_4197" data-name="Path 4197" d="M682.711-53.074,667.224-31.9s3.965-2.091,7.849-3.972c0,0,8.385-10.479,10.107-14.35A23.768,23.768,0,0,0,682.711-53.074Z" transform="translate(-655.444 92.266)" fill="#4e5156"/>
        <path id="Path_4198" data-name="Path 4198" d="M715.345-38.255c-2.852,5.265-1.831,14.548-1.831,14.548l0,.024V-23.7c1.525,6.048,4.37,17.41,4.507,18.575.188,1.6.172,34.933.172,34.933a49.989,49.989,0,0,0,5.43,1.041c.131-2.964,1.354-32.491,1.077-36.575C724.409-10.038,715.345-38.255,715.345-38.255Z" transform="translate(-622.198 102.951)" fill="#4e5156"/>
        <path id="Path_4199" data-name="Path 4199" d="M700.62-40.328s-25.4,10.395-38.919,8.08h0a12.158,12.158,0,0,0,4.724,2.475c9.49,2.385,27.541-.921,34.981-2.478Z" transform="translate(-659.427 101.456)" fill="#4e5156"/>
        <g id="Group_4910" data-name="Group 4910" transform="translate(76.241 65.676)">
          <path id="Path_4200" data-name="Path 4200" d="M714.762-34.2v-2.776a.215.215,0,0,0-.368-.143,2.852,2.852,0,0,1-2.053.823,3.183,3.183,0,0,1-2.449-1.311.219.219,0,0,0-.341,0,3.18,3.18,0,0,1-2.449,1.311,2.855,2.855,0,0,1-2.053-.823.215.215,0,0,0-.368.143V-34.2c.084,5.049,5.043,7.774,5.043,7.774s4.956-2.724,5.041-7.774Z" transform="translate(-704.68 37.685)" fill="#ebaf38"/>
          <path id="Path_4201" data-name="Path 4201" d="M709.141-28.8c-1.215-.89-3.6-3.031-3.649-6.178v-.857a4.494,4.494,0,0,0,1.026.115,4.339,4.339,0,0,0,2.618-.9,4.336,4.336,0,0,0,2.619.9,4.479,4.479,0,0,0,1.024-.115v.95C712.681-31.77,710.343-29.678,709.141-28.8Z" transform="translate(-704.095 38.448)" fill="#ebaf38" opacity="0.4" style="mix-blend-mode: multiply;isolation: isolate"/>
        </g>
      </g>
      <g id="Group_4916" data-name="Group 4916" transform="translate(94.463 151.24)">
        <g id="Group_4913" data-name="Group 4913" transform="translate(0 0)">
          <path id="Path_4202" data-name="Path 4202" d="M740.454,84.879s-1.33-4.346,7.06-4.516l4.958,4.6Z" transform="translate(-697.164 37.233)" fill="#592912"/>
          <path id="Path_4203" data-name="Path 4203" d="M729.124,61.121s-3.191,29.3-5.352,32.164-7.3,2.356-7.161,6.585,9.854-2.49,9.854-2.49l11.393-31.212Z" transform="translate(-714.302 23.36)" fill="#592912"/>
          <path id="Path_4204" data-name="Path 4204" d="M745.156,25.065c3.334,14.353,3.609,14.6,7.068,20.328,3.814,6.311,11.944,11.35,16.439,17.046s20.278,18.73,26.082,33.05,7.56,22.044,13.9,23.9,22.473-4.158,33.78.225,16.045,7.817,8.109,7.763l-40.354-.268s-9.517-.747-12.221-3.032-.936,4.077-7.285,4.034l-31.286-.208s-3.024.057-3.007-2.361,5.621-4.2,8.338-3.876c0,0-15.079-4.938-9.994-19.717a57.6,57.6,0,0,1-10.841-6.571s-5.807,9.333-8.268,15.818-4.344,16.6-8.877,16.491-6.347-.043-6.347-.043l-2.117-.014s-3.769-1.459.027-4,5.294-.57,7.287-4.938,6.958-23.385,6.376-26.713-17.68-10.691-13.245-25.627c3.285-11.052,1.662-17-.614-24.459S745.156,25.065,745.156,25.065Z" transform="translate(-714.302 -2.636)" fill="#753617"/>
          <path id="Path_4205" data-name="Path 4205" d="M774.246,83.445c-4.521-1.953-5.645-3.208-4.943-6.944s5.815-5.061,4.915-5.975-15.005-7.583-15.005-7.583l-20.6,9.046a1.407,1.407,0,0,0-1.42,1.32,15.925,15.925,0,0,1,2.688,1.332c-4.213,12.231,5.392,17.723,8.83,19.251a.605.605,0,0,0,.059.026l.081.036c1.706.83,11.037,1.187,13.649-.043s5-1.551,10.619.071,2.406,1.831,5.912,3.1a14.718,14.718,0,0,0,1.936.611,3.735,3.735,0,0,1,.838-1.31v0C783.013,92.95,778.767,85.405,774.246,83.445Z" transform="translate(-699.46 24.673)" fill="#b26631"/>
          <g id="Group_4912" data-name="Group 4912">
            <path id="Path_4206" data-name="Path 4206" d="M729.045,25.634a7.91,7.91,0,0,1-1.344-2.807c-.327-1.509-.577-4.783-2.244-7.313s-2.134-3.537-3.282-3.48-4.143,4.562-4.848,9.089-1.1,4.3-.981,5.576-.821,1.774-.353,2.53a19.286,19.286,0,0,1,1.869,2.845Z" transform="translate(-714.839 -12.033)" fill="#753617"/>
            <path id="Path_4207" data-name="Path 4207" d="M724.214,25.38c-.138.626-1.428,1.752-2.165.8s-.84-5.22-1.1-7.237a17.945,17.945,0,0,0-1.392-4.762c-.258-.475-.941-1.8.012-1.859s3.43,2.036,3.96,4.179a41.6,41.6,0,0,1,.9,5.678c0,.43-.019,2.886-.019,2.886Z" transform="translate(-712.518 -11.823)" fill="#753617"/>
            <path id="Path_4208" data-name="Path 4208" d="M723.1,15.515c-1.668-2.525-2.134-3.537-3.282-3.48a1.3,1.3,0,0,0-.694.365c.582.644,1.482,1.342,1.826,1.843.735,1.076,1.2,2.084,1.735,2.907a7.091,7.091,0,0,1,.785,3.59c-.141.754.324,2.2-.019,2.833s.327,1.576.323,1.953-1.015.559-1.356,1.229-.21,1.274.4.712.947-.432.947-.432l1.045-.32,1.878-1.081a7.911,7.911,0,0,1-1.344-2.807C725.02,21.318,724.77,18.045,723.1,15.515Z" transform="translate(-712.485 -12.033)" fill="#3a251d"/>
            <path id="Path_4209" data-name="Path 4209" d="M718.941,29.479c-.177-.224-1.737-2.592-1.661-3.344a46.864,46.864,0,0,0,.508-5.471,21.245,21.245,0,0,1,2.132-7.156c.819-1.064,2.89,2.091,3.356,3.292s-.019,2.831-.028,3.9.723,2.017.99,2.962-.573,2.167-.621,2.526-1.609,1.239-2.194,1.736S719.38,30.032,718.941,29.479Z" transform="translate(-713.819 -11.124)" fill="#b26631"/>
            <path id="Path_4210" data-name="Path 4210" d="M726.484,25.616a7.911,7.911,0,0,0,1.38-2.79c.348-1.5.64-4.774,2.342-7.282s2.179-3.507,3.325-3.435,4.084,4.616,4.728,9.152,1.05,4.309.909,5.588.8,1.785.317,2.533a19.839,19.839,0,0,0-1.905,2.821Z" transform="translate(-707.181 -11.98)" fill="#753617"/>
            <path id="Path_4211" data-name="Path 4211" d="M728.026,25.393c.127.628,1.4,1.771,2.151.83s.909-5.208,1.194-7.22a17.863,17.863,0,0,1,1.458-4.743c.265-.472.964-1.79.012-1.86s-3.461,1.991-4.015,4.127a41.3,41.3,0,0,0-.983,5.666c0,.43-.019,2.886-.019,2.886Z" transform="translate(-706.214 -11.769)" fill="#753617"/>
            <path id="Path_4212" data-name="Path 4212" d="M730.206,15.545c1.7-2.5,2.179-3.507,3.325-3.435a1.287,1.287,0,0,1,.688.373c-.589.637-1.5,1.322-1.848,1.819-.749,1.065-1.229,2.067-1.773,2.883a7.082,7.082,0,0,0-.833,3.578c.133.757-.353,2.2-.019,2.834s-.348,1.571-.349,1.948,1.005.573,1.339,1.248.2,1.277-.41.707-.94-.446-.94-.446l-1.047-.334-1.857-1.1a7.911,7.911,0,0,0,1.38-2.79C728.212,21.322,728.5,18.052,730.206,15.545Z" transform="translate(-707.181 -11.98)" fill="#3a251d"/>
            <path id="Path_4213" data-name="Path 4213" d="M733.932,29.576c.182-.222,1.773-2.569,1.709-3.322a46.713,46.713,0,0,1-.437-5.478,21.286,21.286,0,0,0-2.034-7.183c-.809-1.074-2.919,2.053-3.4,3.249s-.017,2.829-.026,3.9-.75,2.007-1.031,2.948.546,2.175.587,2.535,1.6,1.26,2.172,1.764S733.493,30.124,733.932,29.576Z" transform="translate(-705.614 -11.067)" fill="#b26631"/>
            <path id="Path_4214" data-name="Path 4214" d="M748.365,36.578c-.057-1.616-.721-3.373-.773-5.528a3.834,3.834,0,0,0-1.745-3.13l-1.693-3.784-3.729-1.644-4.253.6L731.91,35.017l-4.1-11.976-4.242-.661-3.755,1.594-1.745,3.762a3.835,3.835,0,0,0-1.786,3.106c-.083,2.155-.766,3.9-.847,5.518s-.556,2.137.582,3.642a7.067,7.067,0,0,1,1.7,3.814c.195,1.442,2.3,4.244,3.223,5.146s4.153,2.862,5.06,3.587,1.979,1.332,5.789,1.451c3.81-.067,4.893-.659,5.808-1.373s4.163-2.626,5.1-3.519,3.081-3.662,3.292-5.1a7.07,7.07,0,0,1,1.745-3.791C748.893,38.724,748.422,38.2,748.365,36.578Z" transform="translate(-715.268 -4.572)" fill="#b26631"/>
            <path id="Path_4215" data-name="Path 4215" d="M718.2,25.81a22.241,22.241,0,0,1,.38,3.895c.022,2.168-1.666,1.683-.022,3.488s1.852,2.583,1.692,3.089a1.739,1.739,0,0,0-.012,1.786c.439,1.181,1.045,1.4,1.339,3.043s3.468,5.435,3.526,6.473,4.843,2.106,4.843,2.106l.1-14.716Z" transform="translate(-713.416 -2.099)" fill="#753617"/>
            <path id="Path_4216" data-name="Path 4216" d="M720.536,30.253l2.588,4.5,4.368,4.624-.8,1.664s-3.065-1.261-3.445-2.325C722.706,37.2,719.151,31.68,720.536,30.253Z" transform="translate(-711.698 1.104)" fill="#1a0d07"/>
            <path id="Path_4217" data-name="Path 4217" d="M723.717,34.589s-.029.224-.336,1.795a4.851,4.851,0,0,0,.5,3.9c.74.991.57,1.439,2.2,1.449l.053-8.028Z" transform="translate(-709.54 3.597)" fill="#e19b93"/>
            <path id="Path_4218" data-name="Path 4218" d="M722.4,33.263a7.116,7.116,0,0,0-1.423-2.022c-.738-.568-.68-1.7-1.005-1.955a10.26,10.26,0,0,1-1.527-2.444c-.065-.336-.465-1.076.28-1.332s2.664.291,3.719.945a6.711,6.711,0,0,1,2.872,4.5C725.419,32.847,722.92,34,722.4,33.263Z" transform="translate(-713.095 -2.362)" fill="#753617"/>
            <path id="Path_4219" data-name="Path 4219" d="M724.036,19.8s-4.063,2.668-4.676,3.292-1.687,1.941-1.693,3.012-1.174,2.38-.91,3.137a4,4,0,0,1,.263,1.2s.75-1.379,1.026-2.008a2.666,2.666,0,0,1,1.356-1.31c.27,0,.334.5-.009,1.318s-.828,2.7.117,2.709,2.3-.614,2.695.336,1.48,1.077,1.742,1.835,1.122,2.836.582,3.211-.706,1.38-1.234,1.5-.062,1.07.4,1.955a13.883,13.883,0,0,1,1.33,2.967c.131.756.721,3.087,2.54,3.1s1.891-.616,3.242-.608l.172-25.935a3.625,3.625,0,0,0-1.952-.5C727.851,19.03,724.036,19.8,724.036,19.8Z" transform="translate(-714.222 -7.005)" fill="#3a251d"/>
            <path id="Path_4220" data-name="Path 4220" d="M723.664,33.108a3.349,3.349,0,0,1,.993-2.206s-.73-.279-1.466.8-.014,2.026-.024,3.662a7.319,7.319,0,0,1-.523,2.022,1.857,1.857,0,0,0,.654.115c1.819.014,1.891-.616,3.242-.608l.009-1.506S723.65,34.406,723.664,33.108Z" transform="translate(-709.95 1.548)" fill="#663b2d"/>
            <path id="Path_4221" data-name="Path 4221" d="M719.321,25.357c-.759.743-.027,3.093,1.41,1.678s3.258-2.218,3.681-1.062.439,1.656,1.459,2.06.971.122,1.365-1.761,1.528-2.442.361-3.585-2.559-.485-3.483-.49S721.2,23.517,719.321,25.357Z" transform="translate(-712.565 -4.835)" fill="#663b2d"/>
            <path id="Path_4222" data-name="Path 4222" d="M725.308,26.171s-.618-1.933-1.336-2.15a6.812,6.812,0,0,0-3.958,1.041c-.661.628-1.471,1.816-.014,2.089s2.513.964,3.325.788S725.706,27.16,725.308,26.171Z" transform="translate(-712.444 -3.422)" fill="#663b2d"/>
            <path id="Path_4223" data-name="Path 4223" d="M722,21.737c.3.143-1.2,1.189-1.117,1.755s-.114.5-.389,1.446a3.8,3.8,0,0,0-.293,2.387c.272.7-.064.774.441.917s.607-.184,1.01.007.146.707.651.8.52.241.52.241a3.241,3.241,0,0,1-1.549.243c-.74-.117-1.043-.169-2-.315s-1.559-1.139-1.1-1.8,1.019-.993.921-1.793-.294-1.033.417-1.69a5.175,5.175,0,0,0,.952-1.268C720.73,22.34,721.6,21.546,722,21.737Z" transform="translate(-713.29 -5.057)" fill="#1d130f"/>
            <path id="Path_4224" data-name="Path 4224" d="M726.38,28.171s-1.125.184-1.7,1.878-1.714,4.574-1.714,4.574l3.382-.957Z" transform="translate(-709.72 -0.397)" fill="#663b2d"/>
            <path id="Path_4225" data-name="Path 4225" d="M723.055,32.584s1.308,1.346,2.258,1.351l.959-1.33.012-1.946S723.525,30.9,723.055,32.584Z" transform="translate(-709.653 1.396)" fill="#0f0804"/>
            <path id="Path_4226" data-name="Path 4226" d="M721.027,26.43s-.492-.213-.518-.463a1.065,1.065,0,0,1,.363-.879,2.115,2.115,0,0,1,.99-.549,1.45,1.45,0,0,1,1.241.957c.263.647-.518.817-.621.817S721.027,26.43,721.027,26.43Z" transform="translate(-711.491 -3.017)" fill="#100a07"/>
            <path id="Path_4227" data-name="Path 4227" d="M720.722,25.592a1.087,1.087,0,0,0,1.079,1.3c.706.005,1.065-.453,1.265-.422s.232.153.155-.48a1.456,1.456,0,0,0-1.139-1.224A1.146,1.146,0,0,0,720.722,25.592Z" transform="translate(-711.346 -2.86)" fill="#330800"/>
            <path id="Path_4228" data-name="Path 4228" d="M726.445,35.028a5.552,5.552,0,0,1-1.1-.007c-.437-.072-1.091-1.031-.792-1.37s.551-.575.914-.439.664-.967.448-1.1-1.093-.578-1.17-.172-.226,1.16-.957,1.189a.928.928,0,0,1-.757-1.54c.589-.745.52-1.256,1.361-1.423a7.738,7.738,0,0,1,2.084.014Z" transform="translate(-709.84 0.993)" fill="#1a0d07"/>
            <path id="Path_4229" data-name="Path 4229" d="M721.886,25.319a.348.348,0,1,1-.346-.348A.347.347,0,0,1,721.886,25.319Z" transform="translate(-710.997 -2.704)"/>
            <path id="Path_4230" data-name="Path 4230" d="M721.571,25.136a.231.231,0,0,1-.231.227.229.229,0,1,1,.231-.227Z" transform="translate(-711.052 -2.752)" fill="#fff"/>
            <path id="Path_4231" data-name="Path 4231" d="M724.611,24.016c-.162-.568.5-.895-.561-1.091s-1.149-.009-1.745.651a1.427,1.427,0,0,0-.01,1.793c.718.886.059,1.557,1.017,1.611a1.435,1.435,0,0,1-.6,1.012c-.62.525-1.146,1.179-.353,1.119s1.671-.349,1.81-1.108a4.2,4.2,0,0,0-.045-1.535h0a3.918,3.918,0,0,0-.089-.757C723.881,24.906,724.773,24.586,724.611,24.016Z" transform="translate(-710.447 -4.231)" fill="#1d130f"/>
            <path id="Path_4232" data-name="Path 4232" d="M736.935,25.9a22.175,22.175,0,0,0-.434,3.888c-.05,2.17,1.642,1.707-.024,3.49s-1.89,2.557-1.73,3.067a1.757,1.757,0,0,1-.014,1.786c-.454,1.174-1.062,1.391-1.375,3.026s-3.545,5.387-3.619,6.423-4.869,2.043-4.869,2.043l.1-14.716Z" transform="translate(-708.344 -2.033)" fill="#753617"/>
            <path id="Path_4233" data-name="Path 4233" d="M732.214,30.314l-2.649,4.463-3.912,4.569.776,1.675s2.561-1.224,2.953-2.282C729.949,37.232,733.578,31.758,732.214,30.314Z" transform="translate(-707.78 1.148)" fill="#1a0d07"/>
            <path id="Path_4234" data-name="Path 4234" d="M727.339,34.622s.029.224.313,1.8a4.854,4.854,0,0,1-.552,3.9c-.752.981-.587,1.432-2.22,1.42l.053-8.028Z" transform="translate(-708.337 3.597)" fill="#e19b93"/>
            <path id="Path_4235" data-name="Path 4235" d="M730.405,33.3a7.191,7.191,0,0,1,1.447-2c.747-.559.7-1.7,1.034-1.943a10.394,10.394,0,0,0,1.559-2.423c.067-.334.478-1.07-.262-1.335s-2.671.255-3.735.893a6.718,6.718,0,0,0-2.929,4.463C727.394,32.846,729.875,34.035,730.405,33.3Z" transform="translate(-706.437 -2.303)" fill="#753617"/>
            <path id="Path_4236" data-name="Path 4236" d="M732.02,19.884s4.031,2.723,4.631,3.356,1.661,1.962,1.654,3.034,1.141,2.4.867,3.149a3.987,3.987,0,0,0-.277,1.191s-.73-1.387-1-2.02a2.655,2.655,0,0,0-1.339-1.329c-.269,0-.341.5-.009,1.318s.79,2.714-.155,2.709-2.287-.645-2.7.3-1.494,1.058-1.768,1.81-1.16,2.822-.625,3.2.688,1.389,1.215,1.518.048,1.072-.432,1.948a14,14,0,0,0-1.368,2.948c-.139.754-.761,3.079-2.583,3.067s-1.883-.644-3.23-.652l.172-25.935a3.623,3.623,0,0,1,1.957-.477C728.218,19.061,732.02,19.884,732.02,19.884Z" transform="translate(-708.318 -6.995)" fill="#3a251d"/>
            <path id="Path_4237" data-name="Path 4237" d="M727.829,33.136a3.357,3.357,0,0,0-.962-2.22s.733-.27,1.456.817-.014,2.026-.024,3.662a7.173,7.173,0,0,0,.5,2.027,1.983,1.983,0,0,1-.659.108c-1.821-.014-1.883-.644-3.23-.652l.009-1.506S727.824,34.431,727.829,33.136Z" transform="translate(-708.318 1.56)" fill="#663b2d"/>
            <path id="Path_4238" data-name="Path 4238" d="M730.208,18.639c-.606,0-.408.5-1.146.3a5.351,5.351,0,0,0-3.235-.022c-.745.184-.537-.315-1.146-.318s-3.108.981-3.043,1.425.731,1.387,1.341,1.2,1.49-1.184,2.029-1.179.814-.537,1.146-.265a2.283,2.283,0,0,0,2.564.017c.341-.268.606.275,1.145.279s1.409,1.017,2.014,1.206,1.287-.745,1.359-1.184S730.817,18.644,730.208,18.639Z" transform="translate(-710.676 -7.296)" fill="#8a4724"/>
            <path id="Path_4239" data-name="Path 4239" d="M734.43,25.47c.749.754-.014,3.093-1.432,1.659s-3.229-2.261-3.666-1.112-.461,1.65-1.489,2.043-.972.107-1.337-1.78-1.5-2.463-.317-3.59,2.566-.449,3.49-.444S732.572,23.6,734.43,25.47Z" transform="translate(-707.773 -4.816)" fill="#663b2d"/>
            <path id="Path_4240" data-name="Path 4240" d="M727.218,26.191s.644-1.926,1.368-2.132a6.821,6.821,0,0,1,3.941,1.093c.656.638,1.445,1.836-.016,2.089s-2.521.929-3.332.745S726.809,27.174,727.218,26.191Z" transform="translate(-706.7 -3.391)" fill="#663b2d"/>
            <path id="Path_4241" data-name="Path 4241" d="M730.038,21.8c-.3.139,1.191,1.2,1.093,1.769s.108.5.37,1.453a3.814,3.814,0,0,1,.265,2.39c-.286.692.052.774-.454.91s-.606-.191-1.014-.005-.155.706-.661.8-.521.232-.521.232a3.254,3.254,0,0,0,1.547.263c.742-.107,1.046-.153,2.005-.287s1.576-1.119,1.125-1.786-1-1.007-.9-1.805.31-1.029-.394-1.7a5.026,5.026,0,0,1-.931-1.279C731.3,22.42,730.446,21.614,730.038,21.8Z" transform="translate(-705.283 -5.011)" fill="#1d130f"/>
            <path id="Path_4242" data-name="Path 4242" d="M724.963,28.171s1.122.2,1.678,1.9,1.652,4.6,1.652,4.6l-3.366-1Z" transform="translate(-708.304 -0.397)" fill="#663b2d"/>
            <path id="Path_4243" data-name="Path 4243" d="M728.139,32.625s-1.32,1.33-2.273,1.323l-.941-1.344.012-1.946S727.691,30.939,728.139,32.625Z" transform="translate(-708.306 1.396)" fill="#0f0804"/>
            <path id="Path_4244" data-name="Path 4244" d="M730.008,26.489s.5-.2.523-.456a1.064,1.064,0,0,0-.346-.885,2.141,2.141,0,0,0-.984-.561,1.45,1.45,0,0,0-1.258.94c-.272.644.513.824.616.826S730.008,26.489,730.008,26.489Z" transform="translate(-706.17 -2.982)" fill="#100a07"/>
            <path id="Path_4245" data-name="Path 4245" d="M730.29,25.656a1.09,1.09,0,0,1-1.1,1.28c-.707,0-1.057-.466-1.261-.439s-.232.15-.15-.482a1.462,1.462,0,0,1,1.16-1.208A1.151,1.151,0,0,1,730.29,25.656Z" transform="translate(-706.278 -2.826)" fill="#330800"/>
            <path id="Path_4246" data-name="Path 4246" d="M724.916,35.021a5.512,5.512,0,0,0,1.1.007c.439-.067,1.1-1.015.812-1.358s-.546-.583-.91-.453-.654-.974-.434-1.1,1.1-.564,1.174-.158.21,1.163.941,1.2a.931.931,0,0,0,.78-1.532c-.582-.752-.506-1.261-1.346-1.44a7.762,7.762,0,0,0-2.082-.014Z" transform="translate(-708.311 1)" fill="#1a0d07"/>
            <path id="Path_4247" data-name="Path 4247" d="M728.34,25.362a.348.348,0,1,0,.351-.344A.348.348,0,0,0,728.34,25.362Z" transform="translate(-705.843 -2.67)"/>
            <path id="Path_4248" data-name="Path 4248" d="M728.557,25.181a.229.229,0,0,0,.458,0,.229.229,0,0,0-.458,0Z" transform="translate(-705.686 -2.717)" fill="#fff"/>
            <path id="Path_4249" data-name="Path 4249" d="M728.181,34.889a5.432,5.432,0,0,1-1.836-.416l-.465-.048c-.965-.007-1.014.442-2.313.434,0,0-.134.3.564,1.141a3.062,3.062,0,0,0,3.471.022C728.312,35.188,728.181,34.889,728.181,34.889Z" transform="translate(-709.291 4.111)" fill="#e17c71"/>
            <path id="Path_4250" data-name="Path 4250" d="M726.48,24.028c.167-.564-.487-.9.576-1.083s1.146.007,1.733.673a1.432,1.432,0,0,1-.012,1.793c-.73.879-.079,1.557-1.041,1.6a1.437,1.437,0,0,0,.592,1.019c.611.534,1.134,1.194.341,1.124s-1.669-.372-1.8-1.132a4.234,4.234,0,0,1,.065-1.533h0a3.62,3.62,0,0,1,.1-.757C727.2,24.93,726.308,24.6,726.48,24.028Z" transform="translate(-707.219 -4.211)" fill="#1d130f"/>
            <path id="Path_4251" data-name="Path 4251" d="M731.58,20.972c-1.038-.793-2.482-1.967-3.263-1.912a1.819,1.819,0,0,1-2.346-.014c-.781-.067-2.239,1.088-3.289,1.867s-.867,2.418,1.058,2.32,1.673-.439,2.2.442.379,2.891,1.146,4.015c.783-1.113.661-3.124,1.2-4s.277-.535,2.2-.413S732.621,21.765,731.58,20.972Z" transform="translate(-710.381 -6.978)" fill="#1d130f"/>
          </g>
          <path id="Path_4252" data-name="Path 4252" d="M828.019,106.724c-11.307-4.383-27.445,1.628-33.78-.225s-8.1-9.579-13.9-23.9-21.585-27.352-26.082-33.05a55.517,55.517,0,0,0-6.586-6.6c.354,2.659.511,6.294-.608,9.032-2,4.879-3.253,11.861-2.976,15.491s1.317,6.357-3.681,7.837-3.215,6.328-2.628,9.051c.4,1.857-.191,2.249-1.2,2.853,2.373,1.127,3.736,1.848,3.736,1.848,2.141-4.065,9.576-7.948,14.716-8.515s9.378,2.318,12.212,4.767c1.589,1.372,6.351-.561,6.452,1.706s3.153,8.484,7.066,11.08,4.659,3.659,5.547,6.839,5.132,4.719,8,5.493,6.934-.86,12.076-1.582,3.624.478,8.751,2.477c1.912.747,4.58,1.878,7.8,3.077l13.183.088C844.064,114.541,839.324,111.106,828.019,106.724Z" transform="translate(-699.899 10.256)" fill="#1d130f"/>
          <path id="Path_4253" data-name="Path 4253" d="M736.872,84.615c1.733-1.652,2.792-1.645,1.456-5.282s-2.384-1.528-.926-6.81-.85-7.106,3.044-8.892,5.874-4.2,6.793-6.455-1.168-5.753,1.425-9.366a17.191,17.191,0,0,0,1.757-3.084,39.694,39.694,0,0,1-6.9-7.648,15.652,15.652,0,0,1-2.915,2.358c-4.3,2.855-4.919,3-8.507,9.479s-3.444,3.9-2.628,7.841.5,3.929,2.575.167,1.674-7.7,4.01-8.892,3.554-2.545,6.258.194,4.068,1.84-.041,6.044-9.15,5.683-8.558,11.13.645,7.1-.534,8.913.2,1.361,1.755,5a10.612,10.612,0,0,1,.017,7.407Z" transform="translate(-705.372 6.025)" fill="#3a251d"/>
          <path id="Path_4254" data-name="Path 4254" d="M731.387,80.468c1.034-1.96,2.549-8.108,1.874-10.834s-3.707-3.313-4.612-7.624,2.893-4.857.733-10.087-1.406-4.089-2.843-6.48c-1.21-2.014-4.471-2.686-6.646-4.42a36.741,36.741,0,0,1-1.75,13.816C713.707,69.778,730.805,77.138,731.387,80.468Z" transform="translate(-713.724 8.871)" fill="#b26631"/>
        </g>
        <path id="Path_4255" data-name="Path 4255" d="M718.31,48.11l13.1-2.048a1.719,1.719,0,0,1,1.981,1.618l.645,14.121a1.718,1.718,0,0,1-1.556,1.788l-12.556,1.179a1.716,1.716,0,0,1-1.871-1.556L716.866,49.96A1.717,1.717,0,0,1,718.31,48.11Z" transform="translate(-714.12 12.487)" fill="#86898e"/>
        <path id="Path_4256" data-name="Path 4256" d="M737.209,60.139c-.828,1.067-4.753,9.953-4.753,9.953a73.5,73.5,0,0,0,9.608,6.7l8.263-13.455Z" transform="translate(-702.875 22.652)" fill="#404040"/>
        <path id="Path_4257" data-name="Path 4257" d="M745.183,36.977c-8.113,6.106-18.9,11.765-21.986,15.451a2.434,2.434,0,0,0-.5,2.12L725.476,73.4a2.465,2.465,0,0,0,1.991,1.883l43.655,8.724a2.467,2.467,0,0,0,2.315-.859l6.438-10.94a2.443,2.443,0,0,0-.009-3.16c-4.87-5.707-21.944-25.414-31.372-32.442C747.46,35.835,746.214,36.2,745.183,36.977Z" transform="translate(-709.959 5.377)" fill="#86898e"/>
        <path id="Path_4258" data-name="Path 4258" d="M741.618,38.569l-12.665,13.51L762.135,76.53l8.739-9.422Z" transform="translate(-705.4 7.1)" fill="#4e5156"/>
        <g id="Group_4914" data-name="Group 4914" transform="translate(29.514 50.878)">
          <path id="Path_4259" data-name="Path 4259" d="M739.048,41.6l2.015,1.736a6.334,6.334,0,0,1,1.146,1.213,1.842,1.842,0,0,1,.339.938,1.632,1.632,0,0,1-.206.845,6.863,6.863,0,0,1-.84,1.136l-.577.669a3.673,3.673,0,0,1-1.079.941,1.372,1.372,0,0,1-1.005.038,3.486,3.486,0,0,1-1.217-.735l-.537-.463-2.671,3.1-2-1.724Zm.866,3.041L738.225,46.6l.143.131a.612.612,0,0,0,.5.193,1.308,1.308,0,0,0,.592-.468l.546-.633a.983.983,0,0,0,.318-.62A1.023,1.023,0,0,0,739.914,44.637Z" transform="translate(-732.417 -41.596)" fill="#f2af16"/>
          <path id="Path_4260" data-name="Path 4260" d="M742.2,52.112q-1,1.162-1.47,1.594a2.393,2.393,0,0,1-1.1.589,2.418,2.418,0,0,1-1.3-.059,3.728,3.728,0,0,1-1.327-.768,3.876,3.876,0,0,1-.934-1.158,2.434,2.434,0,0,1,.132-2.475,21.572,21.572,0,0,1,1.377-1.711l1.136-1.317q1-1.159,1.468-1.6a2.426,2.426,0,0,1,2.408-.53,3.736,3.736,0,0,1,1.323.769,3.821,3.821,0,0,1,.936,1.16,2.443,2.443,0,0,1-.133,2.473,21.83,21.83,0,0,1-1.377,1.711Zm.177-4.253a3.121,3.121,0,0,0,.533-.738.308.308,0,0,0-.115-.36.363.363,0,0,0-.344-.086,2.3,2.3,0,0,0-.7.644l-3.094,3.592a4.764,4.764,0,0,0-.659.874.315.315,0,0,0,.121.375.323.323,0,0,0,.416.046,5.158,5.158,0,0,0,.8-.811Z" transform="translate(-729.991 -39.458)" fill="#f2af16"/>
          <path id="Path_4261" data-name="Path 4261" d="M746.976,48.429l-5.3,6.154,1.218,1.048-1.327,1.54L738.345,54.4l6.631-7.695Z" transform="translate(-728.143 -37.912)" fill="#f2af16"/>
          <path id="Path_4262" data-name="Path 4262" d="M749.126,50.282l-6.631,7.693-2-1.723,6.631-7.695Z" transform="translate(-726.593 -36.576)" fill="#f2af16"/>
          <path id="Path_4263" data-name="Path 4263" d="M749.324,53.9a3.1,3.1,0,0,0,.563-.785.362.362,0,0,0-.157-.387.385.385,0,0,0-.465-.093,3.474,3.474,0,0,0-.725.7l-3.079,3.573a3.309,3.309,0,0,0-.563.79.377.377,0,0,0,.151.43.369.369,0,0,0,.439.079,3.653,3.653,0,0,0,.764-.745l.833-.967,2,1.724-.258.3a7.865,7.865,0,0,1-1.63,1.551,2.3,2.3,0,0,1-1.5.232,3.384,3.384,0,0,1-1.747-.85,3.868,3.868,0,0,1-1.175-1.57,2.039,2.039,0,0,1,.005-1.532,7.6,7.6,0,0,1,1.275-1.854l1.936-2.248a13.045,13.045,0,0,1,1.131-1.2,2.327,2.327,0,0,1,1.031-.509,2.528,2.528,0,0,1,1.306.071,4.244,4.244,0,0,1,2.508,2.372,2.161,2.161,0,0,1,.021,1.5A6.717,6.717,0,0,1,750.8,56.23l-.63.73-2-1.724,1.153-1.335Z" transform="translate(-725.053 -35.186)" fill="#f2af16"/>
          <path id="Path_4264" data-name="Path 4264" d="M751.886,52.661l3.335,2.876-1.325,1.54-1.337-1.151L751.3,57.383l1.248,1.077-1.261,1.465-1.25-1.077-1.458,1.692L750.05,61.8l-1.327,1.539-3.468-2.988Z" transform="translate(-723.161 -33.618)" fill="#f2af16"/>
        </g>
        <path id="Path_4265" data-name="Path 4265" d="M736.224,65.8l-1.7,2.95,2.932,2,1.669-3.516Z" transform="translate(-701.387 26.73)" fill="#86898e"/>
        <path id="Path_4266" data-name="Path 4266" d="M741.369,65.681l.337-.629-3.981-2.134-.337.63.191.913L736.273,66.9l-.865.347-.338.63,3.98,2.133.338-.629-.15-.891,1.307-2.436Z" transform="translate(-700.991 24.654)" fill="#27292c"/>
        <path id="Path_4267" data-name="Path 4267" d="M736.82,64.644l1.426-3.3,3.65.729-2.209,4.185Z" transform="translate(-699.729 23.518)" fill="#86898e"/>
        <path id="Path_4268" data-name="Path 4268" d="M717.3,53.33l2.4-.3.486,3.288-2.6.265Z" transform="translate(-713.802 17.526)" fill="#4e5156"/>
        <path id="Path_4269" data-name="Path 4269" d="M723.818,56.887l.71-.076-.486-4.49-.71.076-.645.672-2.749.3-.775-.519-.71.077.485,4.491.71-.077.65-.627,2.749-.3Z" transform="translate(-712.971 17.015)" fill="#27292c"/>
        <path id="Path_4270" data-name="Path 4270" d="M721.509,52.844l.3,3.325,3.638-.208-.512-3.477Z" transform="translate(-710.768 17.133)" fill="#4e5156"/>
        <path id="Path_4271" data-name="Path 4271" d="M719.46,52.127l-.537-3.35-2.011.17.26,3.5Z" transform="translate(-714.082 14.459)" fill="#27292c"/>
        <path id="Path_4272" data-name="Path 4272" d="M723.2,52.685l.71-.077-.485-4.49-.71.076-.646.672-2.748.3-.774-.519-.711.077.486,4.49.709-.077.651-.626,2.749-.3Z" transform="translate(-713.417 13.984)" fill="#27292c"/>
        <path id="Path_4273" data-name="Path 4273" d="M720.9,48.654l.3,3.328,3.59-.347-.507-3.434Z" transform="translate(-711.206 14.045)" fill="#4e5156"/>
        <g id="Group_4915" data-name="Group 4915" transform="translate(39.027 42.168)">
          <path id="Path_4274" data-name="Path 4274" d="M748.071,49.042a.832.832,0,0,1-.675-1.349l1.409-1.785-7.693-7.474-1.871,1.258a.833.833,0,0,1-.931-1.382l2.434-1.633a.832.832,0,0,1,1.043.093l8.717,8.467a.829.829,0,0,1,.074,1.115L748.7,48.727A.823.823,0,0,1,748.071,49.042Z" transform="translate(-737.945 -36.535)" fill="#86898e"/>
        </g>
      </g>
    </g>
  </g>
</svg>
