<svg id="Iconly_Bold_Search" data-name="Iconly/Bold/Search" xmlns="http://www.w3.org/2000/svg" width="14" height="14" viewBox="0 0 14 14">
  <g id="Search">
    <path id="Search-2" data-name="Search" d="M12.418,13.726l-1.484-1.7a.758.758,0,0,1,0-1.067.69.69,0,0,1,.975,0L13.7,12.4h.031a.944.944,0,0,1,0,1.324.92.92,0,0,1-1.31,0ZM0,6.069A6.037,6.037,0,0,1,6,0,5.971,5.971,0,0,1,10.25,1.778a6.1,6.1,0,0,1,1.758,4.291,6.037,6.037,0,0,1-6,6.069A6.037,6.037,0,0,1,0,6.069Z" fill="#d4d4d4"/>
  </g>
</svg>
