<svg id="Iconly_Bold_Setting" data-name="Iconly/Bold/Setting" xmlns="http://www.w3.org/2000/svg" width="17.94" height="18.888" viewBox="0 0 17.94 18.888">
  <g id="Setting" transform="translate(0 0)">
    <path id="Setting-2" data-name="Setting" d="M9.629,18.888H8.315a1.951,1.951,0,0,1-2.007-1.936,1.8,1.8,0,0,0-1.776-1.719,1.492,1.492,0,0,0-.849.218,2.043,2.043,0,0,1-1.023.283,2,2,0,0,1-1.718-.982L.276,13.618a1.892,1.892,0,0,1-.02-1.936,1.991,1.991,0,0,1,.772-.745,1.561,1.561,0,0,0,.609-.6,1.683,1.683,0,0,0,.179-1.289A1.735,1.735,0,0,0,1.01,7.971,1.932,1.932,0,0,1,.3,5.3L.942,4.184a2,2,0,0,1,2.722-.717,1.789,1.789,0,0,0,.847.211,1.85,1.85,0,0,0,1.575-.863,1.453,1.453,0,0,0,.223-.831,1.689,1.689,0,0,1,.27-1A2.08,2.08,0,0,1,8.287,0H9.647a2.034,2.034,0,0,1,1.719.983,1.682,1.682,0,0,1,.26,1,1.459,1.459,0,0,0,.222.831,1.855,1.855,0,0,0,1.579.863,1.819,1.819,0,0,0,.853-.211,1.993,1.993,0,0,1,2.712.717L17.639,5.3a1.914,1.914,0,0,1-.714,2.673,1.728,1.728,0,0,0-.806,1.075,1.672,1.672,0,0,0,.188,1.286,1.483,1.483,0,0,0,.6.6,2.178,2.178,0,0,1,.782.745,1.918,1.918,0,0,1-.019,1.936l-.676,1.134a1.982,1.982,0,0,1-2.732.7,1.531,1.531,0,0,0-.849-.218,1.794,1.794,0,0,0-1.786,1.719A1.947,1.947,0,0,1,9.629,18.888ZM8.982,6.781A2.71,2.71,0,0,0,6.241,9.453a2.609,2.609,0,0,0,.8,1.888,2.767,2.767,0,0,0,1.939.776,2.665,2.665,0,0,0,1.924-4.556A2.717,2.717,0,0,0,8.982,6.781Z" fill="#d4d4d4"/>
  </g>
</svg>
