<svg id="Iconly_Bold_Filter_2" data-name="Iconly/Bold/Filter 2" xmlns="http://www.w3.org/2000/svg" width="14" height="14" viewBox="0 0 14 14">
  <g id="Filter_2" data-name="Filter 2">
    <path id="Filter_2-2" data-name="Filter 2" d="M4.959,13.912a.562.562,0,0,1-.249-.469v-3.37a.391.391,0,0,1,.386-.4l3.4.011a.391.391,0,0,1,.384.4v1.911a.559.559,0,0,1-.318.507L5.476,13.95a.535.535,0,0,1-.225.05A.528.528,0,0,1,4.959,13.912ZM8.7,8.431,4.892,8.419a.414.414,0,0,1-.306-.137L.4,3.68A1.564,1.564,0,0,1,0,2.63V1.535A1.513,1.513,0,0,1,1.49,0H12.51A1.512,1.512,0,0,1,14,1.535V2.607A1.558,1.558,0,0,1,13.554,3.7L9,8.307a.408.408,0,0,1-.291.124Z" fill="#86898e"/>
  </g>
</svg>
