<svg id="Lock" xmlns="http://www.w3.org/2000/svg" width="16.172" height="19.025" viewBox="0 0 16.172 19.025">
  <g id="Lock-2" data-name="Lock" opacity="0.59">
    <path id="Lock-3" data-name="Lock" d="M12.112,19.025H4.061A4.021,4.021,0,0,1,0,15.055v-4.7A3.962,3.962,0,0,1,2.832,6.592V5.133A5.205,5.205,0,0,1,8.072,0,5.3,5.3,0,0,1,11.8,1.5a5.037,5.037,0,0,1,1.539,3.63V6.592a3.962,3.962,0,0,1,2.832,3.766v4.7A4.021,4.021,0,0,1,12.112,19.025Zm-4.031-8.2a.833.833,0,0,0-.841.823v2.1a.846.846,0,0,0,1.691,0v-2.1A.838.838,0,0,0,8.081,10.829Zm.009-9.175a3.531,3.531,0,0,0-3.567,3.46V6.387h7.124V5.133A3.523,3.523,0,0,0,8.091,1.654Z" transform="translate(0 0)" fill="#233245"/>
  </g>
</svg>
