<svg id="mail" xmlns="http://www.w3.org/2000/svg" width="16.172" height="12.62" viewBox="0 0 16.172 12.62">
  <path id="mail-2" data-name="mail" d="M9.968-4.431a1.268,1.268,0,0,0,.9-.461L17.241-11.2a2.176,2.176,0,0,0-1.5-.388H3.948a1.809,1.809,0,0,0-1.289.359L9.067-4.893A1.271,1.271,0,0,0,9.968-4.431ZM2.051-.146l5.178-5.12-5.193-5.12a2.415,2.415,0,0,0-.168,1.062v8.086A2.279,2.279,0,0,0,2.051-.146ZM17.864-.154a2.4,2.4,0,0,0,.176-1.084V-9.324a2.459,2.459,0,0,0-.161-1.04L12.7-5.266ZM4.167,1.033H15.959A1.826,1.826,0,0,0,17.241.681L11.96-4.548l-.483.491a2.135,2.135,0,0,1-1.509.7,2.11,2.11,0,0,1-1.509-.7l-.491-.491L2.7.674A2.254,2.254,0,0,0,4.167,1.033Z" transform="translate(-1.868 11.587)" fill="#233245" opacity="0.59"/>
</svg>
