<svg xmlns="http://www.w3.org/2000/svg" width="191.671" height="186.324" viewBox="0 0 191.671 186.324">
  <g id="Notebook-bro" transform="translate(0.568)">
    <g id="freepik--background-simple--inject-1--inject-33" transform="translate(14.859 25.321)">
      <path id="Path_37098" data-name="Path 37098" d="M242.9,169.226c.445-2.549,1.159-5.071,1.67-7.667a45.323,45.323,0,0,0,.213-15.183,59.641,59.641,0,0,0-11.191-26.649c-6.234-8.363-15.609-15.136-25.684-12.577-10.482,2.649-19.355,10.732-29.548,14.422-17.265,6.244-34.742-5.137-52.139-4.73-15.023.326-30.783,5.719-40.678,19.053-4.039,5.444-6.854,12.771-5.9,19.98,1.168,8.784,7.615,15.467,12.421,21.966,7.369,9.961,10.16,20.812,3.959,32.439-4.191,7.88-9.829,14.843-9.342,24.629.78,15.656,15.235,25.112,27.155,29.326,12.109,4.285,25.859,4.73,37.9-.095,10.695-4.3,18.159-13.717,27.907-19.724a44.112,44.112,0,0,1,28.621-6.281c10.3,1.23,21.157,3.4,31.114-1.045,9.526-4.257,14.039-15.633,14.393-26.535a43.587,43.587,0,0,0-2.417-16.006c-2.209-6.177-7.1-11-8.471-17.548a20.34,20.34,0,0,1,.019-7.771Z" transform="translate(-79.454 -106.601)" fill="#484d54"/>
      <path id="Path_37099" data-name="Path 37099" d="M242.9,169.226c.445-2.549,1.159-5.071,1.67-7.667a45.323,45.323,0,0,0,.213-15.183,59.641,59.641,0,0,0-11.191-26.649c-6.234-8.363-15.609-15.136-25.684-12.577-10.482,2.649-19.355,10.732-29.548,14.422-17.265,6.244-34.742-5.137-52.139-4.73-15.023.326-30.783,5.719-40.678,19.053-4.039,5.444-6.854,12.771-5.9,19.98,1.168,8.784,7.615,15.467,12.421,21.966,7.369,9.961,10.16,20.812,3.959,32.439-4.191,7.88-9.829,14.843-9.342,24.629.78,15.656,15.235,25.112,27.155,29.326,12.109,4.285,25.859,4.73,37.9-.095,10.695-4.3,18.159-13.717,27.907-19.724a44.112,44.112,0,0,1,28.621-6.281c10.3,1.23,21.157,3.4,31.114-1.045,9.526-4.257,14.039-15.633,14.393-26.535a43.587,43.587,0,0,0-2.417-16.006c-2.209-6.177-7.1-11-8.471-17.548a20.34,20.34,0,0,1,.019-7.771Z" transform="translate(-79.454 -106.601)" fill="#fff" opacity="0.7"/>
    </g>
    <g id="freepik--Plants--inject-1--inject-33" transform="translate(96.791)">
      <path id="Path_37100" data-name="Path 37100" d="M363.071,67.247c.028,0,.875-2.233.913-2.365.43-1.717.246-5.288-1.419-6.334a2.365,2.365,0,0,0-3.311,1.064,4.9,4.9,0,0,0,.411,4.11C360.337,65.085,363.071,67.242,363.071,67.247Z" transform="translate(-308.681 -55.794)" fill="#484d54"/>
      <path id="Path_37101" data-name="Path 37101" d="M375.225,80.891c-1.386-1.419-4.91-.832-6.494-.043-.137.066-2.157,1.376-2.128,1.419l.028.028c-.553.09-1.154.189-1.8.312-1.2.241-2.549.52-4,.946a40.119,40.119,0,0,0-4.617,1.528,30.7,30.7,0,0,0-4.872,2.422l-.052.038c.378-.44,1.391-1.712,1.462-1.816.946-1.5,1.892-4.948.61-6.466a2.365,2.365,0,0,0-3.491,0,4.9,4.9,0,0,0-.889,4.03,16.492,16.492,0,0,0,2.133,4.4A40.819,40.819,0,0,0,346.68,91c-.823.7-1.627,1.419-2.427,2.166.312-.393.591-.743.624-.8.946-1.5,1.892-4.948.615-6.466a2.365,2.365,0,0,0-3.491,0,4.9,4.9,0,0,0-.889,4.03,15.325,15.325,0,0,0,2.053,4.257l-.908.856c-1.452,1.381-2.895,2.767-4.352,4.082-.511.473-1.036.9-1.556,1.343.279-.35.511-.643.544-.691.946-1.5,1.892-4.948.61-6.471a2.365,2.365,0,0,0-3.491-.024,4.916,4.916,0,0,0-.889,4.03,14.7,14.7,0,0,0,1.987,4.172c-.544.435-1.093.87-1.641,1.268-.383.26-.733.539-1.13.78l-1.154.738c-.752.44-1.523.9-2.266,1.315-.516.289-1.012.553-1.509.828.516-.473,1.5-1.372,1.58-1.457a9.129,9.129,0,0,0,1.892-4.2,2.44,2.44,0,0,0,.3-.421,2.365,2.365,0,0,0-.946-3.358c-1.367-.629-3.467.265-4.924,1.3.062-1.007.033-1.627.033-1.627l-.383.038.279-.667c.189-.416.331-.88.5-1.324.369-1.041.691-2.114.993-3.2a15.511,15.511,0,0,0,4.46,1.537,4.889,4.889,0,0,0,3.9-1.343,2.365,2.365,0,0,0-.421-3.467c-1.656-1.088-4.976.241-6.357,1.348-.085.071-.989.979-1.471,1.485.175-.653.355-1.305.511-1.977.449-1.925.847-3.893,1.253-5.851.123-.6.255-1.2.383-1.8a16.191,16.191,0,0,0,4.607,1.613,4.895,4.895,0,0,0,3.9-1.343,2.365,2.365,0,0,0-.421-3.462c-1.656-1.093-4.976.236-6.357,1.348-.1.08-1.419,1.386-1.708,1.736.279-1.315.577-2.625.918-3.907a40.486,40.486,0,0,1,1.693-5.08c.114.057,3.112,1.57,4.635,1.622a4.884,4.884,0,0,0,3.9-1.343,2.365,2.365,0,0,0-.426-3.462c-1.656-1.093-4.971.237-6.352,1.348-.109.085-1.5,1.49-1.736,1.764.043-.095.071-.2.114-.293a29.966,29.966,0,0,1,2.587-4.73c.544-.828,1.107-1.594,1.674-2.322a15.767,15.767,0,0,0,4.333,2.067,4.827,4.827,0,0,0,4.025-.908,2.365,2.365,0,0,0-.043-3.491c-1.523-1.268-4.967-.307-6.461.643-.08.047-.851.667-1.419,1.121.26-.322.52-.662.776-.97.946-1.154,1.892-2.152,2.753-3.027.473-.473.946-.946,1.358-1.339a15.762,15.762,0,0,0,4.773-.166,4.841,4.841,0,0,0,3.155-2.663,2.365,2.365,0,0,0-1.641-3.079c-1.939-.421-4.555,2.02-5.444,3.548-.076.132-1.036,2.341-1,2.365h.043c-.416.378-.856.795-1.329,1.253-.87.861-1.84,1.84-2.838,2.98a41.75,41.75,0,0,0-3.008,3.822,30.72,30.72,0,0,0-2.72,4.73l-.028.061c.076-.577.222-2.195.218-2.322-.038-1.769-1.154-5.165-3.056-5.733a2.365,2.365,0,0,0-2.928,1.892,4.911,4.911,0,0,0,1.485,3.85c1,1.107,3.969,2.365,4.2,2.493a40.421,40.421,0,0,0-1.868,5.2c-.3,1.036-.572,2.086-.832,3.145.047-.5.085-.946.08-1.012-.038-1.769-1.154-5.165-3.056-5.733a2.365,2.365,0,0,0-2.923,1.892,4.907,4.907,0,0,0,1.48,3.85,15.735,15.735,0,0,0,4.077,2.436c-.095.407-.194.809-.289,1.216-.449,1.954-.885,3.907-1.376,5.8-.17.672-.364,1.324-.553,1.977.038-.44.066-.818.066-.875-.038-1.769-1.154-5.165-3.056-5.733a2.365,2.365,0,0,0-2.923,1.892,4.894,4.894,0,0,0,1.48,3.855,14.153,14.153,0,0,0,3.954,2.365c-.213.667-.43,1.329-.672,1.963-.17.43-.307.856-.506,1.277l-.544,1.22c-.421.071-.908.166-1.452.289-.142-1.783-.809-3.959-2.166-4.6a2.365,2.365,0,0,0-3.183,1.443,4.879,4.879,0,0,0,.884,4.03,3.586,3.586,0,0,0,.359.473,17.288,17.288,0,0,0-6.125,4.229c-4.905,5.487-4.536,13.821-4.536,13.821s6.958-.473,11.9-4.73c1.518-.719,3.481-1.674,5.728-2.881.842-.445,1.731-.946,2.639-1.462a16.179,16.179,0,0,0,3.5,3.377,4.889,4.889,0,0,0,4.106.416,2.365,2.365,0,0,0,1.069-3.311c-1.045-1.684-4.617-1.864-6.333-1.419-.1.028-1.168.426-1.84.686.369-.213.733-.416,1.112-.643.752-.44,1.49-.9,2.285-1.391l1.14-.762c.383-.246.762-.553,1.145-.832.88-.662,1.741-1.381,2.592-2.119a15.476,15.476,0,0,0,2.871,3.741,4.906,4.906,0,0,0,4,1.036,2.365,2.365,0,0,0,1.556-3.127c-.776-1.821-4.281-2.545-6.04-2.365-.114,0-1.362.27-2.048.426.506-.449,1.017-.9,1.518-1.367,1.419-1.362,2.838-2.781,4.257-4.191.435-.435.875-.861,1.31-1.287a16.312,16.312,0,0,0,2.956,3.888A4.893,4.893,0,0,0,350.96,99.2a2.365,2.365,0,0,0,1.561-3.122c-.78-1.826-4.257-2.545-6.045-2.365-.132,0-1.93.388-2.365.506.946-.946,1.93-1.892,2.918-2.748a41.147,41.147,0,0,1,4.219-3.311c.061.109,1.731,3.027,2.97,3.912a4.876,4.876,0,0,0,3.992,1.031,2.365,2.365,0,0,0,1.561-3.122c-.78-1.826-4.281-2.545-6.045-2.365-.137,0-2.072.421-2.422.52.09-.061.17-.128.255-.184a30.062,30.062,0,0,1,4.758-2.5c.908-.393,1.8-.719,2.672-1.012a15.785,15.785,0,0,0,2.479,4.11,4.836,4.836,0,0,0,3.855,1.466,2.365,2.365,0,0,0,1.892-2.937c-.577-1.892-3.978-3-5.747-3.027-.1,0-1.078.085-1.793.166.4-.128.8-.27,1.187-.383,1.419-.435,2.777-.743,3.969-1.007.676-.147,1.291-.265,1.892-.364a15.889,15.889,0,0,0,4.073,2.493,4.875,4.875,0,0,0,4.1-.473,2.365,2.365,0,0,0,.326-3.59ZM324.661,107.8c-1.031.525-2.006,1-2.9,1.419a19.308,19.308,0,0,0,3.07-7.341c.27.066.544.123.818.175a17.307,17.307,0,0,0,1.419,4.479C326.241,106.987,325.432,107.431,324.661,107.8Z" transform="translate(-281.59 -53.068)" fill="#484d54"/>
      <path id="Path_37102" data-name="Path 37102" d="M417.758,107.094c1.305-1.2,3.127-4.257,2.3-6.073a2.365,2.365,0,0,0-3.358-.946,4.9,4.9,0,0,0-1.92,3.652c-.18,1.542.908,4.848.908,4.848S417.649,107.2,417.758,107.094Z" transform="translate(-338.09 -77.653)" fill="#484d54"/>
      <path id="Path_37103" data-name="Path 37103" d="M288.69,84.19s-10.1,10.245-10.151,22.941,9.933,23.021,9.933,23.021,10.108-10.245,10.151-22.936S288.69,84.19,288.69,84.19Z" transform="translate(-266.303 -69.469)" fill="#484d54"/>
      <path id="Path_37104" data-name="Path 37104" d="M253.07,145.57s-.061,8.344,5.042,13.646,13.438,5.558,13.438,5.558.066-8.344-5.037-13.646S253.07,145.57,253.07,145.57Z" transform="translate(-252.881 -101.817)" fill="#484d54"/>
      <g id="Group_11691" data-name="Group 11691" transform="translate(0.189)" opacity="0.5">
        <path id="Path_37105" data-name="Path 37105" d="M363.071,67.247c.028,0,.875-2.233.913-2.365.43-1.717.246-5.288-1.419-6.334a2.365,2.365,0,0,0-3.311,1.064,4.9,4.9,0,0,0,.411,4.11C360.337,65.085,363.071,67.242,363.071,67.247Z" transform="translate(-308.87 -55.794)" fill="#fff"/>
        <path id="Path_37106" data-name="Path 37106" d="M375.225,80.891c-1.386-1.419-4.91-.832-6.494-.043-.137.066-2.157,1.376-2.128,1.419l.028.028c-.553.09-1.154.189-1.8.312-1.2.241-2.549.52-4,.946a40.119,40.119,0,0,0-4.617,1.528,30.7,30.7,0,0,0-4.872,2.422l-.052.038c.378-.44,1.391-1.712,1.462-1.816.946-1.5,1.892-4.948.61-6.466a2.365,2.365,0,0,0-3.491,0,4.9,4.9,0,0,0-.889,4.03,16.492,16.492,0,0,0,2.133,4.4A40.819,40.819,0,0,0,346.68,91c-.823.7-1.627,1.419-2.427,2.166.312-.393.591-.743.624-.8.946-1.5,1.892-4.948.615-6.466a2.365,2.365,0,0,0-3.491,0,4.9,4.9,0,0,0-.889,4.03,15.325,15.325,0,0,0,2.053,4.257l-.908.856c-1.452,1.381-2.895,2.767-4.352,4.082-.511.473-1.036.9-1.556,1.343.279-.35.511-.643.544-.691.946-1.5,1.892-4.948.61-6.471a2.365,2.365,0,0,0-3.491-.024,4.916,4.916,0,0,0-.889,4.03,14.7,14.7,0,0,0,1.987,4.172c-.544.435-1.093.87-1.641,1.268-.383.26-.733.539-1.13.78l-1.154.738c-.752.44-1.523.9-2.266,1.315-.516.289-1.012.553-1.509.828.516-.473,1.5-1.372,1.58-1.457a9.129,9.129,0,0,0,1.892-4.2,2.44,2.44,0,0,0,.3-.421,2.365,2.365,0,0,0-.946-3.358c-1.367-.629-3.467.265-4.924,1.3.062-1.007.033-1.627.033-1.627l-.383.038.279-.667c.189-.416.331-.88.5-1.324.369-1.041.691-2.114.993-3.2a15.511,15.511,0,0,0,4.46,1.537,4.889,4.889,0,0,0,3.9-1.343,2.365,2.365,0,0,0-.421-3.467c-1.656-1.088-4.976.241-6.357,1.348-.085.071-.989.979-1.471,1.485.175-.653.355-1.305.511-1.977.449-1.925.847-3.893,1.253-5.851.123-.6.255-1.2.383-1.8a16.191,16.191,0,0,0,4.607,1.613,4.895,4.895,0,0,0,3.9-1.343,2.365,2.365,0,0,0-.421-3.462c-1.656-1.093-4.976.236-6.357,1.348-.1.08-1.419,1.386-1.708,1.736.279-1.315.577-2.625.918-3.907a40.486,40.486,0,0,1,1.693-5.08c.114.057,3.112,1.57,4.635,1.622a4.884,4.884,0,0,0,3.9-1.343,2.365,2.365,0,0,0-.426-3.462c-1.656-1.093-4.971.237-6.352,1.348-.109.085-1.5,1.49-1.736,1.764.043-.095.071-.2.114-.293a29.966,29.966,0,0,1,2.587-4.73c.544-.828,1.107-1.594,1.674-2.322a15.767,15.767,0,0,0,4.333,2.067,4.827,4.827,0,0,0,4.025-.908,2.365,2.365,0,0,0-.043-3.491c-1.523-1.268-4.967-.307-6.461.643-.08.047-.851.667-1.419,1.121.26-.322.52-.662.776-.97.946-1.154,1.892-2.152,2.753-3.027.473-.473.946-.946,1.358-1.339a15.762,15.762,0,0,0,4.773-.166,4.841,4.841,0,0,0,3.155-2.663,2.365,2.365,0,0,0-1.641-3.079c-1.939-.421-4.555,2.02-5.444,3.548-.076.132-1.036,2.341-1,2.365h.043c-.416.378-.856.795-1.329,1.253-.87.861-1.84,1.84-2.838,2.98a41.75,41.75,0,0,0-3.008,3.822,30.72,30.72,0,0,0-2.72,4.73l-.028.061c.076-.577.222-2.195.218-2.322-.038-1.769-1.154-5.165-3.056-5.733a2.365,2.365,0,0,0-2.928,1.892,4.911,4.911,0,0,0,1.485,3.85c1,1.107,3.969,2.365,4.2,2.493a40.421,40.421,0,0,0-1.868,5.2c-.3,1.036-.572,2.086-.832,3.145.047-.5.085-.946.08-1.012-.038-1.769-1.154-5.165-3.056-5.733a2.365,2.365,0,0,0-2.923,1.892,4.907,4.907,0,0,0,1.48,3.85,15.735,15.735,0,0,0,4.077,2.436c-.095.407-.194.809-.289,1.216-.449,1.954-.885,3.907-1.376,5.8-.17.672-.364,1.324-.553,1.977.038-.44.066-.818.066-.875-.038-1.769-1.154-5.165-3.056-5.733a2.365,2.365,0,0,0-2.923,1.892,4.894,4.894,0,0,0,1.48,3.855,14.153,14.153,0,0,0,3.954,2.365c-.213.667-.43,1.329-.672,1.963-.17.43-.307.856-.506,1.277l-.544,1.22c-.421.071-.908.166-1.452.289-.142-1.783-.809-3.959-2.166-4.6a2.365,2.365,0,0,0-3.183,1.443,4.879,4.879,0,0,0,.884,4.03,3.586,3.586,0,0,0,.359.473,17.288,17.288,0,0,0-6.125,4.229c-4.905,5.487-4.536,13.821-4.536,13.821s6.958-.473,11.9-4.73c1.518-.719,3.481-1.674,5.728-2.881.842-.445,1.731-.946,2.639-1.462a16.179,16.179,0,0,0,3.5,3.377,4.889,4.889,0,0,0,4.106.416,2.365,2.365,0,0,0,1.069-3.311c-1.045-1.684-4.617-1.864-6.333-1.419-.1.028-1.168.426-1.84.686.369-.213.733-.416,1.112-.643.752-.44,1.49-.9,2.285-1.391l1.14-.762c.383-.246.762-.553,1.145-.832.88-.662,1.741-1.381,2.592-2.119a15.476,15.476,0,0,0,2.871,3.741,4.906,4.906,0,0,0,4,1.036,2.365,2.365,0,0,0,1.556-3.127c-.776-1.821-4.281-2.545-6.04-2.365-.114,0-1.362.27-2.048.426.506-.449,1.017-.9,1.518-1.367,1.419-1.362,2.838-2.781,4.257-4.191.435-.435.875-.861,1.31-1.287a16.312,16.312,0,0,0,2.956,3.888A4.893,4.893,0,0,0,350.96,99.2a2.365,2.365,0,0,0,1.561-3.122c-.78-1.826-4.257-2.545-6.045-2.365-.132,0-1.93.388-2.365.506.946-.946,1.93-1.892,2.918-2.748a41.147,41.147,0,0,1,4.219-3.311c.061.109,1.731,3.027,2.97,3.912a4.876,4.876,0,0,0,3.992,1.031,2.365,2.365,0,0,0,1.561-3.122c-.78-1.826-4.281-2.545-6.045-2.365-.137,0-2.072.421-2.422.52.09-.061.17-.128.255-.184a30.062,30.062,0,0,1,4.758-2.5c.908-.393,1.8-.719,2.672-1.012a15.785,15.785,0,0,0,2.479,4.11,4.836,4.836,0,0,0,3.855,1.466,2.365,2.365,0,0,0,1.892-2.937c-.577-1.892-3.978-3-5.747-3.027-.1,0-1.078.085-1.793.166.4-.128.8-.27,1.187-.383,1.419-.435,2.777-.743,3.969-1.007.676-.147,1.291-.265,1.892-.364a15.889,15.889,0,0,0,4.073,2.493,4.875,4.875,0,0,0,4.1-.473,2.365,2.365,0,0,0,.326-3.59ZM324.661,107.8c-1.031.525-2.006,1-2.9,1.419a19.308,19.308,0,0,0,3.07-7.341c.27.066.544.123.818.175a17.307,17.307,0,0,0,1.419,4.479C326.241,106.987,325.432,107.431,324.661,107.8Z" transform="translate(-281.779 -53.068)" fill="#fff"/>
        <path id="Path_37107" data-name="Path 37107" d="M417.758,107.094c1.305-1.2,3.127-4.257,2.3-6.073a2.365,2.365,0,0,0-3.358-.946,4.9,4.9,0,0,0-1.92,3.652c-.18,1.542.908,4.848.908,4.848S417.649,107.2,417.758,107.094Z" transform="translate(-338.279 -77.653)" fill="#fff"/>
        <path id="Path_37108" data-name="Path 37108" d="M288.69,84.19s-10.1,10.245-10.151,22.941,9.933,23.021,9.933,23.021,10.108-10.245,10.151-22.936S288.69,84.19,288.69,84.19Z" transform="translate(-266.492 -69.469)" fill="#fff"/>
        <path id="Path_37109" data-name="Path 37109" d="M253.07,145.57s-.061,8.344,5.042,13.646,13.438,5.558,13.438,5.558.066-8.344-5.037-13.646S253.07,145.57,253.07,145.57Z" transform="translate(-253.07 -101.817)" fill="#fff"/>
      </g>
      <path id="Path_37110" data-name="Path 37110" d="M296.756,118.634l-.322-.416-5.941,4.664.047-10.259,8.254-7.3-.35-.393-7.9,6.991.052-11.267,5.558-4.815-.341-.4-5.217,4.512.071-15.76h-.525l-.1,23.22L283.5,97.85l-.435.293,6.929,10.127.043-.028-.043,9.649-7.842-7.052-.35.393,8.188,7.365v0l-.047,11.56.525,0,.028-6.608Z" transform="translate(-268.021 -69.469)" fill="#fff"/>
      <path id="Path_37111" data-name="Path 37111" d="M325.349,145.08l-.388-.35L316.22,154.5l.795-6.315-.52-.061-.889,7.057h0l-3.514,3.931-.662-5.832-.52.057.714,6.3L307.19,164.6l.393.35,2.521-2.814,4.555.274.028-.525-4.139-.251,3.779-4.224,6.343,0v-.525l-5.875-.009,4.158-4.645,4.214.052.009-.525-3.756-.047Z" transform="translate(-281.402 -101.374)" fill="#fff"/>
      <path id="Path_37112" data-name="Path 37112" d="M269.523,157.148l-.52-.071-.558,4.11-3.931-4.087.482-6.324-.525-.038-.445,5.856L259.7,152.1l.369-4.2-.525-.043-.326,3.741-6.168-6.409-.378.364L261.761,155l-6.234-1.268-.1.516,6.972,1.414v-.009l3.656,3.8-5.865.222.019.525,6.333-.241,4.612,4.792.378-.364-2.616-2.72Z" transform="translate(-252.67 -101.616)" fill="#fff"/>
    </g>
    <g id="freepik--Notebook--inject-1--inject-33" transform="translate(0 41.871)">
      <path id="Path_37113" data-name="Path 37113" d="M296.41,405.041l60.4-22.662.435-4.829L297.29,400.207l-.88,4.834" transform="translate(-178.93 -265.94)" fill="#484d54" stroke="#2e353a" stroke-linecap="round" stroke-linejoin="round" stroke-width="1.136"/>
      <path id="Path_37114" data-name="Path 37114" d="M269.561,260.251a4.607,4.607,0,0,1-2.9-1.06,5.355,5.355,0,0,1-1.892-3.363.922.922,0,0,1,1.821-.279,3.519,3.519,0,0,0,1.235,2.209,2.663,2.663,0,0,0,4.006-.62.922.922,0,0,1,1.537,1.017,4.527,4.527,0,0,1-3.117,2.039A4.141,4.141,0,0,1,269.561,260.251Z" transform="translate(-162.251 -201.258)" fill="#2e353a"/>
      <path id="Path_37115" data-name="Path 37115" d="M251.108,265.9a5.039,5.039,0,0,1-4.81-4.418.918.918,0,0,1,.766-1.05.946.946,0,0,1,1.055.771,3.148,3.148,0,0,0,3.377,2.838,2.72,2.72,0,0,0,1.864-1.235.922.922,0,0,1,1.537,1.017,4.527,4.527,0,0,1-3.117,2.039A4.093,4.093,0,0,1,251.108,265.9Z" transform="translate(-152.515 -204.214)" fill="#2e353a"/>
      <path id="Path_37116" data-name="Path 37116" d="M234.271,272.416a4.612,4.612,0,0,1-2.9-1.055A5.369,5.369,0,0,1,229.475,268a.922.922,0,0,1,1.821-.279,3.519,3.519,0,0,0,1.235,2.209,2.748,2.748,0,0,0,2.147.615,2.71,2.71,0,0,0,1.859-1.235.946.946,0,0,1,1.542,1.017,4.546,4.546,0,0,1-3.122,2.039A4.129,4.129,0,0,1,234.271,272.416Z" transform="translate(-143.653 -207.672)" fill="#2e353a"/>
      <path id="Path_37117" data-name="Path 37117" d="M215.811,277.6a5.044,5.044,0,0,1-4.81-4.418.922.922,0,1,1,1.821-.284,3.15,3.15,0,0,0,3.377,2.838,2.729,2.729,0,0,0,1.864-1.23.922.922,0,1,1,1.537,1.012,4.55,4.55,0,0,1-3.117,2.043A4.64,4.64,0,0,1,215.811,277.6Z" transform="translate(-133.91 -210.357)" fill="#2e353a"/>
      <path id="Path_37118" data-name="Path 37118" d="M196.96,285.344a5.047,5.047,0,0,1-4.81-4.418.946.946,0,0,1,1.826-.279,3.151,3.151,0,0,0,3.377,2.838,2.734,2.734,0,0,0,1.864-1.235.922.922,0,0,1,1.537,1.017,4.541,4.541,0,0,1-3.117,2.039A4.728,4.728,0,0,1,196.96,285.344Z" transform="translate(-123.986 -214.555)" fill="#2e353a"/>
      <path id="Path_37119" data-name="Path 37119" d="M178.7,291.886a4.6,4.6,0,0,1-2.9-1.055,5.369,5.369,0,0,1-1.892-3.363.922.922,0,0,1,1.821-.279,3.519,3.519,0,0,0,1.235,2.209,2.663,2.663,0,0,0,4.006-.62.946.946,0,0,1,1.542,1.017,4.545,4.545,0,0,1-3.122,2.039A4.126,4.126,0,0,1,178.7,291.886Z" transform="translate(-114.368 -217.932)" fill="#2e353a"/>
      <line id="Line_318" data-name="Line 318" y1="18.414" x2="49.982" transform="translate(119.135 117.74)" fill="#fff" stroke="#2e353a" stroke-linecap="round" stroke-linejoin="round" stroke-width="0.568"/>
      <line id="Line_319" data-name="Line 319" y1="11.839" x2="32.003" transform="translate(117.82 125.852)" fill="#fff" stroke="#2e353a" stroke-linecap="round" stroke-linejoin="round" stroke-width="0.568"/>
      <path id="Path_37120" data-name="Path 37120" d="M169.18,293.45v5.709l60.18,61.561.88-4.834L169.18,293.45" transform="translate(-111.88 -221.62)" fill="#484d54" stroke="#2e353a" stroke-linecap="round" stroke-linejoin="round" stroke-width="1.136"/>
      <line id="Line_320" data-name="Line 320" x2="35.735" y2="35.731" transform="translate(58.194 76.31)" fill="#fff" stroke="#2e353a" stroke-linecap="round" stroke-linejoin="round" stroke-width="0.568"/>
      <line id="Line_321" data-name="Line 321" x2="37.263" y2="38.143" transform="translate(75.075 91.654)" fill="#fff" stroke="#2e353a" stroke-linecap="round" stroke-linejoin="round" stroke-width="0.568"/>
      <path id="Path_37121" data-name="Path 37121" d="M169.18,271.422l61.06,62.436L290.193,311.2,228.055,251.65Z" transform="translate(-111.88 -199.591)" fill="#fff" stroke="#2e353a" stroke-linecap="round" stroke-linejoin="round" stroke-width="1.136"/>
      <path id="Path_37122" data-name="Path 37122" d="M104.592,212.436,48.04,159.654l57.929-18.064,57.8,51.117Z" transform="translate(-48.04 -141.59)" fill="#484d54" stroke="#2e353a" stroke-linecap="round" stroke-linejoin="round" stroke-width="1.136"/>
      <line id="Line_322" data-name="Line 322" y1="5.156" x2="16.555" transform="translate(8.656 13.258)" fill="none" stroke="#2e353a" stroke-linecap="round" stroke-linejoin="round" stroke-width="1.211"/>
      <line id="Line_323" data-name="Line 323" y1="5.156" x2="16.555" transform="translate(11.101 15.16)" fill="none" stroke="#2e353a" stroke-linecap="round" stroke-linejoin="round" stroke-width="1.211"/>
      <path id="Path_37123" data-name="Path 37123" d="M186.721,284.909a.9.9,0,0,1-.506-.151.946.946,0,0,1-.265-1.277,3.51,3.51,0,0,0,.511-2.479,3.311,3.311,0,0,0-2.417-2.791.922.922,0,0,1,.407-1.8,5.165,5.165,0,0,1,3.836,4.309,5.35,5.35,0,0,1-.795,3.784.946.946,0,0,1-.771.4Z" transform="translate(-119.356 -212.634)" fill="#2e353a"/>
      <path id="Path_37124" data-name="Path 37124" d="M204.873,278.2a.9.9,0,0,1-.506-.151.918.918,0,0,1-.26-1.277,3.533,3.533,0,0,0,.511-2.479A3.311,3.311,0,0,0,202.2,271.5a.922.922,0,1,1,.4-1.8,5.165,5.165,0,0,1,3.836,4.309,5.35,5.35,0,0,1-.795,3.784A.946.946,0,0,1,204.873,278.2Z" transform="translate(-128.875 -209.086)" fill="#2e353a"/>
      <path id="Path_37125" data-name="Path 37125" d="M277.536,253.285a.946.946,0,0,1-.771-1.419,3.491,3.491,0,0,0,.511-2.474,3.311,3.311,0,0,0-2.417-2.8.913.913,0,0,1-.7-1.1.946.946,0,0,1,1.1-.7,5.165,5.165,0,0,1,3.836,4.309,5.331,5.331,0,0,1-.8,3.784.913.913,0,0,1-.766.393Z" transform="translate(-167.194 -195.972)" fill="#2e353a"/>
      <path id="Path_37126" data-name="Path 37126" d="M259.023,258.926a.9.9,0,0,1-.506-.151.918.918,0,0,1-.26-1.277,3.528,3.528,0,0,0,.511-2.478,3.311,3.311,0,0,0-2.417-2.791.922.922,0,1,1,.4-1.8,5.156,5.156,0,0,1,3.836,4.309,5.35,5.35,0,0,1-.795,3.784.946.946,0,0,1-.771.4Z" transform="translate(-157.412 -198.931)" fill="#2e353a"/>
      <path id="Path_37127" data-name="Path 37127" d="M242.163,265.421a.908.908,0,0,1-.506-.156.946.946,0,0,1-.265-1.277,3.5,3.5,0,0,0,.516-2.479,3.311,3.311,0,0,0-2.417-2.791.922.922,0,1,1,.4-1.8,5.165,5.165,0,0,1,3.836,4.309,5.35,5.35,0,0,1-.795,3.784A.946.946,0,0,1,242.163,265.421Z" transform="translate(-148.527 -202.351)" fill="#2e353a"/>
      <path id="Path_37128" data-name="Path 37128" d="M223.538,270.63a.946.946,0,0,1-.506-.151.918.918,0,0,1-.26-1.277,3.533,3.533,0,0,0,.511-2.479,3.311,3.311,0,0,0-2.417-2.791.946.946,0,1,1,.4-1.8,5.151,5.151,0,0,1,3.836,4.309,5.345,5.345,0,0,1-.795,3.784A.946.946,0,0,1,223.538,270.63Z" transform="translate(-138.62 -205.067)" fill="#2e353a"/>
      <line id="Line_324" data-name="Line 324" y1="0.856" x2="2.327" transform="translate(166.771 109.311)" fill="#fff" stroke="#2e353a" stroke-linecap="round" stroke-linejoin="round" stroke-width="0.568"/>
      <line id="Line_325" data-name="Line 325" y1="16.186" x2="43.828" transform="translate(120.828 110.952)" fill="#fff" stroke="#2e353a" stroke-linecap="round" stroke-linejoin="round" stroke-width="0.568" stroke-dasharray="1 4"/>
      <line id="Line_326" data-name="Line 326" y1="15.448" x2="41.828" transform="translate(122.058 104.373)" fill="#fff" stroke="#2e353a" stroke-linecap="round" stroke-linejoin="round" stroke-width="0.568" stroke-dasharray="1 4"/>
      <line id="Line_327" data-name="Line 327" y1="1.353" x2="3.661" transform="translate(115.616 120.847)" fill="#fff" stroke="#2e353a" stroke-linecap="round" stroke-linejoin="round" stroke-width="0.568"/>
      <line id="Line_328" data-name="Line 328" y1="17.827" x2="48.275" transform="translate(110.404 99.435)" fill="#fff" stroke="#2e353a" stroke-linecap="round" stroke-linejoin="round" stroke-width="0.568" stroke-dasharray="1 4"/>
      <line id="Line_329" data-name="Line 329" y1="17.827" x2="48.27" transform="translate(105.196 94.501)" fill="#fff" stroke="#2e353a" stroke-linecap="round" stroke-linejoin="round" stroke-width="0.568" stroke-dasharray="1 4"/>
      <line id="Line_330" data-name="Line 330" y1="0.747" x2="2.024" transform="translate(146.229 89.563)" fill="#fff" stroke="#2e353a" stroke-linecap="round" stroke-linejoin="round" stroke-width="0.568"/>
      <line id="Line_331" data-name="Line 331" y1="16.011" x2="43.351" transform="translate(99.983 91.379)" fill="#fff" stroke="#2e353a" stroke-linecap="round" stroke-linejoin="round" stroke-width="0.568" stroke-dasharray="1 4"/>
      <line id="Line_332" data-name="Line 332" y1="17.827" x2="48.275" transform="translate(94.771 84.625)" fill="#fff" stroke="#2e353a" stroke-linecap="round" stroke-linejoin="round" stroke-width="0.568" stroke-dasharray="1 4"/>
      <line id="Line_333" data-name="Line 333" y1="17.827" x2="48.275" transform="translate(89.558 79.691)" fill="#fff" stroke="#2e353a" stroke-linecap="round" stroke-linejoin="round" stroke-width="0.568" stroke-dasharray="1 4"/>
      <line id="Line_334" data-name="Line 334" y1="17.827" x2="48.27" transform="translate(84.351 74.753)" fill="#fff" stroke="#2e353a" stroke-linecap="round" stroke-linejoin="round" stroke-width="0.568" stroke-dasharray="1 4"/>
      <line id="Line_335" data-name="Line 335" y1="17.827" x2="48.27" transform="translate(79.138 69.815)" fill="#fff" stroke="#2e353a" stroke-linecap="round" stroke-linejoin="round" stroke-width="0.568" stroke-dasharray="1 4"/>
      <line id="Line_336" data-name="Line 336" y1="0.634" x2="1.712" transform="translate(120.488 64.877)" fill="#fff" stroke="#2e353a" stroke-linecap="round" stroke-linejoin="round" stroke-width="0.568"/>
      <line id="Line_337" data-name="Line 337" y1="16.645" x2="45.077" transform="translate(73.926 66.06)" fill="#fff" stroke="#2e353a" stroke-linecap="round" stroke-linejoin="round" stroke-width="0.568" stroke-dasharray="1 4"/>
      <line id="Line_338" data-name="Line 338" y1="12.501" x2="33.862" transform="translate(83.125 59.944)" fill="#fff" stroke="#2e353a" stroke-linecap="round" stroke-linejoin="round" stroke-width="0.568" stroke-dasharray="1 4"/>
      <line id="Line_339" data-name="Line 339" y1="3.443" x2="9.323" transform="translate(68.718 74.328)" fill="#fff" stroke="#2e353a" stroke-linecap="round" stroke-linejoin="round" stroke-width="0.568"/>
    </g>
    <g id="freepik--Glasses--inject-1--inject-33" transform="translate(64.38 17.559)">
      <path id="Path_37132" data-name="Path 37132" d="M188.889,166s7.544-9.507,10.1-12.908,4.4-6.017,4.4-6.017,1.362,1.074.946,2.294-9.389,13.476-11.385,16.588-1.717,7.052-1.57,8.41S187.57,171.293,188.889,166Z" transform="translate(-186.505 -120.171)" fill="#fff" stroke="#2e353a" stroke-linecap="round" stroke-linejoin="round" stroke-width="1.273"/>
      <path id="Path_37133" data-name="Path 37133" d="M219.611,117.1s4.7-6.532,8.183-11.972,8.576-13.608,9.786-14.7,1.5,1.75,1.112,3.652-4.56,7.209-7.374,11.56-4.555,7.483-6.977,10.34-2.28,2.994-3.784,3.41S219.346,118.32,219.611,117.1Z" transform="translate(-202.725 -90.19)" fill="#2e353a" stroke="#2e353a" stroke-linecap="round" stroke-linejoin="round" stroke-width="1.273"/>
      <path id="Path_37134" data-name="Path 37134" d="M184.911,174.487c.52-3.524,1.7-10.032,4.389-12.08s10.836-.473,11.513-.35,11.395,2.5,14.663,4.508,5.463,7.819,6.3,11.182a94.921,94.921,0,0,0,2.9,9.46s2.72,1.2,4.21,1.055,3.472-7.067,7.644-11.158,6.338-4.65,10.945-4.257,22.108,5.137,23.882,6.882,2.881,5.676,2.5,8.514a29.56,29.56,0,0,0,.175,6.5c0,.539,1.641,2.294,1.244,3.784s-.643,4.73-1.859,5.16-10.16.2-16.8-.7-15.879-4.91-21.995-7.71-9.1-4.006-13.57-3.973-13.135.222-21.138-1.622-13.443-5.2-14.947-6.674S184.4,178.016,184.911,174.487ZM232.836,191.1c2.19,3.24,11.016,6.433,15.765,7.752s16.139,3.685,19.109,2.043,4.531-11.409,4.257-14.8a10.947,10.947,0,0,0-1.66-5.269c-5.851-3.618-24.161-7.426-27.945-5.908s-7.4,6.414-8.732,10.349S232.836,191.1,232.836,191.1ZM194.6,185.532c5.846,3.481,15.065,4.5,18.721,4.617s7.166-1.807,7.275-6.007-2.1-11.229-2.933-13.244-3.543-3.226-3.543-3.226c-3.666-1.736-18.863-5.562-21.436-5.137s-4.825,4.333-5.35,10.042,1.419,9.474,7.265,12.956Z" transform="translate(-184.15 -127.698)" fill="#2e353a" stroke="#2e353a" stroke-linecap="round" stroke-linejoin="round" stroke-width="1.273"/>
      <path id="Path_37135" data-name="Path 37135" d="M372.461,213.286s1.5,2.294,2.578.662,14.923-17.165,14.923-17.165.539-.142.411.946-14.625,20.552-15.164,21.5-2.838,1.239-3.377.837S372.461,213.286,372.461,213.286Z" transform="translate(-282.983 -146.361)" fill="#fff" stroke="#2e353a" stroke-linecap="round" stroke-linejoin="round" stroke-width="1.273"/>
      <path id="Path_37136" data-name="Path 37136" d="M408.32,164.3a44.35,44.35,0,0,0,2.138-4.347c1.466-3.259,2.365-9.63,2.6-16.271s.473-10.567,1.7-9.356.175,7.724-.052,12.866-1.826,10.307-2.214,13.022c-.293,2.048-1.864,5.293-2.947,5.3S408.6,165.247,408.32,164.3Z" transform="translate(-302.287 -113.335)" fill="#2e353a" stroke="#2e353a" stroke-linecap="round" stroke-linejoin="round" stroke-width="1.273"/>
    </g>
    <g id="freepik--Pencils--inject-1--inject-33" transform="translate(9.13 88.807)">
      <path id="Path_37137" data-name="Path 37137" d="M145.953,334.495l5.955,6.74-8.855-2-63-38.545,2.9-4.744Z" transform="translate(-74.039 -269.873)" fill="#fff" stroke="#2e353a" stroke-linecap="round" stroke-linejoin="round" stroke-width="1.436"/>
      <path id="Path_37138" data-name="Path 37138" d="M145.953,334.495l5.955,6.74-8.855-2-63-38.545,2.9-4.744Z" transform="translate(-74.039 -269.873)" fill="#484d54" stroke="#2e353a" stroke-linecap="round" stroke-linejoin="round" stroke-width="1.436" opacity="0.5"/>
      <rect id="Rectangle_4210" data-name="Rectangle 4210" width="3.032" height="73.859" transform="translate(6.672 29.743) rotate(-58.54)" fill="none" stroke="#2e353a" stroke-linecap="round" stroke-linejoin="round" stroke-width="0.718"/>
      <path id="Path_37139" data-name="Path 37139" d="M216.18,377.47l-2.9,4.735,8.84,1.991Z" transform="translate(-144.251 -312.834)" fill="#fff" stroke="#2e353a" stroke-linecap="round" stroke-linejoin="round" stroke-width="1.436"/>
      <path id="Path_37140" data-name="Path 37140" d="M222.62,386.945l4.423,1-2.97-3.363Z" transform="translate(-149.173 -316.581)" fill="#484d54" stroke="#2e353a" stroke-linecap="round" stroke-linejoin="round" stroke-width="1.436"/>
      <path id="Path_37141" data-name="Path 37141" d="M67.753,290.369h0a2.777,2.777,0,0,0,.918,3.822l4.683,2.866,2.9-4.73-4.683-2.866a2.781,2.781,0,0,0-3.822.908Z" transform="translate(-67.342 -266.237)" fill="#fff" stroke="#2e353a" stroke-linecap="round" stroke-linejoin="round" stroke-width="1.436"/>
      <path id="Path_37142" data-name="Path 37142" d="M67.753,290.369h0a2.777,2.777,0,0,0,.918,3.822l2.242,1.372,2.9-4.73-2.242-1.372a2.781,2.781,0,0,0-3.822.908Z" transform="translate(-67.342 -266.237)" fill="#2e353a" stroke="#2e353a" stroke-linecap="round" stroke-linejoin="round" stroke-width="1.436"/>
      <path id="Path_37143" data-name="Path 37143" d="M325.014,242.367l-1.66-1.168a2.086,2.086,0,0,0-1.788-.293c-1.755.511-5.066,1.812-6.012,2.838-1.23,1.268-1.618,3.562-1.026,4.64s3.018,2.455,3.018,2.455l10.165-6.187Z" transform="translate(-197.465 -240.82)" fill="#fff" stroke="#2e353a" stroke-miterlimit="10" stroke-width="0.947"/>
      <path id="Path_37144" data-name="Path 37144" d="M325.014,242.367l-1.66-1.168a2.086,2.086,0,0,0-1.788-.293c-1.755.511-5.066,1.812-6.012,2.838-1.23,1.268-1.618,3.562-1.026,4.64s3.018,2.455,3.018,2.455l10.165-6.187Z" transform="translate(-197.465 -240.82)" fill="#484d54" stroke="#2e353a" stroke-miterlimit="10" stroke-width="0.947" opacity="0.5"/>
      <path id="Path_37145" data-name="Path 37145" d="M327.972,243.056l-8.041,3.675s-2.72,1.537-1.859,6.244l47.087,34.671s1.637,1.192,4.593.184a11.514,11.514,0,0,0,6.622-7.44,3.6,3.6,0,0,0-1.8-4.2c-.383-.326-45.011-32.784-45.011-32.784A2.365,2.365,0,0,0,327.972,243.056Z" transform="translate(-199.387 -241.987)" fill="#fff" stroke="#2e353a" stroke-miterlimit="10" stroke-width="0.947"/>
      <path id="Path_37146" data-name="Path 37146" d="M327.972,243.056l-8.041,3.675s-2.72,1.537-1.859,6.244l47.087,34.671s1.637,1.192,4.593.184a11.514,11.514,0,0,0,6.622-7.44,3.6,3.6,0,0,0-1.8-4.2c-.383-.326-45.011-32.784-45.011-32.784A2.365,2.365,0,0,0,327.972,243.056Z" transform="translate(-199.387 -241.987)" fill="#484d54" stroke="#2e353a" stroke-miterlimit="10" stroke-width="0.947" opacity="0.5"/>
      <path id="Path_37147" data-name="Path 37147" d="M425.157,322.969c-2.966,2.767-6.556,3.741-8.041,2.171s-.26-5.094,2.706-7.866,6.556-3.741,8.041-2.171S428.118,320.2,425.157,322.969Z" transform="translate(-251.339 -279.571)" fill="#fff" stroke="#2e353a" stroke-miterlimit="10" stroke-width="0.947"/>
      <path id="Path_37148" data-name="Path 37148" d="M425.157,322.969c-2.966,2.767-6.556,3.741-8.041,2.171s-.26-5.094,2.706-7.866,6.556-3.741,8.041-2.171S428.118,320.2,425.157,322.969Z" transform="translate(-251.339 -279.571)" fill="#484d54" stroke="#2e353a" stroke-miterlimit="10" stroke-width="0.947"/>
      <path id="Path_37149" data-name="Path 37149" d="M329.557,243.407a2.365,2.365,0,0,0-1.585-.35l-8.041,3.675s-2.72,1.537-1.859,6.244l32.561,23.976a6.071,6.071,0,0,1,1.055-4.645c1.154-1.793,6.338-4.683,9.138-6.149C347.574,256.514,329.557,243.407,329.557,243.407Z" transform="translate(-199.387 -241.988)" fill="#2e353a" stroke="#2e353a" stroke-linecap="round" stroke-linejoin="round" stroke-width="1.273"/>
      <path id="Path_37150" data-name="Path 37150" d="M401.5,301.045l-17.2-12.464a1.892,1.892,0,0,1,.184-3.183l2.663-1.452a1.892,1.892,0,0,1,2.006.128l18.182,13.168" transform="translate(-233.964 -263.427)" fill="#fff" stroke="#2e353a" stroke-miterlimit="10" stroke-width="0.947"/>
      <path id="Path_37151" data-name="Path 37151" d="M401.5,301.045l-17.2-12.464a1.892,1.892,0,0,1,.184-3.183l2.663-1.452a1.892,1.892,0,0,1,2.006.128l18.182,13.168" transform="translate(-233.964 -263.427)" fill="#484d54" stroke="#2e353a" stroke-miterlimit="10" stroke-width="0.947" opacity="0.5"/>
    </g>
  </g>
</svg>
