<svg id="question-mark-round-line-icon" xmlns="http://www.w3.org/2000/svg" width="18.134" height="18.135" viewBox="0 0 18.134 18.135">
  <path id="Path_40369" data-name="Path 40369" d="M16.192,9.067h0A7.137,7.137,0,0,0,9.071,1.939v0H9.065v0A7.137,7.137,0,0,0,1.939,9.064h0v0h0A7.125,7.125,0,0,0,9.062,16.2v0h.006v0a7.128,7.128,0,0,0,7.123-7.129Zm-6.1,1.833H7.653v-.243a3.023,3.023,0,0,1,.139-1.011,2.243,2.243,0,0,1,.421-.71,13.412,13.412,0,0,1,1.256-1.13c.345-.283.519-.542.519-.775a.724.724,0,0,0-.208-.55.9.9,0,0,0-.635-.2,1.015,1.015,0,0,0-.753.3,1.763,1.763,0,0,0-.381,1.054l-2.493-.31a3.4,3.4,0,0,1,1-2.211A3.721,3.721,0,0,1,9.185,4.28a3.979,3.979,0,0,1,2.261.583,2.427,2.427,0,0,1,1.169,2.1,2.051,2.051,0,0,1-.3,1.055A5.138,5.138,0,0,1,11.08,9.26a3.368,3.368,0,0,0-.818.826,1.692,1.692,0,0,0-.171.813Zm-2.525.649h2.615v2.3H7.566v-2.3ZM18.129,9.065h0a9.025,9.025,0,0,1-1.907,5.561,9.209,9.209,0,0,1-.75.85,9.041,9.041,0,0,1-6.409,2.653v0H9.062v0A9.057,9.057,0,0,1,0,9.07H0v0H0A9.054,9.054,0,0,1,9.065,0V0h.006V0a9.054,9.054,0,0,1,9.058,9.061Z"/>
</svg>
