<svg id="success-green-check-mark-icon" xmlns="http://www.w3.org/2000/svg" width="18.134" height="18.132" viewBox="0 0 18.134 18.132">
  <path id="Path_40366" data-name="Path 40366" d="M9.066,0a9.037,9.037,0,0,1,3.926.892c-.487.385-.938.755-1.359,1.111a7.506,7.506,0,1,0,4.809,5.621q.585-.762,1.2-1.517A9.07,9.07,0,1,1,9.066,0ZM4.843,7.577l2.212-.029.165.043a8.532,8.532,0,0,1,1.26.884,8.653,8.653,0,0,1,.812.786,31.9,31.9,0,0,1,2.532-3.527A30.214,30.214,0,0,1,14.93,2.5l.216-.083h2.414l-.487.541A51.581,51.581,0,0,0,12.994,8.11,50.208,50.208,0,0,0,9.7,13.6l-.3.585-.279-.6a14.472,14.472,0,0,0-1.865-3.024A12.214,12.214,0,0,0,4.662,8.168l.18-.591Z"/>
</svg>
